<?xml version="1.0" encoding="UTF-8"?>
<svg version="1.1" xmlns="http://www.w3.org/2000/svg" width="512" height="512">
<path d="M0 0 C2.6034857 1.9128341 5.08181264 3.90458956 7.5234375 6.01904297 C10.09977127 8.21137256 12.80866458 10.22681328 15.50390625 12.26953125 C16.59722592 13.11084751 17.68967128 13.95330115 18.78125 14.796875 C21.5003399 16.89575075 24.22182347 18.99147922 26.94506836 21.08496094 C28.02328607 21.91428425 29.10092621 22.74435903 30.17797852 23.57519531 C32.94941495 25.71190368 35.72981761 27.8350358 38.52734375 29.9375 C56.77456256 43.69150294 56.77456256 43.69150294 58.54296875 55.51953125 C58.69507813 56.65390625 58.8471875 57.78828125 59.00390625 58.95703125 C59.92169325 65.46429156 61.63947598 69.09178793 66.50390625 73.58203125 C71.39359555 76.92133126 75.1169772 77.84491306 81.06640625 77.33203125 C87.20216857 75.17315191 91.91444655 71.74547836 97.06640625 67.83203125 C97.89366211 67.21561768 98.72091797 66.5992041 99.57324219 65.96411133 C103.5384612 63.00772879 107.47744747 60.01979831 111.39453125 57 C112.0596875 56.4946875 112.72484375 55.989375 113.41015625 55.46875 C114.64318554 54.53134454 115.86784083 53.58277554 117.08203125 52.62109375 C121.0283501 49.63394962 124.13368403 48.56664348 129.06640625 48.33203125 C136.40219024 50.13137449 141.41439829 55.58543319 146.06640625 61.33203125 C147.70821827 64.35642182 147.89085381 65.76246501 148.06640625 69.33203125 C146.07228917 75.45316718 142.78324488 79.22782613 138.31640625 83.76953125 C137.0434361 85.0968562 135.77128989 86.42497189 134.5 87.75390625 C133.89784668 88.37845703 133.29569336 89.00300781 132.67529297 89.64648438 C130.85191457 91.55674302 129.09986111 93.51665957 127.37890625 95.51953125 C124.08481455 99.3446604 120.67059975 103.05582161 117.25317383 106.77026367 C113.59964631 110.74338902 109.98437235 114.74918537 106.3828125 118.76953125 C104.7145551 120.61502342 103.03713517 122.44743694 101.34375 124.26953125 C88.13297549 138.49213668 76.35917146 151.59510027 76.7578125 171.90234375 C77.93892918 185.02918486 84.53022475 195.72860386 92.31640625 206.01953125 C98.08080993 213.81711607 99.86359275 220.70994433 99.06640625 230.33203125 C98.24381202 235.01104497 97.19239551 239.60319333 96.03295898 244.20898438 C95.50613894 246.32307163 95.01513014 248.44346522 94.52539062 250.56640625 C91.81865954 261.77946762 87.65558986 270.56901257 77.765625 277.078125 C67.86281248 281.67841852 58.38232358 281.7784629 47.61523438 281.859375 C46.45830078 281.88128906 45.30136719 281.90320313 44.109375 281.92578125 C43.0680542 281.93287109 42.0267334 281.93996094 40.95385742 281.94726562 C37.61489447 282.39219719 35.76213693 283.33827411 33.06640625 285.33203125 C30.96332677 288.48665047 30.49998824 290.53612477 29.75390625 294.20703125 C28.51437937 299.26283548 27.60022689 302.3751917 23.06640625 305.33203125 C19.06800816 306.74569083 14.96693668 307.22746729 10.76953125 307.71484375 C3.88585636 308.51841572 3.88585636 308.51841572 -2.24609375 311.51953125 C-4.50189736 315.27920394 -4.64640173 316.9839026 -3.93359375 321.33203125 C-2.74423105 323.84199667 -1.45813263 326.22870128 -0.02734375 328.609375 C2.22916541 334.22647102 1.46850095 338.8101514 -0.65625 344.27734375 C-1.42045022 346.01093391 -2.20077583 347.73749462 -2.99609375 349.45703125 C-3.55200195 350.75833984 -3.55200195 350.75833984 -4.11914062 352.0859375 C-7.47110167 359.48841954 -11.94020201 364.54828586 -19.62109375 367.58203125 C-21.05900609 368.16434744 -22.49652337 368.74764034 -23.93359375 369.33203125 C-24.64128906 369.615625 -25.34898437 369.89921875 -26.078125 370.19140625 C-28.42906529 371.63661586 -28.89431201 372.7940428 -29.93359375 375.33203125 C-30.34738281 376.22019531 -30.76117188 377.10835938 -31.1875 378.0234375 C-31.61933594 378.97089844 -32.05117187 379.91835938 -32.49609375 380.89453125 C-32.93050781 381.84457031 -33.36492187 382.79460937 -33.8125 383.7734375 C-36.06409616 388.91209772 -37.22098345 393.89669724 -35.203125 399.28125 C-32.65458148 403.81710544 -29.30560689 406.84060289 -25.37109375 410.20703125 C-19.22396873 415.60854812 -16.41365962 420.42378436 -15.61767578 428.56201172 C-15.67757194 435.39229794 -18.35814019 441.85883938 -20.5 448.26953125 C-20.9769533 449.71851161 -21.45342092 451.16765192 -21.9294281 452.61694336 C-22.92754765 455.64554299 -23.9349792 458.67085281 -24.94848633 461.69433594 C-26.23860238 465.54711698 -27.49976845 469.40868302 -28.75334263 473.27348328 C-29.72895309 476.26712496 -30.72266264 479.25452878 -31.7214489 482.24050903 C-32.1936123 483.66086919 -32.65966897 485.08327602 -33.11917305 486.50778198 C-36.18041935 495.962459 -39.36826486 503.73597258 -47.98046875 509.30078125 C-57.88861503 512.76076884 -69.22775933 509.98815362 -79.24609375 508.14453125 C-80.34276367 507.94859375 -81.43943359 507.75265625 -82.56933594 507.55078125 C-92.98809776 505.4954007 -102.2766475 501.95419302 -108.93359375 493.33203125 C-111.80579703 488.57713374 -114.05746797 483.89809428 -114.06640625 478.26953125 C-114.06930664 477.08278809 -114.06930664 477.08278809 -114.07226562 475.87207031 C-114.06775391 475.03385742 -114.06324219 474.19564453 -114.05859375 473.33203125 C-114.05666016 472.47061523 -114.05472656 471.60919922 -114.05273438 470.72167969 C-114.02284994 466.31372533 -113.89891436 461.96933981 -113.43359375 457.58203125 C-112.98844271 453.3099101 -112.73670664 449.06433612 -112.62109375 444.76953125 C-112.58371094 443.59261719 -112.54632813 442.41570312 -112.5078125 441.203125 C-113.62301932 431.06395108 -119.39939581 423.07584102 -124.93359375 414.76953125 C-135.36501059 399.05626476 -139.62941967 388.82141039 -135.86437988 369.9513855 C-135.52294315 368.28918944 -135.18142785 366.62700953 -134.83984375 364.96484375 C-134.48019068 363.15510059 -134.12213981 361.34503845 -133.76550293 359.53469849 C-132.95744859 355.44354899 -132.14088464 351.35420753 -131.31933594 347.26574707 C-129.79739213 339.67413172 -128.31288648 332.07529605 -126.83203125 324.47558594 C-126.55768223 323.06828866 -126.28332917 321.66099217 -126.00897217 320.25369644 C-125.58872253 318.09774565 -125.16853544 315.94178273 -124.74847794 313.7857945 C-123.31059139 306.40572976 -121.86934512 299.02632265 -120.4275589 291.64701891 C-119.98735431 289.39369267 -119.54733982 287.14032938 -119.10736084 284.88695908 C-117.60952874 277.21702671 -116.10864365 269.54770701 -114.60253906 261.87939453 C-113.26378409 255.06301817 -111.93034416 248.24562611 -110.6030879 241.42700112 C-109.90738908 237.85400769 -109.20908248 234.28157163 -108.50416565 230.71038437 C-107.72575918 226.76665191 -106.95908435 222.82072607 -106.19335938 218.87451172 C-105.96280853 217.71625885 -105.73225769 216.55800598 -105.49472046 215.36465454 C-104.09598811 208.08907088 -103.00006021 201.22139468 -104.75976562 193.89477539 C-104.93995239 193.12359879 -105.12013916 192.35242218 -105.30578613 191.55787659 C-105.50265015 190.75244919 -105.69951416 189.94702179 -105.90234375 189.1171875 C-106.31250216 187.36132863 -106.72265834 185.60546924 -107.1328125 183.84960938 C-107.78201851 181.11955824 -108.43459879 178.39033608 -109.08837891 175.66137695 C-109.72209745 173.00268097 -110.34378625 170.34136475 -110.96484375 167.6796875 C-111.16170776 166.87628433 -111.35857178 166.07288116 -111.56140137 165.24513245 C-114.02450024 154.66029133 -112.64421266 147.19816132 -108.9375 137.015625 C-108.51741165 135.82647995 -108.0973233 134.6373349 -107.664505 133.41215515 C-106.52479841 130.19423134 -105.37290688 126.98119838 -104.21517181 123.7697525 C-103.00518259 120.40398974 -101.81118684 117.03256408 -100.61572266 113.66162109 C-98.6688361 108.17734439 -96.71327139 102.69624128 -94.75146484 97.21728516 C-92.19271401 90.06917435 -89.66087672 82.91178214 -87.140625 75.75 C-84.01726622 66.87668086 -80.87618927 58.00993565 -77.71495056 49.15003967 C-75.92854119 44.14015281 -74.15791415 39.12521418 -72.40542603 34.10336304 C-71.40414504 31.24224612 -70.39047538 28.38564385 -69.37310791 25.5302124 C-68.71054082 23.65816859 -68.06366921 21.78059221 -67.41748047 19.90283203 C-67.0257666 18.81212402 -66.63405273 17.72141602 -66.23046875 16.59765625 C-65.90401367 15.66727539 -65.57755859 14.73689453 -65.24121094 13.77832031 C-63.20115756 9.96179029 -60.55674504 7.8941336 -56.48022461 6.48242188 C-55.20223999 6.23782227 -55.20223999 6.23782227 -53.8984375 5.98828125 C-52.93389648 5.79580811 -51.96935547 5.60333496 -50.97558594 5.4050293 C-49.95110352 5.21593994 -48.92662109 5.02685059 -47.87109375 4.83203125 C-46.2782959 4.5222937 -46.2782959 4.5222937 -44.65332031 4.20629883 C-42.4708352 3.78189052 -40.2873914 3.36238308 -38.10302734 2.94775391 C-35.16844136 2.37765486 -32.24842148 1.76376573 -29.328125 1.125 C-6.68801581 -3.80264015 -6.68801581 -3.80264015 0 0 Z " fill="#EFEDED" transform="translate(250.93359375,1.66796875)"/>
<path d="M0 0 C2.6034857 1.9128341 5.08181264 3.90458956 7.5234375 6.01904297 C10.09977127 8.21137256 12.80866458 10.22681328 15.50390625 12.26953125 C16.59722592 13.11084751 17.68967128 13.95330115 18.78125 14.796875 C21.5003399 16.89575075 24.22182347 18.99147922 26.94506836 21.08496094 C28.02328607 21.91428425 29.10092621 22.74435903 30.17797852 23.57519531 C32.94941495 25.71190368 35.72981761 27.8350358 38.52734375 29.9375 C56.77456256 43.69150294 56.77456256 43.69150294 58.54296875 55.51953125 C58.69507813 56.65390625 58.8471875 57.78828125 59.00390625 58.95703125 C59.92169325 65.46429156 61.63947598 69.09178793 66.50390625 73.58203125 C71.39359555 76.92133126 75.1169772 77.84491306 81.06640625 77.33203125 C87.20216857 75.17315191 91.91444655 71.74547836 97.06640625 67.83203125 C97.89366211 67.21561768 98.72091797 66.5992041 99.57324219 65.96411133 C103.5384612 63.00772879 107.47744747 60.01979831 111.39453125 57 C112.0596875 56.4946875 112.72484375 55.989375 113.41015625 55.46875 C114.64318554 54.53134454 115.86784083 53.58277554 117.08203125 52.62109375 C121.0283501 49.63394962 124.13368403 48.56664348 129.06640625 48.33203125 C136.40219024 50.13137449 141.41439829 55.58543319 146.06640625 61.33203125 C147.70821827 64.35642182 147.89085381 65.76246501 148.06640625 69.33203125 C146.07228917 75.45316718 142.78324488 79.22782613 138.31640625 83.76953125 C137.0434361 85.0968562 135.77128989 86.42497189 134.5 87.75390625 C133.89784668 88.37845703 133.29569336 89.00300781 132.67529297 89.64648438 C130.85191457 91.55674302 129.09986111 93.51665957 127.37890625 95.51953125 C124.08481455 99.3446604 120.67059975 103.05582161 117.25317383 106.77026367 C113.59964631 110.74338902 109.98437235 114.74918537 106.3828125 118.76953125 C104.7145551 120.61502342 103.03713517 122.44743694 101.34375 124.26953125 C87.85960659 138.78644327 76.77137065 151.454279 76.8984375 171.98828125 C77.08914716 175.78473403 77.59492048 179.56014511 78.06640625 183.33203125 C17.01640625 183.33203125 -44.03359375 183.33203125 -106.93359375 183.33203125 C-114.38684542 152.27681595 -114.38684542 152.27681595 -111.27563477 143.56420898 C-110.90943527 142.51679031 -110.54323578 141.46937164 -110.16593933 140.39021301 C-109.76055435 139.27659897 -109.35516937 138.16298492 -108.9375 137.015625 C-108.51741165 135.82647995 -108.0973233 134.6373349 -107.664505 133.41215515 C-106.52479841 130.19423134 -105.37290688 126.98119838 -104.21517181 123.7697525 C-103.00518259 120.40398974 -101.81118684 117.03256408 -100.61572266 113.66162109 C-98.6688361 108.17734439 -96.71327139 102.69624128 -94.75146484 97.21728516 C-92.19271401 90.06917435 -89.66087672 82.91178214 -87.140625 75.75 C-84.01726622 66.87668086 -80.87618927 58.00993565 -77.71495056 49.15003967 C-75.92854119 44.14015281 -74.15791415 39.12521418 -72.40542603 34.10336304 C-71.40414504 31.24224612 -70.39047538 28.38564385 -69.37310791 25.5302124 C-68.71054082 23.65816859 -68.06366921 21.78059221 -67.41748047 19.90283203 C-67.0257666 18.81212402 -66.63405273 17.72141602 -66.23046875 16.59765625 C-65.74078613 15.20208496 -65.74078613 15.20208496 -65.24121094 13.77832031 C-63.20115756 9.96179029 -60.55674504 7.8941336 -56.48022461 6.48242188 C-55.20223999 6.23782227 -55.20223999 6.23782227 -53.8984375 5.98828125 C-52.93389648 5.79580811 -51.96935547 5.60333496 -50.97558594 5.4050293 C-49.95110352 5.21593994 -48.92662109 5.02685059 -47.87109375 4.83203125 C-46.2782959 4.5222937 -46.2782959 4.5222937 -44.65332031 4.20629883 C-42.4708352 3.78189052 -40.2873914 3.36238308 -38.10302734 2.94775391 C-35.16844136 2.37765486 -32.24842148 1.76376573 -29.328125 1.125 C-6.68801581 -3.80264015 -6.68801581 -3.80264015 0 0 Z " fill="#95C5FE" transform="translate(250.93359375,1.66796875)"/>
<path d="M0 0 C41.25 0 82.5 0 125 0 C128.1046131 6.20922619 129.2539716 9.92232511 127.25732422 16.41503906 C126.2424286 19.03546212 125.11706837 21.57468524 123.9375 24.125 C123.56689453 24.99253906 123.19628906 25.86007812 122.81445312 26.75390625 C119.46249208 34.15638829 114.99339174 39.21625461 107.3125 42.25 C105.87458766 42.83231619 104.43707038 43.41560909 103 44 C102.29230469 44.28359375 101.58460938 44.5671875 100.85546875 44.859375 C98.50452846 46.30458461 98.03928174 47.46201155 97 50 C96.58621094 50.88816406 96.17242187 51.77632813 95.74609375 52.69140625 C95.09833984 54.11259766 95.09833984 54.11259766 94.4375 55.5625 C93.78587891 56.98755859 93.78587891 56.98755859 93.12109375 58.44140625 C90.86949759 63.58006647 89.7126103 68.56466599 91.73046875 73.94921875 C94.27901227 78.48507419 97.62798686 81.50857164 101.5625 84.875 C107.70962502 90.27651687 110.51993413 95.09175311 111.31591797 103.22998047 C111.25602181 110.06026669 108.57545356 116.52680813 106.43359375 122.9375 C105.95664045 124.38648036 105.48017283 125.83562067 105.00416565 127.28491211 C104.0060461 130.31351174 102.99861455 133.33882156 101.98510742 136.36230469 C100.69499137 140.21508573 99.4338253 144.07665177 98.18025112 147.94145203 C97.20464066 150.93509371 96.21093111 153.92249753 95.21214485 156.90847778 C94.73998145 158.32883794 94.27392478 159.75124477 93.8144207 161.17575073 C90.7531744 170.63042775 87.56532889 178.40394133 78.953125 183.96875 C69.04497872 187.42873759 57.70583442 184.65612237 47.6875 182.8125 C46.59083008 182.6165625 45.49416016 182.420625 44.36425781 182.21875 C33.94549599 180.16336945 24.65694625 176.62216177 18 168 C15.12779672 163.24510249 12.87612578 158.56606303 12.8671875 152.9375 C12.86428711 151.75075684 12.86428711 151.75075684 12.86132812 150.54003906 C12.86583984 149.70182617 12.87035156 148.86361328 12.875 148 C12.87693359 147.13858398 12.87886719 146.27716797 12.88085938 145.38964844 C12.91074381 140.98169408 13.03467939 136.63730856 13.5 132.25 C13.94515104 127.97787885 14.19688711 123.73230487 14.3125 119.4375 C14.34988281 118.26058594 14.38726562 117.08367187 14.42578125 115.87109375 C13.31057443 105.73191983 7.53419794 97.74380977 2 89.4375 C-9.3496787 72.34101841 -12.40675729 62.01545205 -8.390625 41.8359375 C-8.0107742 39.97388536 -7.63056408 38.11190649 -7.25 36.25 C-6.88402852 34.40392048 -6.51943573 32.55756709 -6.15625 30.7109375 C-5.47618482 27.26680022 -4.78885461 23.8243287 -4.09082031 20.38378906 C-2.71466615 13.5917229 -1.35909986 6.79549929 0 0 Z " fill="#95C5FE" transform="translate(124,327)"/>
<path d="M0 0 C10.56 0 21.12 0 32 0 C34.71314294 6.78285736 34.88016426 11.26194112 32.27734375 17.9453125 C31.51314353 19.67890266 30.73281792 21.40546337 29.9375 23.125 C29.56689453 23.99253906 29.19628906 24.86007812 28.81445312 25.75390625 C25.46249208 33.15638829 20.99339174 38.21625461 13.3125 41.25 C11.87458766 41.83231619 10.43707038 42.41560909 9 43 C8.29230469 43.28359375 7.58460938 43.5671875 6.85546875 43.859375 C4.50452846 45.30458461 4.03928174 46.46201155 3 49 C2.58621094 49.88816406 2.17242187 50.77632813 1.74609375 51.69140625 C1.31425781 52.63886719 0.88242188 53.58632813 0.4375 54.5625 C0.00308594 55.51253906 -0.43132812 56.46257812 -0.87890625 57.44140625 C-3.13050241 62.58006647 -4.2873897 67.56466599 -2.26953125 72.94921875 C0.27901227 77.48507419 3.62798686 80.50857164 7.5625 83.875 C13.70962502 89.27651687 16.51993413 94.09175311 17.31591797 102.22998047 C17.25602181 109.06026669 14.57545356 115.52680813 12.43359375 121.9375 C11.95664045 123.38648036 11.48017283 124.83562067 11.00416565 126.28491211 C10.0060461 129.31351174 8.99861455 132.33882156 7.98510742 135.36230469 C6.69499137 139.21508573 5.4338253 143.07665177 4.18025112 146.94145203 C3.20464066 149.93509371 2.21093111 152.92249753 1.21214485 155.90847778 C0.73998145 157.32883794 0.27392478 158.75124477 -0.1855793 160.17575073 C-3.2477892 169.63340385 -6.45525526 177.32524761 -14.98828125 182.98046875 C-24.07231682 186.0556092 -34.84406295 184.13194376 -44 182 C-42.93473728 179.60315888 -41.87861197 177.86399811 -40.12011719 175.89379883 C-37.44847582 172.24721141 -36.22480766 168.65294893 -34.828125 164.38671875 C-34.54427948 163.54801743 -34.26043396 162.7093161 -33.96798706 161.84519958 C-33.05161752 159.1293227 -32.15020326 156.4087739 -31.25 153.6875 C-30.62554243 151.81926284 -30.00037723 149.95126206 -29.37451172 148.08349609 C-28.4428573 145.30100589 -27.51253539 142.51811546 -26.58700562 139.73358154 C-24.87445436 134.58400396 -23.12039066 129.45395749 -21.3046875 124.33984375 C-20.92795898 123.26452393 -20.55123047 122.1892041 -20.16308594 121.08129883 C-19.4989831 119.19004266 -18.82360103 117.30268563 -18.13378906 115.4206543 C-15.63317818 108.17599151 -14.49077164 100.35262008 -17.25 93 C-19.77666721 88.53468995 -23.77572374 85.28550646 -27.67089844 82.03125 C-31.92071474 78.41529554 -34.35630649 74.98524525 -35.5390625 69.5 C-35.86136978 60.12378832 -32.03078636 51.81409707 -26.0703125 44.6953125 C-22.20159873 41.07519078 -18.18184022 38.90793499 -13.17578125 37.21484375 C-5.71882052 33.05126245 -1.48541619 22.85558402 1 15 C1.71347359 9.74465798 1.68125899 5.04377696 0 0 Z " fill="#73B7FF" transform="translate(218,328)"/>
<path d="M0 0 C10.56 0 21.12 0 32 0 C34.31 4.62 36.62 9.24 39 14 C40.71363392 16.5486674 42.36572008 18.92030977 44.25 21.3125 C50.51564442 29.73393896 52.85089562 36.52667151 52 47 C51.17816942 51.67917261 50.12599275 56.27114824 48.96655273 60.87695312 C48.43973269 62.99104038 47.94872389 65.11143397 47.45898438 67.234375 C44.75225329 78.44743637 40.58918361 87.23698132 30.69921875 93.74609375 C20.79640623 98.34638727 11.31591733 98.44643165 0.54882812 98.52734375 C-0.60810547 98.54925781 -1.76503906 98.57117188 -2.95703125 98.59375 C-3.99835205 98.60083984 -5.03967285 98.60792969 -6.11254883 98.61523438 C-9.45151178 99.06016594 -11.30426932 100.00624286 -14 102 C-16.10307948 105.15461922 -16.56641801 107.20409352 -17.3125 110.875 C-18.55202688 115.93080423 -19.46617936 119.04316045 -24 122 C-27.99839809 123.41365958 -32.09946957 123.89543604 -36.296875 124.3828125 C-43.18054989 125.18638447 -43.18054989 125.18638447 -49.3125 128.1875 C-51.45925779 131.76542965 -51.52320903 133.88907195 -51 138 C-50.01 139.98 -50.01 139.98 -49 142 C-59.56 142 -70.12 142 -81 142 C-83.34343932 137.31312136 -83.69267074 134.13655833 -83 129 C-77.64935066 117.60079054 -65.14548226 111.7426219 -54 107.4375 C-50.38278277 105.70425008 -49.00154204 104.48416578 -47 101 C-46.42060964 98.46985646 -45.98876134 95.93375108 -45.5546875 93.375 C-44.63424981 89.43397103 -42.63127919 87.03344013 -39.25463867 84.89428711 C-36.34751328 83.74119557 -33.92638925 83.7265978 -30.80078125 83.69140625 C-28.98610352 83.65370117 -28.98610352 83.65370117 -27.13476562 83.61523438 C-24.60616734 83.58034825 -22.0775169 83.54904144 -19.54882812 83.52148438 C-9.27903416 83.2983463 -0.08919322 81.76955788 8 75 C16.54878944 65.9068301 19.81389226 51.78984084 19.5871582 39.58862305 C18.9923194 29.34699554 13.22879405 22.86822455 7.16015625 15.046875 C0 4.94755877 0 4.94755877 0 0 Z " fill="#E3E0E0" transform="translate(298,185)"/>
<path d="M0 0 C3.02581298 2.00212672 5.4874437 4.39419418 8 7 C8.59425781 7.59683594 9.18851562 8.19367187 9.80078125 8.80859375 C13.0854874 12.32848172 15.10455945 14.98114624 15 20 C12.94880897 26.10914294 9.72690557 29.88555922 5.25 34.4375 C3.97702985 35.76482495 2.70488364 37.09294064 1.43359375 38.421875 C0.83144043 39.04642578 0.22928711 39.67097656 -0.39111328 40.31445312 C-2.21449168 42.22471177 -3.96654514 44.18462832 -5.6875 46.1875 C-8.9815917 50.01262915 -12.3958065 53.72379036 -15.81323242 57.43823242 C-19.46675994 61.41135777 -23.0820339 65.41715412 -26.68359375 69.4375 C-28.35185115 71.28299217 -30.02927108 73.11540569 -31.72265625 74.9375 C-45.25189536 89.50296167 -56.29399399 102.16138154 -56.16796875 122.75390625 C-55.99033425 126.18679622 -55.48613347 129.5970657 -55 133 C-65.23 133 -75.46 133 -86 133 C-89.76522555 125.46954889 -89.10898766 115.03455192 -87.3125 106.87890625 C-86.37792413 104.44511493 -85.28952797 102.263838 -84 100 C-83.64550781 99.25621094 -83.29101562 98.51242188 -82.92578125 97.74609375 C-78.90721584 90.05123822 -72.73480637 84.11054284 -66.75390625 77.9296875 C-63.61111731 74.67726639 -60.6190689 71.32043682 -57.65893555 67.90185547 C-55.20525032 65.08887417 -52.66838785 62.35669185 -50.125 59.625 C-45.80443788 54.96498919 -41.52538078 50.27213033 -37.2890625 45.53515625 C-35.60935862 43.67486987 -33.91874144 41.83020766 -32.2109375 39.99609375 C-29.4439011 37.02355667 -26.71260158 34.02237398 -24 31 C-23.3296875 30.25492188 -22.659375 29.50984375 -21.96875 28.7421875 C-19.28642341 25.5158041 -17.6366425 23.07013706 -17.375 18.8125 C-18.06163262 14.62404103 -19.24538951 13.1100441 -22 10 C-20.75139512 6.25418536 -19.34635173 5.56925407 -16.125 3.375 C-15.24070312 2.76398437 -14.35640625 2.15296875 -13.4453125 1.5234375 C-8.959173 -1.27144174 -4.99550277 -1.59069677 0 0 Z " fill="#73B7FF" transform="translate(384,51)"/>
<path d="M0 0 C8.31558715 4.77825334 13.26283386 11.15504549 16.27734375 20.30859375 C17.73377799 29.8090263 15.99378932 37.84323261 10.6171875 45.75 C4.95121718 52.81210263 -1.39653746 56.62590268 -10.41015625 57.78125 C-20.28563696 58.16949975 -27.14096226 56.29267548 -34.59765625 49.80859375 C-35.29890625 48.98359375 -36.00015625 48.15859375 -36.72265625 47.30859375 C-37.42390625 46.52484375 -38.12515625 45.74109375 -38.84765625 44.93359375 C-44.55176574 36.94784047 -44.70659097 28.79185025 -43.72265625 19.30859375 C-41.4807002 11.61619344 -36.46350899 5.17231327 -29.6015625 1.02734375 C-20.13875944 -3.83427984 -9.80352206 -4.59192525 0 0 Z " fill="#F3BD3B" transform="translate(239.72265625,223.69140625)"/>
</svg>
