<?xml version="1.0" encoding="UTF-8"?>
<svg version="1.1" xmlns="http://www.w3.org/2000/svg" width="512" height="512">
<path d="M0 0 C1.40378906 -0.05994141 1.40378906 -0.05994141 2.8359375 -0.12109375 C9.67698592 1.24903219 13.47291393 9.34663934 17.12109375 14.79101562 C17.51280762 15.38180908 17.90452148 15.97260254 18.30810547 16.58129883 C19.48051827 18.34568163 20.66720766 20.0997806 21.85546875 21.85351562 C33.07491209 38.58224259 39.18649583 54.37272527 40.16015625 74.6171875 C40.20313339 75.46999298 40.24611053 76.32279846 40.29039001 77.20144653 C40.38002496 78.99473991 40.46818378 80.78810762 40.55493164 82.58154297 C40.6867997 85.29807355 40.82449935 88.01426354 40.96289062 90.73046875 C41.04982878 92.4843577 41.13642835 94.23826348 41.22265625 95.9921875 C41.26326675 96.79042938 41.30387726 97.58867126 41.34571838 98.41110229 C41.61572975 104.0898723 41.66833731 109.75278615 41.625 115.4375 C42.28967285 115.20691895 42.9543457 114.97633789 43.63916016 114.73876953 C55.5728333 110.6884784 65.24252811 112.50509551 76.625 117.4375 C76.94210937 116.94121094 77.25921875 116.44492188 77.5859375 115.93359375 C83.33210185 107.56832134 90.61625347 102.50828285 100.3984375 99.84765625 C102.625 99.4375 102.625 99.4375 106.625 99.4375 C106.934375 98.4475 106.934375 98.4475 107.25 97.4375 C112.34596316 86.31903493 121.31303556 79.43422936 132.3125 74.66015625 C145.19510864 69.90513679 157.86606154 70.87634921 170.625 75.4375 C180.48656853 80.19368995 188.85937814 87.50912112 193.625 97.4375 C193.625 98.0975 193.625 98.7575 193.625 99.4375 C194.90375 99.499375 196.1825 99.56125 197.5 99.625 C205.61622339 100.53248325 212.89619622 104.70869622 218.625 110.4375 C225.38087413 119.19090422 228.31117371 127.92386318 227.4140625 139.0546875 C225.7375496 149.20866187 220.54390215 156.97039657 212.625 163.4375 C205.64234748 167.92825172 198.13494109 169.7528719 189.86328125 169.703125 C189.15020309 169.70503845 188.43712494 169.7069519 187.70243835 169.70892334 C186.20746504 169.71027493 184.71247957 169.70665078 183.2175293 169.69824219 C180.93316397 169.68747957 178.64957639 169.69819635 176.36523438 169.7109375 C174.90624827 169.70961665 173.44726265 169.70705581 171.98828125 169.703125 C170.67126221 169.70086914 169.35424316 169.69861328 167.99731445 169.69628906 C162.93778254 169.30802411 162.93778254 169.30802411 160.625 167.4375 C160.295 165.7875 159.965 164.1375 159.625 162.4375 C153.025 162.4375 146.425 162.4375 139.625 162.4375 C139.295 163.7575 138.965 165.0775 138.625 166.4375 C136.41297023 168.68333256 135.11753089 169.3808159 131.97119141 169.74291992 C130.98296387 169.71818604 129.99473633 169.69345215 128.9765625 169.66796875 C127.34460938 169.66700195 127.34460938 169.66700195 125.6796875 169.66601562 C123.40072254 169.63876149 121.12190404 169.59201096 118.84375 169.52539062 C112.7648469 169.39175547 112.7648469 169.39175547 107.63305664 172.17089844 C106.05184462 174.25458512 106.05184462 174.25458512 104.8659668 176.43530273 C101.9164129 181.19416393 96.83585953 183.23091483 91.58935547 184.48828125 C86.6105929 185.56382448 81.85436843 185.69444184 76.77734375 185.6328125 C75.88004044 185.6299826 74.98273712 185.62715271 74.0582428 185.62423706 C71.22618586 185.61314979 68.39445939 185.58806747 65.5625 185.5625 C63.62825981 185.55245537 61.69401461 185.54333213 59.75976562 185.53515625 C55.0480521 185.51324814 50.33658184 185.47879901 45.625 185.4375 C45.66258423 186.124953 45.70016846 186.81240601 45.7388916 187.52069092 C46.0953191 194.05074983 46.44858864 200.58097141 46.79845428 207.11138535 C46.97836103 210.46742003 47.15976799 213.82335762 47.34326172 217.17919922 C47.55479758 221.05160053 47.76215274 224.92420744 47.96875 228.796875 C48.03437134 229.981745 48.09999268 231.16661499 48.16760254 232.38739014 C48.46073203 237.952427 48.69298457 243.5145333 48.77929688 249.08691406 C48.79440308 250.03987366 48.80950928 250.99283325 48.82507324 251.97467041 C48.625 254.4375 48.625 254.4375 46.8125 257.6875 C44.625 259.4375 44.625 259.4375 41.625 259.4375 C41.955 266.0375 42.285 272.6375 42.625 279.4375 C44.275 279.7675 45.925 280.0975 47.625 280.4375 C50.44074348 283.22388038 51.02411028 285.43256433 51.21354675 289.32232666 C51.29546013 290.79463745 51.29546013 290.79463745 51.37902832 292.29669189 C51.44700623 293.90214874 51.44700623 293.90214874 51.51635742 295.54003906 C51.57531693 296.67203735 51.63427643 297.80403564 51.69502258 298.97033691 C51.88671716 302.7140676 52.05865526 306.45843357 52.23046875 310.203125 C52.35948865 312.79821737 52.48973833 315.39324887 52.62117004 317.98822021 C52.92884098 324.12167426 53.22409748 330.25561077 53.51335269 336.38995719 C53.84340284 343.37474717 54.18929511 350.35872441 54.53651655 357.34267855 C55.25030145 371.70678201 55.94419856 386.07179739 56.625 400.4375 C57.16987061 400.69797119 57.71474121 400.95844238 58.27612305 401.22680664 C59.35180542 401.7506897 59.35180542 401.7506897 60.44921875 402.28515625 C61.15908936 402.62812744 61.86895996 402.97109863 62.6003418 403.32446289 C67.64153254 406.09581085 71.52732842 410.80685071 73.19602966 416.32623291 C73.63740401 418.49854893 73.74536128 420.44044584 73.73852539 422.65527344 C73.73844986 423.47582214 73.73837433 424.29637085 73.73829651 425.14178467 C73.73313522 426.01796448 73.72797394 426.89414429 73.72265625 427.796875 C73.72053383 429.15344208 73.72053383 429.15344208 73.71836853 430.53741455 C73.71277911 433.42081027 73.70022853 436.30412782 73.6875 439.1875 C73.68248363 441.14453013 73.67792096 443.10156147 73.67382812 445.05859375 C73.66281313 449.85159253 73.64555574 454.64453302 73.625 459.4375 C74.91015503 459.42861755 76.19531006 459.41973511 77.51940918 459.4105835 C89.64297152 459.32942418 101.76647859 459.26949912 113.89025116 459.23025131 C120.12291301 459.20939514 126.35535519 459.18111282 132.58789062 459.13574219 C138.60496677 459.09221516 144.62183188 459.06834807 150.63905334 459.05799103 C152.93233054 459.05061205 155.22559645 459.03620263 157.51878357 459.01457977 C160.73608169 458.98545548 163.9525127 458.98154788 167.16992188 458.98339844 C168.11363647 458.96901733 169.05735107 458.95463623 170.02966309 458.93981934 C177.17353717 458.98415189 182.34563982 460.71803058 187.8671875 465.296875 C188.40601563 465.92078125 188.94484375 466.5446875 189.5 467.1875 C190.05429687 467.80109375 190.60859375 468.4146875 191.1796875 469.046875 C194.91788185 475.23005051 194.89819558 481.9381089 194.75 488.9375 C194.73646484 490.17113281 194.73646484 490.17113281 194.72265625 491.4296875 C194.69936865 493.43242083 194.66350959 495.43500154 194.625 497.4375 C195.24375 497.705625 195.8625 497.97375 196.5 498.25 C198.625 499.4375 198.625 499.4375 200.625 502.4375 C200.30395869 508.43027104 200.30395869 508.43027104 198.48232031 511.13265479 C195.70695482 513.08246514 193.46359483 512.81365307 190.09537506 512.81502342 C189.09116954 512.82156391 189.09116954 512.82156391 188.06667703 512.82823652 C185.8071478 512.83924783 183.5482218 512.82874397 181.28869629 512.81845093 C179.65894586 512.82190518 178.02919777 512.82666818 176.39945459 512.83263266 C171.90833972 512.84520428 167.41741507 512.83894442 162.92629933 512.82967401 C158.08779029 512.82290897 153.24931483 512.83335206 148.41081238 512.84161377 C138.92718246 512.85498059 129.44362361 512.85206026 119.95999086 512.84337585 C112.255085 512.83661128 104.55019911 512.83567725 96.84529114 512.8389473 C95.20279856 512.83963684 95.20279856 512.83963684 93.52712432 512.84034032 C91.3029311 512.84129946 89.0787379 512.8422721 86.8545447 512.8432581 C65.97938776 512.85182063 45.1042703 512.84196433 24.22911984 512.825857 C6.30230361 512.81245304 -11.62445435 512.81478089 -29.55126953 512.82861328 C-50.34976553 512.84465387 -71.14822691 512.85099658 -91.94672823 512.84177649 C-94.16291586 512.8408208 -96.3791035 512.83987769 -98.59529114 512.8389473 C-99.68580759 512.83848447 -100.77632405 512.83802164 -101.89988646 512.83754479 C-109.59897143 512.83495033 -117.29803451 512.8393357 -124.99711609 512.84638596 C-134.37480641 512.85478428 -143.75242135 512.85255606 -153.13010299 512.83654372 C-157.91826775 512.82863847 -162.70630666 512.82560761 -167.4944706 512.83549118 C-171.87269692 512.84439214 -176.25068006 512.83958173 -180.62888414 512.82355852 C-182.21766395 512.82019111 -183.80646406 512.82194842 -185.39523095 512.82918589 C-187.54557611 512.83823457 -189.69507502 512.82902853 -191.84537506 512.81502342 C-193.04252593 512.81453637 -194.23967679 512.81404931 -195.47310495 512.81354749 C-198.375 512.4375 -198.375 512.4375 -200.22841406 511.09359229 C-201.99201642 508.5463011 -202.25199834 506.51254146 -202.375 503.4375 C-201.25 500.625 -201.25 500.625 -199.375 498.4375 C-196.7578125 497.80078125 -196.7578125 497.80078125 -194.375 497.4375 C-194.39820313 496.303125 -194.42140625 495.16875 -194.4453125 494 C-194.46408814 492.47917332 -194.4822864 490.95833943 -194.5 489.4375 C-194.51675781 488.69371094 -194.53351563 487.94992187 -194.55078125 487.18359375 C-194.61898391 479.34028762 -193.41075616 472.73219519 -188.375 466.4375 C-182.73580067 460.82937064 -177.92929132 459.2129013 -170.15292358 459.18865967 C-169.19842316 459.19585022 -168.24392273 459.20304077 -167.26049805 459.21044922 C-165.73784584 459.21001114 -165.73784584 459.21001114 -164.18443298 459.20956421 C-160.83510742 459.21095557 -157.48600537 459.22650789 -154.13671875 459.2421875 C-151.81216046 459.24591831 -149.48760059 459.24876496 -147.16304016 459.25076294 C-141.04905851 459.258394 -134.93517209 459.27803807 -128.82122803 459.3001709 C-122.58070158 459.32064061 -116.34015973 459.32976707 -110.09960938 459.33984375 C-97.85803111 459.36128437 -85.61652348 459.39541405 -73.375 459.4375 C-73.39856567 457.63732422 -73.39856567 457.63732422 -73.42260742 455.80078125 C-73.47717456 451.32054434 -73.51144707 446.84033645 -73.53979492 442.35986328 C-73.55482075 440.42589365 -73.57524726 438.49195774 -73.60131836 436.55810547 C-73.63797591 433.76781864 -73.65478868 430.97798489 -73.66796875 428.1875 C-73.68345261 427.33196533 -73.69893646 426.47643066 -73.71488953 425.5949707 C-73.7167848 418.73423528 -72.57146568 413.19877114 -68.1875 407.6875 C-64.62765597 404.83962477 -60.11014133 401.4375 -55.375 401.4375 C-55.3847435 400.28672974 -55.394487 399.13595947 -55.40452576 397.95031738 C-55.47173688 386.40748488 -55.13670386 374.93178929 -54.53515625 363.40625 C-54.44757497 361.6694078 -54.36029596 359.93255034 -54.27330017 358.19567871 C-54.0922578 354.60245576 -53.90788578 351.0094248 -53.72094727 347.41650391 C-53.48158854 342.81144794 -53.25048844 338.20601937 -53.0217371 333.60042572 C-52.84382551 330.03501425 -52.66185195 326.46981925 -52.47860527 322.90467834 C-52.39167739 321.20465741 -52.30596961 319.50457363 -52.22151375 317.8044281 C-52.10369005 315.4455567 -51.98044797 313.08703028 -51.85571289 310.72851562 C-51.82190521 310.03044296 -51.78809753 309.3323703 -51.75326538 308.61314392 C-51.59217418 305.66374172 -51.31534695 303.25854084 -50.375 300.4375 C-51.25259476 300.44638245 -52.13018951 300.45526489 -53.03437805 300.4644165 C-61.34551873 300.5448988 -69.65652664 300.6056343 -77.96796894 300.64474869 C-82.23996555 300.66553457 -86.51163746 300.69368527 -90.78344727 300.73925781 C-94.91374546 300.78303989 -99.04373331 300.8067046 -103.17424583 300.81700897 C-104.74216782 300.82434278 -106.31007476 300.83866247 -107.87786293 300.86042023 C-121.21872775 301.03803233 -131.33488672 299.38025183 -141.2734375 289.8203125 C-148.39375615 281.74708875 -149.02988714 272.62244913 -148.54980469 262.35058594 C-147.84481315 254.63506408 -142.8591803 248.56279734 -137.375 243.4375 C-133.24660017 240.13306355 -129.53211488 238.41026258 -124.375 237.3125 C-118.55648614 235.76266754 -116.68489595 232.14363723 -113.4921875 227.296875 C-107.03418404 218.57499579 -96.9177961 213.79159239 -86.4375 211.91015625 C-74.24118399 210.49678109 -63.80515683 212.96612819 -53.375 219.4375 C-51.33704321 221.06123746 -49.36427273 222.75364784 -47.375 224.4375 C-47.31592059 223.24453639 -47.31592059 223.24453639 -47.25564766 222.0274725 C-46.29405824 202.61925694 -45.32553198 183.21139872 -44.34941292 163.80390835 C-43.87752206 154.41834635 -43.40792533 145.03268035 -42.94384766 135.64672852 C-42.53905401 127.45991448 -42.12983529 119.27333526 -41.71544063 111.08700138 C-41.49645088 106.75788837 -41.27958393 102.42869391 -41.0680275 98.09921074 C-40.86825058 94.01223495 -40.66249442 89.92560121 -40.45242691 85.83914185 C-40.37691924 84.35071034 -40.30347394 82.8621723 -40.23241425 81.3735218 C-38.8687049 52.90133231 -30.17489996 34.30373718 -14.375 10.9375 C-13.82328125 10.11813965 -13.2715625 9.2987793 -12.703125 8.45458984 C-12.18234375 7.6961377 -11.6615625 6.93768555 -11.125 6.15625 C-10.66609375 5.48529297 -10.2071875 4.81433594 -9.734375 4.12304688 C-6.87457925 0.5770645 -4.33085865 0.10085561 0 0 Z " fill="#010101" transform="translate(243.375,-0.4375)"/>
<path d="M0 0 C4.95 0 9.9 0 15 0 C16.51227367 3.02454734 16.33126247 6.21425817 16.48643494 9.5406189 C16.52671375 10.32763109 16.56699257 11.11464328 16.60849196 11.92550433 C16.74313854 14.57693227 16.87139673 17.22863187 16.99975586 19.88037109 C17.0947709 21.77565019 17.19020416 23.67090837 17.286026 25.56614685 C17.49198309 29.65465079 17.69525344 33.74327659 17.89655876 37.83201218 C18.21502478 44.29410758 18.5411941 50.75579957 18.86878967 57.21743774 C19.79928247 75.59435192 20.71933816 93.97178107 21.6315918 112.34960938 C22.13521335 122.49395202 22.64523878 132.6379527 23.16216379 142.78162634 C23.48925737 149.20788847 23.80827697 155.63448552 24.12139308 162.06144309 C24.31794174 166.05748452 24.52193751 170.05311967 24.72806358 174.04867744 C24.82229236 175.90450762 24.91343417 177.76049745 25.00129318 179.61664009 C25.12148983 182.14672966 25.25264582 184.67601985 25.38658142 187.20541382 C25.4189831 187.94335123 25.45138478 188.68128865 25.48476833 189.44158781 C25.68796794 194.58914708 25.68796794 194.58914708 28 199 C29.98 199.66 31.96 200.32 34 201 C34.33 207.6 34.66 214.2 35 221 C33.02 221.99 31.04 222.98 29 224 C27.72114939 226.55770122 27.94486234 228.20590959 28.04858398 231.06689453 C28.08621353 232.15211395 28.12384308 233.23733337 28.16261292 234.35543823 C28.21078659 235.56072174 28.25896027 236.76600525 28.30859375 238.0078125 C28.35616318 239.28133575 28.4037326 240.55485901 28.45274353 241.86697388 C29.11981803 259.29527646 30.03659259 276.71357511 30.9229126 294.1317749 C31.29447381 301.43383812 31.66407027 308.73599679 32.03021049 316.03833389 C32.15724015 318.55931572 32.28643432 321.08018014 32.41578674 323.6010437 C32.49351439 325.14401779 32.571151 326.68699647 32.64868164 328.22998047 C32.68451355 328.91666306 32.72034546 329.60334564 32.75726318 330.31083679 C32.96790236 334.55651527 33 338.73920857 33 343 C22.11 343 11.22 343 0 343 C0 229.81 0 116.62 0 0 Z " fill="#FBE4BE" transform="translate(251,58)"/>
<path d="M0 0 C4.95 0 9.9 0 15 0 C15 113.19 15 226.38 15 343 C4.11 343 -6.78 343 -18 343 C-15.40297265 285.95697388 -12.52166554 228.92804941 -9.65455361 171.89808413 C-9.10507706 160.9678012 -8.55727484 150.03743508 -8.01023417 139.10702999 C-7.43947286 127.7029577 -6.86756953 116.29894331 -6.29456145 104.89498365 C-5.97643775 98.56351127 -5.6587084 92.23201985 -5.3421154 85.90047073 C-3.10561267 41.19152753 -3.10561267 41.19152753 -2.01873696 22.2387321 C-1.93633314 20.80013539 -1.85488296 19.36148367 -1.77449977 17.92277265 C-1.66633826 15.99758462 -1.55316394 14.07268016 -1.43971252 12.14779663 C-1.37843957 11.09437262 -1.31716661 10.0409486 -1.2540369 8.95560265 C-0.99590444 5.95235004 -0.49555207 2.97331242 0 0 Z " fill="#FECE85" transform="translate(221,58)"/>
<path d="M0 0 C1.21561001 -0.01043099 2.43122003 -0.02086198 3.68366671 -0.03160906 C5.02930976 -0.02296118 6.37495043 -0.01393457 7.72058868 -0.00457001 C9.15265268 -0.00917897 10.58471194 -0.01553185 12.0167613 -0.02347898 C15.9522862 -0.04019639 19.88742373 -0.03191518 23.82295012 -0.01953411 C28.06705984 -0.01049574 32.31110226 -0.02444731 36.55519867 -0.0354538 C44.86949713 -0.0532566 53.18365129 -0.04939121 61.49795544 -0.03780323 C68.25409896 -0.0287761 75.01020198 -0.02754179 81.76634979 -0.0318985 C82.72727908 -0.03251143 83.68820836 -0.03312436 84.67825672 -0.03375587 C86.63025941 -0.03503475 88.58226208 -0.0363316 90.53426474 -0.03764623 C108.84573007 -0.04905719 127.15711535 -0.03593024 145.46856755 -0.01444477 C161.1866072 0.00342668 176.9045287 0.00032272 192.62256622 -0.01811981 C210.86772181 -0.03951742 229.1128072 -0.04795851 247.35797358 -0.03567076 C249.30286565 -0.03439654 251.24775774 -0.03313905 253.19264984 -0.0318985 C254.1496176 -0.0312814 255.10658537 -0.03066429 256.09255216 -0.03002849 C262.84194876 -0.02657226 269.5913009 -0.03240982 276.34069061 -0.04181671 C284.56400933 -0.05302575 292.78717529 -0.05001976 301.01047647 -0.02869374 C305.20756844 -0.01816852 309.40440556 -0.0140864 313.60149574 -0.02729034 C317.44198099 -0.03918984 321.28197462 -0.03269259 325.12241513 -0.01138014 C326.51332298 -0.00690363 327.90427218 -0.00920387 329.29515356 -0.01888329 C331.18307376 -0.03101615 333.07110995 -0.01619973 334.95899963 0 C336.53324164 0.00097411 336.53324164 0.00097411 338.13928652 0.00196791 C340.97949982 0.50336456 340.97949982 0.50336456 345.97949982 4.50336456 C345.97949982 10.77336456 345.97949982 17.04336456 345.97949982 23.50336456 C228.16949982 23.50336456 110.35949982 23.50336456 -11.02050018 23.50336456 C-11.02050018 17.23336456 -11.02050018 10.96336456 -11.02050018 4.50336456 C-5.39546776 0.00333862 -5.39546776 0.00333862 0 0 Z " fill="#796C78" transform="translate(76.02050018310547,473.4966354370117)"/>
<path d="M0 0 C8.1970723 4.45961275 12.63347168 10.47806438 16.7265625 18.73828125 C19.45455258 22.73262682 22.66219852 23.97944251 27.30859375 24.96484375 C28.20578125 25.07957031 29.10296875 25.19429687 30.02734375 25.3125 C36.32566677 26.36364482 39.93191123 28.2621299 43.83984375 33.4375 C46.8543605 38.68499212 47.3107837 43.43318018 46.52734375 49.375 C44.09634215 55.29615329 40.16665354 59.03348579 34.84179688 62.45947266 C31.60616577 63.73939002 28.48583213 63.65339943 25.05859375 63.6484375 C23.58592981 63.66872002 22.11327361 63.68957068 20.640625 63.7109375 C18.32984863 63.73355842 16.01937822 63.75002013 13.70849609 63.75585938 C11.4704734 63.7653849 9.2338112 63.79914906 6.99609375 63.8359375 C6.30745239 63.83089203 5.61881104 63.82584656 4.90930176 63.82064819 C1.61053579 63.8882223 -0.19872104 64.1717739 -2.87695312 66.15869141 C-4.76378117 68.4911038 -4.76378117 68.4911038 -5.47265625 72.375 C-12.07265625 72.375 -18.67265625 72.375 -25.47265625 72.375 C-26.13265625 70.725 -26.79265625 69.075 -27.47265625 67.375 C-30.45599768 64.40103759 -32.75360409 63.978307 -36.89453125 63.86328125 C-38.43173828 63.81010742 -38.43173828 63.81010742 -40 63.75585938 C-41.06347656 63.73330078 -42.12695312 63.71074219 -43.22265625 63.6875 C-44.30160156 63.65333984 -45.38054687 63.61917969 -46.4921875 63.58398438 C-49.15224002 63.50159337 -51.8119666 63.43241355 -54.47265625 63.375 C-54.90320313 62.14265625 -55.33375 60.9103125 -55.77734375 59.640625 C-58.35323272 52.80171509 -62.45169996 47.99885485 -69.16015625 44.9375 C-71.89378592 43.85473017 -74.60977417 43.04063624 -77.47265625 42.375 C-77.13392136 36.95524175 -74.02788251 33.22918847 -70.47265625 29.375 C-66.0568535 26.01898991 -62.82182219 25.18214757 -57.34765625 24.4375 C-53.58826794 23.88107312 -51.75735671 23.57305249 -48.59765625 21.375 C-46.75970457 18.78024469 -45.18524594 16.18684151 -43.59765625 13.4375 C-34.648616 -1.92654104 -16.26594004 -6.87898786 0 0 Z " fill="#B3DAFE" transform="translate(408.47265625,89.625)"/>
<path d="M0 0 C0.9169313 -0.00845947 1.83386261 -0.01691895 2.77857971 -0.02563477 C4.28417702 -0.01652573 4.28417702 -0.01652573 5.82019043 -0.00723267 C6.87894882 -0.01248962 7.93770721 -0.01774658 9.02854919 -0.02316284 C12.53671924 -0.03639266 16.04443745 -0.02761394 19.5526123 -0.01748657 C21.98494555 -0.01950644 24.41727821 -0.02241715 26.84960938 -0.02618408 C31.95070148 -0.03061149 37.05163614 -0.02416282 42.15270996 -0.01016235 C48.70023378 0.00692956 55.24738871 -0.00290937 61.79489899 -0.02087975 C66.8185302 -0.03170622 71.84207357 -0.02827643 76.8657074 -0.02049637 C79.28030948 -0.01849122 81.69491947 -0.0209646 84.10951233 -0.02793503 C87.48073538 -0.03553063 90.85135613 -0.02397127 94.22253418 -0.00723267 C95.22626572 -0.01330536 96.22999725 -0.01937805 97.2641449 -0.02563477 C98.1810762 -0.01717529 99.09800751 -0.00871582 100.04272461 0 C100.83986626 0.00113108 101.6370079 0.00226215 102.45830536 0.00342751 C104.5213623 0.38095093 104.5213623 0.38095093 107.5213623 3.38095093 C107.5213623 16.58095093 107.5213623 29.78095093 107.5213623 43.38095093 C69.5713623 43.38095093 31.6213623 43.38095093 -7.4786377 43.38095093 C-7.4786377 30.18095093 -7.4786377 16.98095093 -7.4786377 3.38095093 C-4.1035093 0.00582253 -4.1035093 0.00582253 0 0 Z " fill="#FDF0D9" transform="translate(193.4786376953125,415.6190490722656)"/>
<path d="M0 0 C4.9363372 2.81579798 7.89513865 5.89070838 10.78125 10.765625 C13.14250528 14.76007193 13.14250528 14.76007193 16.31494141 18.08740234 C18.74611536 20.86900456 18.63912419 22.13656427 18.42578125 25.7734375 C18.37228516 26.84335937 18.31878906 27.91328125 18.26367188 29.015625 C18.18697266 30.129375 18.11027344 31.243125 18.03125 32.390625 C17.97388672 33.48117187 17.91652344 34.57171875 17.85742188 35.6953125 C17.49338241 42.24019401 16.89089494 48.74638073 16.21875 55.265625 C7.09977299 55.38177186 -2.01894715 55.47046764 -11.13850403 55.52468586 C-15.37369014 55.55071571 -19.60836804 55.58599111 -23.84326172 55.64282227 C-27.93466139 55.69738054 -32.02557404 55.72709522 -36.11730957 55.74001122 C-37.67378398 55.74920867 -39.23023348 55.76716927 -40.78649902 55.79427528 C-56.66050207 56.059617 -56.66050207 56.059617 -62.78125 50.265625 C-67.23934223 45.35029254 -68.1375604 42.31617717 -68.0625 35.8046875 C-67.53682233 31.05898634 -64.87866692 28.46592476 -61.78125 25.078125 C-57.89185968 22.72828501 -54.04021032 21.9239141 -49.62109375 20.9765625 C-44.77802072 19.76911416 -44.77802072 19.76911416 -41.4375 16.27734375 C-41.0559375 15.51035156 -40.674375 14.74335938 -40.28125 13.953125 C-32.06222103 -1.49766219 -16.26806396 -7.01978102 0 0 Z " fill="#B2D9FD" transform="translate(177.78125,229.734375)"/>
<path d="M0 0 C0.92126678 -0.00412399 1.84253357 -0.00824799 2.79171753 -0.01249695 C3.8001622 -0.00171112 4.80860687 0.00907471 5.84761047 0.02018738 C6.91118774 0.0197493 7.97476501 0.01931122 9.0705719 0.01885986 C12.59319792 0.02095328 16.11535059 0.04431092 19.63789368 0.0677948 C22.07741028 0.07338877 24.51693024 0.07765981 26.95645142 0.08065796 C33.38287125 0.09212229 39.80908826 0.12160336 46.23542786 0.1547699 C52.79077917 0.18543643 59.34616321 0.199156 65.90156555 0.21427917 C78.76818863 0.24647135 91.634671 0.29711184 104.50117493 0.36076355 C104.50117493 0.69076355 104.50117493 1.02076355 104.50117493 1.36076355 C81.07117493 1.36076355 57.64117493 1.36076355 33.50117493 1.36076355 C33.50117493 15.22076355 33.50117493 29.08076355 33.50117493 43.36076355 C19.97117493 43.36076355 6.44117493 43.36076355 -7.49882507 43.36076355 C-7.56070007 36.82263855 -7.62257507 30.28451355 -7.68632507 23.54826355 C-7.71363708 21.48729431 -7.7409491 19.42632507 -7.76908875 17.30290222 C-7.77785034 15.66985155 -7.78549505 14.03679433 -7.79179382 12.4037323 C-7.80714172 11.55540833 -7.82248962 10.70708435 -7.83830261 9.83305359 C-7.83866516 9.02130676 -7.83902771 8.20955994 -7.83940125 7.37321472 C-7.84606308 6.66928085 -7.85272491 5.96534698 -7.85958862 5.24008179 C-7.0175002 0.85340766 -4.06642056 -0.01403828 0 0 Z " fill="#F5DFBA" transform="translate(193.4988250732422,415.6392364501953)"/>
<path d="M0 0 C5.98254166 2.69667598 9.20764781 7.13697238 12.75 12.5546875 C14.5019598 15.49347934 14.5019598 15.49347934 17.625 17.3046875 C19.24224652 17.60072585 20.86911721 17.8464897 22.5 18.0546875 C26.03006902 18.72044613 28.28441888 19.32114129 30.75 21.9921875 C32.97438066 25.92192667 33.33964131 27.85803045 32.625 32.3046875 C30.99094489 35.51227716 29.76501403 37.6499712 26.61254883 39.46044922 C22.23832666 40.69654142 18.03454521 40.54984541 13.51171875 40.5 C12.54216751 40.4971701 11.57261627 40.49434021 10.57368469 40.49142456 C7.48649595 40.48025741 4.39960061 40.45515902 1.3125 40.4296875 C-0.78450101 40.41965323 -2.88150658 40.41052816 -4.97851562 40.40234375 C-10.1107896 40.38032938 -15.2428451 40.34582321 -20.375 40.3046875 C-21.10119441 31.49374702 -21.51310387 22.76952494 -21.4375 13.9296875 C-21.43298828 12.89585937 -21.42847656 11.86203125 -21.42382812 10.796875 C-21.4122658 8.29941251 -21.3959784 5.80208547 -21.375 3.3046875 C-14.35192616 -1.11432525 -8.211377 -2.40398866 0 0 Z " fill="#D7EBFD" transform="translate(307.375,128.6953125)"/>
<path d="M0 0 C-0.86625 0.94875 -1.7325 1.8975 -2.625 2.875 C-5.21028048 5.84261069 -7.10882848 8.86536461 -9 12.3125 C-11.62838209 16.80180378 -11.62838209 16.80180378 -14.8125 18.5 C-16.57417187 18.77634069 -18.33586636 19.05253775 -20.09765625 19.328125 C-27.31206559 20.66458505 -32.22125035 23.46011457 -36.796875 29.2890625 C-41.71110175 36.47319399 -42.97323183 42.28322793 -42 51 C-40.28802062 55.75265918 -37.79098 59.81353001 -35 64 C-40.94 64 -46.88 64 -53 64 C-53.99 61.36 -54.98 58.72 -56 56 C-60.81221912 48.37026398 -67.41689393 44.9956206 -76 43 C-75.66126511 37.58024175 -72.55522626 33.85418847 -69 30 C-64.58419725 26.64398991 -61.34916594 25.80714757 -55.875 25.0625 C-52.11561169 24.50607312 -50.28470046 24.19805249 -47.125 22 C-45.28704832 19.40524469 -43.71258969 16.81184151 -42.125 14.0625 C-33.54078174 -0.67520124 -15.92446834 -6.06646413 0 0 Z " fill="#89C8FC" transform="translate(407,89)"/>
<path d="M0 0 C1.10988281 -0.01417969 2.21976563 -0.02835938 3.36328125 -0.04296875 C6.7836836 0.19416843 9.49723443 0.96641499 12.6875 2.1875 C12.025903 3.52335614 11.35770335 4.85594088 10.6875 6.1875 C10.24535156 7.08726562 9.80320313 7.98703125 9.34765625 8.9140625 C5.07378159 16.6676444 5.07378159 16.6676444 1.0625 18.171875 C-0.81707591 18.43292721 -2.70365098 18.64764741 -4.59375 18.81640625 C-10.03034682 19.55847047 -13.88757382 22.7240623 -17.625 26.5625 C-21.85951408 33.14952191 -23.8490839 39.32261663 -22.3125 47.1875 C-21.12855826 50.63207822 -19.75849907 53.46506563 -17.3125 56.1875 C-13.66294861 57.50225541 -10.1709859 57.37747321 -6.32421875 57.28515625 C-5.26588333 57.29461777 -4.20754791 57.30407928 -3.11714172 57.31382751 C0.25666391 57.33439409 3.62646446 57.29301324 7 57.25 C9.28972268 57.25307476 11.57944374 57.26018895 13.86914062 57.27148438 C19.47608526 57.29032354 25.0810098 57.25833504 30.6875 57.1875 C30.6875 57.5175 30.6875 57.8475 30.6875 58.1875 C21.56852299 58.30364686 12.44980285 58.39234264 3.33024597 58.44656086 C-0.90494014 58.47259071 -5.13961804 58.50786611 -9.37451172 58.56469727 C-13.46591139 58.61925554 -17.55682404 58.64897022 -21.64855957 58.66188622 C-23.20503398 58.67108367 -24.76148348 58.68904427 -26.31774902 58.71615028 C-42.19175207 58.981492 -42.19175207 58.981492 -48.3125 53.1875 C-52.77059223 48.27216754 -53.6688104 45.23805217 -53.59375 38.7265625 C-53.06807233 33.98086134 -50.40991692 31.38779976 -47.3125 28 C-43.42310968 25.65016001 -39.57146032 24.8457891 -35.15234375 23.8984375 C-30.30927072 22.69098916 -30.30927072 22.69098916 -26.96875 19.19921875 C-26.5871875 18.43222656 -26.205625 17.66523438 -25.8125 16.875 C-20.32013339 6.55001052 -12.02423587 0.06934392 0 0 Z " fill="#87C4F7" transform="translate(163.3125,226.8125)"/>
<path d="M0 0 C1.21869351 -0.00796419 2.43738701 -0.01592839 3.69301063 -0.02413392 C5.04209941 -0.01272254 6.39118509 -0.00094018 7.74026775 0.01117325 C9.17589185 0.00942886 10.6115147 0.00592639 12.04713076 0.00081658 C15.99234314 -0.00813345 19.9371217 0.00788033 23.8822788 0.02792883 C28.13649095 0.04518916 32.39067827 0.03935813 36.64491558 0.03631973 C44.01572569 0.03422147 51.38639426 0.04678041 58.75716877 0.06927109 C69.41407107 0.10176769 80.07090487 0.11219571 90.72785135 0.11722305 C108.01764806 0.12597938 125.30736932 0.15260412 142.59712505 0.1904335 C159.39334517 0.22714485 176.1895448 0.2554609 192.98579693 0.27246475 C194.02097078 0.27351565 195.05614462 0.27456654 196.12268738 0.27564928 C201.3158068 0.2808694 206.50892637 0.28592424 211.70204604 0.29089689 C254.78992738 0.33236944 297.87772642 0.40282707 340.96553326 0.49219131 C340.96553326 0.82219131 340.96553326 1.15219131 340.96553326 1.49219131 C234.70553326 1.82219131 128.44553326 2.15219131 18.96553326 2.49219131 C17.81898844 4.78528095 17.76824208 6.29128788 17.64912701 8.84375381 C17.6110191 9.6102626 17.57291119 10.37677139 17.53364849 11.16650772 C17.46899395 12.6270961 17.46899395 12.6270961 17.40303326 14.11719131 C17.25865826 17.21094131 17.11428326 20.30469131 16.96553326 23.49219131 C7.72553326 23.49219131 -1.51446674 23.49219131 -11.03446674 23.49219131 C-11.18915424 18.91344131 -11.18915424 18.91344131 -11.34696674 14.24219131 C-11.39248676 13.28667374 -11.43800678 12.33115616 -11.4849062 11.3466835 C-11.49739399 10.58516983 -11.50988178 9.82365616 -11.52274799 9.03906631 C-11.56202412 7.87649307 -11.56202412 7.87649307 -11.6020937 6.6904335 C-10.15995974 1.1054984 -5.12178886 -0.00739342 0 0 Z " fill="#655A64" transform="translate(76.03446674346924,473.50780868530273)"/>
<path d="M0 0 C2.78056398 2.63721279 4.95417361 5.2274853 6.98046875 8.4765625 C7.50447266 9.311875 8.02847656 10.1471875 8.56835938 11.0078125 C9.36983398 12.30332031 9.36983398 12.30332031 10.1875 13.625 C10.73341797 14.49640625 11.27933594 15.3678125 11.84179688 16.265625 C15.80670128 22.61340256 15.80670128 22.61340256 17 25 C6.44 25 -4.12 25 -15 25 C-13.58968014 21.47420034 -12.48075306 18.96459385 -10.46875 15.8984375 C-9.98792969 15.16109375 -9.50710937 14.42375 -9.01171875 13.6640625 C-8.51285156 12.90867187 -8.01398438 12.15328125 -7.5 11.375 C-7.00113281 10.611875 -6.50226563 9.84875 -5.98828125 9.0625 C-4.00554917 6.03258771 -2.0085703 3.01285544 0 0 Z " fill="#EDD8B4" transform="translate(243,18)"/>
<path d="M0 0 C2.60357162 0.76447153 4.60344296 1.69278707 7 3 C6.01 3.495 6.01 3.495 5 4 C4.29618843 5.98723268 3.6288189 7.98777953 3 10 C1.41412493 11.58587507 -0.50566783 11.46353731 -2.6875 11.8125 C-8.37298972 12.91710943 -12.27609888 14.68165021 -15.8125 19.4375 C-16.99331002 21.98556372 -17.60394301 24.22760107 -18 27 C-18.33 27 -18.66 27 -19 27 C-19 19.41 -19 11.82 -19 4 C-11.58649418 -0.23628904 -8.13567542 -0.95649157 0 0 Z " fill="#B1D6F9" transform="translate(305,128)"/>
<path d="M0 0 C3.94448406 3.62466103 5.49183541 5.98367082 8 11 C3.38 11 -1.24 11 -6 11 C-4.86382265 5.31911326 -3.71674706 4.09795189 0 0 Z " fill="#FBEED7" transform="translate(251,31)"/>
</svg>
