<?xml version="1.0" encoding="UTF-8"?>
<svg version="1.1" xmlns="http://www.w3.org/2000/svg" width="512" height="512">
<path d="M0 0 C13.35469907 7.88409945 19.4317193 21.85136573 26.45263672 35.06884766 C27.6587915 37.25326993 28.91227862 39.30860322 30.328125 41.359375 C31.91796875 43.72265625 31.91796875 43.72265625 31.91796875 45.72265625 C32.95695312 45.8928125 33.9959375 46.06296875 35.06640625 46.23828125 C57.11076647 49.99394786 57.11076647 49.99394786 63.23413086 58.02734375 C70.16104666 69.11522984 73.36844945 83.73955425 77.35205078 96.12426758 C77.98296968 98.07612177 78.6210804 100.02566491 79.26611328 101.97290039 C80.21534773 104.83903315 81.14306469 107.71137323 82.06640625 110.5859375 C82.35381683 111.44141678 82.64122742 112.29689606 82.93734741 113.17829895 C85.45065987 121.15810724 85.6820134 129.02188995 84.12109375 137.25 C83.96769531 138.14396484 83.81429688 139.03792969 83.65625 139.95898438 C83.32544304 141.78900849 82.98396129 143.61712937 82.6328125 145.44335938 C81.62714285 150.54369399 81.62714285 150.54369399 83.46484375 155.1640625 C88.8902985 158.6111269 92.14714275 160.14042975 98.66796875 159.41015625 C100.51068359 159.24 100.51068359 159.24 102.390625 159.06640625 C104.13666016 158.89625 104.13666016 158.89625 105.91796875 158.72265625 C117.74619459 157.78043627 126.25990826 162.09775599 136.23046875 168.03515625 C136.99552734 168.48479736 137.76058594 168.93443848 138.54882812 169.39770508 C145.20426058 173.49912261 150.44496447 178.12107731 152.91796875 185.72265625 C154.35586023 196.64427412 151.58299805 206.61710689 148.54785156 217.00195312 C147.79003497 219.60774422 147.0712309 222.22222726 146.35546875 224.83984375 C145.87597926 226.52799339 145.39428449 228.21551856 144.91015625 229.90234375 C144.70051239 230.6702121 144.49086853 231.43808044 144.27487183 232.22921753 C141.91186897 240.13206147 137.59864116 245.73701595 130.91870117 250.47265625 C125.66181225 254.36495868 122.76588307 257.90945676 121.41015625 264.41015625 C119.91414274 274.47866415 119.80650927 284.56295598 119.91796875 294.72265625 C120.93375 295.23054688 121.94953125 295.7384375 122.99609375 296.26171875 C123.65681885 296.59244385 124.31754395 296.92316895 124.99829102 297.26391602 C126.45334116 297.99070431 127.90957603 298.71512525 129.36694336 299.43725586 C132.74655021 301.11534648 136.09278053 302.81799033 139.40625 304.625 C145.11053894 307.76832946 145.11053894 307.76832946 151.41796875 308.84765625 C153.47567198 308.18625164 155.52528672 307.49648887 157.55078125 306.7421875 C170.63874175 302.00933494 180.65764707 302.84597755 193.1328125 308.65625 C199.15285643 311.7418343 202.51253784 315.72847736 205.35546875 321.78515625 C207.65222734 333.77933999 201.2820472 343.31209457 195.48046875 353.41015625 C194.92037109 354.40337891 194.36027344 355.39660156 193.78320312 356.41992188 C192.19497619 359.20904852 190.57078005 361.97139599 188.91796875 364.72265625 C188.5202124 365.40021973 188.12245605 366.0777832 187.71264648 366.77587891 C184.42607177 371.91119596 180.03063504 374.6444126 174.85546875 377.72265625 C174.01435547 378.23739502 173.17324219 378.75213379 172.30664062 379.2824707 C169.85272328 380.77809102 167.38754506 382.25307536 164.91796875 383.72265625 C163.64843302 384.48697173 162.37890126 385.25129379 161.109375 386.015625 C153.7577174 390.3798281 149.01448803 391.92177625 140.54296875 391.97265625 C139.26679687 392.00359375 139.26679687 392.00359375 137.96484375 392.03515625 C129.58985931 392.08733684 129.58985931 392.08733684 125.91796875 388.72265625 C125.58796875 387.07265625 125.25796875 385.42265625 124.91796875 383.72265625 C117.65796875 383.72265625 110.39796875 383.72265625 102.91796875 383.72265625 C102.58796875 385.04265625 102.25796875 386.36265625 101.91796875 387.72265625 C99.91796875 389.72265625 99.91796875 389.72265625 96.79296875 390.16015625 C89.99327968 391.96588281 86.49976334 400.11354561 83.1015625 405.71875 C78.42681457 413.42633216 74.77347663 417.77669939 65.96185303 420.24211121 C62.32765018 421.09656181 58.6521258 421.43413271 54.94140625 421.79296875 C54.09430084 421.87892303 53.24719543 421.96487732 52.37442017 422.05343628 C50.5879819 422.23296079 48.80121752 422.40926627 47.01416016 422.58251953 C44.32088682 422.84493608 41.62925541 423.12093186 38.9375 423.3984375 C9.97987501 426.31168821 9.97987501 426.31168821 2.91796875 420.72265625 C-2.57266742 415.6986877 -7.76296701 410.44126694 -12.45703125 404.66015625 C-16.82966234 399.76697384 -21.08947098 398.38233607 -27.42578125 397.83984375 C-32.64376597 397.60963854 -37.86064406 397.6500249 -43.08203125 397.72265625 C-43.29472656 398.48578125 -43.50742188 399.24890625 -43.7265625 400.03515625 C-45.62014498 405.18657372 -48.16827583 409.8976954 -50.76953125 414.72265625 C-51.27419922 415.69460938 -51.77886719 416.6665625 -52.29882812 417.66796875 C-57.70479017 427.70077821 -64.25195914 432.17017885 -74.14453125 437.47265625 C-75.01658203 437.95347656 -75.88863281 438.43429687 -76.78710938 438.9296875 C-87.29628859 444.64171678 -94.90488061 445.84376115 -106.52734375 443.21875 C-109.92501108 442.55895833 -113.30288793 442.38735237 -116.7578125 442.26171875 C-119.90457189 441.53188212 -121.69794229 439.84090874 -124.08203125 437.72265625 C-125.45488281 438.80546875 -125.45488281 438.80546875 -126.85546875 439.91015625 C-128.0557922 440.84790895 -129.25632385 441.7853952 -130.45703125 442.72265625 C-131.0603125 443.19960938 -131.66359375 443.6765625 -132.28515625 444.16796875 C-136.85546875 447.72265625 -136.85546875 447.72265625 -139.08203125 447.72265625 C-139.02402344 448.3259375 -138.96601563 448.92921875 -138.90625 449.55078125 C-138.76694984 452.01838416 -138.74348976 454.27246223 -139.08203125 456.72265625 C-142.63778718 460.68478429 -146.92902014 462.51438759 -152.19140625 463.0234375 C-161.95709191 463.05487211 -171.44727654 462.11139936 -181.12402344 460.7902832 C-194.94415915 458.94152735 -205.41883924 460.89182468 -218.62695312 464.87744141 C-239.48337448 471.12021187 -239.48337448 471.12021187 -247.27636719 467.78295898 C-252.31081809 464.72068724 -256.00750814 459.27946375 -257.69921875 453.6796875 C-258.8893718 447.59533366 -258.24072032 442.03499696 -255.08203125 436.72265625 C-248.72935336 429.37170041 -239.77706565 424.23219726 -231.75927734 418.87255859 C-230.38167819 417.92809105 -229.04711276 416.92115221 -227.7265625 415.8984375 C-226.08203125 414.72265625 -226.08203125 414.72265625 -224.08203125 414.72265625 C-223.93954956 413.87670898 -223.93954956 413.87670898 -223.79418945 413.01367188 C-223.34560353 410.41320463 -222.87027532 407.81828672 -222.39453125 405.22265625 C-222.24564453 404.33578125 -222.09675781 403.44890625 -221.94335938 402.53515625 C-220.59407105 395.33895185 -218.30292506 389.83074007 -212.98388672 384.69799805 C-209.18284496 382.11056503 -205.35024422 380.88328634 -200.984375 379.5234375 C-200.11309464 379.24292038 -199.24181427 378.96240326 -198.34413147 378.67338562 C-195.57239108 377.78382435 -192.79611264 376.90947479 -190.01953125 376.03515625 C-188.14878024 375.43650945 -186.27833384 374.83690986 -184.40820312 374.23632812 C-180.98346347 373.14058563 -177.5580446 372.04719778 -174.12866211 370.96606445 C-173.44202988 370.74940628 -172.75539764 370.53274811 -172.04795837 370.30952454 C-163.12306337 367.64526615 -155.69254255 368.7697852 -146.83203125 371.28515625 C-139.47208343 373.73395776 -139.47208343 373.73395776 -132.08203125 372.72265625 C-129.82595683 370.91295466 -129.82595683 370.91295466 -127.76953125 368.59765625 C-123.73692592 364.36916222 -119.51470138 360.52208779 -115.08203125 356.72265625 C-113.79317503 355.63031325 -113.79317503 355.63031325 -113.65625 352.99609375 C-114.2339173 348.55494517 -116.56857607 346.98094345 -119.89453125 344.34765625 C-124.82710969 340.13494832 -127.80796518 337.19915878 -129.08203125 330.72265625 C-129.570732 323.41832538 -128.13528774 316.45515309 -126.73828125 309.31396484 C-126.33344925 307.22995589 -125.94936812 305.14281163 -125.56640625 303.0546875 C-122.30230527 285.80312721 -122.30230527 285.80312721 -115.20703125 279.84765625 C-114.57023438 279.29335938 -113.9334375 278.7390625 -113.27734375 278.16796875 C-108.46435202 274.99927313 -103.71685318 274.54940382 -98.08203125 274.16015625 C-93.15940143 273.53920104 -93.15940143 273.53920104 -89.05078125 271.015625 C-87.45499074 268.66013635 -86.27001046 266.30781855 -85.08203125 263.72265625 C-84.52773437 262.7275 -83.9734375 261.73234375 -83.40234375 260.70703125 C-79.9526458 254.37993547 -77.7188856 249.80416033 -79.65332031 242.59301758 C-80.94808929 238.97684664 -82.01551443 236.43086603 -85.28173828 234.26196289 C-87.97398958 233.06855649 -90.67105869 232.05175644 -93.45703125 231.09765625 C-100.61618312 228.56624344 -106.12865851 226.49068345 -110.08203125 219.72265625 C-111.9186717 215.78284629 -113.39911199 211.7617004 -114.83203125 207.66015625 C-115.41017578 206.0659082 -115.41017578 206.0659082 -116 204.43945312 C-117.04675355 201.54005444 -118.07552107 198.63625184 -119.08203125 195.72265625 C-119.44055176 194.74901123 -119.79907227 193.77536621 -120.16845703 192.7722168 C-124.13934972 179.51716052 -119.17121553 166.55670696 -115.00292969 154.00488281 C-113.95479976 150.84092012 -112.94592663 147.66632526 -111.94140625 144.48828125 C-111.27961922 142.44327265 -110.61563193 140.39897449 -109.94921875 138.35546875 C-109.65207977 137.42090851 -109.3549408 136.48634827 -109.04879761 135.52346802 C-106.26312967 127.23794198 -102.15170984 119.17999982 -94.80859375 114.0625 C-87.51416652 110.4779892 -79.05719329 108.71114239 -71.11328125 107.1328125 C-62.94122895 105.31532684 -57.77978526 99.47682367 -52.08203125 93.72265625 C-51.11910156 92.92601563 -50.15617188 92.129375 -49.1640625 91.30859375 C-46.71683148 88.83414157 -46.71683148 88.83414157 -47.140625 85.3203125 C-48.038816 81.88780666 -49.03457371 78.52981231 -50.14453125 75.16015625 C-53.60680115 62.94639231 -52.21347485 53.02062616 -49.45703125 40.84765625 C-49.22193848 39.77733154 -48.9868457 38.70700684 -48.74462891 37.60424805 C-46.57875253 28.75044991 -42.72251377 22.95296527 -36.14453125 16.72265625 C-33.45854706 14.1282397 -31.01402759 11.48273744 -28.64453125 8.59765625 C-20.88838201 -0.22169547 -11.67420218 -4.83835756 0 0 Z " fill="#010101" transform="translate(282.08203125,22.27734375)"/>
<path d="M0 0 C0.00808685 0.78260696 0.01617371 1.56521393 0.02450562 2.37153625 C0.10241643 9.74353816 0.18969621 17.11534114 0.28752708 24.48710346 C0.33749289 28.27709092 0.38382274 32.06705046 0.421875 35.85717773 C0.45872447 39.51423 0.50508318 43.17104893 0.55806351 46.82790184 C0.57660933 48.22371519 0.59171663 49.61957856 0.60334396 51.01546669 C0.6202024 52.96915078 0.65037261 54.92270634 0.68115234 56.8762207 C0.69447601 57.9887471 0.70779968 59.1012735 0.7215271 60.24751282 C0.80472112 63.21422339 0.80472112 63.21422339 3 66 C4.901994 66.47558206 4.901994 66.47558206 7 66.375 C8.051875 66.38660156 8.051875 66.38660156 9.125 66.3984375 C11.41058594 66.140914 11.41058594 66.140914 13 63 C13.32839637 60.43424748 13.32839637 60.43424748 13.31884766 57.51879883 C13.33871735 56.39786331 13.35858704 55.2769278 13.37905884 54.12202454 C13.39061005 52.91257675 13.40216125 51.70312897 13.4140625 50.45703125 C13.43342865 49.21829758 13.4527948 47.9795639 13.4727478 46.70329285 C13.52243407 43.41374825 13.56369282 40.12423875 13.60089111 36.83453369 C13.64093312 33.47617475 13.69202451 30.11798594 13.7421875 26.75976562 C13.83832153 20.17328642 13.92334848 13.58673317 14 7 C16.72519752 9.60465339 18.34726661 12.18479965 20.14453125 15.515625 C20.73943359 16.60230469 21.33433594 17.68898438 21.94726562 18.80859375 C23.18154929 21.08587943 24.41335942 23.36450765 25.64257812 25.64453125 C31.3283024 36.07671258 31.3283024 36.07671258 40 44 C40.37638092 46.99919701 40.37638092 46.99919701 40.37854004 50.93319702 C40.38307017 51.65487238 40.3876003 52.37654773 40.3922677 53.12009203 C40.40394285 55.55078237 40.39422443 57.98092779 40.38476562 60.41162109 C40.38886842 62.14924985 40.39432756 63.88687585 40.40104675 65.62449646 C40.41279615 69.37266746 40.41524741 73.12069111 40.41069031 76.86887741 C40.40389977 82.79308382 40.41971587 88.71709519 40.43908691 94.64126587 C40.47700342 107.21916668 40.48974975 119.7970508 40.5 132.375 C40.51106348 145.94543477 40.52636793 159.51578034 40.57071257 173.08615363 C40.58910209 178.97760083 40.59294916 184.86882652 40.58577728 190.76029563 C40.58425785 194.4239444 40.59502422 198.0874819 40.60915565 201.75110054 C40.61316614 203.45227833 40.61202 205.15347712 40.60538292 206.85464668 C40.59702691 209.17431633 40.60696181 211.49321288 40.62145996 213.81283569 C40.62217247 215.11180975 40.62288498 216.41078381 40.62361908 217.74912071 C41.02364762 221.20424932 41.46209898 222.65031879 44 225 C46.95705568 225.41038612 49.54945078 225.56403163 52.51049805 225.54589844 C53.37900391 225.55623611 54.24750977 225.56657379 55.14233398 225.57722473 C58.01564945 225.60674396 60.88826331 225.60815382 63.76171875 225.609375 C65.75284679 225.6243505 67.74396238 225.64107631 69.73506165 225.65948486 C74.97771767 225.70324137 80.22020612 225.72317586 85.4630127 225.73822021 C90.81203149 225.7577614 96.16086851 225.79973472 101.50976562 225.83984375 C112.00645446 225.91523577 122.50310279 225.96547277 133 226 C131.81603638 227.18239258 131.81603638 227.18239258 130.6081543 228.38867188 C125.07853812 233.92501697 121.88220729 237.79870142 120.82421875 245.78125 C120.66397217 246.94720703 120.50372559 248.11316406 120.33862305 249.31445312 C120.22687744 250.20068359 120.11513184 251.08691406 120 252 C118.58179207 252.00879936 118.58179207 252.00879936 117.13493347 252.01777649 C108.23243304 252.0749456 99.33017824 252.14767645 90.42792797 252.23571491 C85.85097698 252.28047639 81.2741162 252.3197196 76.69702148 252.34643555 C72.28131581 252.37241113 67.86595619 252.41277227 63.45046425 252.46318626 C61.76437999 252.479894 60.07823583 252.4913839 58.39208031 252.49761391 C56.03339582 252.50721285 53.6756045 252.53521984 51.31713867 252.56762695 C50.61726837 252.56619186 49.91739807 252.56475677 49.19631958 252.5632782 C45.5409344 252.61805465 45.5409344 252.61805465 42.32204437 254.17256165 C40.4787845 256.72046689 40.61538891 258.50673935 40.60127258 261.63774109 C40.58873444 262.8114325 40.57619629 263.9851239 40.5632782 265.19438171 C40.56471329 266.48334854 40.56614838 267.77231537 40.56762695 269.1003418 C40.55861167 270.47023403 40.54828503 271.84011818 40.53674316 273.20999146 C40.50911916 276.93079071 40.4998814 280.65143713 40.49388909 284.37232566 C40.4845194 288.2601452 40.45831721 292.14784996 40.43388367 296.03559875 C40.39017618 303.39845574 40.36165538 310.7612905 40.33856028 318.12423784 C40.31153133 326.50631778 40.26761845 334.88828249 40.22227156 343.27028024 C40.12936446 360.51346088 40.05771157 377.7566664 40 395 C26.1933479 395.72150117 26.1933479 395.72150117 22.05175781 393.38917542 C15.49229755 387.43401836 13.36589727 382.51234656 12.72688293 373.62824917 C12.53756155 367.82630388 12.58735728 362.03886135 12.71306992 356.23707271 C12.77538739 352.71920817 12.76564404 349.20155169 12.76293945 345.6832428 C12.76784799 339.03523857 12.83013329 332.38920435 12.91655636 325.74180752 C13.06969319 313.8155298 13.12394312 301.88855342 13.15734291 289.96140677 C13.17134376 285.77857506 13.21059255 281.5969473 13.27104855 277.41453636 C13.31354949 274.21259674 13.33200708 271.01047703 13.35546875 267.80834961 C13.37935165 266.65044418 13.40323456 265.49253876 13.42784119 264.29954529 C13.43127029 263.24416565 13.4346994 262.18878601 13.43823242 261.10142517 C13.45013107 260.1832347 13.46202972 259.26504423 13.47428894 258.31902981 C13.19669043 255.85564775 13.19669043 255.85564775 11.15927505 254.20608139 C8.18692716 252.54585127 5.88333347 252.60003181 2.48730469 252.56762695 C1.52082504 252.55233948 1.52082504 252.55233948 0.53482056 252.53674316 C-1.58625013 252.50664687 -3.70686897 252.49735296 -5.828125 252.48828125 C-7.3021596 252.47143196 -8.77617984 252.45328137 -10.25018311 252.43388367 C-14.12332679 252.38640423 -17.99641231 252.35658184 -21.86975098 252.33044434 C-25.82474251 252.30062826 -29.77953366 252.25410157 -33.734375 252.20898438 C-41.48948386 252.12297477 -49.24460732 252.05561937 -57 252 C-56.65066406 251.24074219 -56.30132812 250.48148438 -55.94140625 249.69921875 C-55.48636719 248.70535156 -55.03132813 247.71148437 -54.5625 246.6875 C-54.11003906 245.70136719 -53.65757812 244.71523438 -53.19140625 243.69921875 C-51.3264693 239.47406652 -50.88809936 236.40675952 -50.9375 231.8125 C-50.94652344 230.72582031 -50.95554688 229.63914062 -50.96484375 228.51953125 C-50.97644531 227.68808594 -50.98804688 226.85664063 -51 226 C-50.25719788 225.99635437 -49.51439575 225.99270874 -48.74908447 225.98895264 C-41.74517014 225.95106904 -34.74172601 225.89421287 -27.73816299 225.81609726 C-24.13759807 225.77660548 -20.5372783 225.74442579 -16.93652344 225.72900391 C-13.4608341 225.71384782 -9.98581867 225.6794229 -6.51042938 225.63169098 C-4.5407688 225.60965628 -2.5709182 225.60752535 -0.60113525 225.60565186 C0.59980774 225.58593323 1.80075073 225.5662146 3.03808594 225.54589844 C4.09509705 225.53701599 5.15210815 225.52813354 6.2411499 225.51898193 C9.79602575 224.85025537 10.94789547 223.9704724 13 221 C13.59292513 217.7486342 13.59292513 217.7486342 13.48583984 214.06005859 C13.48963654 213.37018356 13.49343323 212.68030853 13.49734497 211.9695282 C13.50473862 209.69536487 13.48339105 207.42248669 13.4609375 205.1484375 C13.45855275 203.56710968 13.45764782 201.985779 13.4581604 200.40444946 C13.45503472 197.09399627 13.43848474 193.7839769 13.41162109 190.47363281 C13.37758574 186.2252254 13.36999418 181.97729328 13.37151146 177.72876549 C13.37096839 174.46543826 13.36001228 171.20221544 13.34550858 167.93892288 C13.33913488 166.37199315 13.33520035 164.80505158 13.33372116 163.23810959 C13.32939723 161.05225079 13.31191837 158.86690201 13.29052734 156.68115234 C13.28290375 155.43635101 13.27528015 154.19154968 13.26742554 152.9090271 C13.30112369 149.8748526 13.30112369 149.8748526 11 148 C9.08993694 147.6823754 9.08993694 147.6823754 7 147.75 C6.29875 147.74484375 5.5975 147.7396875 4.875 147.734375 C2.7564331 147.84294485 2.7564331 147.84294485 1 150 C0.66767316 152.71034638 0.66767316 152.71034638 0.68115234 155.91845703 C0.66128265 157.15959259 0.64141296 158.40072815 0.62094116 159.67947388 C0.60906389 161.03891827 0.59740108 162.39836455 0.5859375 163.7578125 C0.56723271 165.14502118 0.54765981 166.5322184 0.5272522 167.91940308 C0.47585188 171.57225804 0.43626875 175.22514994 0.39910889 178.87817383 C0.35911852 182.60507397 0.30800361 186.33181949 0.2578125 190.05859375 C0.16095981 197.37228988 0.07658525 204.6860606 0 212 C-7.47579559 212.09280363 -14.95146637 212.16381701 -22.42772198 212.20724869 C-25.89953184 212.22809712 -29.37094673 212.25636295 -32.8425293 212.30175781 C-36.83646369 212.35365439 -40.82998515 212.37296773 -44.82421875 212.390625 C-46.68852791 212.42159271 -46.68852791 212.42159271 -48.59049988 212.45318604 C-49.75132584 212.45348816 -50.91215179 212.45379028 -52.1081543 212.45410156 C-53.12741501 212.46298401 -54.14667572 212.47186646 -55.19682312 212.48101807 C-58.73155846 211.87446642 -60.36420965 210.36676371 -63 208 C-65.1196627 206.95139049 -65.1196627 206.95139049 -67.28515625 206.25390625 C-68.06310547 205.97353516 -68.84105469 205.69316406 -69.64257812 205.40429688 C-71.25813864 204.84230609 -72.87534435 204.28502301 -74.49414062 203.73242188 C-75.27080078 203.45076172 -76.04746094 203.16910156 -76.84765625 202.87890625 C-77.54898682 202.6372876 -78.25031738 202.39566895 -78.97290039 202.14672852 C-85.61243058 198.39075197 -87.36556167 190.40198514 -89.75 183.6875 C-90.16121094 182.58470703 -90.57242188 181.48191406 -90.99609375 180.34570312 C-91.38410156 179.26611328 -91.77210938 178.18652344 -92.171875 177.07421875 C-92.5234668 176.10057373 -92.87505859 175.12692871 -93.23730469 174.1237793 C-95.12358075 166.39813838 -93.52934507 160.37213846 -91.078125 153.0234375 C-90.6262381 151.63011703 -90.6262381 151.63011703 -90.16522217 150.20864868 C-89.52860921 148.25539598 -88.88619022 146.30402704 -88.23828125 144.35449219 C-87.25229249 141.38191144 -86.28897279 138.40266456 -85.328125 135.421875 C-84.70446323 133.51779032 -84.07950654 131.61412919 -83.453125 129.7109375 C-83.16753723 128.82642914 -82.88194946 127.94192078 -82.58770752 127.03060913 C-80.06614879 119.51409307 -77.36647122 113.78102063 -70 110 C-66.99869887 109.1418631 -63.98397257 108.44775931 -60.93701172 107.76977539 C-48.62329487 105.01191566 -39.93481226 101.73346071 -31.32519531 92.421875 C-29.40317019 90.35962844 -27.31065411 88.4848063 -25.25 86.5625 C-21.3209494 82.74448779 -19.71225717 78.78304142 -19.5625 73.3125 C-19.63905453 67.06054676 -21.35880444 61.37763383 -23.22094727 55.45825195 C-25.8248052 47.0084686 -24.85300231 40.04740624 -22.875 31.5625 C-22.59269531 30.20801758 -22.59269531 30.20801758 -22.3046875 28.82617188 C-20.02199752 18.97493793 -14.25340559 12.9128244 -7.1875 6 C-6.60291016 5.41605469 -6.01832031 4.83210938 -5.41601562 4.23046875 C-1.14096348 0 -1.14096348 0 0 0 Z " fill="#F9455E" transform="translate(269,37)"/>
<path d="M0 0 C1.31931519 0.00036255 2.63863037 0.0007251 3.9979248 0.00109863 C5.40006943 0.01620531 6.80220988 0.03170505 8.2043457 0.04760742 C9.47910767 0.05062866 10.75386963 0.0536499 12.06726074 0.0567627 C16.83829827 0.07248252 21.60922057 0.1143663 26.38012695 0.15307617 C37.04325195 0.21495117 47.70637695 0.27682617 58.69262695 0.34057617 C58.69262695 34.99057617 58.69262695 69.64057617 58.69262695 105.34057617 C52.42262695 104.35057617 46.15262695 103.36057617 39.69262695 102.34057617 C32.22570643 101.78230174 27.59665859 101.48581747 21.41137695 105.75854492 C15.24245709 111.43675525 12.30385209 118.97065391 8.7590332 126.4128418 C8.29368164 127.3699707 7.82833008 128.32709961 7.34887695 129.31323242 C6.93444336 130.18214111 6.52000977 131.0510498 6.09301758 131.94628906 C2.55293685 137.99886433 -3.05653917 140.77555023 -8.99487305 144.09057617 C-9.85532227 144.59717773 -10.71577148 145.1037793 -11.60229492 145.62573242 C-18.3280464 149.38647665 -23.29955155 150.20612557 -30.83862305 148.90307617 C-31.48831055 148.71745117 -32.13799805 148.53182617 -32.80737305 148.34057617 C-38.13743508 147.04306545 -43.59098976 146.15651166 -48.74487305 148.40307617 C-50.57242218 150.37057353 -50.57242218 150.37057353 -51.0065918 153.62573242 C-52.64353213 158.30059805 -54.74838436 159.93405554 -58.68237305 162.71557617 C-59.25987305 163.15256836 -59.83737305 163.58956055 -60.43237305 164.03979492 C-66.05037119 168.18274789 -66.05037119 168.18274789 -69.30737305 168.34057617 C-70.79237305 167.35057617 -70.79237305 167.35057617 -72.30737305 166.34057617 C-76.96552986 166.74652831 -76.96552986 166.74652831 -81.30737305 168.34057617 C-88.0301073 168.65073692 -94.46811293 167.74181856 -101.11987305 166.84057617 C-118.2964137 164.70119855 -132.64176793 164.2728968 -149.20141602 169.65600586 C-152.51257723 170.73234438 -155.84355414 171.72808682 -159.18237305 172.71557617 C-160.81819336 173.22217773 -160.81819336 173.22217773 -162.48706055 173.73901367 C-165.30505202 174.3400811 -166.70037707 174.52132323 -169.30737305 173.34057617 C-171.30737305 170.34057617 -171.30737305 170.34057617 -171.86987305 168.02807617 C-170.30101998 160.53244485 -157.5410841 154.59283044 -151.5144043 150.55151367 C-145.00367213 146.09318425 -139.51438189 142.15128895 -137.61987305 134.09057617 C-137.38655273 133.14569336 -137.15323242 132.20081055 -136.9128418 131.22729492 C-136.51756309 129.34270807 -136.16393534 127.44876781 -135.8581543 125.54760742 C-135.71764648 124.67491211 -135.57713867 123.8022168 -135.43237305 122.90307617 C-135.33182617 122.12061523 -135.2312793 121.3381543 -135.12768555 120.53198242 C-133.94196277 117.36440873 -132.05334204 116.27570715 -129.30737305 114.34057617 C-126.28051758 113.09204102 -126.28051758 113.09204102 -122.94018555 112.05151367 C-121.11680664 111.47530273 -121.11680664 111.47530273 -119.2565918 110.88745117 C-117.99459961 110.50073242 -116.73260742 110.11401367 -115.43237305 109.71557617 C-113.55098633 109.12389648 -113.55098633 109.12389648 -111.6315918 108.52026367 C-89.5008467 101.58830542 -89.5008467 101.58830542 -77.43237305 105.34057617 C-68.51393016 108.05488488 -60.75502243 109.11625986 -52.34155273 104.64672852 C-48.7948975 102.36941148 -46.00246659 99.45277658 -43.11987305 96.40307617 C-42.53012695 95.7952832 -41.94038086 95.18749023 -41.33276367 94.5612793 C-40.18214809 93.37482697 -39.03589288 92.18412679 -37.89453125 90.98876953 C-36.46252257 89.50169206 -34.99621298 88.04783127 -33.52612305 86.59838867 C-29.23835776 82.23513456 -27.08041669 78.48014442 -26.74487305 72.40307617 C-27.15777237 64.1075534 -31.74836521 59.80819474 -37.61987305 54.40307617 C-38.50288086 53.65155273 -39.38588867 52.9000293 -40.2956543 52.12573242 C-43.72163926 47.38257265 -42.66491462 42.95288444 -41.90087891 37.37060547 C-41.37508254 34.11518555 -40.76068055 30.88771944 -40.11987305 27.65307617 C-39.92329102 26.55157227 -39.72670898 25.45006836 -39.52416992 24.31518555 C-38.27686482 17.95584844 -37.08780887 13.81604002 -32.30737305 9.34057617 C-29.85799032 8.11588481 -28.04193266 8.16402729 -25.30737305 8.02807617 C-19.50823034 7.54735776 -14.43662138 6.11572919 -9.30737305 3.34057617 C-8.69523201 2.57356636 -8.69523201 2.57356636 -8.07072449 1.7910614 C-5.44495259 -0.36882759 -3.36122156 -0.01950419 0 0 Z " fill="#E0E3F9" transform="translate(210.307373046875,302.659423828125)"/>
<path d="M0 0 C21.12 0 42.24 0 64 0 C64 5.28 64 10.56 64 16 C66.34663152 23.55003183 70.36120787 26.08407031 77 30 C80.71360322 31.88651708 84.49631549 33.58251007 88.3125 35.25 C90.24630452 36.10890062 92.17990644 36.96825755 94.11328125 37.828125 C94.95673096 38.1984082 95.80018066 38.56869141 96.66918945 38.95019531 C98.1856353 39.63320748 99.68638578 40.35259385 101.16577148 41.11254883 C107.82520787 44.33457082 115.62914362 41.69892298 122.1875 39.4375 C122.84008789 39.1912085 123.49267578 38.94491699 124.16503906 38.69116211 C130.18827359 36.5336195 134.8247948 36.77185459 140.8984375 39.12109375 C141.71570313 39.55550781 142.53296875 39.98992187 143.375 40.4375 C144.20773437 40.86933594 145.04046875 41.30117188 145.8984375 41.74609375 C148 43 148 43 150 45 C149.5894436 52.13429421 146.44853594 57.5810992 143.06518555 63.67919922 C142.07176304 65.48317902 141.11683038 67.30421884 140.16210938 69.12890625 C135.96173421 76.90799626 131.62208834 81.55384538 124 86 C122.64042011 86.93751033 121.28588771 87.88240006 119.9375 88.8359375 C110.77005835 94.88171711 103.62952593 97.14306919 92.6328125 96.9375 C88.9030187 96.67443363 88.9030187 96.67443363 86 99 C85.505 100.98 85.505 100.98 85 103 C77.41 103 69.82 103 62 103 C61.34 101.35 60.68 99.7 60 98 C57.66239424 95.66239424 57.06741017 95.65704873 53.875 95.5625 C48.46152538 95.73573119 44.98184625 97.35787476 41 101 C35.82645986 107.0988079 31.66968927 113.95303226 27.54296875 120.78515625 C25.48829087 123.7345293 23.71041809 124.83858663 20.21484375 125.6328125 C19.13332031 125.79523438 18.05179687 125.95765625 16.9375 126.125 C15.87402344 126.29257812 14.81054688 126.46015625 13.71484375 126.6328125 C9.16376898 127.08265585 4.57325274 127 0 127 C0 85.09 0 43.18 0 0 Z " fill="#E0E3FA" transform="translate(323,303)"/>
<path d="M0 0 C0.00546844 1.17057953 0.00546844 1.17057953 0.01104736 2.36480713 C0.04892574 9.72191271 0.10577572 17.07851181 0.18390274 24.43529129 C0.22340006 28.21745785 0.25557711 31.99939083 0.27099609 35.78173828 C0.2861484 39.43247635 0.32056696 43.08257234 0.36830902 46.7330246 C0.38313784 48.12520515 0.39104188 49.51747737 0.39188385 50.90973663 C0.39425034 52.86083165 0.42359555 54.81183736 0.45410156 56.76269531 C0.46298401 57.8730011 0.47186646 58.98330688 0.48101807 60.1272583 C1.11617824 63.6430861 2.24776647 64.79826138 5 67 C5.66 67.33 6.32 67.66 7 68 C7.14500644 71.60374463 7.23396763 75.20674242 7.3125 78.8125 C7.35439453 79.83666016 7.39628906 80.86082031 7.43945312 81.91601562 C7.4850257 84.69594263 7.48532501 87.26142171 7 90 C4.54296875 92.13671875 4.54296875 92.13671875 2 93 C-0.5873808 95.5873808 0.76538233 102.83417076 0.75 106.3125 C0.729375 107.46685547 0.70875 108.62121094 0.6875 109.81054688 C0.68234375 110.92107422 0.6771875 112.03160156 0.671875 113.17578125 C0.6625293 114.19583252 0.65318359 115.21588379 0.64355469 116.2668457 C1.05405171 119.41445812 1.79173369 120.75001337 4 123 C5.485 123.495 5.485 123.495 7 124 C7.1743959 127.58271776 7.28087658 131.16434602 7.375 134.75 C7.42527344 135.76578125 7.47554688 136.7815625 7.52734375 137.828125 C7.55634766 139.29765625 7.55634766 139.29765625 7.5859375 140.796875 C7.6173584 141.69760742 7.6487793 142.59833984 7.68115234 143.52636719 C7.45637207 144.34266602 7.2315918 145.15896484 7 146 C6.01451172 146.47953125 5.02902344 146.9590625 4.01367188 147.453125 C0.77756436 149.65781417 0.77756436 149.65781417 0.42715454 152.74395752 C0.20701363 156.48611802 0.16807804 160.20682673 0.1953125 163.953125 C0.18405992 165.33748688 0.17017818 166.72182967 0.15377808 168.10614014 C0.1177421 171.74282876 0.11736583 175.37867673 0.12445068 179.01550293 C0.12536365 182.72923824 0.09250455 186.44265855 0.0625 190.15625 C0.00864022 197.43761152 -0.00754459 204.71841572 0 212 C-7.47579559 212.09280363 -14.95146637 212.16381701 -22.42772198 212.20724869 C-25.89953184 212.22809712 -29.37094673 212.25636295 -32.8425293 212.30175781 C-36.83646369 212.35365439 -40.82998515 212.37296773 -44.82421875 212.390625 C-46.68852791 212.42159271 -46.68852791 212.42159271 -48.59049988 212.45318604 C-49.75132584 212.45348816 -50.91215179 212.45379028 -52.1081543 212.45410156 C-53.12741501 212.46298401 -54.14667572 212.47186646 -55.19682312 212.48101807 C-58.73155846 211.87446642 -60.36420965 210.36676371 -63 208 C-65.1196627 206.95139049 -65.1196627 206.95139049 -67.28515625 206.25390625 C-68.06310547 205.97353516 -68.84105469 205.69316406 -69.64257812 205.40429688 C-71.25813864 204.84230609 -72.87534435 204.28502301 -74.49414062 203.73242188 C-75.27080078 203.45076172 -76.04746094 203.16910156 -76.84765625 202.87890625 C-77.54898682 202.6372876 -78.25031738 202.39566895 -78.97290039 202.14672852 C-85.61243058 198.39075197 -87.36556167 190.40198514 -89.75 183.6875 C-90.16121094 182.58470703 -90.57242188 181.48191406 -90.99609375 180.34570312 C-91.38410156 179.26611328 -91.77210938 178.18652344 -92.171875 177.07421875 C-92.5234668 176.10057373 -92.87505859 175.12692871 -93.23730469 174.1237793 C-95.12358075 166.39813838 -93.52934507 160.37213846 -91.078125 153.0234375 C-90.6262381 151.63011703 -90.6262381 151.63011703 -90.16522217 150.20864868 C-89.52860921 148.25539598 -88.88619022 146.30402704 -88.23828125 144.35449219 C-87.25229249 141.38191144 -86.28897279 138.40266456 -85.328125 135.421875 C-84.70446323 133.51779032 -84.07950654 131.61412919 -83.453125 129.7109375 C-83.16753723 128.82642914 -82.88194946 127.94192078 -82.58770752 127.03060913 C-80.06614879 119.51409307 -77.36647122 113.78102063 -70 110 C-66.99869887 109.1418631 -63.98397257 108.44775931 -60.93701172 107.76977539 C-48.62329487 105.01191566 -39.93481226 101.73346071 -31.32519531 92.421875 C-29.40317019 90.35962844 -27.31065411 88.4848063 -25.25 86.5625 C-21.3209494 82.74448779 -19.71225717 78.78304142 -19.5625 73.3125 C-19.63905453 67.06054676 -21.35880444 61.37763383 -23.22094727 55.45825195 C-25.8248052 47.0084686 -24.85300231 40.04740624 -22.875 31.5625 C-22.59269531 30.20801758 -22.59269531 30.20801758 -22.3046875 28.82617188 C-20.02199752 18.97493793 -14.25340559 12.9128244 -7.1875 6 C-6.60291016 5.41605469 -6.01832031 4.83210938 -5.41601562 4.23046875 C-1.14096348 0 -1.14096348 0 0 0 Z " fill="#E0E3F9" transform="translate(269,37)"/>
<path d="M0 0 C5.62474939 0.93745823 8.54433187 1.63290944 12 6 C13.81206993 9.57363954 15.05783485 13.27964452 16.3046875 17.08203125 C16.67353058 18.16900803 17.04237366 19.2559848 17.4223938 20.37590027 C18.19661858 22.67662298 18.96088444 24.98071787 19.71582031 27.2878418 C20.86207003 30.77318451 22.05348665 34.24062584 23.25 37.70898438 C28.13051623 52.19672327 31.48054828 64.7166241 27.45703125 79.85546875 C25.93787098 86.98383615 26.34201705 93.69313284 30 100 C34.09926517 105.2521835 39.834347 108.63913378 46 111 C50.73229462 111.46183137 55.32894612 111.09338281 60.0625 110.75 C74.08038002 110.21454545 84.11797491 112.91890379 94.5703125 122.42871094 C96.9906912 124.97247486 97.96788581 126.78547719 98.48828125 130.26171875 C97.87252862 134.97592086 96.63654358 139.2940875 95.1875 143.8125 C94.79594727 145.07030273 94.79594727 145.07030273 94.39648438 146.35351562 C93.89937189 147.95041276 93.39825311 149.54607388 92.89135742 151.13989258 C91.55879187 155.4157089 90.28693158 159.71022806 89 164 C59.63 164 30.26 164 0 164 C0 109.88 0 55.76 0 0 Z " fill="#DFE2F9" transform="translate(323,85)"/>
<path d="M0 0 C3.72043891 0.62007315 4.68136805 1.5743047 7 4.5 C7.50170898 7.18554688 7.50170898 7.18554688 7.49609375 10.21875 C7.49673828 11.31574219 7.49738281 12.41273438 7.49804688 13.54296875 C7.47806641 14.68378906 7.45808594 15.82460937 7.4375 17 C7.44458984 18.14082031 7.45167969 19.28164062 7.45898438 20.45703125 C7.3865552 29.93968221 7.3865552 29.93968221 4 33.5 C2.0625 34.03125 2.0625 34.03125 0 34 C-0.680625 34.0103125 -1.36125 34.020625 -2.0625 34.03125 C-4.86045739 33.26406814 -5.51461282 31.95544122 -7 29.5 C-7.62343985 25.35629102 -7.46351208 21.18557938 -7.4375 17 C-7.45748047 15.85917969 -7.47746094 14.71835938 -7.49804688 13.54296875 C-7.49708008 11.89748047 -7.49708008 11.89748047 -7.49609375 10.21875 C-7.49794678 9.21779297 -7.4997998 8.21683594 -7.50170898 7.18554688 C-6.66445952 2.70391956 -4.42763157 0.73793859 0 0 Z " fill="#020101" transform="translate(276,126.5)"/>
</svg>
