<?xml version="1.0" encoding="UTF-8"?>
<svg version="1.1" xmlns="http://www.w3.org/2000/svg" width="512" height="512">
<path d="M0 0 C0.98226563 -0.02449219 1.96453125 -0.04898438 2.9765625 -0.07421875 C15.62098001 -0.12413092 25.2333124 5.36704749 36 11.5 C37.1915257 12.1736231 38.38325972 12.84687784 39.57519531 13.51977539 C41.92910884 14.85091469 44.27963176 16.18779043 46.62792969 17.52880859 C49.46240799 19.14041197 52.3089445 20.72617754 55.1640625 22.30078125 C64.5315785 27.52824269 72.87809708 32.54830612 76.40234375 43.2265625 C77.11961171 46.48687139 77.29150267 49.74591166 77.37109375 53.078125 C78.0970956 56.38734274 79.19430631 57.2420448 81.875 59.375 C85.25498441 60.84665923 88.74643419 61.91170945 92.265625 63 C93.32976624 63.33972839 94.39390747 63.67945679 95.49029541 64.02947998 C99.03154952 65.1565343 102.57814569 66.26570792 106.125 67.375 C108.60904396 68.1620767 111.09276238 68.9501815 113.57617188 69.73925781 C126.7308577 73.91222854 139.90832434 78.01284559 153.08449554 82.11735535 C155.25849798 82.79465461 157.43238875 83.47231131 159.60626221 84.15002441 C165.9154705 86.11639796 172.22536128 88.08031518 178.5401535 90.0286932 C221.28883859 103.22452901 221.28883859 103.22452901 227.25 113 C230.72154185 120.21012537 231.2966948 128.94380873 228.8125 136.625 C225.73240276 143.53362933 220.68319082 148.53013163 213.8671875 151.68359375 C211.56504566 152.48257239 209.26562018 152.91530315 206.875 153.375 C206.86041748 154.61999268 206.84583496 155.86498535 206.83081055 157.14770508 C206.77238122 161.8128584 206.69515475 166.47755135 206.61254883 171.14233398 C206.57950788 173.15267405 206.5514127 175.16310224 206.52856445 177.17358398 C206.29342146 197.32083558 202.64359509 210.82680193 191.1484375 227.58203125 C190.51894196 228.51045334 189.88944641 229.43887543 189.24087524 230.39543152 C187.24960928 233.33003847 185.25016958 236.2589562 183.25 239.1875 C181.24437431 242.13500874 179.24046919 245.08367555 177.23770142 248.03312683 C175.99654251 249.8597916 174.75344547 251.68514141 173.50814819 253.50898743 C170.85353105 257.40567467 168.22960463 261.28616875 165.875 265.375 C166.67164063 265.41238281 167.46828125 265.44976562 168.2890625 265.48828125 C180.75306542 266.2615953 180.75306542 266.2615953 185.3046875 270.80078125 C189.83739835 275.96090123 190.02416952 280.11809461 190.03271484 286.69848633 C190.03779556 287.54760086 190.04287628 288.39671539 190.04811096 289.27156067 C190.05881366 291.11637655 190.06743423 292.9612054 190.07423019 294.80603981 C190.08601981 297.7274262 190.10547319 300.6486648 190.12734985 303.56999207 C190.18896168 311.87644526 190.24299821 320.1828835 190.27636719 328.48950195 C190.29732624 333.56998751 190.33264022 338.65020388 190.37712479 343.73053551 C190.39127585 345.66534949 190.4000052 347.6002111 190.40317917 349.53507423 C190.40809442 352.24477882 190.43126843 354.95377062 190.45849609 357.66333008 C190.45548996 358.45991028 190.45248383 359.25649048 190.4493866 360.07720947 C190.54220058 366.30518348 192.29244227 370.9136989 196.4765625 375.63671875 C196.96237793 376.19278809 197.44819336 376.74885742 197.94873047 377.32177734 C198.46064941 377.89621582 198.97256836 378.4706543 199.5 379.0625 C200.57906635 380.29735512 201.65718186 381.53304174 202.734375 382.76953125 C203.26611328 383.37748535 203.79785156 383.98543945 204.34570312 384.61181641 C207.96091102 388.77992486 211.42184631 393.07226087 214.875 397.375 C215.4628125 398.08140625 216.050625 398.7878125 216.65625 399.515625 C221.73240928 405.83594097 224.26576668 411.73337304 223.8125 419.9375 C221.82018285 434.42707924 210.31793241 441.48333242 199.55078125 450.1640625 C196.95651565 452.30764547 194.47522402 454.53321455 192 456.8125 C188.15482464 460.3014131 184.20770631 463.60831395 180.125 466.8125 C179.59406738 467.23781006 179.06313477 467.66312012 178.51611328 468.10131836 C171.77558498 473.30780265 165.20150535 474.40532639 156.875 473.375 C152.06279406 472.0219312 147.48683496 470.16044234 142.875 468.25 C141.54037325 467.71453911 140.20498546 467.18097174 138.86889648 466.64916992 C135.28680655 465.21799507 131.71426028 463.76448299 128.14422607 462.30352783 C121.85170835 459.72873905 115.55171497 457.17253854 109.24780273 454.62579346 C106.97841352 453.70411639 104.71464615 452.76958818 102.45117188 451.83349609 C101.04183187 451.25968521 99.63233426 450.68626125 98.22265625 450.11328125 C97.59674088 449.85026718 96.9708255 449.58725311 96.32594299 449.31626892 C90.83757054 447.10796589 85.65880899 445.67827435 79.79931641 447.14477539 C78.82655762 447.56235107 77.85379883 447.97992676 76.8515625 448.41015625 C75.73555664 448.87695801 74.61955078 449.34375977 73.46972656 449.82470703 C72.2834668 450.33630371 71.09720703 450.84790039 69.875 451.375 C68.60790703 451.89145891 67.33931467 452.40425269 66.06933594 452.91357422 C62.77933262 454.23553044 59.50743805 455.59608039 56.24169922 456.97680664 C54.89929171 457.5400649 53.5534723 458.09525134 52.20458984 458.64282227 C50.21901584 459.44995262 48.24587938 460.28246665 46.2734375 461.12109375 C45.11505371 461.60247803 43.95666992 462.0838623 42.76318359 462.57983398 C39.17643971 464.8091939 38.24443296 466.40361464 36.875 470.375 C36.43959729 473.94642579 36.43959729 473.94642579 36.50390625 477.75 C36.48652969 479.16146083 36.46894524 480.57291911 36.45117188 481.984375 C36.44110226 484.18298986 36.43750499 486.38144115 36.43920898 488.58007812 C36.43562243 490.72053511 36.40823293 492.85976343 36.37890625 495 C36.37705322 496.27101563 36.3752002 497.54203125 36.37329102 498.8515625 C35.6251346 504.14180911 33.16234541 507.1818506 29.3125 510.75 C21.51576773 514.43572798 13.77902522 512.39833906 5.93974876 509.62695885 C3.94759847 508.90078526 1.96218903 508.1578692 -0.0234375 507.4140625 C-1.43008266 506.90167321 -2.83729054 506.39082637 -4.24502563 505.88143921 C-7.92147166 504.54638747 -11.58981822 503.1903486 -15.25683594 501.82965088 C-18.99060344 500.44868925 -22.73200728 499.08874689 -26.47265625 497.7265625 C-31.93801068 495.73277127 -37.40054461 493.73158772 -42.85693359 491.71337891 C-44.49594131 491.10715195 -44.49594131 491.10715195 -46.1680603 490.48867798 C-48.07291934 489.7712472 -49.96563692 489.02024871 -51.8409729 488.22885132 C-55.11628074 487.00442368 -56.78118378 487.32595962 -60.125 488.375 C-61.40240034 489.29649398 -62.65036922 490.25945357 -63.875 491.25 C-68.97089393 495.2456441 -74.10641347 497.50492855 -80.68481445 497.29223633 C-90.12888608 495.92193325 -98.0431302 492.13728056 -106.5625 488.0625 C-108.8770237 486.97407186 -111.1937045 485.89032532 -113.51045227 484.80664062 C-115.07744362 484.07307951 -116.64359648 483.3377246 -118.20890808 482.60058594 C-123.30144804 480.20661681 -128.42227893 477.89088273 -133.578125 475.63671875 C-134.23945938 475.34643295 -134.90079376 475.05614716 -135.58216858 474.75706482 C-138.67920014 473.39854498 -141.77945939 472.04926392 -144.88647461 470.71362305 C-152.89219931 467.19091714 -160.70676603 463.52200911 -165.5 455.875 C-166.19222656 454.80765625 -166.19222656 454.80765625 -166.8984375 453.71875 C-173.02385828 442.01412431 -170.09527705 427.99169275 -167.72241211 415.60864258 C-167.46346525 414.20428627 -167.2057254 412.79970696 -166.94908142 411.39492798 C-166.40020226 408.40455977 -165.84315123 405.41588185 -165.27934074 402.42829323 C-164.38773238 397.70284211 -163.51582213 392.97388011 -162.64637756 388.24430847 C-161.11425537 379.92356671 -159.56608978 371.6058738 -158.01409912 363.28881836 C-155.67116085 350.73271459 -153.34005124 338.17442891 -151.02576834 325.61301154 C-150.15897768 320.91176193 -149.28334936 316.21227078 -148.40065944 311.51398146 C-147.85474448 308.59974233 -147.31565408 305.68427046 -146.77832985 302.76843643 C-146.52770935 301.41661411 -146.27418376 300.06532668 -146.01755524 298.71463203 C-145.66793645 296.87250459 -145.32957461 295.02825125 -144.99180603 293.18391418 C-144.70282393 291.6368716 -144.70282393 291.6368716 -144.40800381 290.05857563 C-144.13565473 287.47603314 -144.29979577 285.8125175 -145.125 283.375 C-145.92164063 283.20484375 -146.71828125 283.0346875 -147.5390625 282.859375 C-156.75809278 280.75088632 -162.22945607 278.39411999 -167.47070312 270.38916016 C-171.02360048 263.91571406 -173.24437169 256.82437468 -175.6875 249.875 C-180.77497957 233.23066983 -180.77497957 233.23066983 -190.875 219.5625 C-191.76445312 218.77939453 -191.76445312 218.77939453 -192.671875 217.98046875 C-199.74830963 213.34923526 -207.741208 211.1879317 -215.84375 209.0625 C-217.49062805 208.61910278 -217.49062805 208.61910278 -219.17077637 208.16674805 C-222.65369749 207.22920515 -226.13897683 206.30093719 -229.625 205.375 C-234.22104915 204.15422417 -238.81435509 202.92379884 -243.40625 201.6875 C-244.44712769 201.41446045 -245.48800537 201.1414209 -246.5604248 200.86010742 C-257.21862544 197.98864291 -267.23612855 194.55666724 -273.69921875 185.0625 C-278.49211586 176.71269644 -279.68632086 168.09996637 -277.4765625 158.58203125 C-274.21695965 149.59722853 -268.63534594 143.68503917 -260.23828125 139.28515625 C-256.44706676 137.65234114 -253.07732661 137.24288215 -248.9609375 137.19799805 C-247.93307129 137.18516281 -246.90520508 137.17232758 -245.84619141 137.15910339 C-244.74194824 137.15171646 -243.63770508 137.14432953 -242.5 137.13671875 C-241.36095215 137.128647 -240.2219043 137.12057526 -239.04833984 137.11225891 C-236.64096594 137.09843729 -234.23357259 137.08770656 -231.82617188 137.07983398 C-228.13894962 137.06256533 -224.45261123 137.01865439 -220.765625 136.97460938 C-218.42708993 136.96448702 -216.08854724 136.95596949 -213.75 136.94921875 C-212.09363525 136.92295662 -212.09363525 136.92295662 -210.40380859 136.89616394 C-208.86200928 136.90055229 -208.86200928 136.90055229 -207.2890625 136.9050293 C-206.38623535 136.89916306 -205.4834082 136.89329681 -204.55322266 136.88725281 C-201.33033354 137.53462142 -200.11806668 138.81050413 -198.125 141.375 C-198.125 142.365 -198.125 143.355 -198.125 144.375 C-192.515 144.375 -186.905 144.375 -181.125 144.375 C-180.795 142.725 -180.465 141.075 -180.125 139.375 C-176.59820901 137.02380601 -175.09620515 137.16056548 -170.9375 137.25 C-169.85082031 137.26804688 -168.76414062 137.28609375 -167.64453125 137.3046875 C-166.81308594 137.32789063 -165.98164063 137.35109375 -165.125 137.375 C-165.13610306 136.80838654 -165.14720612 136.24177307 -165.15864563 135.6579895 C-165.26991704 129.72007127 -165.3449458 123.78245278 -165.3996582 117.84375 C-165.42468484 115.63236445 -165.4587169 113.42106063 -165.50219727 111.20996094 C-165.56337176 108.01737209 -165.59132914 104.82588387 -165.61328125 101.6328125 C-165.63908768 100.65635773 -165.6648941 99.67990295 -165.69148254 98.67385864 C-165.69431032 91.63374958 -164.11754347 86.22939057 -160.125 80.375 C-154.57140087 74.90804523 -149.04071431 72.69078341 -141.25 72.0625 C-134.72413032 72.28970629 -129.1602127 74.03554664 -124.3125 78.5 C-119.44292804 83.84520457 -117.125 89.1659594 -117.125 96.375 C-109.205 96.375 -101.285 96.375 -93.125 96.375 C-92.465 93.075 -91.805 89.775 -91.125 86.375 C-87.62108461 80.6942118 -83.64439783 78.86174487 -77.625 76.6875 C-76.77856934 76.36354248 -75.93213867 76.03958496 -75.06005859 75.70581055 C-72.08926943 74.57419415 -69.10869986 73.47212096 -66.125 72.375 C-61.64433462 70.72704866 -57.16614524 69.07310213 -52.69262695 67.40585327 C-50.78258462 66.69954928 -48.86734683 66.00904112 -46.95117188 65.31958008 C-36.84994308 61.87960669 -36.84994308 61.87960669 -30 54.16601562 C-28.92971655 50.75209811 -28.86861545 47.81594487 -28.8515625 44.23828125 C-28.83125794 42.84178909 -28.81040688 41.44530478 -28.7890625 40.04882812 C-28.76659582 37.87468819 -28.75003623 35.70086153 -28.74414062 33.52661133 C-28.69992062 23.82805916 -28.52412401 14.83236259 -22.16015625 6.9375 C-21.50917969 6.421875 -20.85820312 5.90625 -20.1875 5.375 C-19.53910156 4.83875 -18.89070313 4.3025 -18.22265625 3.75 C-12.33842073 -0.10707803 -6.81725769 0.00874007 0 0 Z " fill="#EBE9EB" transform="translate(280.125,-0.375)"/>
<path d="M0 0 C0.98226563 -0.02449219 1.96453125 -0.04898438 2.9765625 -0.07421875 C15.62098001 -0.12413092 25.2333124 5.36704749 36 11.5 C37.1915257 12.1736231 38.38325972 12.84687784 39.57519531 13.51977539 C41.92910884 14.85091469 44.27963176 16.18779043 46.62792969 17.52880859 C49.46240799 19.14041197 52.3089445 20.72617754 55.1640625 22.30078125 C64.5315785 27.52824269 72.87809708 32.54830612 76.40234375 43.2265625 C77.11961171 46.48687139 77.29150267 49.74591166 77.37109375 53.078125 C78.0970956 56.38734274 79.19430631 57.2420448 81.875 59.375 C85.25498441 60.84665923 88.74643419 61.91170945 92.265625 63 C93.32976624 63.33972839 94.39390747 63.67945679 95.49029541 64.02947998 C99.03154952 65.1565343 102.57814569 66.26570792 106.125 67.375 C108.60904396 68.1620767 111.09276238 68.9501815 113.57617188 69.73925781 C126.7308577 73.91222854 139.90832434 78.01284559 153.08449554 82.11735535 C155.25849798 82.79465461 157.43238875 83.47231131 159.60626221 84.15002441 C165.9154705 86.11639796 172.22536128 88.08031518 178.5401535 90.0286932 C221.28883859 103.22452901 221.28883859 103.22452901 227.25 113 C230.72154185 120.21012537 231.2966948 128.94380873 228.8125 136.625 C225.73240276 143.53362933 220.68319082 148.53013163 213.8671875 151.68359375 C211.56504566 152.48257239 209.26562018 152.91530315 206.875 153.375 C206.86041748 154.61999268 206.84583496 155.86498535 206.83081055 157.14770508 C206.77238122 161.8128584 206.69515475 166.47755135 206.61254883 171.14233398 C206.57950788 173.15267405 206.5514127 175.16310224 206.52856445 177.17358398 C206.29342146 197.32083558 202.64359509 210.82680193 191.1484375 227.58203125 C190.51894196 228.51045334 189.88944641 229.43887543 189.24087524 230.39543152 C187.24960928 233.33003847 185.25016958 236.2589562 183.25 239.1875 C181.24437431 242.13500874 179.24046919 245.08367555 177.23770142 248.03312683 C175.99654251 249.8597916 174.75344547 251.68514141 173.50814819 253.50898743 C170.85353105 257.40567467 168.22960463 261.28616875 165.875 265.375 C166.67164063 265.41238281 167.46828125 265.44976562 168.2890625 265.48828125 C180.75306542 266.2615953 180.75306542 266.2615953 185.3046875 270.80078125 C189.83739835 275.96090123 190.02416952 280.11809461 190.03271484 286.69848633 C190.03779556 287.54760086 190.04287628 288.39671539 190.04811096 289.27156067 C190.05881366 291.11637655 190.06743423 292.9612054 190.07423019 294.80603981 C190.08601981 297.7274262 190.10547319 300.6486648 190.12734985 303.56999207 C190.18896168 311.87644526 190.24299821 320.1828835 190.27636719 328.48950195 C190.29732624 333.56998751 190.33264022 338.65020388 190.37712479 343.73053551 C190.39127585 345.66534949 190.4000052 347.6002111 190.40317917 349.53507423 C190.40809442 352.24477882 190.43126843 354.95377062 190.45849609 357.66333008 C190.45548996 358.45991028 190.45248383 359.25649048 190.4493866 360.07720947 C190.54220058 366.30518348 192.29244227 370.9136989 196.4765625 375.63671875 C196.96237793 376.19278809 197.44819336 376.74885742 197.94873047 377.32177734 C198.46064941 377.89621582 198.97256836 378.4706543 199.5 379.0625 C200.57906635 380.29735512 201.65718186 381.53304174 202.734375 382.76953125 C203.26611328 383.37748535 203.79785156 383.98543945 204.34570312 384.61181641 C207.96091102 388.77992486 211.42184631 393.07226087 214.875 397.375 C215.4628125 398.08140625 216.050625 398.7878125 216.65625 399.515625 C221.73240928 405.83594097 224.26576668 411.73337304 223.8125 419.9375 C221.82018285 434.42707924 210.31793241 441.48333242 199.55078125 450.1640625 C196.95651565 452.30764547 194.47522402 454.53321455 192 456.8125 C188.15482464 460.3014131 184.20770631 463.60831395 180.125 466.8125 C179.59406738 467.23781006 179.06313477 467.66312012 178.51611328 468.10131836 C171.77558498 473.30780265 165.20150535 474.40532639 156.875 473.375 C152.06279406 472.0219312 147.48683496 470.16044234 142.875 468.25 C141.54037325 467.71453911 140.20498546 467.18097174 138.86889648 466.64916992 C135.28680655 465.21799507 131.71426028 463.76448299 128.14422607 462.30352783 C121.85170835 459.72873905 115.55171497 457.17253854 109.24780273 454.62579346 C106.97841352 453.70411639 104.71464615 452.76958818 102.45117188 451.83349609 C101.04183187 451.25968521 99.63233426 450.68626125 98.22265625 450.11328125 C97.59674088 449.85026718 96.9708255 449.58725311 96.32594299 449.31626892 C90.83757054 447.10796589 85.65880899 445.67827435 79.79931641 447.14477539 C78.82655762 447.56235107 77.85379883 447.97992676 76.8515625 448.41015625 C75.73555664 448.87695801 74.61955078 449.34375977 73.46972656 449.82470703 C72.2834668 450.33630371 71.09720703 450.84790039 69.875 451.375 C68.60790703 451.89145891 67.33931467 452.40425269 66.06933594 452.91357422 C62.77933262 454.23553044 59.50743805 455.59608039 56.24169922 456.97680664 C54.89929171 457.5400649 53.5534723 458.09525134 52.20458984 458.64282227 C50.21901584 459.44995262 48.24587938 460.28246665 46.2734375 461.12109375 C45.11505371 461.60247803 43.95666992 462.0838623 42.76318359 462.57983398 C39.17643971 464.8091939 38.24443296 466.40361464 36.875 470.375 C36.43959729 473.94642579 36.43959729 473.94642579 36.50390625 477.75 C36.48652969 479.16146083 36.46894524 480.57291911 36.45117188 481.984375 C36.44110226 484.18298986 36.43750499 486.38144115 36.43920898 488.58007812 C36.43562243 490.72053511 36.40823293 492.85976343 36.37890625 495 C36.37705322 496.27101563 36.3752002 497.54203125 36.37329102 498.8515625 C35.6251346 504.14180911 33.16234541 507.1818506 29.3125 510.75 C21.51576773 514.43572798 13.77902522 512.39833906 5.93974876 509.62695885 C3.94759847 508.90078526 1.96218903 508.1578692 -0.0234375 507.4140625 C-1.43008266 506.90167321 -2.83729054 506.39082637 -4.24502563 505.88143921 C-7.92147166 504.54638747 -11.58981822 503.1903486 -15.25683594 501.82965088 C-18.99060344 500.44868925 -22.73200728 499.08874689 -26.47265625 497.7265625 C-31.93801068 495.73277127 -37.40054461 493.73158772 -42.85693359 491.71337891 C-44.49594131 491.10715195 -44.49594131 491.10715195 -46.1680603 490.48867798 C-48.07291934 489.7712472 -49.96563692 489.02024871 -51.8409729 488.22885132 C-55.11628074 487.00442368 -56.78118378 487.32595962 -60.125 488.375 C-61.40240034 489.29649398 -62.65036922 490.25945357 -63.875 491.25 C-68.97089393 495.2456441 -74.10641347 497.50492855 -80.68481445 497.29223633 C-90.12888608 495.92193325 -98.0431302 492.13728056 -106.5625 488.0625 C-108.8770237 486.97407186 -111.1937045 485.89032532 -113.51045227 484.80664062 C-115.07744362 484.07307951 -116.64359648 483.3377246 -118.20890808 482.60058594 C-123.30144804 480.20661681 -128.42227893 477.89088273 -133.578125 475.63671875 C-134.23945938 475.34643295 -134.90079376 475.05614716 -135.58216858 474.75706482 C-138.67920014 473.39854498 -141.77945939 472.04926392 -144.88647461 470.71362305 C-152.89219931 467.19091714 -160.70676603 463.52200911 -165.5 455.875 C-166.19222656 454.80765625 -166.19222656 454.80765625 -166.8984375 453.71875 C-173.02385828 442.01412431 -170.09527705 427.99169275 -167.72241211 415.60864258 C-167.46346525 414.20428627 -167.2057254 412.79970696 -166.94908142 411.39492798 C-166.40020226 408.40455977 -165.84315123 405.41588185 -165.27934074 402.42829323 C-164.38773238 397.70284211 -163.51582213 392.97388011 -162.64637756 388.24430847 C-161.11425537 379.92356671 -159.56608978 371.6058738 -158.01409912 363.28881836 C-155.67116085 350.73271459 -153.34005124 338.17442891 -151.02576834 325.61301154 C-150.15897768 320.91176193 -149.28334936 316.21227078 -148.40065944 311.51398146 C-147.85474448 308.59974233 -147.31565408 305.68427046 -146.77832985 302.76843643 C-146.52770935 301.41661411 -146.27418376 300.06532668 -146.01755524 298.71463203 C-145.66793645 296.87250459 -145.32957461 295.02825125 -144.99180603 293.18391418 C-144.70282393 291.6368716 -144.70282393 291.6368716 -144.40800381 290.05857563 C-144.13565473 287.47603314 -144.29979577 285.8125175 -145.125 283.375 C-145.92164063 283.20484375 -146.71828125 283.0346875 -147.5390625 282.859375 C-156.75809278 280.75088632 -162.22945607 278.39411999 -167.47070312 270.38916016 C-171.02360048 263.91571406 -173.24437169 256.82437468 -175.6875 249.875 C-180.77497957 233.23066983 -180.77497957 233.23066983 -190.875 219.5625 C-191.76445312 218.77939453 -191.76445312 218.77939453 -192.671875 217.98046875 C-199.74830963 213.34923526 -207.741208 211.1879317 -215.84375 209.0625 C-217.49062805 208.61910278 -217.49062805 208.61910278 -219.17077637 208.16674805 C-222.65369749 207.22920515 -226.13897683 206.30093719 -229.625 205.375 C-234.22104915 204.15422417 -238.81435509 202.92379884 -243.40625 201.6875 C-244.44712769 201.41446045 -245.48800537 201.1414209 -246.5604248 200.86010742 C-257.21862544 197.98864291 -267.23612855 194.55666724 -273.69921875 185.0625 C-278.49211586 176.71269644 -279.68632086 168.09996637 -277.4765625 158.58203125 C-274.21695965 149.59722853 -268.63534594 143.68503917 -260.23828125 139.28515625 C-256.44706676 137.65234114 -253.07732661 137.24288215 -248.9609375 137.19799805 C-247.93307129 137.18516281 -246.90520508 137.17232758 -245.84619141 137.15910339 C-244.74194824 137.15171646 -243.63770508 137.14432953 -242.5 137.13671875 C-241.36095215 137.128647 -240.2219043 137.12057526 -239.04833984 137.11225891 C-236.64096594 137.09843729 -234.23357259 137.08770656 -231.82617188 137.07983398 C-228.13894962 137.06256533 -224.45261123 137.01865439 -220.765625 136.97460938 C-218.42708993 136.96448702 -216.08854724 136.95596949 -213.75 136.94921875 C-212.09363525 136.92295662 -212.09363525 136.92295662 -210.40380859 136.89616394 C-208.86200928 136.90055229 -208.86200928 136.90055229 -207.2890625 136.9050293 C-206.38623535 136.89916306 -205.4834082 136.89329681 -204.55322266 136.88725281 C-201.33033354 137.53462142 -200.11806668 138.81050413 -198.125 141.375 C-198.125 142.365 -198.125 143.355 -198.125 144.375 C-192.515 144.375 -186.905 144.375 -181.125 144.375 C-180.795 142.725 -180.465 141.075 -180.125 139.375 C-176.59820901 137.02380601 -175.09620515 137.16056548 -170.9375 137.25 C-169.85082031 137.26804688 -168.76414062 137.28609375 -167.64453125 137.3046875 C-166.81308594 137.32789063 -165.98164063 137.35109375 -165.125 137.375 C-165.13610306 136.80838654 -165.14720612 136.24177307 -165.15864563 135.6579895 C-165.26991704 129.72007127 -165.3449458 123.78245278 -165.3996582 117.84375 C-165.42468484 115.63236445 -165.4587169 113.42106063 -165.50219727 111.20996094 C-165.56337176 108.01737209 -165.59132914 104.82588387 -165.61328125 101.6328125 C-165.63908768 100.65635773 -165.6648941 99.67990295 -165.69148254 98.67385864 C-165.69431032 91.63374958 -164.11754347 86.22939057 -160.125 80.375 C-154.57140087 74.90804523 -149.04071431 72.69078341 -141.25 72.0625 C-134.72413032 72.28970629 -129.1602127 74.03554664 -124.3125 78.5 C-119.44292804 83.84520457 -117.125 89.1659594 -117.125 96.375 C-109.205 96.375 -101.285 96.375 -93.125 96.375 C-92.465 93.075 -91.805 89.775 -91.125 86.375 C-87.62108461 80.6942118 -83.64439783 78.86174487 -77.625 76.6875 C-76.77856934 76.36354248 -75.93213867 76.03958496 -75.06005859 75.70581055 C-72.08926943 74.57419415 -69.10869986 73.47212096 -66.125 72.375 C-61.64433462 70.72704866 -57.16614524 69.07310213 -52.69262695 67.40585327 C-50.78258462 66.69954928 -48.86734683 66.00904112 -46.95117188 65.31958008 C-36.84994308 61.87960669 -36.84994308 61.87960669 -30 54.16601562 C-28.92971655 50.75209811 -28.86861545 47.81594487 -28.8515625 44.23828125 C-28.83125794 42.84178909 -28.81040688 41.44530478 -28.7890625 40.04882812 C-28.76659582 37.87468819 -28.75003623 35.70086153 -28.74414062 33.52661133 C-28.69992062 23.82805916 -28.52412401 14.83236259 -22.16015625 6.9375 C-21.50917969 6.421875 -20.85820312 5.90625 -20.1875 5.375 C-19.53910156 4.83875 -18.89070313 4.3025 -18.22265625 3.75 C-12.33842073 -0.10707803 -6.81725769 0.00874007 0 0 Z M-12.125 20.375 C-12.83606896 23.76036547 -12.83606896 23.76036547 -12.69140625 27.4765625 C-12.69985817 28.49222794 -12.69985817 28.49222794 -12.70848083 29.52841187 C-12.72486737 31.6863184 -12.70948911 33.84216722 -12.6875 36 C-12.58064651 49.62459368 -13.44009887 60.8549467 -23.3828125 71.15625 C-28.39883229 75.21479593 -34.11330367 77.2054092 -40.125 79.375 C-44.415 81.025 -48.705 82.675 -53.125 84.375 C-53.125 212.085 -53.125 339.795 -53.125 471.375 C-32.995 478.635 -12.865 485.895 7.875 493.375 C13.32 495.355 13.32 495.355 18.875 497.375 C19.535 497.375 20.195 497.375 20.875 497.375 C20.8843457 496.41722656 20.89369141 495.45945312 20.90332031 494.47265625 C20.94348337 490.88642504 21.00931125 487.30102821 21.08251953 483.71533203 C21.11057787 482.16954343 21.13186706 480.62361539 21.14599609 479.07763672 C21.31962136 461.14793402 21.31962136 461.14793402 27.27729797 454.9057312 C32.10904382 450.56068797 37.21625122 448.11062805 43.18359375 445.6328125 C44.15031509 445.21957733 45.11703644 444.80634216 46.11305237 444.38058472 C49.17461331 443.07509271 52.24326791 441.78733822 55.3125 440.5 C57.4008859 439.61314454 59.48878214 438.7251351 61.57617188 437.8359375 C66.6701943 435.66891326 71.77014308 433.51636716 76.875 431.375 C76.88958252 430.72950195 76.90416504 430.08400391 76.91918945 429.41894531 C76.9937787 426.48703427 77.0904024 423.55624835 77.1875 420.625 C77.21005859 419.60921875 77.23261719 418.5934375 77.25585938 417.546875 C77.29130859 416.5671875 77.32675781 415.5875 77.36328125 414.578125 C77.38946533 413.67739258 77.41564941 412.77666016 77.44262695 411.84863281 C77.9575251 408.90286882 78.77433843 407.48995178 80.875 405.375 C85.25355495 404.90586911 87.17084707 404.90556471 90.875 407.375 C91.30737305 409.80517578 91.30737305 409.80517578 91.38671875 412.8203125 C91.42216797 413.89667969 91.45761719 414.97304688 91.49414062 416.08203125 C91.51669922 417.20996094 91.53925781 418.33789062 91.5625 419.5 C91.59666016 420.63566406 91.63082031 421.77132813 91.66601562 422.94140625 C91.74869502 425.75250579 91.81777937 428.56328553 91.875 431.375 C92.80844238 431.73625977 93.74188477 432.09751953 94.70361328 432.46972656 C98.31954785 433.86967435 101.9345567 435.27200131 105.54940796 436.67474365 C107.18115676 437.30748041 108.81317544 437.9395216 110.44546509 438.57086182 C119.20706667 441.95986611 127.95127377 445.37723256 136.62890625 448.9765625 C137.98480387 449.534975 139.3407595 450.0932467 140.69677734 450.65136719 C143.21926896 451.69019291 145.73077464 452.74783109 148.24072266 453.81738281 C157.28305149 457.71957512 157.28305149 457.71957512 166.875 457.375 C169.65595055 455.82144093 171.79468877 453.84537662 174.0625 451.625 C175.36132174 450.42767187 176.66081707 449.23107407 177.9609375 448.03515625 C178.93498535 447.11887451 178.93498535 447.11887451 179.92871094 446.18408203 C182.93834292 443.38661929 186.05883215 440.72515943 189.1875 438.0625 C189.76234131 437.56782227 190.33718262 437.07314453 190.92944336 436.56347656 C195.16968562 432.92567643 199.52475869 429.46061265 203.984375 426.09375 C206.75481512 423.57516807 207.67929451 421.31003732 208.4375 417.6875 C207.54674201 412.44192515 204.29103898 409.33166428 200.875 405.375 C199.12428216 403.31310357 197.37430959 401.25058988 195.625 399.1875 C195.16246826 398.64327393 194.69993652 398.09904785 194.22338867 397.53833008 C190.71817253 393.40321885 187.26419856 389.23080781 183.875 385 C183.41834961 384.44159424 182.96169922 383.88318848 182.49121094 383.30786133 C176.3113325 375.51589101 174.7425966 367.84677156 174.66967773 358.00463867 C174.65977814 357.17485504 174.64987854 356.34507141 174.63967896 355.49014282 C174.60818721 352.75778011 174.58335543 350.02540004 174.55859375 347.29296875 C174.53801357 345.39438942 174.51701682 343.49581457 174.49562073 341.59724426 C174.44050993 336.60783518 174.39105229 331.6183855 174.34277344 326.62890625 C174.29247803 321.53446859 174.23683398 316.44008966 174.18164062 311.34570312 C174.07419354 301.35551896 173.97271884 291.36528373 173.875 281.375 C172.86179687 281.34921875 171.84859375 281.3234375 170.8046875 281.296875 C169.45308403 281.24055819 168.10152319 281.18321167 166.75 281.125 C166.08484375 281.11082031 165.4196875 281.09664063 164.734375 281.08203125 C159.70312528 280.83540136 156.76743638 279.52022761 152.875 276.375 C149.53114214 271.58213707 149.17470301 267.03956358 149.875 261.375 C151.13602995 258.65347277 152.28615721 256.57595635 153.96875 254.16015625 C154.41085815 253.49000992 154.85296631 252.81986359 155.30847168 252.12940979 C156.81070864 249.86391834 158.34238104 247.62003096 159.875 245.375 C161.01595986 243.67280832 162.15522324 241.96947854 163.29296875 240.26513672 C167.60801181 233.81664438 171.94504261 227.38295581 176.31054688 220.96850586 C178.18421014 218.21246133 180.04607088 215.44875083 181.90625 212.68359375 C182.47702271 211.85121689 183.04779541 211.01884003 183.63586426 210.16123962 C189.37974495 201.58380677 190.15757927 194.42828513 190.1484375 184.2734375 C190.16871443 181.90364101 190.18956497 179.53384937 190.2109375 177.1640625 C190.23358711 173.44657264 190.25003248 169.7292746 190.25585938 166.01171875 C190.26536468 162.41111076 190.29910322 158.81135498 190.3359375 155.2109375 C190.33089203 154.09939301 190.32584656 152.98784851 190.32064819 151.84262085 C190.41878132 144.16163559 190.41878132 144.16163559 192.73339844 140.1706543 C195.51370266 137.83947127 197.15633477 137.80792791 200.75 137.8125 C206.16472261 137.57478047 208.87957613 137.05499567 212.875 133.375 C215.22742347 130.16714982 215.3434209 127.27850748 214.875 123.375 C213.39327206 119.84707634 212.03180801 117.93399447 208.546875 116.25 C205.67973124 115.20144457 202.78956157 114.28268869 199.875 113.375 C198.1637737 112.73687147 196.45540673 112.09102227 194.75 111.4375 C190.37923277 109.85034989 185.96509383 108.47977221 181.5 107.1875 C158.01199465 100.38625048 134.75040938 92.80844683 111.46826172 85.34033203 C109.96693947 84.85948654 109.96693947 84.85948654 108.43528748 84.368927 C106.54094785 83.76216179 104.64693844 83.15436435 102.75331116 82.54537964 C101.90522385 82.27388092 101.05713654 82.0023822 100.18334961 81.72265625 C99.44475204 81.48554932 98.70615448 81.24844238 97.94517517 81.00415039 C95.93413561 80.392972 93.91544185 79.87750177 91.875 79.375 C91.87353479 80.33499947 91.87353479 80.33499947 91.87203997 81.31439286 C91.81381104 119.2173163 91.74004705 157.12017977 91.64601372 195.02303191 C91.63474509 199.57061149 91.62360672 204.11819138 91.61254883 208.66577148 C91.61034514 209.57114083 91.60814146 210.47651017 91.605871 211.40931495 C91.57046572 226.08306109 91.54561985 240.75680718 91.52465298 255.43058024 C91.50291662 270.47900414 91.46988691 285.52737246 91.42629844 300.5757491 C91.39974431 309.8669002 91.38207668 319.15798199 91.37565396 328.44916918 C91.37041154 334.81413836 91.35423338 341.17902019 91.32933434 347.54394261 C91.31527981 351.22021563 91.30616316 354.89633216 91.30999184 358.57263374 C91.31401091 362.55226876 91.29506143 366.53160029 91.27372742 370.51118469 C91.28099878 372.26651291 91.28099878 372.26651291 91.28841704 374.0573023 C91.2789605 375.1187443 91.26950396 376.18018631 91.25976086 377.27379322 C91.25786225 378.19309614 91.25596365 379.11239906 91.25400752 380.05955964 C90.79890258 382.83989588 90.13269489 383.73089654 87.875 385.375 C84.9375 385.8125 84.9375 385.8125 81.875 385.375 C79.30470666 383.35570161 78.03238102 382.15856963 77.38099933 378.91546637 C77.38381703 377.98710248 77.38663473 377.0587386 77.38953781 376.10224247 C77.38302381 375.02795933 77.37650981 373.95367619 77.36979842 372.84683901 C77.3830158 371.66737985 77.39623317 370.48792069 77.40985107 369.27272034 C77.40799435 368.01917989 77.40613762 366.76563945 77.40422463 365.47411293 C77.39946916 361.99231747 77.4195338 358.51103506 77.4434669 355.0293349 C77.46484178 351.27536946 77.46301914 347.5214111 77.46366882 343.76739502 C77.46763344 337.26144677 77.48531588 330.75565293 77.51140594 324.24975777 C77.54843117 314.83784639 77.55592716 305.42608078 77.55461362 296.01410484 C77.55254224 280.73716766 77.5624292 265.46026948 77.58544922 250.18334961 C77.58681909 249.26880443 77.58818897 248.35425926 77.58960035 247.41200059 C77.60960382 234.430453 77.64151217 221.44896154 77.67820898 208.46745174 C77.68079162 207.55320976 77.68337426 206.63896777 77.68603516 205.69702148 C77.68862228 204.78389175 77.6912094 203.87076202 77.69387493 202.92996169 C77.73619221 187.71189735 77.7477668 172.49399469 77.73405957 157.27587837 C77.7268417 147.88590958 77.74568156 138.4966982 77.79782233 129.10686802 C77.83152361 122.67457938 77.83652452 116.2426793 77.81878844 109.81032819 C77.80949711 106.09690783 77.81342694 102.3847017 77.8521862 98.67144585 C77.89389233 94.64820679 77.87403837 90.62763346 77.8480835 86.60426331 C77.88129389 84.83842064 77.88129389 84.83842064 77.9151752 83.03690439 C77.99297912 77.27359759 77.99297912 77.27359759 75.11028719 72.59520137 C73.08009738 71.3308001 71.04523479 70.36939566 68.875 69.375 C63.53795608 64.03795608 61.85783027 58.00184644 61.5625 50.6875 C61.56636719 49.79675781 61.57023437 48.90601563 61.57421875 47.98828125 C60.10507685 42.49746599 54.44470849 40.05026402 49.8203125 37.359375 C47.88379595 36.27481917 45.94351432 35.19696539 44 34.125 C41.9387516 32.97665311 39.87755393 31.82821516 37.81640625 30.6796875 C36.80723145 30.11991211 35.79805664 29.56013672 34.75830078 28.98339844 C32.19113081 27.55134799 29.63715927 26.09979575 27.08984375 24.6328125 C26.38005371 24.22579102 25.67026367 23.81876953 24.93896484 23.39941406 C23.65701935 22.66321018 22.37718477 21.92331076 21.10009766 21.17871094 C14.18314688 17.23552863 8.22986735 14.94112429 0.1875 14.875 C-1.07449219 14.8440625 -2.33648437 14.813125 -3.63671875 14.78125 C-8.09894809 15.5407784 -9.32773229 16.86633277 -12.125 20.375 Z " fill="#020102" transform="translate(280.125,-0.375)"/>
<path d="M0 0 C3.43183037 0.29193264 4.10959315 0.840939 6.9375 3.1875 C9.32800618 6.52474131 9.40076826 9.56873087 9.63671875 13.56640625 C10.27189297 17.3842814 12.23375871 19.11242109 15 21.75 C20.17851688 25.19988003 26.97110659 24.12189399 32.96142578 24.12060547 C35.22896518 24.12495961 37.4945259 24.16124315 39.76171875 24.19921875 C47.31713096 24.25893935 53.61886855 24.28246821 60 19.75 C62.64787959 15.22298005 63.47093848 10.9348029 64 5.75 C66.97 4.76 69.94 3.77 73 2.75 C73.20592508 51.55007648 73.36454888 100.35010911 73.45958797 149.15053448 C73.47084455 154.90968321 73.48249343 160.66883107 73.49438477 166.42797852 C73.49792596 168.14781836 73.49792596 168.14781836 73.50153869 169.90240245 C73.54071834 188.47613695 73.61168919 207.04962116 73.69437516 225.6232071 C73.77848972 244.67636437 73.82851858 263.72939042 73.84679645 282.78272575 C73.85915592 294.54320353 73.89821396 306.30297395 73.9712482 318.06323402 C74.01876147 326.12379829 74.03321477 334.183996 74.0215124 342.24469019 C74.01573801 346.8980801 74.02469008 351.55023268 74.07284927 356.20340347 C74.11661865 360.46348488 74.11888381 364.7214962 74.08809005 368.98167252 C74.08428406 370.52287831 74.09573284 372.06421276 74.12394864 373.60516495 C74.3212134 385.04322042 74.3212134 385.04322042 71.07202709 389.2406081 C67.47138725 392.19942552 64.54607206 394.14086701 59.7890625 394.07421875 C53.27071758 392.70438082 47.31536501 389.47522476 41.375 386.5625 C38.71879186 385.28222239 36.05854385 384.01043524 33.3984375 382.73828125 C32.37517365 382.24649887 32.37517365 382.24649887 31.33123779 381.74478149 C26.37793177 379.37444744 21.38156736 377.12032774 16.3515625 374.91796875 C15.64840912 374.60841751 14.94525574 374.29886627 14.22079468 373.97993469 C10.11079657 372.1708444 10.11079657 372.1708444 5.98944092 370.3878479 C-10.08459051 363.48721812 -10.08459051 363.48721812 -13.1484375 355.90966797 C-16.03957792 345.1822771 -11.66970579 331.8355688 -9.59295654 321.17202759 C-8.55896114 315.85863226 -7.54954113 310.54056569 -6.5390625 305.22265625 C-6.32875397 304.1180455 -6.11844543 303.01343475 -5.90176392 301.87535095 C-3.40780256 288.72021391 -1.11054447 275.53099993 1.18600464 262.34024048 C3.08239359 251.4549617 5.00080651 240.5785841 7.12109375 229.734375 C7.28746338 228.8791777 7.45383301 228.02398041 7.62524414 227.14286804 C8.39124879 223.2134554 9.1689162 219.2870675 9.96923828 215.36450195 C13.11799052 201.09420635 13.11799052 201.09420635 10.0625 187.25 C6.95280514 183.0127104 2.96245841 181.1885171 -2 179.75 C-3.258125 179.585 -4.51625 179.42 -5.8125 179.25 C-9.7629647 178.63031926 -10.50626359 177.83055154 -13 174.75 C-14.29587401 172.12516207 -15.26682124 169.40981819 -16.2421875 166.65234375 C-16.5330423 165.86283829 -16.82389709 165.07333282 -17.12356567 164.25990295 C-18.05125086 161.73947569 -18.96449748 159.21418069 -19.875 156.6875 C-29.31284953 130.18401491 -29.31284953 130.18401491 -50.59179688 112.70507812 C-60.99038352 108.02431271 -72.42242873 105.75661295 -83.47343445 103.09387207 C-88.82278522 101.80417488 -94.13710744 100.41444131 -99.4375 98.9375 C-100.10894043 98.75485596 -100.78038086 98.57221191 -101.47216797 98.3840332 C-104.7829831 97.46247049 -108.05052719 96.43349574 -111.29296875 95.296875 C-111.93387451 95.07225586 -112.57478027 94.84763672 -113.23510742 94.61621094 C-117.06486279 92.7365634 -118.97405377 89.26449205 -121.3125 85.8125 C-122.55606728 82.08179817 -122.71296476 78.59214677 -121.27734375 74.8828125 C-118.65102078 69.92788739 -115.42731229 66.5591041 -110 64.75 C-108.44105561 64.65506418 -106.87846919 64.61467032 -105.31665039 64.6081543 C-104.36879166 64.60111984 -103.42093292 64.59408539 -102.4443512 64.58683777 C-101.42244186 64.58267349 -100.40053253 64.57850922 -99.34765625 64.57421875 C-97.18814123 64.55102684 -95.02863598 64.52690977 -92.86914062 64.50195312 C-89.46095172 64.46678673 -86.05312398 64.43746316 -82.64477539 64.42407227 C-79.357791 64.40862703 -76.07186269 64.36844567 -72.78515625 64.32421875 C-71.2553286 64.32708138 -71.2553286 64.32708138 -69.69459534 64.33000183 C-64.18438029 64.3138365 -64.18438029 64.3138365 -59.38842773 61.90161133 C-57.84919222 59.71203366 -57.84919222 59.71203366 -57 56.75 C-51.39 56.75 -45.78 56.75 -40 56.75 C-39.01 58.73 -38.02 60.71 -37 62.75 C-34.52030495 65.22969505 -27.95612803 63.98402337 -24.625 64 C-23.55765625 64.020625 -22.4903125 64.04125 -21.390625 64.0625 C-19.85535156 64.07023437 -19.85535156 64.07023437 -18.2890625 64.078125 C-17.34756348 64.0874707 -16.40606445 64.09681641 -15.43603516 64.10644531 C-12.47390208 63.67302035 -11.79127864 63.10758305 -10 60.75 C-9.56136952 58.31279345 -9.56136952 58.31279345 -9.64697266 55.54760742 C-9.64148911 53.95531563 -9.64148911 53.95531563 -9.63589478 52.33085632 C-9.64519012 51.18397842 -9.65448547 50.03710052 -9.6640625 48.85546875 C-9.65154843 46.43163796 -9.63851123 44.00780982 -9.625 41.58398438 C-9.62107007 37.75893778 -9.62501281 33.9341525 -9.63964844 30.10913086 C-9.64821948 26.4200126 -9.62652938 22.73199062 -9.6015625 19.04296875 C-9.62157822 17.33176094 -9.62157822 17.33176094 -9.64199829 15.58598328 C-9.55959001 6.72475977 -9.55959001 6.72475977 -6.59130859 3.03149414 C-3.06395985 -0.07412806 -3.06395985 -0.07412806 0 0 Z " fill="#008BDE" transform="translate(139,87.25)"/>
<path d="M0 0 C1.59367975 0.47698871 3.18727121 0.95427243 4.78082561 1.43167973 C5.66826637 1.69743527 6.55570712 1.96319082 7.47004002 2.23699957 C10.55953486 3.16874786 13.63714518 4.13460192 16.7121582 5.11303711 C17.93075027 5.50031479 19.14934235 5.88759247 20.40486145 6.28660583 C21.03926462 6.48864561 21.67366779 6.69068539 22.3272953 6.89884758 C24.35192592 7.5436318 26.37687643 8.18740283 28.40190125 8.83094788 C31.97924753 9.96798916 35.55632102 11.10588584 39.13330078 12.24407959 C44.8447663 14.06146587 50.55645363 15.87815261 56.26851463 17.69366646 C58.23860808 18.32007524 60.20846254 18.94723111 62.17829895 19.57444763 C70.10535289 22.09467242 78.04615399 24.56573378 86 27 C90.65640938 28.43363636 95.30614033 29.88731512 99.95068359 31.35888672 C102.02114399 32.00661474 104.09772723 32.63102575 106.17578125 33.25390625 C107.51321776 33.66863632 108.85046472 34.08397824 110.1875 34.5 C111.37730469 34.8609375 112.56710937 35.221875 113.79296875 35.59375 C117.95663192 37.41947319 120.94509563 39.89019126 123 44 C123.44408691 47.9079648 123.13704844 49.74548146 121.25 53.25 C119.03858417 55.95284157 118.15475674 56.80317795 115 58 C111.95245522 58.25258184 108.93210933 58.31360322 105.875 58.36328125 C102.91927439 58.78544425 102.91927439 58.78544425 100.85180664 60.80444336 C98.03677718 65.66217845 98.45523817 70.24697858 98.49609375 75.765625 C98.48667252 76.91359558 98.47725128 78.06156616 98.46754456 79.24432373 C98.43888106 82.91306376 98.43581594 86.58115705 98.4375 90.25 C98.43388458 93.90446667 98.42424062 97.55846073 98.39674377 101.21282959 C98.38004968 103.48445727 98.37700475 105.75623983 98.38975525 108.02789307 C98.31472653 119.41052392 95.08157103 126.57693766 88.64453125 135.828125 C88.02406418 136.73898865 87.40359711 137.64985229 86.764328 138.58831787 C84.79033114 141.48249994 82.80218559 144.36658679 80.8125 147.25 C70.77096234 161.77229375 70.77096234 161.77229375 61.12109375 176.5546875 C60.52095459 177.50843262 59.92081543 178.46217773 59.30249023 179.44482422 C57.29074201 183.39139534 56.87408695 186.7298705 58 191 C59.81371537 195.8618967 62.29599144 198.77076518 67 201 C69.66853296 201.36225681 72.14041429 201.59800431 74.8125 201.6875 C75.50537109 201.72166016 76.19824219 201.75582031 76.91210938 201.79101562 C78.60752849 201.87286344 80.30373458 201.93812365 82 202 C82.00586624 203.04268036 82.01173248 204.08536072 82.01777649 205.15963745 C82.07514759 215.0164881 82.14798379 224.87312117 82.23571491 234.72974968 C82.28032121 239.79637924 82.31959858 244.86293019 82.34643555 249.9296875 C82.37256596 254.82520843 82.41303658 259.72042528 82.46318626 264.61575699 C82.47978936 266.47748132 82.49134426 268.33925818 82.49761391 270.20104599 C82.32781941 287.1408718 82.32781941 287.1408718 89.375 302.1875 C90.07496094 303.10015625 90.77492188 304.0128125 91.49609375 304.953125 C94.95541417 309.16259447 98.53365999 313.26176172 102.12133789 317.36181641 C105.60894579 321.35946973 109.04698208 325.38053243 112.3125 329.5625 C113.03050781 330.47128906 113.74851562 331.38007813 114.48828125 332.31640625 C116.31874215 335.5658291 116.51719428 337.32163693 116 341 C114.15105538 345.034061 111.72355714 347.30536174 108.25 350 C103.58378311 353.70461869 99.05056219 357.51917778 94.5625 361.4375 C93.27994914 362.54427225 91.99739706 363.65104309 90.71484375 364.7578125 C88.33534528 366.81844712 85.99898269 368.9139827 83.69140625 371.0546875 C82.66935024 371.97404661 81.64721922 372.89332235 80.625 373.8125 C79.75101562 374.62332031 78.87703125 375.43414062 77.9765625 376.26953125 C73.76870503 378.71583159 70.75815174 378.83506625 66 378 C61.43485657 376.58433755 57.08186708 374.74754989 52.6875 372.875 C50.73059929 372.06230012 48.77129475 371.25558916 46.81182861 370.44909668 C45.4259712 369.87834554 44.04085162 369.30579993 42.65643311 368.73156738 C33.8689867 365.09436857 24.99459398 361.68059908 16.125 358.25 C14.50993341 357.62373204 12.89494136 356.99727179 11.2800293 356.37060547 C7.52067261 354.91204612 3.76057563 353.45541353 0 352 C-0.01458252 351.28344238 -0.02916504 350.56688477 -0.04418945 349.82861328 C-0.11849 346.59352017 -0.21520861 343.35947981 -0.3125 340.125 C-0.33505859 338.99707031 -0.35761719 337.86914062 -0.38085938 336.70703125 C-0.41630859 335.63066406 -0.45175781 334.55429687 -0.48828125 333.4453125 C-0.51446533 332.45031738 -0.54064941 331.45532227 -0.56762695 330.43017578 C-0.71031006 329.62821777 -0.85299316 328.82625977 -1 328 C-3.91765 326.0549 -5.62537285 325.54723683 -9 325 C-8.34 324.67 -7.68 324.34 -7 324 C-7 318.39 -7 312.78 -7 307 C-5.35 306.34 -3.7 305.68 -2 305 C-0.75112972 302.50225944 -0.86941576 300.81785337 -0.8613348 298.02184105 C-0.85312313 296.43266461 -0.85312313 296.43266461 -0.84474558 294.81138361 C-0.84376747 293.63825195 -0.84278936 292.4651203 -0.84178162 291.25643921 C-0.83684364 290.01741399 -0.83190566 288.77838878 -0.82681805 287.50181735 C-0.81407357 284.05165036 -0.80580857 280.60152405 -0.79939139 277.15134287 C-0.79140268 273.43490339 -0.77769967 269.71848458 -0.76467896 266.00205994 C-0.74289445 259.55943828 -0.7247572 253.11681455 -0.70907402 246.67417526 C-0.68639334 237.35911895 -0.65824804 228.04408551 -0.62875474 218.72904857 C-0.5810567 203.61722736 -0.53779853 188.50539681 -0.49731445 173.39355469 C-0.45797077 158.7109301 -0.41654726 144.02831383 -0.37231445 129.34570312 C-0.36959018 128.44116891 -0.36686591 127.5366347 -0.36405908 126.60469036 C-0.35037979 122.06705793 -0.33665948 117.52942563 -0.32291877 112.99179339 C-0.20891926 75.3278795 -0.1021176 37.66394789 0 0 Z " fill="#FD5E79" transform="translate(372,79)"/>
<path d="M0 0 C11.80171161 2.54222509 11.80171161 2.54222509 16 8 C17.43304064 10.86608129 17.30644155 12.81300783 17 16 C14.8616005 19.97131335 13.22803062 22.39600936 9 24 C5.95245522 24.25258184 2.93210933 24.31360322 -0.125 24.36328125 C-3.08072561 24.78544425 -3.08072561 24.78544425 -5.14819336 26.80444336 C-7.96322282 31.66217845 -7.54476183 36.24697858 -7.50390625 41.765625 C-7.51332748 42.91359558 -7.52274872 44.06156616 -7.53245544 45.24432373 C-7.56111894 48.91306376 -7.56418406 52.58115705 -7.5625 56.25 C-7.56611542 59.90446667 -7.57575938 63.55846073 -7.60325623 67.21282959 C-7.61995032 69.48445727 -7.62299525 71.75623983 -7.61024475 74.02789307 C-7.68527347 85.41052392 -10.91842897 92.57693766 -17.35546875 101.828125 C-17.97593582 102.73898865 -18.59640289 103.64985229 -19.235672 104.58831787 C-21.20966886 107.48249994 -23.19781441 110.36658679 -25.1875 113.25 C-35.22903766 127.77229375 -35.22903766 127.77229375 -44.87890625 142.5546875 C-45.47904541 143.50843262 -46.07918457 144.46217773 -46.69750977 145.44482422 C-48.70925799 149.39139534 -49.12591305 152.7298705 -48 157 C-46.18628463 161.8618967 -43.70400856 164.77076518 -39 167 C-36.33146704 167.36225681 -33.85958571 167.59800431 -31.1875 167.6875 C-30.49462891 167.72166016 -29.80175781 167.75582031 -29.08789062 167.79101562 C-27.39247151 167.87286344 -25.69626542 167.93812365 -24 168 C-23.99413376 169.04268036 -23.98826752 170.08536072 -23.98222351 171.15963745 C-23.92485241 181.0164881 -23.85201621 190.87312117 -23.76428509 200.72974968 C-23.71967879 205.79637924 -23.68040142 210.86293019 -23.65356445 215.9296875 C-23.62743404 220.82520843 -23.58696342 225.72042528 -23.53681374 230.61575699 C-23.52021064 232.47748132 -23.50865574 234.33925818 -23.50238609 236.20104599 C-23.67218059 253.1408718 -23.67218059 253.1408718 -16.625 268.1875 C-15.92503906 269.10015625 -15.22507812 270.0128125 -14.50390625 270.953125 C-11.04458583 275.16259447 -7.46634001 279.26176172 -3.87866211 283.36181641 C-0.39105421 287.35946973 3.04698208 291.38053243 6.3125 295.5625 C7.03050781 296.47128906 7.74851562 297.38007813 8.48828125 298.31640625 C10.31874215 301.5658291 10.51719428 303.32163693 10 307 C8.15105538 311.034061 5.72355714 313.30536174 2.25 316 C-2.41621689 319.70461869 -6.94943781 323.51917778 -11.4375 327.4375 C-12.72005086 328.54427225 -14.00260294 329.65104309 -15.28515625 330.7578125 C-17.66465472 332.81844712 -20.00101731 334.9139827 -22.30859375 337.0546875 C-23.33064976 337.97404661 -24.35278078 338.89332235 -25.375 339.8125 C-26.24898438 340.62332031 -27.12296875 341.43414062 -28.0234375 342.26953125 C-32.23129497 344.71583159 -35.24184826 344.83506625 -40 344 C-44.56514343 342.58433755 -48.91813292 340.74754989 -53.3125 338.875 C-55.26940071 338.06230012 -57.22870525 337.25558916 -59.18817139 336.44909668 C-60.5740288 335.87834554 -61.95914838 335.30579993 -63.34356689 334.73156738 C-72.1310133 331.09436857 -81.00540602 327.68059908 -89.875 324.25 C-92.19227001 323.35144141 -94.50933138 322.45234656 -96.82637024 321.55319214 C-99.88378083 320.36759235 -102.9419627 319.18398237 -106 318 C-106 310.74 -106 303.48 -106 296 C-105.67 296 -105.34 296 -105 296 C-105 297.65 -105 299.3 -105 301 C-104.12146111 301.13825195 -104.12146111 301.13825195 -103.22517395 301.27929688 C-96.17567842 302.5226779 -89.8694452 304.7904545 -83.26171875 307.5 C-81.63602715 308.15452148 -81.63602715 308.15452148 -79.97749329 308.82226562 C-76.5441437 310.20671547 -73.11580564 311.60311317 -69.6875 313 C-67.36685978 313.93830005 -65.04589901 314.87580771 -62.72460938 315.8125 C-57.62414402 317.87225418 -52.52680681 319.93953372 -47.43217468 322.01367188 C-46.62955704 322.33916016 -45.82693939 322.66464844 -45 323 C-44.13353348 323.37382812 -43.26706696 323.74765625 -42.37434387 324.1328125 C-39.13265179 325.31678374 -37.29035714 324.9900945 -34 324 C-31.30238638 322.04896002 -31.30238638 322.04896002 -28.8125 319.5 C-24.09052656 314.97261337 -19.23849511 310.96400608 -14.01953125 307.0078125 C-13.35308594 306.34523438 -12.68664062 305.68265625 -12 305 C-12 299.90460082 -14.12368404 298.1223888 -17.375 294.5625 C-18.48017851 293.30932854 -19.58300003 292.05407495 -20.68359375 290.796875 C-21.24030762 290.16330078 -21.79702148 289.52972656 -22.37060547 288.87695312 C-32.36337137 277.36595758 -40.14040224 266.4161133 -40.11352539 250.6394043 C-40.11367142 249.91690994 -40.11381744 249.19441559 -40.1139679 248.45002747 C-40.11327422 246.07472678 -40.10550745 243.69950565 -40.09765625 241.32421875 C-40.09579013 239.67226708 -40.09436714 238.02031485 -40.09336853 236.36836243 C-40.08955861 232.02992208 -40.07974139 227.69151545 -40.06866455 223.35308838 C-40.0584176 218.92224585 -40.05386388 214.49139785 -40.04882812 210.06054688 C-40.03811771 201.37368248 -40.02105966 192.68684544 -40 184 C-40.94166016 183.85900879 -41.88332031 183.71801758 -42.85351562 183.57275391 C-49.77314415 182.31317534 -55.15244966 177.32595985 -59.61328125 172.1015625 C-63.72298931 165.87332888 -65.69055773 160.7498048 -65.625 153.25 C-65.67333984 152.1671875 -65.67333984 152.1671875 -65.72265625 151.0625 C-65.74872654 136.15029652 -52.43966846 121.96849247 -44.4375 110.3125 C-42.45773383 107.42055735 -40.48021891 104.52714021 -38.50709534 101.63066101 C-37.28690427 99.84024255 -36.06282252 98.05246681 -34.83409119 96.26789856 C-33.19267875 93.86374652 -31.59159523 91.43733366 -30 89 C-29.50376129 88.28343231 -29.00752258 87.56686462 -28.49624634 86.82858276 C-24.43741009 80.46724736 -24.33990629 74.81701206 -24.46875 67.40625 C-24.46548706 66.21954712 -24.46222412 65.03284424 -24.4588623 63.81018066 C-24.44906809 60.03965613 -24.47057759 56.27040983 -24.5 52.5 C-24.53877735 47.53077736 -24.54491358 42.56307512 -24.53125 37.59375 C-24.55086792 36.4653772 -24.57048584 35.33700439 -24.59069824 34.17443848 C-24.56408004 26.0369187 -22.92692113 20.08258478 -17.19543457 14.12390137 C-11.76253698 9.12050349 -7.43882241 7.70828147 0 8 C0 5.36 0 2.72 0 0 Z " fill="#F94354" transform="translate(478,113)"/>
<path d="M0 0 C0 5.61 0 11.22 0 17 C-1.29623291 17.54414551 -2.59246582 18.08829102 -3.92797852 18.64892578 C-8.76229939 20.68234851 -13.58928834 22.73269847 -18.41430664 24.78808594 C-20.49862468 25.67321394 -22.58487084 26.5538164 -24.6730957 27.4296875 C-27.68445975 28.69369912 -30.68838047 29.97413766 -33.69140625 31.2578125 C-35.08088219 31.83476364 -35.08088219 31.83476364 -36.49842834 32.42337036 C-43.89750841 35.61653772 -50.89112044 39.71659428 -54.30664062 47.36328125 C-55.9772132 53.71616286 -55.69031715 60.46958568 -55.75 67 C-55.77819683 68.55341819 -55.80812938 70.10680589 -55.83984375 71.66015625 C-55.91327072 75.44004909 -55.96311166 79.21958122 -56 83 C-57.73632886 82.53759677 -59.47184874 82.07215528 -61.20703125 81.60546875 C-62.17358643 81.34660889 -63.1401416 81.08774902 -64.13598633 80.82104492 C-67.85580935 79.75465972 -71.40376834 78.42492198 -75 77 C-74.01 76.505 -74.01 76.505 -73 76 C-73.02618408 75.28569824 -73.05236816 74.57139648 -73.0793457 73.83544922 C-74.1121194 41.3775945 -74.1121194 41.3775945 -62.35717773 28.32128906 C-54.24044226 20.3281331 -43.23432796 16.1813958 -32.91137695 11.80078125 C-30.43386711 10.74845693 -27.96373983 9.68011374 -25.49414062 8.609375 C-5.4983269 0 -5.4983269 0 0 0 Z " fill="#D9D6D9" transform="translate(357,414)"/>
</svg>
