<?xml version="1.0" encoding="UTF-8"?>
<svg version="1.1" xmlns="http://www.w3.org/2000/svg" width="512" height="512">
<path d="M0 0 C4.54721425 3.45508856 7.50152321 8.34364512 10.5 13.125 C12.22226496 16.37349977 12.22226496 16.37349977 15.5 17.125 C17.19174073 17.30558899 18.8882292 17.44339698 20.5859375 17.5546875 C21.59350098 17.62606934 22.60106445 17.69745117 23.63916016 17.77099609 C24.7069873 17.84656738 25.77481445 17.92213867 26.875 18 C51.78829967 19.94317075 51.78829967 19.94317075 60.875 28.3125 C63.19378011 32.32577327 63.39391121 35.59634239 62.5 40.125 C61.33659757 42.49608661 59.99707309 44.69229251 58.62109375 46.9453125 C56.10327103 51.84059151 57.36248326 56.6602353 58.5 61.75 C60.36065945 70.39738132 61.14690231 79.3394978 56.5 87.125 C50.66399424 93.25280605 43.44834327 96.05306282 35.01953125 96.40625 C25.82925415 96.55738147 16.64248043 96.04417218 7.5 95.125 C8.28375 96.07375 9.0675 97.0225 9.875 98 C12.99329909 102.40125643 14.26579308 106.74691516 14.5 112.125 C13.34169384 117.47102842 11.19454265 119.59736388 6.8125 122.5625 C5.37848964 123.42251234 3.94152061 124.27763628 2.5 125.125 C4.76727391 138.53405064 9.22479471 155.51749578 20.5 164.125 C26.61402136 168.05018067 33.474252 170.3093366 40.32421875 172.62109375 C48.32032395 176.40768723 51.30069131 180.90629426 54.26416016 189.18798828 C54.84496338 190.88930908 54.84496338 190.88930908 55.4375 192.625 C63.05498346 213.56945491 71.54256465 226.85164392 91.76171875 237.29296875 C98.21988539 240.08321113 104.99564277 239.87343638 111.6875 238.125 C119.31218131 236.26631434 129.04586937 235.08546979 136.0625 239.1875 C140.76170038 242.79124408 145.39051327 247.515683 147.5 253.125 C147.74770238 256.52206127 147.86595947 259.87740638 147.890625 263.28125 C148.00670166 266.737755 148.20766717 268.74471958 150.34375 271.5234375 C152.91578698 273.43382729 155.61411949 274.74479628 158.5 276.125 C160.5 278.125 160.5 278.125 160.59765625 280.97265625 C161.16070521 284.12292864 161.16070521 284.12292864 163.13623047 285.37841797 C165.36533364 286.55925971 167.61453659 287.57934489 169.9375 288.5625 C170.72705078 288.92537109 171.51660156 289.28824219 172.33007812 289.66210938 C175.36391088 291.03128314 175.36391088 291.03128314 178.5 292.125 C179.16 291.795 179.82 291.465 180.5 291.125 C185.41699135 290.65548666 187.53361132 290.5374083 191.80859375 293.13671875 C192.86617033 294.0112755 193.90893466 294.90400065 194.9375 295.8125 C196.05871675 296.7415639 197.18372656 297.66606944 198.3125 298.5859375 C198.85390625 299.02905273 199.3953125 299.47216797 199.953125 299.92871094 C201.99794551 301.51009043 204.15022535 302.73977172 206.4375 303.9375 C219.82547866 311.00947416 225.45756341 324.01890853 230.875 337.5625 C232.32157084 345.80795378 232.86992827 354.61144606 228.91015625 362.21875 C225.73283854 366.51384984 221.53619448 369.44626851 216.5 371.125 C208.38341085 372.0703598 202.16348569 370.92310871 195.5 366.125 C189.08657291 360.59205323 183.3616333 354.20555848 177.90234375 347.74609375 C176.50193675 346.12723886 175.03116482 344.61981669 173.5 343.125 C169.69893621 344.3467705 168.02274912 346.71492034 166.203125 350.1953125 C164.98566709 353.5365581 165.46599862 355.77970141 166.5 359.125 C169.06846168 362.86094426 171.92603082 365.52429302 175.375 368.4375 C183.17189965 375.14371804 188.73210316 382.46766249 189.77734375 392.890625 C190.0214799 400.03893139 189.22840888 405.1442252 184.26171875 410.5703125 C180.61981872 413.93919881 176.6183142 416.4174951 172.4375 419.0625 C167.26698698 422.6928602 164.16837221 426.00664462 161.9375 431.9375 C161.52113281 432.98808594 161.10476563 434.03867187 160.67578125 435.12109375 C160.09376953 436.60802734 160.09376953 436.60802734 159.5 438.125 C156.72129263 444.9413393 153.30165541 449.67456842 146.609375 453.08984375 C142.26511846 454.7562475 138.08902881 455.28455629 133.46118164 455.68164062 C125.77541351 456.16046419 125.77541351 456.16046419 119.625 460.375 C115.52758865 466.29046804 115.13555888 472.93554061 114.625 479.875 C113.61972834 491.13322939 111.51360556 500.47936369 102.5 508.125 C95.75150311 511.59598069 87.54260839 511.10578061 80.328125 509.35546875 C69.27549862 505.38606105 58.89019452 499.10029449 48.9296875 492.93359375 C40.97651268 488.01036187 32.83849412 483.74772107 24.4375 479.625 C-8.51209953 463.38230571 -8.51209953 463.38230571 -14.5 448.125 C-17.13197326 440.22908022 -16.08990628 431.65417356 -12.625 424.20703125 C-9.03519302 417.56339541 -3.63430924 413.50310308 3.5 411.125 C16.4257598 409.90822323 25.61852827 414.37573232 36.65234375 420.63671875 C45.99044193 425.51712397 57.65325542 423.25808245 67.64453125 421.62109375 C70.58427251 421.24282917 73.37273379 421.01273093 76.32421875 420.91015625 C77.16057861 420.88107178 77.99693848 420.8519873 78.85864258 420.82202148 C80.48960625 420.77534114 82.12110767 420.74394779 83.75268555 420.73071289 C89.39126974 420.56745767 93.8660025 419.45675231 98.5 416.125 C100.92536052 413.35277429 100.92536052 413.35277429 102.6875 410.1875 C106.55145175 403.75300351 111.14986777 397.57504408 118.5 395.125 C118.37085205 394.52494141 118.2417041 393.92488281 118.10864258 393.30664062 C116.99772507 387.97918086 116.15460626 382.68798328 115.51293945 377.28540039 C113.82052962 362.48256379 113.82052962 362.48256379 105 351 C102.48850928 349.29218631 99.91551336 347.79494527 97.26953125 346.30078125 C90.80983226 342.58554194 86.34841223 339.94162945 83.4296875 332.91015625 C82.57479727 330.76362695 82.57479727 330.76362695 79.5 330.125 C74.2517363 329.67988099 69.81340552 330.27021146 64.73046875 331.66015625 C58.64301354 332.9288203 51.92635151 333.38922367 46.3125 330.375 C37.65708875 324.0181212 29.78399881 311.7558686 25.55859375 301.9375 C24.15281204 299.53055271 23.12208766 299.06648785 20.5 298.125 C18.09260553 297.62022374 15.67412247 297.16710609 13.25 296.75 C1.48375769 294.52109644 -7.03415595 289.60011847 -14.046875 279.62109375 C-16.21079638 276.4194402 -18.29784826 273.17011964 -20.3671875 269.90673828 C-23.91899357 264.32029847 -27.28579717 259.09443578 -32.3125 254.75 C-37.4385832 249.93307746 -40.02030523 243.57120638 -42.91137695 237.27001953 C-45.53997271 231.62802438 -47.90081684 226.56131999 -54.015625 224.12109375 C-54.91796875 223.93675781 -55.8203125 223.75242188 -56.75 223.5625 C-57.79929688 223.32917969 -58.84859375 223.09585938 -59.9296875 222.85546875 C-61.78241488 222.47640965 -63.63524361 222.09781185 -65.48925781 221.72509766 C-80.12492034 218.74096093 -95.22066583 214.34230813 -104.25 201.5 C-108.26916179 194.50270521 -109.39639894 186.74927716 -110.109375 178.82543945 C-111.15427331 167.50612644 -114.30422683 158.43650426 -122.7890625 150.4296875 C-125.63743179 148.25764334 -127.78882314 147.24174586 -131.35546875 146.65625 C-135.68124791 147.30108665 -137.85408351 149.63270681 -140.8125 152.625 C-141.96064526 153.73077227 -143.1090836 154.8362403 -144.2578125 155.94140625 C-145.3389805 157.00215707 -146.41974296 158.06332149 -147.5 159.125 C-157.76202181 169.01707432 -166.68215463 173.55821267 -181.01171875 173.39453125 C-185.74926893 173.02847194 -188.81288112 172.08897312 -192.5 169.125 C-197.52031533 163.25923395 -198.58880087 156.96342781 -199.5625 149.5 C-200.76548301 140.47474951 -202.58447059 135.00506364 -209 128.3125 C-215.1273857 121.34177519 -216.95974301 115.26780272 -216.8359375 106.01953125 C-216.5 103.125 -216.5 103.125 -215.5 100.50390625 C-213.73295169 94.53321566 -214.13976598 88.25856887 -214.109375 82.06640625 C-213.92641872 73.94518008 -212.48697171 68.4949168 -207.0625 62.375 C-203.13481262 59.34593518 -198.26351566 58.46160986 -193.5234375 57.3125 C-188.26351973 55.24658914 -186.33740968 50.98710309 -183.8125 46.1875 C-180.46984449 40.48882521 -175.90289814 36.55726807 -169.5546875 34.4921875 C-162.94252145 33.31054566 -156.35383706 33.26268757 -150.41796875 36.640625 C-147.23103972 39.10708738 -144.71439059 42.09513417 -142.1640625 45.19921875 C-140.08871563 47.60096993 -138.98799071 48.03204939 -135.875 48.625 C-131.41922848 47.9648857 -129.76620334 45.88670087 -126.5625 42.87109375 C-122.8640842 39.74004856 -118.68394378 38.61681726 -114.01953125 37.56640625 C-106.03701689 35.62210245 -102.59606227 31.71334713 -98.08984375 25.03515625 C-91.70516805 15.76937342 -82.26748078 11.98244106 -71.625 9.4375 C-64.15892814 8.69089281 -57.25863456 8.86625675 -49.984375 10.78515625 C-42.85096736 11.76095258 -38.44633504 9.20776549 -32.9375 5.1875 C-23.67393159 -1.47510719 -10.96456347 -6.08425777 0 0 Z " fill="#010101" transform="translate(248.5,1.875)"/>
<path d="M0 0 C3.15278018 2.19739225 4.78772393 5.24048516 6.8125 8.4375 C10.95415403 14.74859186 15.1149695 17.82051346 22.51611328 19.56030273 C27.7144202 20.48050627 32.98779432 20.72480265 38.25 21.0625 C40.5679176 21.21694275 42.88563897 21.37436737 45.203125 21.53515625 C46.22051758 21.600979 47.23791016 21.66680176 48.28613281 21.73461914 C50.6320907 21.96402326 52.74031405 22.3501887 55 23 C54.71125 23.70125 54.4225 24.4025 54.125 25.125 C53.568125 26.548125 53.568125 26.548125 53 28 C52.443125 29.299375 52.443125 29.299375 51.875 30.625 C49.7454092 38.83913593 51.10143352 46.20728141 53.33203125 54.25 C54.15823345 57.65144064 54.23695881 60.52460406 54 64 C43.87366471 69.60073853 35.21354752 68.27143905 24.140625 66.4609375 C16.11069151 65.28241492 9.85575908 65.26508726 3 70 C0.1519944 72.4920049 0.02433307 73.82358522 -0.5 77.625 C-0.34615008 82.19776141 1.53012754 85.65833025 3.7109375 89.60546875 C5.00874658 92.01624743 6.02799379 94.4428061 7 97 C6.0925 97.515625 5.185 98.03125 4.25 98.5625 C-0.03829717 101.47894855 -2.41734191 105.05403712 -3.41796875 110.11328125 C-3.93474253 118.42356238 -0.7651033 126.29991782 2 134 C2.24057129 134.67885254 2.48114258 135.35770508 2.72900391 136.05712891 C8.39250612 151.80933793 16.53757624 162.33371623 31.9296875 169.71484375 C35.73891594 171.30929179 39.61608539 172.47269954 43.625 173.45703125 C47.47858734 175.96059539 48.42903303 179.80900833 50 184 C50.31275879 184.79720459 50.62551758 185.59440918 50.94775391 186.41577148 C51.58404691 188.03964767 52.21466162 189.66575922 52.83984375 191.29394531 C57.73173 205.79096316 57.73173 205.79096316 66.92089844 217.38665771 C70.86862269 220.43736483 72.76391499 222.75394146 73.70715332 227.73236084 C74.03073641 232.43659665 73.90042539 237.13391499 73.78125 241.84375 C73.76631103 243.58106877 73.75493183 245.31842147 73.74694824 247.05578613 C73.71654326 251.60720459 73.63808528 256.15654898 73.54931641 260.70715332 C73.46717055 265.35917101 73.43087579 270.01152709 73.390625 274.6640625 C73.30507598 283.77694814 73.16871391 292.88830097 73 302 C69.16442783 303.64869031 67.02706402 304.53378967 63 303 C61.13476562 300.9621582 61.13476562 300.9621582 59.40625 298.30078125 C58.76816406 297.33849609 58.13007813 296.37621094 57.47265625 295.38476562 C56.82167969 294.37091797 56.17070312 293.35707031 55.5 292.3125 C47.13225922 279.52891186 41.49221551 271.51214343 26 268 C25.18660156 267.86207031 24.37320313 267.72414063 23.53515625 267.58203125 C16.77036406 266.41409277 12.91629528 263.97148594 8.82324219 258.39746094 C5.14580746 253.14600488 1.71562752 247.7339099 -1.69140625 242.3046875 C-4.09975712 238.53794799 -6.36358468 235.61519771 -9.75 232.6875 C-14.85991951 227.87125403 -17.44093473 221.61478759 -20.32324219 215.32104492 C-24.8739725 205.54897998 -29.85367441 199.91612567 -40 196 C-42.26941323 195.41093434 -44.55030871 194.86461165 -46.83984375 194.359375 C-47.99734131 194.10124023 -49.15483887 193.84310547 -50.34741211 193.57714844 C-51.22276611 193.38668945 -52.09812012 193.19623047 -53 193 C-53.00146656 192.44193035 -53.00293312 191.8838607 -53.00444412 191.30887985 C-53.0414961 177.72968277 -53.10074207 164.15073872 -53.18390274 150.57174301 C-53.2234467 144.00501237 -53.25560133 137.43841722 -53.27099609 130.87158203 C-53.28611693 124.53665801 -53.32048144 118.20210631 -53.36830902 111.86734772 C-53.38317002 109.4480233 -53.3910437 107.02864573 -53.39188385 104.60927582 C-53.394241 101.22576488 -53.42122102 97.84329346 -53.45410156 94.45996094 C-53.4490712 93.45511154 -53.44404083 92.45026215 -53.43885803 91.41496277 C-53.45546512 86.05771033 -53.45546512 86.05771033 -55.84661865 81.40875244 C-58.03418211 79.84708584 -58.03418211 79.84708584 -61 79 C-61 72.07 -61 65.14 -61 58 C-59.35 57.34 -57.7 56.68 -56 56 C-53.9774466 52.9661699 -53.74422913 52.31241136 -53.68115234 48.89575195 C-53.66128265 48.07512772 -53.64141296 47.25450348 -53.62094116 46.40901184 C-53.60361435 45.0870002 -53.60361435 45.0870002 -53.5859375 43.73828125 C-53.56657135 42.83248825 -53.5472052 41.92669525 -53.5272522 40.99345398 C-53.46746458 38.09989849 -53.42107432 35.2063032 -53.375 32.3125 C-53.33681946 30.35089409 -53.29776769 28.38930494 -53.2578125 26.42773438 C-53.16176368 21.6186256 -53.07772957 16.80943834 -53 12 C-45.25 11.875 -45.25 11.875 -43 13 C-29.34749437 14.28450994 -21.77876907 10.27568635 -11.03125 2.453125 C-7.25067589 -0.25143955 -4.65845831 -0.40159123 0 0 Z " fill="#D0D0FD" transform="translate(239,15)"/>
<path d="M0 0 C9 3 9 3 12.5 4.171875 C16.74610365 5.17653345 20.65545836 5.293737 25 5.25 C25.76828125 5.25773437 26.5365625 5.26546875 27.328125 5.2734375 C32.22571155 5.25677904 36.29791388 4.50536502 41 3 C45.48159571 2.4496286 47.33096725 2.57753952 51.1796875 5.0078125 C53.93827852 7.42656776 54.00009938 8.00062033 54.62890625 11.92578125 C54.62757965 13.38818777 54.6046811 14.85070134 54.5625 16.3125 C54.68131864 24.37403112 54.68131864 24.37403112 58.33203125 31.421875 C62.53698296 35.40033048 67.91238276 39.57896128 73.75 40.375 C77.87424791 40.19986012 77.87424791 40.19986012 83 35 C88.28 37.64 93.56 40.28 99 43 C99 45.41702584 98.96789385 47.83475992 98.875 50.25 C101.25253665 58.17512217 109.84744868 61.95628105 116.625 65.9375 C127.41607017 72.45022823 132.53484268 80.74962543 137.3125 92.125 C138.24521761 96.02545548 138.38916794 98.978598 138 103 C136.3125 105.5625 136.3125 105.5625 134 107 C125.03302174 106.11776504 119.07552831 96.97550556 113.36645508 90.71459961 C105.99406143 82.31874443 105.99406143 82.31874443 96 78 C90.56388504 77.84040763 86.01585548 78.72079438 81.703125 82.13671875 C74.54122186 89.97210361 71.60393521 98.32759044 71.73046875 108.71484375 C72.57321765 118.98660931 80.83149933 126.39872687 88.3125 132.75 C91.93921902 135.87083091 94.56391262 138.24967621 95.34375 143.16796875 C95.63675391 147.6582537 95.63675391 147.6582537 95 150 C91.58160696 153.23683004 87.57363769 155.58324035 83.625 158.125 C73.82443624 164.77203966 69.6165348 172.80486107 66.23828125 183.99609375 C64.9055602 187.22909844 64.00191405 188.30675976 61 190 C57.64599325 191.11800225 54.84223554 191.21473093 51.3125 191.375 C43.04462501 191.92903286 37.32500586 193.39195909 31 199 C29.00655562 201.56529384 29.00655562 201.56529384 27.3125 204.375 C26.73113281 205.29023438 26.14976562 206.20546875 25.55078125 207.1484375 C22.53232857 212.69874092 21.76570996 217.40030712 21.5625 223.6875 C20.83212314 239.43420708 20.83212314 239.43420708 16.59765625 244.765625 C13.79440048 246.93146564 11.41657412 246.39206588 8 246 C5.36 244.68 2.72 243.36 0 242 C0 223.85 0 205.7 0 187 C5.61 186.67 11.22 186.34 17 186 C28.6900238 181.47838702 34.17280431 175.20769953 40.73828125 164.8828125 C42.3779695 162.43597121 43.2936065 161.14398613 46.2421875 160.54296875 C47.54542969 160.36701172 47.54542969 160.36701172 48.875 160.1875 C52.32031886 159.52934936 53.84947909 159.11551605 56.6875 156.9375 C59.64453555 150.31937282 56.54953371 143.11675768 54.64990234 136.50341797 C53.25857114 131.47568091 52.38767107 126.44751251 51.59619141 121.29370117 C49.57903242 108.26369026 47.03790073 98.57313529 36.56640625 89.8203125 C33.7551119 87.82630464 30.8531372 86.24516604 27.8125 84.625 C22.34939728 81.62132688 20.35210562 78.74617867 17.5546875 73.30859375 C14.78594221 69.19721569 10.60198431 67.5082723 6 66 C4.02 65.67 2.04 65.34 0 65 C0 43.55 0 22.1 0 0 Z " fill="#F85B6E" transform="translate(327,251)"/>
<path d="M0 0 C0.01458252 1.16571533 0.02916504 2.33143066 0.04418945 3.5324707 C0.10213117 7.85456122 0.17936394 12.17612847 0.26245117 16.49780273 C0.29572002 18.36881014 0.32374585 20.23991838 0.34643555 22.11108398 C0.37994588 24.79975383 0.43225865 27.48749798 0.48828125 30.17578125 C0.49467117 31.01337479 0.5010611 31.85096832 0.50764465 32.71394348 C0.48318794 36.99130548 0.48318794 36.99130548 2.33952332 40.68254089 C4.07773065 42.21586963 4.07773065 42.21586963 7 43 C7 49.93 7 56.86 7 64 C5.35 64.66 3.7 65.32 2 66 C0.83993634 68.32012731 0.86316148 69.68076963 0.84178162 72.26467896 C0.8319928 73.15932861 0.82220398 74.05397827 0.81211853 74.97573853 C0.80636307 75.95972626 0.8006076 76.94371399 0.79467773 77.95751953 C0.78477814 78.99169006 0.77487854 80.0258606 0.76467896 81.09136963 C0.73300162 84.52182701 0.70828189 87.95229827 0.68359375 91.3828125 C0.66302961 93.75650398 0.64203328 96.13019175 0.62062073 98.50387573 C0.56534433 104.76085412 0.51595963 111.01786587 0.46777344 117.27490234 C0.41759902 123.65595478 0.3618918 130.03695861 0.30664062 136.41796875 C0.19899096 148.94527072 0.09737338 161.47261416 0 174 C-1.29305622 173.37430868 -2.58379735 172.7438314 -3.87353516 172.11132812 C-4.59256012 171.76074341 -5.31158508 171.41015869 -6.05239868 171.0489502 C-8.31580239 169.82991335 -9.78794799 168.51821643 -11.375 166.5 C-11.83648437 165.9328125 -12.29796875 165.365625 -12.7734375 164.78125 C-15.94262204 160.17886735 -16.42254141 156.07286069 -16.875 150.5625 C-18.45946291 134.6169395 -23.23221294 121.06638348 -35.8046875 110.48046875 C-42.21384736 105.3556347 -48.43803488 102.27334323 -56.79296875 102.671875 C-67.03089025 104.19397306 -74.32986144 113.5157746 -81.453125 120.35546875 C-87.13751086 125.65228285 -92.9806346 130.18495481 -101.0625 130.25 C-102.031875 130.1675 -103.00125 130.085 -104 130 C-105.63986926 125.58652471 -106.36064515 121.55244255 -106.8125 116.875 C-108.08597179 106.2007753 -111.08940117 97.85932783 -119.23046875 90.62109375 C-121.63463938 88.41859748 -122.92014839 86.75859034 -123.265625 83.4765625 C-123.26046875 82.53554687 -123.2553125 81.59453125 -123.25 80.625 C-123.25515625 79.68914062 -123.2603125 78.75328125 -123.265625 77.7890625 C-123 75 -123 75 -121.9765625 72.80859375 C-120.17670621 67.63220705 -121.01015144 61.99027017 -121.25390625 56.57226562 C-121.42034866 49.645324 -121.42034866 49.645324 -119.3359375 46.4453125 C-116.71351173 44.82274137 -114.5096946 44.09483715 -111.5 43.4375 C-107.54210452 42.56219619 -105.16827105 41.50821458 -102 39 C-101.34 39 -100.68 39 -100 39 C-99.73960938 38.46632812 -99.47921875 37.93265625 -99.2109375 37.3828125 C-97.74900821 34.50611292 -96.20739739 31.68738314 -94.625 28.875 C-94.03976563 27.82054688 -93.45453125 26.76609375 -92.8515625 25.6796875 C-90.96004577 22.94217594 -90.18170387 21.84459775 -87 21 C-83.14024873 21.09141516 -81.50615681 21.52927417 -78.65625 24.1796875 C-77.9446875 25.06914063 -77.233125 25.95859375 -76.5 26.875 C-72.32668786 32.06139878 -68.93883598 34.60714006 -62.23046875 35.50390625 C-60.88339243 35.54799959 -59.53529082 35.56683064 -58.1875 35.5625 C-57.48407471 35.5622583 -56.78064941 35.5620166 -56.0559082 35.56176758 C-49.62792344 35.3506375 -45.59757377 33.34391453 -41 29 C-40.38318359 28.23236328 -40.38318359 28.23236328 -39.75390625 27.44921875 C-36.98967836 25.16519081 -33.64673204 24.55509428 -30.25 23.625 C-19.67325893 20.47123373 -15.24235736 16.7717283 -8.859375 7.60546875 C-3.43178411 0 -3.43178411 0 0 0 Z " fill="#00BC71" transform="translate(171,30)"/>
<path d="M0 0 C6.78600063 3.77687991 10.28130983 8.65040077 12.73046875 15.94921875 C14.60971371 26.22242455 13.18765752 36.88280211 10.796875 46.921875 C9.90162884 51.38211927 9.39465484 54.65384085 11.41796875 58.82421875 C11.96582031 59.64664063 12.51367188 60.4690625 13.078125 61.31640625 C17.90125188 68.636613 17.35529344 75.20433872 17.390625 83.81640625 C17.41125 85.05003906 17.431875 86.28367187 17.453125 87.5546875 C17.48941988 96.09305917 16.94714055 103.7945319 12.265625 111.12890625 C9.03384382 114.26563504 6.56422965 116.10352942 1.9765625 116.38671875 C0.83445312 116.36351562 -0.30765625 116.3403125 -1.484375 116.31640625 C-8.77878591 116.64553497 -12.27793452 119.09088634 -17.45703125 124.0625 C-20.98266662 127.18684354 -23.55704863 128.07986441 -28.234375 128.48046875 C-36.37266658 127.83151015 -45.72288381 123.49054408 -51.59375 117.73828125 C-55.7022465 112.71678553 -56.38191563 107.55887851 -56.2265625 101.29296875 C-55.65875258 96.49678706 -54.23307518 92.0216748 -52.82421875 87.4140625 C-50.38094667 79.2533359 -50.20499313 71.62571507 -54.015625 63.82421875 C-55.88125533 60.6630118 -57.89089944 57.61667729 -59.95361328 54.58105469 C-67.31076999 43.73273351 -73.90396918 32.89229509 -71.859375 19.19140625 C-70.28063978 13.71721193 -67.51066063 10.19325984 -62.71484375 7.15625 C-57.05235816 4.21175749 -51.05795022 3.16383908 -44.81640625 4.69140625 C-39.99965689 6.28192761 -37.1656105 8.36857145 -33.859375 12.19140625 C-30.52038539 10.77707441 -28.74393919 9.12760113 -26.484375 6.31640625 C-19.01356034 -2.51711066 -10.74590994 -5.24502747 0 0 Z " fill="#000100" transform="translate(144.859375,278.80859375)"/>
<path d="M0 0 C1.98828125 0.76171875 1.98828125 0.76171875 4.80078125 2.94921875 C8.96199415 6.07012843 13.65989826 7.79199191 18.48168945 9.61791992 C29.39237067 13.75021858 29.39237067 13.75021858 31.4921875 17.31445312 C31.84152344 18.31798828 32.19085938 19.32152344 32.55078125 20.35546875 C32.95554687 21.46921875 33.3603125 22.58296875 33.77734375 23.73046875 C34.17695313 24.89578125 34.5765625 26.06109375 34.98828125 27.26171875 C38.83242698 38.17413242 42.67920553 48.89157822 50.80078125 57.38671875 C51.57035156 58.20398438 52.33992188 59.02125 53.1328125 59.86328125 C54.08078428 60.83320606 55.02927014 61.80270764 55.98828125 62.76171875 C56.08326771 65.19567894 56.11386542 67.60114827 56.10180664 70.03540039 C56.10195267 70.79632492 56.10209869 71.55724945 56.10224915 72.3412323 C56.10154987 74.86814173 56.0937568 77.39497837 56.0859375 79.921875 C56.08407337 81.66922465 56.08264945 83.41657482 56.08164978 85.16392517 C56.07782418 89.77203809 56.06799354 94.3801197 56.0569458 98.98822021 C56.04673259 103.68680396 56.04215235 108.38539274 56.03710938 113.08398438 C56.0263713 122.30990962 56.00929438 131.53581159 55.98828125 140.76171875 C52.15270908 142.41040906 50.01534527 143.29550842 45.98828125 141.76171875 C44.12304688 139.72387695 44.12304688 139.72387695 42.39453125 137.0625 C41.43740234 135.61907227 41.43740234 135.61907227 40.4609375 134.14648438 C39.80996094 133.13263672 39.15898437 132.11878906 38.48828125 131.07421875 C28.28002948 115.2412536 28.28002948 115.2412536 11.6640625 107.3125 C8.83142865 106.63571089 8.83142865 106.63571089 5.23828125 106.76171875 C0.44412434 105.28659355 -0.87576304 102.22383695 -3.31640625 97.98828125 C-15.80613731 74.21750278 -21.48040545 44.43785277 -13.35546875 18.08984375 C-5.77538881 -0.68407518 -5.77538881 -0.68407518 0 0 Z " fill="#EAE8FD" transform="translate(256.01171875,176.23828125)"/>
<path d="M0 0 C3.20627322 1.12603954 4.13138136 2.04123013 5.76953125 4.97265625 C7.99434658 11.64710223 7.03521126 18.47222679 5.26953125 25.16015625 C2.91149843 34.72898508 1.47057447 45.09881071 6.70703125 53.91015625 C7.9839529 55.71837391 9.20592953 57.40905453 10.76953125 58.97265625 C11.02296128 62.71575384 10.95476362 66.47200108 10.95703125 70.22265625 C10.96927734 71.27324219 10.98152344 72.32382812 10.99414062 73.40625 C10.99607422 74.42332031 10.99800781 75.44039063 11 76.48828125 C11.00410889 77.41930664 11.00821777 78.35033203 11.01245117 79.30957031 C10.7498162 82.18878871 9.96576548 84.35439376 8.76953125 86.97265625 C8.00769531 86.98683594 7.24585938 87.00101562 6.4609375 87.015625 C-1.60896407 87.38839199 -8.07579414 88.75987431 -13.90625 94.671875 C-14.40511719 95.22488281 -14.90398437 95.77789062 -15.41796875 96.34765625 C-18.23046875 98.97265625 -18.23046875 98.97265625 -21.16796875 99.09765625 C-24.84494722 97.74692946 -27.90114964 96.0368341 -31.23046875 93.97265625 C-31.67880888 88.48048964 -30.81893274 84.25821426 -29.23046875 78.97265625 C-25.41914996 65.78103673 -26.05323458 53.6855653 -32.5859375 41.4296875 C-35.09820195 37.08542323 -37.90227523 33.02618312 -40.85546875 28.97265625 C-44.87346937 23.29388203 -48.35508223 17.5241404 -48.10546875 10.41015625 C-47.23046875 7.97265625 -47.23046875 7.97265625 -45.23046875 6.97265625 C-41.56709171 6.57292312 -39.82019923 6.56559386 -36.74609375 8.6875 C-35.9984375 9.42097656 -35.25078125 10.15445312 -34.48046875 10.91015625 C-30.25852235 14.98131885 -28.47514194 16.05711388 -22.49609375 16.3984375 C-15.68039141 15.11755551 -11.44574062 9.07576481 -7.375 3.95507812 C-4.89721167 1.05485884 -3.90901059 -0.03308715 0 0 Z " fill="#009F59" transform="translate(136.23046875,292.02734375)"/>
<path d="M0 0 C2.92500371 1.23805511 5.62971027 2.78344127 8.375 4.375 C22.21892223 11.99955775 32.20970401 12.75447733 48 11 C48 25.52 48 40.04 48 55 C44.83633187 53.73453275 42.22369835 52.65968984 39.34765625 51.00390625 C38.66453369 50.61565674 37.98141113 50.22740723 37.27758789 49.82739258 C36.54660889 49.40997803 35.81562988 48.99256348 35.0625 48.5625 C28.00450501 44.57479526 20.83812586 40.88592686 13.5625 37.3125 C-12.46171817 24.42542148 -12.46171817 24.42542148 -15.78515625 14.703125 C-16.50563331 10.53415093 -16.23439074 8.46878147 -14.3125 4.625 C-9.61003406 -0.71293432 -7.06645105 -1.69138825 0 0 Z " fill="#E8E6FB" transform="translate(264,429)"/>
<path d="M0 0 C3.25921389 1.08338264 4.15482189 1.97421253 5.80859375 4.93359375 C8.03340908 11.60803973 7.07427376 18.43316429 5.30859375 25.12109375 C3.36622278 33.00317883 1.43596994 43.09894292 5.15625 50.6796875 C6.24390281 52.24559899 7.34906231 53.79951779 8.47265625 55.33984375 C11.11011296 60.46051994 10.24451728 66.33116911 9.80859375 71.93359375 C2.43240587 70.96164119 -3.56635579 65.98250556 -8.3203125 60.4609375 C-13.77511363 52.83835364 -17.53334772 45.23694538 -19.44140625 36.05859375 C-19.60543945 35.2706543 -19.76947266 34.48271484 -19.93847656 33.67089844 C-22.47967393 20.90177628 -22.47967393 20.90177628 -21.19140625 16.93359375 C-19.48782019 15.11490052 -17.74029246 13.94966974 -15.61328125 12.65234375 C-11.60449905 9.80740154 -8.74419112 5.83943591 -5.68359375 2.03125 C-3.19140625 -0.06640625 -3.19140625 -0.06640625 0 0 Z " fill="#00BB70" transform="translate(136.19140625,292.06640625)"/>
</svg>
