<?xml version="1.0" encoding="UTF-8"?>
<svg version="1.1" xmlns="http://www.w3.org/2000/svg" width="512" height="512">
<path d="M0 0 C0.99 -0.03287109 0.99 -0.03287109 2 -0.06640625 C5.27193402 0.96246363 6.272076 2.64971383 8 5.5625 C8.32502177 8.49062402 8.45494161 11.13922641 8.4375 14.0625 C9.14953942 42.06847779 21.08159759 72.82840113 36.46875 96.03125 C39.06875415 100.32921605 39.04612928 103.23360746 38.40234375 108.1640625 C37.53584874 118.66794961 37.14746432 127.85912008 44.11399841 136.22055054 C49.56710475 142.21949153 55.58994141 147.69606423 61.83520508 152.86032104 C66.89056707 157.07295861 66.89056707 157.07295861 68 160.5625 C68.22705078 163.21972656 68.22705078 163.21972656 68.1953125 166.203125 C68.18886719 167.27304688 68.18242187 168.34296875 68.17578125 169.4453125 C68.15902344 170.55648437 68.14226562 171.66765625 68.125 172.8125 C68.11597656 173.93914062 68.10695313 175.06578125 68.09765625 176.2265625 C68.07410658 179.00542365 68.0412168 181.7838539 68 184.5625 C68.92425781 184.68367187 69.84851563 184.80484375 70.80078125 184.9296875 C74.79101696 185.71896489 77.48643873 187.42230861 80 190.5625 C82.51904932 195.62500575 83.38315585 199.32513944 83.3984375 205.0703125 C83.40130768 205.75882294 83.40417786 206.44733337 83.40713501 207.15670776 C83.40916196 208.60041129 83.40372864 210.04414314 83.39111328 211.48779297 C83.37498826 213.68910212 83.39103197 215.88858954 83.41015625 218.08984375 C83.40817454 219.50000402 83.40433234 220.91016316 83.3984375 222.3203125 C83.39505371 223.5902002 83.39166992 224.86008789 83.38818359 226.16845703 C82.96778817 229.84414079 82.38797359 231.74402584 80 234.5625 C78.35 234.8925 76.7 235.2225 75 235.5625 C75 240.1825 75 244.8025 75 249.5625 C76.65 249.8925 78.3 250.2225 80 250.5625 C82.94030215 254.1551461 83.37780143 257.04227612 83.38818359 261.6027832 C83.39764008 262.79784988 83.40709656 263.99291656 83.4168396 265.22419739 C83.40773056 267.1492939 83.40773056 267.1492939 83.3984375 269.11328125 C83.40046092 270.45460671 83.40337458 271.79593109 83.40713501 273.13725281 C83.4115504 275.94569392 83.4051561 278.75384819 83.39111328 281.56225586 C83.37407101 285.14316221 83.38383529 288.72339144 83.40183067 292.30427265 C83.41273252 295.07458994 83.40919225 297.84474992 83.4014473 300.61507225 C83.39850062 302.57137368 83.40753899 304.52768147 83.4168396 306.48396301 C83.30192229 321.12160145 83.30192229 321.12160145 78.58358765 326.03852844 C77.11077497 327.28151127 75.55720964 328.42703463 74 329.5625 C70.8482747 332.15141721 70.0980973 334.64787288 69 338.5625 C68.70066105 341.96880069 68.70066105 341.96880069 68.74171448 345.62831116 C68.73620092 346.65976443 68.73620092 346.65976443 68.73057598 347.71205515 C68.72063967 350.00350733 68.72473794 352.29471475 68.72875977 354.58618164 C68.7243703 356.23410804 68.71906734 357.88203222 68.71292114 359.529953 C68.70143903 363.07230548 68.69596306 366.61459829 68.69503975 370.15696907 C68.69309674 375.75830131 68.675032 381.35951025 68.65428162 386.96080017 C68.60512971 400.8706626 68.57419138 414.78055839 68.55297852 428.69049072 C68.53646073 439.5065672 68.51367048 450.32253766 68.46995777 461.13854307 C68.44816955 466.7068944 68.44012459 472.27504437 68.44235051 477.84343541 C68.44068464 481.30610973 68.426642 484.76865232 68.40913773 488.23127937 C68.40353541 489.83689416 68.40305558 491.44253621 68.40807533 493.04815292 C68.41421043 495.24029446 68.40199765 497.43160342 68.38526917 499.62367249 C68.38325784 500.85016038 68.38124651 502.07664827 68.37917423 503.34030247 C67.93071523 507.15127741 66.73288178 509.82961822 64 512.5625 C56.81259523 513.15163154 56.81259523 513.15163154 53.5 510.75 C52 508.5625 52 508.5625 52 505.5625 C44.08 505.5625 36.16 505.5625 28 505.5625 C27.34 507.2125 26.68 508.8625 26 510.5625 C24 512.5625 24 512.5625 20.125 512.9375 C16.97272633 512.86299171 16.15611325 512.67568211 13.5 510.75 C12 508.5625 12 508.5625 12 505.5625 C4.08 505.5625 -3.84 505.5625 -12 505.5625 C-12.66 507.2125 -13.32 508.8625 -14 510.5625 C-16 512.5625 -16 512.5625 -19.875 512.9375 C-23.02727367 512.86299171 -23.84388675 512.67568211 -26.5 510.75 C-28 508.5625 -28 508.5625 -28 505.5625 C-35.92 505.5625 -43.84 505.5625 -52 505.5625 C-52.66 507.2125 -53.32 508.8625 -54 510.5625 C-56.63061501 513.19311501 -57.81776626 512.82543097 -61.48779297 512.85302734 C-63.21000565 512.8721669 -63.21000565 512.8721669 -64.9670105 512.89169312 C-66.83572311 512.89503159 -66.83572311 512.89503159 -68.7421875 512.8984375 C-70.01724152 512.9050943 -71.29229553 512.9117511 -72.60598755 512.91860962 C-75.30794187 512.92875235 -78.00949407 512.9342894 -80.71142578 512.93310547 C-84.17072832 512.93290239 -87.62920828 512.96018648 -91.08831596 512.99464989 C-94.38957576 513.02226383 -97.69082785 513.02106821 -100.9921875 513.0234375 C-102.23394745 513.03780853 -103.4757074 513.05217957 -104.75509644 513.06698608 C-105.90954254 513.06083282 -107.06398865 513.05467957 -108.25341797 513.04833984 C-109.26886688 513.05118988 -110.2843158 513.05403992 -111.33053589 513.05697632 C-114.72529045 512.42815133 -115.93150251 511.28185843 -118 508.5625 C-118 507.5725 -118 506.5825 -118 505.5625 C-127.57 505.5625 -137.14 505.5625 -147 505.5625 C-147.66 507.2125 -148.32 508.8625 -149 510.5625 C-151 512.5625 -151 512.5625 -154.875 513 C-158.37052348 512.93008953 -158.80705506 512.7457977 -161.5 510.1875 C-163 507.5625 -163 507.5625 -163 505.5625 C-166.10579494 505.58529401 -169.20790484 505.66257819 -172.3125 505.75 C-173.63411133 505.75870117 -173.63411133 505.75870117 -174.98242188 505.76757812 C-177.42175397 505.85105337 -179.63000423 505.97443015 -182 506.5625 C-184.13618264 508.89559215 -184.13618264 508.89559215 -185 511.5625 C-186 512.5625 -186 512.5625 -189.8125 512.875 C-193.00451891 512.8406156 -193.81111803 512.69943943 -196.5 510.75 C-198 508.5625 -198 508.5625 -198 505.5625 C-204.6 505.5625 -211.2 505.5625 -218 505.5625 C-218.33 507.2125 -218.66 508.8625 -219 510.5625 C-222.2145607 512.70554046 -224.22928416 513.03460474 -228.05859375 512.95703125 C-230 512.5625 -230 512.5625 -232.5 510.1875 C-234 507.5625 -234 507.5625 -234 505.5625 C-243.57 505.5625 -253.14 505.5625 -263 505.5625 C-263.33 507.2125 -263.66 508.8625 -264 510.5625 C-267.19525095 512.6926673 -268.02879612 512.81695392 -271.69921875 512.8371582 C-272.65030518 512.84669022 -273.6013916 512.85622223 -274.58129883 512.86604309 C-275.60634521 512.86513168 -276.6313916 512.86422028 -277.6875 512.86328125 C-278.74155029 512.86756638 -279.79560059 512.8718515 -280.8815918 512.87626648 C-283.11083253 512.8820112 -285.34009202 512.882509 -287.56933594 512.87817383 C-290.98665185 512.87501235 -294.40310358 512.89847718 -297.8203125 512.92382812 C-299.9843739 512.92610088 -302.14843764 512.92680473 -304.3125 512.92578125 C-305.33754639 512.934991 -306.36259277 512.94420074 -307.41870117 512.95368958 C-308.84533081 512.94434639 -308.84533081 512.94434639 -310.30078125 512.93481445 C-311.55628784 512.93575859 -311.55628784 512.93575859 -312.8371582 512.9367218 C-315.51556463 512.47329536 -316.37015901 511.7034413 -318 509.5625 C-319.12303133 505.87253991 -319.33738847 504.25261278 -317.625 500.75 C-316 498.5625 -316 498.5625 -315 497.5625 C-312.3337397 497.47394839 -309.69352886 497.44725327 -307.02734375 497.46484375 C-306.22970108 497.4662587 -305.43205841 497.46767365 -304.61024475 497.46913147 C-302.05262565 497.47474684 -299.49509282 497.48730188 -296.9375 497.5 C-295.20768355 497.50501302 -293.47786574 497.50957627 -291.74804688 497.51367188 C-287.49866447 497.52472125 -283.24934688 497.54199614 -279 497.5625 C-279.0199855 496.93705795 -279.03997101 496.31161591 -279.06056213 495.66722107 C-279.2630139 489.03017542 -279.39675299 482.39403339 -279.49438477 475.75463867 C-279.53905447 473.29236115 -279.60001364 470.8303136 -279.67895508 468.36889648 C-280.20659907 451.46704557 -278.2898149 438.53112311 -271.13755798 423.17671204 C-261.9261302 402.00801054 -257.69438258 377.80824344 -256.80737305 354.88745117 C-256.75621338 353.85595947 -256.70505371 352.82446777 -256.65234375 351.76171875 C-256.62132568 350.85252686 -256.59030762 349.94333496 -256.55834961 349.0065918 C-255.82599213 345.80080663 -254.56559354 344.56786753 -252 342.5625 C-248.24650538 342.09331317 -245.96151547 342.03113619 -242.625 343.875 C-239.58219552 347.03483542 -239.89854004 350.38489095 -239.81225586 354.56274414 C-239.18552531 379.72781887 -233.59188452 407.16639241 -222.58520508 429.8815918 C-216.62290184 442.20726208 -217.24513378 454.09023478 -218 467.5625 C-211.4 467.5625 -204.8 467.5625 -198 467.5625 C-198.04640625 465.73203125 -198.0928125 463.9015625 -198.140625 462.015625 C-198.17814102 459.61459963 -198.21454136 457.21355664 -198.25 454.8125 C-198.28351563 453.6059375 -198.31703125 452.399375 -198.3515625 451.15625 C-198.37089844 449.41601562 -198.37089844 449.41601562 -198.390625 447.640625 C-198.4220459 446.03815918 -198.4220459 446.03815918 -198.45410156 444.40332031 C-197.88632176 440.8513387 -196.84696691 439.69994245 -194 437.5625 C-190.24650538 437.09331317 -187.96151547 437.03113619 -184.625 438.875 C-181.66427411 441.94959996 -181.88091749 445.05590508 -181.90234375 449.10546875 C-181.90556641 450.17861328 -181.90878906 451.25175781 -181.91210938 452.35742188 C-181.92048828 453.47697266 -181.92886719 454.59652344 -181.9375 455.75 C-181.94201172 456.88115234 -181.94652344 458.01230469 -181.95117188 459.17773438 C-181.96296489 461.97267876 -181.98090043 464.76759599 -182 467.5625 C-175.73 467.5625 -169.46 467.5625 -163 467.5625 C-163.0928125 465.98984375 -163.185625 464.4171875 -163.28125 462.796875 C-163.86973297 448.37053821 -162.11805969 438.0697934 -156.09472656 425.05908203 C-149.35785649 409.69529225 -146.05141857 392.96856276 -143 376.5625 C-142.79890625 375.5621875 -142.5978125 374.561875 -142.390625 373.53125 C-141.68168405 368.1432988 -141.67632395 362.69101924 -141.5703125 357.26171875 C-141.38964437 351.99975951 -140.98505906 348.09155512 -138 343.5625 C-134.90826248 342.01663124 -132.40570448 342.26890479 -129 342.5625 C-126.83203125 343.91796875 -126.83203125 343.91796875 -125 346.5625 C-124.31109762 350.08139108 -124.2144797 353.61070194 -124.0625 357.1875 C-122.93139596 374.79256552 -119.54857305 391.84776314 -114.75 408.8125 C-114.51128174 409.67230469 -114.27256348 410.53210938 -114.02661133 411.41796875 C-112.60280174 416.19880982 -110.9708582 420.69676674 -108.77954102 425.17822266 C-101.37806456 440.74730507 -100.90361562 454.39796998 -101.4375 471.4375 C-101.48278167 473.98690696 -101.52382168 476.53639292 -101.56054688 479.0859375 C-101.65058315 485.24842024 -101.82678862 491.39959629 -102 497.5625 C-90.78 497.5625 -79.56 497.5625 -68 497.5625 C-68.06296261 477.42977192 -68.13821693 457.29721106 -68.23571491 437.16462326 C-68.28059844 427.81581503 -68.32003013 418.46704426 -68.34643555 409.11816406 C-68.36947606 400.96560568 -68.40294128 392.8131666 -68.44870156 384.66070294 C-68.47255244 380.34772578 -68.49133434 376.03486616 -68.49761391 371.72182465 C-68.50370181 367.65388485 -68.52383377 363.58624549 -68.55427551 359.51841736 C-68.5629968 358.0334762 -68.56679072 356.54849567 -68.56500816 355.06352997 C-68.36940202 341.95348651 -68.36940202 341.95348651 -72 329.5625 C-74.4341166 328.3029123 -74.4341166 328.3029123 -77 327.5625 C-80.48739328 324.57330576 -82.76069212 321.8034962 -83.25726891 317.15330791 C-83.26062059 316.25166818 -83.26397228 315.35002844 -83.26742554 314.42106628 C-83.28022049 312.86295982 -83.28022049 312.86295982 -83.29327393 311.27337646 C-83.29191437 309.57220673 -83.29191437 309.57220673 -83.29052734 307.83666992 C-83.29724457 306.63788712 -83.30396179 305.43910431 -83.31088257 304.20399475 C-83.3266264 300.91870291 -83.33323771 297.63356281 -83.33451414 294.34823775 C-83.33593692 292.29381146 -83.34020894 290.23941156 -83.34550858 288.18499184 C-83.36400814 281.01222683 -83.37217947 273.83953612 -83.37060547 266.66674805 C-83.36940475 259.98995908 -83.39049325 253.31349374 -83.4220928 246.63678664 C-83.44828439 240.89735054 -83.45897153 235.15801993 -83.45769465 229.41852456 C-83.45718577 225.99378188 -83.46282735 222.56932673 -83.48405075 219.14464378 C-83.50365079 215.32166094 -83.49789488 211.49950997 -83.48583984 207.67651367 C-83.49707886 206.54847321 -83.50831787 205.42043274 -83.51989746 204.25820923 C-83.4682079 197.80579462 -82.86787931 193.80177668 -79 188.5625 C-76.96484375 187.00390625 -76.96484375 187.00390625 -74.9375 186.125 C-74.26589844 185.81691406 -73.59429687 185.50882813 -72.90234375 185.19140625 C-71 184.5625 -71 184.5625 -68 184.5625 C-68.03665771 183.84707031 -68.07331543 183.13164062 -68.11108398 182.39453125 C-68.25760111 179.11763461 -68.34794177 175.84142791 -68.4375 172.5625 C-68.52547852 170.87447266 -68.52547852 170.87447266 -68.61523438 169.15234375 C-68.73303699 163.39684465 -68.65517442 159.5273407 -64.78515625 155.0625 C-63.54902465 153.86875631 -62.28878592 152.69919528 -61 151.5625 C-60.13375 150.675625 -59.2675 149.78875 -58.375 148.875 C-57.59125 148.111875 -56.8075 147.34875 -56 146.5625 C-52.34844635 142.95534214 -48.88676841 139.26798029 -45.5703125 135.3515625 C-44 133.5625 -44 133.5625 -41.91796875 131.84790039 C-39.36589217 128.80691402 -39.59355581 127.1323101 -39.7421875 123.20703125 C-39.76224854 121.95349854 -39.78230957 120.69996582 -39.80297852 119.40844727 C-39.82365891 118.42051682 -39.82365891 118.42051682 -39.84475708 117.41262817 C-40.04101713 104.18953276 -38.14176884 95.59953171 -30.40820312 84.73583984 C-17.12544452 64.23599291 -8.65678927 34.54290295 -8.55322266 10.19384766 C-8.47179362 6.81010819 -8.23001183 4.87857753 -6.21484375 2.109375 C-3.89213236 0.48716387 -2.79698264 -0.00546286 0 0 Z " fill="#020201" transform="translate(374,-0.5625)"/>
<path d="M0 0 C34.32 0 68.64 0 104 0 C104 4.95 104 9.9 104 15 C101.4609375 15.1953125 98.921875 15.390625 96.3828125 15.5859375 C93.82058097 15.79568132 93.82058097 15.79568132 92 18 C91.52786327 22.06095958 91.52786327 22.06095958 92 26 C95.06035075 28.8817345 97.27625942 29.39656276 101.421875 29.51171875 C102.44667969 29.54716797 103.47148437 29.58261719 104.52734375 29.61914062 C105.59082031 29.64169922 106.65429688 29.66425781 107.75 29.6875 C108.82894531 29.72166016 109.90789062 29.75582031 111.01953125 29.79101562 C113.67958377 29.87340663 116.33931035 29.94258645 119 30 C119.02187378 31.28632324 119.02187378 31.28632324 119.04418945 32.59863281 C119.10535478 35.78960413 119.17952762 38.97993587 119.26245117 42.17041016 C119.29564193 43.54952667 119.32369217 44.92877711 119.34643555 46.30810547 C119.38008642 48.29422306 119.43394729 50.27996559 119.48828125 52.265625 C119.51446533 53.45961914 119.54064941 54.65361328 119.56762695 55.88378906 C120.03454121 59.24894633 120.55923622 60.6677994 123 63 C124.32 63.33 125.64 63.66 127 64 C127 69.28 127 74.56 127 80 C124.525 80.99 124.525 80.99 122 82 C107.36936244 96.63063756 119.34479955 123.31202706 119 144 C74.78 144 30.56 144 -15 144 C-15 106.38 -15 68.76 -15 30 C-7.74 29.67 -0.48 29.34 7 29 C11 27.5 11 27.5 12 25 C12.45487682 20.92651478 12.45487682 20.92651478 10.77734375 17.3828125 C8.63128053 15.71312815 6.97256652 15.31367195 4.3125 14.8125 C2.889375 14.544375 1.46625 14.27625 0 14 C0 9.38 0 4.76 0 0 Z " fill="#F5E2BE" transform="translate(322,170)"/>
<path d="M0 0 C11.30867764 7.75827885 20.32486118 18.48533237 23.81640625 31.99609375 C26.27444096 47.96224714 23.34438751 63.34186586 14.25 76.8125 C5.5680307 87.35905331 -5.23254649 94.35728906 -18.75 96.8125 C-29.44595738 97.844877 -40.06229872 97.94315759 -49.75 92.8125 C-50.595625 92.37679687 -51.44125 91.94109375 -52.3125 91.4921875 C-65.14517515 84.33249374 -74.79721174 73.83889355 -79.0859375 59.57421875 C-82.03891363 42.84647751 -80.5943225 28.07036449 -70.9375 13.9375 C-53.82407561 -7.92086646 -24.24797325 -14.38155655 0 0 Z " fill="#030302" transform="translate(401.75,202.1875)"/>
<path d="M0 0 C36.3 0 72.6 0 110 0 C109.34 2.97 108.68 5.94 108 9 C107.69331879 11.47120338 107.69331879 11.47120338 107.68115234 13.60180664 C107.66128265 14.38193619 107.64141296 15.16206573 107.62094116 15.96583557 C107.60938995 16.7724614 107.59783875 17.57908722 107.5859375 18.41015625 C107.56657135 19.26306747 107.5472052 20.1159787 107.5272522 20.99473572 C107.46809898 23.68389294 107.42133162 26.3730945 107.375 29.0625 C107.33676089 30.90040794 107.29770583 32.7382991 107.2578125 34.57617188 C107.1609353 39.05068736 107.08085972 43.52505262 107 48 C98.75 48 90.5 48 82 48 C81.95101562 46.01355469 81.90203125 44.02710938 81.8515625 41.98046875 C81.79593194 40.05426071 81.74023402 38.12805395 81.68261719 36.2019043 C81.62555908 34.2070464 81.57835558 32.2119146 81.53125 30.21679688 C81.49257813 28.96318359 81.45390625 27.70957031 81.4140625 26.41796875 C81.3826416 25.26063232 81.3512207 24.1032959 81.31884766 22.91088867 C81.20528967 19.80872972 81.20528967 19.80872972 79 17 C73.91919816 16.30295128 73.91919816 16.30295128 69.40869141 18.1237793 C67.35999319 20.85241808 67.56483206 23.03442291 67.48828125 26.41796875 C67.43510742 28.29838867 67.43510742 28.29838867 67.38085938 30.21679688 C67.35830078 31.52712891 67.33574219 32.83746094 67.3125 34.1875 C67.27932334 35.52282013 67.24483334 36.85810832 67.20898438 38.19335938 C67.12638491 41.46193825 67.06151996 44.73095644 67 48 C58.75 48 50.5 48 42 48 C41.95101562 45.92976563 41.90203125 43.85953125 41.8515625 41.7265625 C41.79594311 39.72426441 41.74025603 37.72196754 41.68261719 35.71972656 C41.64430673 34.32691428 41.60945741 32.93400235 41.578125 31.54101562 C41.53252093 29.54013692 41.47348377 27.53957854 41.4140625 25.5390625 C41.3826416 24.33459473 41.3512207 23.13012695 41.31884766 21.88916016 C41.29084774 18.8739982 41.29084774 18.8739982 39 17 C33.92322872 16.3481169 33.92322872 16.3481169 29.40869141 18.12158203 C27.36105729 20.85199744 27.56485402 23.03345235 27.48828125 26.41796875 C27.45283203 27.67158203 27.41738281 28.92519531 27.38085938 30.21679688 C27.35830078 31.52712891 27.33574219 32.83746094 27.3125 34.1875 C27.27932334 35.52282013 27.24483334 36.85810832 27.20898438 38.19335938 C27.12638491 41.46193825 27.06151996 44.73095644 27 48 C18.75 48 10.5 48 2 48 C1.93941406 45.03773438 1.87882812 42.07546875 1.81640625 39.0234375 C1.75453965 36.144019 1.69118399 33.26463683 1.62768555 30.38525391 C1.58446185 28.38919327 1.54277826 26.39309864 1.50268555 24.39697266 C1.44467761 21.52235691 1.38107209 18.64791025 1.31640625 15.7734375 C1.29969376 14.88570648 1.28298126 13.99797546 1.26576233 13.08334351 C1.24581711 12.24292511 1.22587189 11.40250671 1.20532227 10.53662109 C1.18977798 9.80381927 1.1742337 9.07101746 1.15821838 8.31600952 C0.96746551 5.52375825 0.4601132 2.7606792 0 0 Z " fill="#F3D9A6" transform="translate(319,329)"/>
<path d="M0 0 C8.25 0 16.5 0 25 0 C25.66 2.97 26.32 5.94 27 9 C28.93731528 11.36410488 28.93731528 11.36410488 32.4375 11.3125 C35.82690308 11.24953629 35.82690308 11.24953629 37.875 10 C39.61133177 7.2083514 39.61133177 7.2083514 40 0 C48.25 0 56.5 0 65 0 C65 14.85 65 29.7 65 45 C56.75 45 48.5 45 40 45 C39.86979167 41.45182292 39.73958333 37.90364583 39.609375 34.35546875 C39.31831953 30.96310336 39.31831953 30.96310336 37.109375 29.078125 C34.43778397 27.71264514 32.96202828 27.48164505 30 28 C27.01136049 30.27468674 26.09432167 31.49936961 25.390625 35.234375 C25.32101562 36.97460938 25.32101562 36.97460938 25.25 38.75 C25.1675 40.8125 25.085 42.875 25 45 C16.75 45 8.5 45 0 45 C0 30.15 0 15.3 0 0 Z " fill="#F2D8A5" transform="translate(361,392)"/>
<path d="M0 0 C15.18 0 30.36 0 46 0 C46 4.95 46 9.9 46 15 C43.69 15.33 41.38 15.66 39 16 C36.40664095 18.59335905 36.72273437 20.48747032 36.63671875 24.02734375 C37.11582585 26.6289468 37.83249976 27.49796036 40 29 C42.27593061 29.05252394 42.27593061 29.05252394 44.8125 28.8125 C52.7853227 29.20793491 57.23998019 35.36393296 62.32421875 40.875 C65 43.85337701 65 43.85337701 65 45 C37.28 45 9.56 45 -19 45 C-8.12280913 30.49707884 -8.12280913 30.49707884 -3.54150391 29.42431641 C-0.77580464 29.23220493 1.91679003 29.22561362 4.6875 29.3125 C11.53757329 29.70351342 11.53757329 29.70351342 17.6171875 27.171875 C19.48641709 24.23602288 19.50860754 22.41493633 19 19 C17.45493534 16.96332385 16.27853844 16.13926922 14 15 C9.34005103 14.54741503 4.67317512 14.29738387 0 14 C0 9.38 0 4.76 0 0 Z " fill="#5C6871" transform="translate(351,110)"/>
<path d="M0 0 C12.258338 4.08611267 21.2893031 9.51485687 27.375 21.25 C31.17743845 29.25165308 31.27503747 39.41897887 29.31640625 47.9921875 C25.31006141 58.66469118 17.82657261 66.89964287 7.625 71.875 C-1.48300504 75.41064517 -12.40832906 75.74065199 -21.625 72.3125 C-25.77075702 70.33190718 -29.38773824 67.82698746 -33 65 C-29.61328496 61.33961102 -25.81399549 58.59149278 -21.75 55.75 C-21.1003125 55.29109375 -20.450625 54.8321875 -19.78125 54.359375 C-18.18995001 53.23610442 -16.59530905 52.11756944 -15 51 C-14.41347656 51.32355469 -13.82695312 51.64710938 -13.22265625 51.98046875 C-10.02665141 53.44647449 -7.46867459 53.31533405 -4 53 C-2.20589463 51.81007892 -2.20589463 51.81007892 -1 50 C-0.83306542 48.01591275 -0.83306542 48.01591275 -1 45.875 C-0.76378964 42.23736039 -0.2308597 41.2191706 2.46875 38.65625 C4.45146627 37.1641027 6.47227914 35.72096687 8.53125 34.3359375 C11.29516132 32.11697326 11.29516132 32.11697326 12.03125 28.4140625 C12.39589588 24.69529082 12.39589588 24.69529082 9 22 C6.03 22 3.06 22 0 22 C0 14.74 0 7.48 0 0 Z " fill="#E4E8EC" transform="translate(381,210)"/>
<path d="M0 0 C2.31 0 4.62 0 7 0 C7.33 34.98 7.66 69.96 8 106 C70.37 106.495 70.37 106.495 134 107 C134 109.31 134 111.62 134 114 C89.78 114 45.56 114 0 114 C0 76.38 0 38.76 0 0 Z " fill="#F4DAA7" transform="translate(307,200)"/>
<path d="M0 0 C10.23 0 20.46 0 31 0 C31 17.49 31 34.98 31 53 C20.77 53 10.54 53 0 53 C0 35.51 0 18.02 0 0 Z " fill="#F8E7C7" transform="translate(226,452)"/>
<path d="M0 0 C9.9 0 19.8 0 30 0 C30 17.49 30 34.98 30 53 C20.1 53 10.2 53 0 53 C0 35.51 0 18.02 0 0 Z " fill="#F8E7C7" transform="translate(111,452)"/>
<path d="M0 0 C8.25 0 16.5 0 25 0 C25 17.49 25 34.98 25 53 C16.75 53 8.5 53 0 53 C0 35.51 0 18.02 0 0 Z " fill="#F3D9A6" transform="translate(401,452)"/>
<path d="M0 0 C8.25 0 16.5 0 25 0 C25 17.49 25 34.98 25 53 C16.75 53 8.5 53 0 53 C0 35.51 0 18.02 0 0 Z " fill="#F3D9A6" transform="translate(361,452)"/>
<path d="M0 0 C8.25 0 16.5 0 25 0 C25 17.49 25 34.98 25 53 C16.75 53 8.5 53 0 53 C0 35.51 0 18.02 0 0 Z " fill="#E9C27A" transform="translate(321,452)"/>
<path d="M0 0 C36.3 0 72.6 0 110 0 C109.34 2.97 108.68 5.94 108 9 C75.66 8.67 43.32 8.34 10 8 C10 18.89 10 29.78 10 41 C15.61 41 21.22 41 27 41 C27 43.31 27 45.62 27 48 C18.75 48 10.5 48 2 48 C1.93941406 45.03773438 1.87882812 42.07546875 1.81640625 39.0234375 C1.75453965 36.144019 1.69118399 33.26463683 1.62768555 30.38525391 C1.58446185 28.38919327 1.54277826 26.39309864 1.50268555 24.39697266 C1.44467761 21.52235691 1.38107209 18.64791025 1.31640625 15.7734375 C1.29969376 14.88570648 1.28298126 13.99797546 1.26576233 13.08334351 C1.24581711 12.24292511 1.22587189 11.40250671 1.20532227 10.53662109 C1.18977798 9.80381927 1.1742337 9.07101746 1.15821838 8.31600952 C0.96746551 5.52375825 0.4601132 2.7606792 0 0 Z " fill="#E5BF79" transform="translate(319,329)"/>
<path d="M0 0 C8.25 0 16.5 0 25 0 C25 14.85 25 29.7 25 45 C16.75 45 8.5 45 0 45 C0 30.15 0 15.3 0 0 Z " fill="#F3D9A6" transform="translate(321,392)"/>
<path d="M0 0 C2.69597074 28.36990752 2.69597074 28.36990752 -1.53955078 35.64404297 C-5.33567438 39.52509104 -9.80450801 41.79826236 -14.75390625 43.91162109 C-17.96747929 45.46880681 -20.60837522 47.59649549 -23.37109375 49.83911133 C-25 51 -25 51 -27 51 C-30.74694452 40.71820581 -31.46473323 31.89085628 -27.24609375 21.62890625 C-22.25371483 11.09639523 -12.55397368 -0.25665099 0 0 Z " fill="#E6EAEE" transform="translate(366,211)"/>
<path d="M0 0 C15.18 0 30.36 0 46 0 C46 4.95 46 9.9 46 15 C43.69 15.33 41.38 15.66 39 16 C38.35546875 17.00289062 37.7109375 18.00578125 37.046875 19.0390625 C36.37140625 20.01617187 35.6959375 20.99328125 35 22 C32.10405649 22.46211865 30.09502976 22.584747 27.25 22.375 C26.20392578 22.33439453 26.20392578 22.33439453 25.13671875 22.29296875 C23.42314295 22.22254783 21.71116698 22.11492913 20 22 C19.7525 21.21625 19.505 20.4325 19.25 19.625 C18.23489159 16.97737163 18.23489159 16.97737163 16.328125 15.7265625 C11.10965632 14.09797999 5.41098791 14.30061044 0 14 C0 9.38 0 4.76 0 0 Z " fill="#F2D8A6" transform="translate(351,110)"/>
<path d="M0 0 C32.01 0 64.02 0 97 0 C97 2.31 97 4.62 97 7 C84.500429 7.02312143 72.00086305 7.04091406 59.50127506 7.05181217 C53.69786387 7.05704144 47.89446725 7.06413987 42.09106445 7.07543945 C36.49549147 7.08626678 30.89993255 7.0922765 25.3043499 7.09487724 C23.16441056 7.09673177 21.02447204 7.10035291 18.88453865 7.10573006 C15.89835034 7.11293844 12.91222093 7.11399103 9.92602539 7.11352539 C8.58491196 7.1189183 8.58491196 7.1189183 7.21670532 7.12442017 C1.11405216 7.11405216 1.11405216 7.11405216 0 6 C0 4.02 0 2.04 0 0 Z " fill="#F7E6C6" transform="translate(329,170)"/>
<path d="M0 0 C2 1 2 1 2.74267578 2.6796875 C2.9745459 3.40414062 3.20641602 4.12859375 3.4453125 4.875 C3.7139209 5.68783447 3.9825293 6.50066895 4.25927734 7.33813477 C4.54496582 8.21655029 4.8306543 9.09496582 5.125 10 C7.99361105 18.54494645 11.4262384 26.60791154 15.3984375 34.69140625 C17 38 17 38 18 41 C6.78 41 -4.44 41 -16 41 C-15.23066725 37.92266899 -14.46792418 35.64340233 -13.14453125 32.83203125 C-12.77191162 32.02862305 -12.39929199 31.22521484 -12.01538086 30.39746094 C-11.61843018 29.54442383 -11.22147949 28.69138672 -10.8125 27.8125 C-6.63558843 18.71169568 -3.13902896 9.50325631 0 0 Z " fill="#5B6870" transform="translate(373,54)"/>
<path d="M0 0 C5.61 0 11.22 0 17 0 C17 12.54 17 25.08 17 38 C11.39 38 5.78 38 0 38 C0 25.46 0 12.92 0 0 Z " fill="#F3D9A6" transform="translate(329,452)"/>
<path d="M0 0 C10.23 0 20.46 0 31 0 C31 17.49 31 34.98 31 53 C30.67 53 30.34 53 30 53 C30 35.84 30 18.68 30 1 C22.74 1 15.48 1 8 1 C8 18.16 8 35.32 8 53 C5.36 53 2.72 53 0 53 C0 35.51 0 18.02 0 0 Z " fill="#D8C196" transform="translate(226,452)"/>
<path d="M0 0 C9.9 0 19.8 0 30 0 C30 17.49 30 34.98 30 53 C29.67 53 29.34 53 29 53 C29 35.84 29 18.68 29 1 C22.07 1 15.14 1 8 1 C8 18.16 8 35.32 8 53 C5.36 53 2.72 53 0 53 C0 35.51 0 18.02 0 0 Z " fill="#ECD5A7" transform="translate(111,452)"/>
<path d="M0 0 C8.25 0 16.5 0 25 0 C25 0.33 25 0.66 25 1 C19.39 1 13.78 1 8 1 C8 13.21 8 25.42 8 38 C13.61 38 19.22 38 25 38 C25 40.31 25 42.62 25 45 C16.75 45 8.5 45 0 45 C0 30.15 0 15.3 0 0 Z " fill="#E6C07A" transform="translate(321,392)"/>
<path d="M0 0 C6.93 0 13.86 0 21 0 C21 7.59 21 15.18 21 23 C14.07 23 7.14 23 0 23 C0 15.41 0 7.82 0 0 Z " fill="#F4DAA7" transform="translate(191,482)"/>
<path d="M0 0 C6.6 0 13.2 0 20 0 C20 7.59 20 15.18 20 23 C13.4 23 6.8 23 0 23 C0 15.41 0 7.82 0 0 Z " fill="#F3D9A6" transform="translate(156,482)"/>
<path d="M0 0 C0.33 0 0.66 0 1 0 C1 12.54 1 25.08 1 38 C8.92 38 16.84 38 25 38 C25 42.95 25 47.9 25 53 C16.75 53 8.5 53 0 53 C0 35.51 0 18.02 0 0 Z " fill="#E9C37D" transform="translate(401,452)"/>
<path d="M0 0 C0.33 0 0.66 0 1 0 C1 12.54 1 25.08 1 38 C8.92 38 16.84 38 25 38 C25 42.95 25 47.9 25 53 C16.75 53 8.5 53 0 53 C0 35.51 0 18.02 0 0 Z " fill="#E7C17C" transform="translate(361,452)"/>
<path d="M0 0 C2.18721595 2.18721595 2.5563925 3.3057032 3.40234375 6.21875 C3.65306641 7.06953125 3.90378906 7.9203125 4.16210938 8.796875 C4.41798828 9.68890625 4.67386719 10.5809375 4.9375 11.5 C5.18951172 12.36109375 5.44152344 13.2221875 5.70117188 14.109375 C6.18392535 15.75888561 6.6640121 17.40918109 7.14038086 19.06054688 C8.40372989 23.38054752 9.70666455 27.68888184 11 32 C4.07 32 -2.86 32 -10 32 C-9.30606204 28.53031018 -8.61479595 25.65264473 -7.44140625 22.3828125 C-7.13783203 21.52816406 -6.83425781 20.67351562 -6.52148438 19.79296875 C-6.20501953 18.91253906 -5.88855469 18.03210938 -5.5625 17.125 C-3.5311684 11.45402476 -1.57672006 5.81564081 0 0 Z " fill="#5B6770" transform="translate(241,405)"/>
<path d="M0 0 C2 1 2 1 2.89453125 3.66796875 C3.19746094 4.82941406 3.50039062 5.99085938 3.8125 7.1875 C5.56960463 13.6589495 7.68543115 19.85613165 10.046875 26.13671875 C11 29 11 29 11 32 C4.07 32 -2.86 32 -10 32 C-8.24760905 26.15869684 -6.54020497 20.5569175 -4.4375 14.875 C-2.65116913 9.94644857 -1.12581431 5.11733777 0 0 Z " fill="#5B6870" transform="translate(125,405)"/>
<path d="M0 0 C12.87 0 25.74 0 39 0 C39 2.31 39 4.62 39 7 C33.60653012 7.02464849 28.21309275 7.04283531 22.81958008 7.05493164 C20.98331125 7.05997231 19.14704646 7.06680477 17.31079102 7.07543945 C14.67723599 7.08751672 12.04373384 7.09323081 9.41015625 7.09765625 C8.17109276 7.10539818 8.17109276 7.10539818 6.90699768 7.11329651 C4.93763632 7.11349205 2.96838386 7.06204152 1 7 C0.67 6.67 0.34 6.34 0 6 C0 4.02 0 2.04 0 0 Z " fill="#F7E6C6" transform="translate(358,110)"/>
<path d="M0 0 C8.25 0 16.5 0 25 0 C25 0.33 25 0.66 25 1 C17.08 1 9.16 1 1 1 C1 13.21 1 25.42 1 38 C8.92 38 16.84 38 25 38 C25 40.31 25 42.62 25 45 C16.75 45 8.5 45 0 45 C0 30.15 0 15.3 0 0 Z " fill="#DEBC7C" transform="translate(361,392)"/>
<path d="M0 0 C6.93 0 13.86 0 21 0 C21 7.59 21 15.18 21 23 C18.36 23 15.72 23 13 23 C13 15.74 13 8.48 13 1 C9.04 1 5.08 1 1 1 C1 8.26 1 15.52 1 23 C0.67 23 0.34 23 0 23 C0 15.41 0 7.82 0 0 Z " fill="#DFBC7B" transform="translate(191,482)"/>
<path d="M0 0 C0.46148437 0.38671875 0.92296875 0.7734375 1.3984375 1.171875 C11.17162054 8.97496976 20.85398204 10.76920351 33 12 C26.36293726 16.42470849 17.732664 15.68816134 10 15 C3.41214607 13.47141851 -1.72780455 10.12606601 -7 6 C-4.74259377 3.66475218 -2.7194239 1.81294927 0 0 Z " fill="#C2CCD5" transform="translate(355,269)"/>
<path d="M0 0 C0.33 0 0.66 0 1 0 C1 6.6 1 13.2 1 20 C8.92 20 16.84 20 25 20 C25 22.31 25 24.62 25 27 C16.75 27 8.5 27 0 27 C0 18.09 0 9.18 0 0 Z " fill="#E7C17C" transform="translate(361,350)"/>
<path d="M0 0 C0.33 0 0.66 0 1 0 C1 6.27 1 12.54 1 19 C8.92 19 16.84 19 25 19 C25 21.31 25 23.62 25 26 C16.75 26 8.5 26 0 26 C0 17.42 0 8.84 0 0 Z " fill="#E9C37D" transform="translate(401,351)"/>
<path d="M0 0 C0.33 1.32 0.66 2.64 1 4 C8.92 4 16.84 4 25 4 C25 6.31 25 8.62 25 11 C16.75 11 8.5 11 0 11 C0 7.37 0 3.74 0 0 Z " fill="#ECC57C" transform="translate(401,426)"/>
<path d="M0 0 C0.33 0 0.66 0 1 0 C1.02578125 0.81082031 1.0515625 1.62164062 1.078125 2.45703125 C1.43706286 9.46447724 2.45644603 15.27275666 5.16015625 21.7578125 C6 24 6 24 6 27 C2.66666667 30 2.66666667 30 0 30 C-3.83763404 19.46934945 -4.33148812 10.44198029 0 0 Z " fill="#B9C2CB" transform="translate(339,232)"/>
<path d="M0 0 C0.33 0 0.66 0 1 0 C1.75842697 11.51123596 1.75842697 11.51123596 -0.6875 16.3125 C-5.9374218 18.98698846 -11.22317004 18.38061105 -17 18 C-16.27039063 17.43152344 -15.54078125 16.86304688 -14.7890625 16.27734375 C-12.17644007 14.14406802 -9.76915272 11.9360844 -7.375 9.5625 C-6.24191406 8.45068359 -6.24191406 8.45068359 -5.0859375 7.31640625 C-3.01145404 5.01271956 -1.55410958 2.67024282 0 0 Z " fill="#CB9775" transform="translate(418,274)"/>
<path d="M0 0 C1.91635217 -0.05423638 3.83314925 -0.09289963 5.75 -0.125 C7.35101563 -0.15980469 7.35101563 -0.15980469 8.984375 -0.1953125 C11.98109254 -0.00122458 13.54134409 0.32767098 16 2 C18.42130331 5.63195496 18.21022785 7.38349348 18.125 11.6875 C18.10695313 12.86699219 18.08890625 14.04648438 18.0703125 15.26171875 C18.04710937 16.16535156 18.02390625 17.06898438 18 18 C17.43152344 17.26910156 16.86304688 16.53820312 16.27734375 15.78515625 C11.50600399 9.94988138 6.06026586 4.49632628 0 0 Z " fill="#CB9775" transform="translate(401,202)"/>
<path d="M0 0 C1.17046875 0.03609375 2.3409375 0.0721875 3.546875 0.109375 C4.43890625 0.15578125 5.3309375 0.2021875 6.25 0.25 C3.5058252 3.07733161 0.73968066 5.69444726 -2.3125 8.1875 C-5.53900262 10.89382573 -7.54289049 13.68466925 -9.75 17.25 C-10.08 17.25 -10.41 17.25 -10.75 17.25 C-10.85832169 15.16781638 -10.93573541 13.08400871 -11 11 C-11.04640625 9.83984375 -11.0928125 8.6796875 -11.140625 7.484375 C-10.75 4.25 -10.75 4.25 -9.15625 1.84375 C-5.94553385 -0.28282823 -3.81657321 -0.15266293 0 0 Z " fill="#CC9774" transform="translate(339.75,201.75)"/>
<path d="M0 0 C2.43131531 2.37925288 4.6862958 4.7843403 6.8125 7.4375 C9.81919011 11.01323121 13.1490657 13.38136468 17 16 C17 16.33 17 16.66 17 17 C5.11024527 17.56221257 5.11024527 17.56221257 1 14 C-0.38226016 11.23547967 -0.09525387 8.9538637 -0.0625 5.875 C-0.05347656 4.77929688 -0.04445313 3.68359375 -0.03515625 2.5546875 C-0.02355469 1.71164062 -0.01195312 0.86859375 0 0 Z " fill="#CA9573" transform="translate(329,275)"/>
</svg>
