<?xml version="1.0" encoding="UTF-8"?>
<svg version="1.1" xmlns="http://www.w3.org/2000/svg" width="512" height="512">
<path d="M0 0 C2.1942749 1.58770752 2.1942749 1.58770752 4 4 C4.48101807 7.17645264 4.48101807 7.17645264 4.45410156 10.97167969 C4.45468567 11.6647673 4.45526978 12.35785492 4.45587158 13.07194519 C4.45309169 15.35577015 4.42200707 17.63827897 4.390625 19.921875 C4.3831622 21.50798835 4.37746945 23.09411094 4.37347412 24.68023682 C4.35822065 28.84960503 4.31894187 33.01841356 4.2746582 37.18756104 C4.23369898 41.44397409 4.21546175 45.70047781 4.1953125 49.95703125 C4.15244668 58.30497265 4.08209973 66.65235216 4 75 C12.58 75 21.16 75 30 75 C29.938125 72.23625 29.87625 69.4725 29.8125 66.625 C29.74407384 55.55384543 31.3481569 47.38326928 39 39 C46.35714534 31.80634678 53.72326701 29.30329698 63.90576172 29.39355469 C73.15664256 29.84904941 80.24269436 33.7391942 86.5625 40.4375 C93.06288734 48.46183707 94.16477955 56.26647594 94.0625 66.3125 C94.041875 69.179375 94.02125 72.04625 94 75 C101.59 75 109.18 75 117 75 C116.97905273 72.87014648 116.95810547 70.74029297 116.93652344 68.54589844 C116.87024698 61.50917913 116.82606212 54.47244603 116.79275131 47.43549728 C116.77187567 43.16890708 116.74355891 38.90263664 116.69824219 34.63623047 C116.6547829 30.51893216 116.63086272 26.40194143 116.62049103 22.28443146 C116.61309973 20.7135153 116.59866612 19.14261598 116.57707977 17.57183075 C116.54804318 15.37141031 116.54404388 13.17226087 116.54589844 10.97167969 C116.53701599 9.71925476 116.52813354 8.46682983 116.51898193 7.17645264 C117.08660678 3.42808316 118.02095187 2.26432608 121 0 C123.90784881 -0.70882303 125.942539 -0.33971789 129 0 C131.67431489 1.81163267 131.95920359 2.87761077 133 6 C133.09037546 7.75082814 133.12195827 9.50494412 133.12025452 11.25810242 C133.12231651 12.89242722 133.12231651 12.89242722 133.12442017 14.55976868 C133.12082489 15.75522812 133.11722961 16.95068756 133.11352539 18.18237305 C133.11367142 19.44102173 133.11381744 20.69967041 133.1139679 21.99645996 C133.1142551 25.44866579 133.1083707 28.90083696 133.10139394 32.35303473 C133.0951477 35.96051849 133.09455559 39.56800301 133.09336853 43.17549133 C133.09025897 50.00713919 133.08205062 56.83877107 133.07201904 63.67041188 C133.06084628 71.44784034 133.05534452 79.22526955 133.05032361 87.00270402 C133.03986771 103.00181219 133.02207435 119.00090341 133 135 C140.59 135 148.18 135 156 135 C156 132.03 156 129.06 156 126 C157.1589584 123.58130422 158.12322096 121.87677904 160 120 C166.91964889 119.43281567 166.91964889 119.43281567 170.5 121.3125 C172.97006814 125.73803875 172.23817761 129.99827025 172 135 C178.93 135 185.86 135 193 135 C192.9175 133.2675 192.835 131.535 192.75 129.75 C192.77754925 124.39855759 192.77754925 124.39855759 194.5 121.3125 C198.27648494 119.32984541 200.7480482 119.52756091 205 120 C207.67431489 121.81163267 207.95920359 122.87761077 209 126 C209 128.97 209 131.94 209 135 C215.6 135 222.2 135 229 135 C229 132.36 229 129.72 229 127 C230.10195622 123.10077031 230.55064395 122.2995707 234 120 C237.73209414 119.59286246 240.10268041 119.51682791 243.4375 121.3125 C246.00204306 125.72351406 245.23960153 129.96836781 245 135 C251.93 135 258.86 135 266 135 C266 131.7 266 128.4 266 125 C267.5 121.875 267.5 121.875 270 120 C272.83379595 119.30316493 275.16620405 119.30316493 278 120 C280.5 121.875 280.5 121.875 282 125 C282 128.3 282 131.6 282 135 C288.93 135 295.86 135 303 135 C302.9175 133.2675 302.835 131.535 302.75 129.75 C302.77067786 124.39443408 302.77067786 124.39443408 304.5625 121.3125 C307.96637149 119.47964612 310.19146701 119.45592386 314 120 C316.72355206 122.07963661 317.86189327 123.26401312 318.50024599 126.66586924 C318.50035333 127.6919836 318.50046066 128.71809796 318.50057125 129.7753067 C318.51038554 130.9616752 318.52019983 132.1480437 318.53031152 133.37036276 C318.51590402 135.3273402 318.51590402 135.3273402 318.50120544 137.32385254 C318.50509721 138.72276707 318.51073665 140.12167765 318.51797634 141.52057886 C318.53276723 145.36909272 318.5225285 149.21719893 318.50823963 153.06569982 C318.49715422 157.2143681 318.50906435 161.36297805 318.51808167 165.51164246 C318.53203277 173.64059534 318.52444419 181.76939315 318.50940608 189.89833868 C318.49256757 199.35973794 318.49575351 208.82109834 318.49950016 218.28250796 C318.50538217 235.16118904 318.49119382 252.03979559 318.46655273 268.91845703 C318.44263097 285.30618077 318.43554804 301.69380491 318.44604492 318.08154297 C318.45744781 335.91576272 318.45939198 353.74993637 318.44494683 371.58415556 C318.44342095 373.48495197 318.44190059 375.38574838 318.44038582 377.2865448 C318.439628 378.22183538 318.43887019 379.15712596 318.43808941 380.12075868 C318.43334172 386.7198204 318.43520146 393.31886157 318.43945122 399.91792297 C318.44437204 407.95718945 318.43841966 415.99636165 318.41855692 424.0356065 C318.40866835 428.13936514 318.4035966 432.24298007 318.41144943 436.34674644 C318.41848622 440.10079704 318.41174896 443.85455714 318.3938458 447.60856932 C318.38786065 449.61558706 318.39664678 451.62263188 318.40589231 453.62963724 C318.39745237 454.81600574 318.38901243 456.00237424 318.38031673 457.2246933 C318.37877304 458.76386484 318.37877304 458.76386484 318.37719816 460.33413076 C317.93641906 463.4493619 317.23209766 464.79982364 315 467 C310.96781151 468.28514684 306.93462628 468.13957742 302.74432468 468.12863445 C301.47843345 468.13126401 301.47843345 468.13126401 300.18696865 468.13394669 C297.34017016 468.13862334 294.49342238 468.13613691 291.6466217 468.13371277 C289.59258194 468.1355799 287.53854253 468.13788021 285.48450369 468.14057809 C279.82520636 468.14671454 274.16592376 468.14656034 268.50662386 468.14538372 C262.4090614 468.14518018 256.31150373 468.15069396 250.21394348 468.15544128 C238.26262696 468.16375828 226.31131671 468.16650953 214.35999805 468.16705366 C204.64951274 468.16751289 194.93902903 468.16956957 185.22854424 468.17275429 C182.43522483 468.1736518 179.64190543 468.17454162 176.84858602 468.17542917 C176.1541974 468.17565021 175.45980878 468.17587126 174.74437808 468.17609901 C155.20862689 468.18225448 135.67287626 468.18619944 116.13712406 468.18575573 C115.40034981 468.18574015 114.66357556 468.18572457 113.90447481 468.18570852 C110.17003639 468.18562541 106.43559797 468.18552637 102.70115954 468.18542381 C101.58861163 468.1853939 101.58861163 468.1853939 100.45358801 468.18536337 C98.95369277 468.18532294 97.45379754 468.18528114 95.95390231 468.18523798 C72.61127044 468.18462505 49.2686531 468.19213454 25.92602539 468.20581055 C-0.28726039 468.22116202 -26.50053663 468.22977735 -52.71382719 468.22884732 C-55.50746095 468.22877269 -58.30109471 468.22872399 -61.09472847 468.22869301 C-61.78261429 468.22868135 -62.47050012 468.2286697 -63.17923096 468.22865769 C-74.26164002 468.22862689 -85.3440365 468.2350198 -96.42644181 468.24362527 C-107.55866692 468.25209083 -118.69087377 468.25292832 -129.82310193 468.24651595 C-135.85703478 468.24323961 -141.8909219 468.24323403 -147.92485046 468.2518692 C-153.44355854 468.25968606 -158.96218427 468.25835245 -164.48089022 468.24958507 C-166.48219264 468.24803941 -168.48350105 468.24990595 -170.4847964 468.25544515 C-173.1961265 468.26245524 -175.90716373 468.2572511 -178.61848354 468.24888897 C-179.40316911 468.25385715 -180.18785469 468.25882533 -180.99631861 468.26394406 C-185.08237644 468.23713375 -188.39564592 468.01037157 -192 466 C-194.28066513 462.57900231 -194.25175152 461.36773425 -194.25726891 457.34774113 C-194.2637178 456.16336368 -194.27016669 454.97898623 -194.276811 453.75871855 C-194.2737138 452.45115408 -194.2706166 451.14358961 -194.26742554 449.79640198 C-194.27116012 448.39835376 -194.27576088 447.00030762 -194.28115618 445.60226482 C-194.2934252 441.75160798 -194.29312115 437.90103775 -194.29076743 434.05036581 C-194.29036025 429.9010053 -194.30138888 425.75167293 -194.31088257 421.60232544 C-194.32751449 413.46994301 -194.33299309 405.33758957 -194.33410732 397.20519156 C-194.33505668 390.59726418 -194.33916135 383.98934639 -194.34550858 377.38142204 C-194.36312632 358.65998215 -194.37234652 339.93856521 -194.37084763 321.21711696 C-194.37076772 320.20727256 -194.3706878 319.19742816 -194.37060547 318.15698242 C-194.37052371 317.14590976 -194.37044195 316.1348371 -194.37035771 315.09312587 C-194.36954447 298.70010157 -194.38869024 282.30716908 -194.4168822 265.91417135 C-194.44557972 249.09494592 -194.45942425 232.27576532 -194.45769465 215.45651478 C-194.4570297 206.00851786 -194.46256779 196.56061721 -194.48405075 187.11264229 C-194.50222132 179.06968765 -194.50664392 171.02687292 -194.4930319 162.98390669 C-194.48648152 158.87807709 -194.48645914 154.7725162 -194.5037384 150.66671181 C-194.51938336 146.91071515 -194.51669443 143.15520219 -194.49917014 139.39921796 C-194.49461373 137.39113936 -194.50982453 135.38304626 -194.52564943 133.37502486 C-194.51645184 132.18803966 -194.50725425 131.00105446 -194.49777794 129.77810001 C-194.49821267 128.75144358 -194.49864741 127.72478714 -194.49909532 126.6670199 C-193.86221294 123.2637061 -192.72460801 122.08005945 -190 120 C-186.19146701 119.45592386 -183.96637149 119.47964612 -180.5625 121.3125 C-177.99795694 125.72351406 -178.76039847 129.96836781 -179 135 C-172.07 135 -165.14 135 -158 135 C-158 131.7 -158 128.4 -158 125 C-156.5 121.875 -156.5 121.875 -154 120 C-151.16620405 119.30316493 -148.83379595 119.30316493 -146 120 C-143.5 121.875 -143.5 121.875 -142 125 C-142 128.3 -142 131.6 -142 135 C-135.07 135 -128.14 135 -121 135 C-121.0825 133.2675 -121.165 131.535 -121.25 129.75 C-121.22932214 124.39443408 -121.22932214 124.39443408 -119.4375 121.3125 C-116.06285737 119.49538474 -113.77864401 119.5276695 -110 120 C-107.53710875 121.29625855 -106.3803143 122.14429283 -105.25 124.6875 C-104.88042261 128.10609083 -105 131.56149005 -105 135 C-98.4 135 -91.8 135 -85 135 C-85 132.03 -85 129.06 -85 126 C-83.8410416 123.58130422 -82.87677904 121.87677904 -81 120 C-74.08035111 119.43281567 -74.08035111 119.43281567 -70.5 121.3125 C-68.02993186 125.73803875 -68.76182239 129.99827025 -69 135 C-62.07 135 -55.14 135 -48 135 C-48.0825 133.2675 -48.165 131.535 -48.25 129.75 C-48.22245075 124.39855759 -48.22245075 124.39855759 -46.5 121.3125 C-42.72351506 119.32984541 -40.2519518 119.52756091 -36 120 C-33.32568511 121.81163267 -33.04079641 122.87761077 -32 126 C-32 128.97 -32 131.94 -32 135 C-25.4 135 -18.8 135 -12 135 C-12.00444122 133.40750931 -12.00888245 131.81501862 -12.01345825 130.17427063 C-12.05396917 115.18008 -12.0840876 100.18590944 -12.10362434 85.19167805 C-12.11393584 77.48266209 -12.12799376 69.773687 -12.15087891 62.06469727 C-12.17081665 55.34535148 -12.18371736 48.62603528 -12.18817699 41.90666074 C-12.19078372 38.34897936 -12.19690803 34.79138265 -12.21146011 31.23372841 C-12.22757536 27.26167848 -12.22797943 23.28971129 -12.22705078 19.31762695 C-12.23424133 18.1387088 -12.24143188 16.95979065 -12.24884033 15.74514771 C-12.246091 14.66126266 -12.24334167 13.57737762 -12.24050903 12.46064758 C-12.24235262 11.52134053 -12.24419621 10.58203348 -12.24609566 9.61426258 C-11.97158288 6.69812623 -11.33684277 4.60387498 -10 2 C-6.2794164 -0.48038907 -4.40203429 -0.46337203 0 0 Z " fill="#FDF3CC" transform="translate(194,22)"/>
<path d="M0 0 C2.1942749 1.58770752 2.1942749 1.58770752 4 4 C4.48101807 7.17645264 4.48101807 7.17645264 4.45410156 10.97167969 C4.45468567 11.6647673 4.45526978 12.35785492 4.45587158 13.07194519 C4.45309169 15.35577015 4.42200707 17.63827897 4.390625 19.921875 C4.3831622 21.50798835 4.37746945 23.09411094 4.37347412 24.68023682 C4.35822065 28.84960503 4.31894187 33.01841356 4.2746582 37.18756104 C4.23369898 41.44397409 4.21546175 45.70047781 4.1953125 49.95703125 C4.15244668 58.30497265 4.08209973 66.65235216 4 75 C12.58 75 21.16 75 30 75 C29.938125 72.23625 29.87625 69.4725 29.8125 66.625 C29.74407384 55.55384543 31.3481569 47.38326928 39 39 C46.35714534 31.80634678 53.72326701 29.30329698 63.90576172 29.39355469 C73.15664256 29.84904941 80.24269436 33.7391942 86.5625 40.4375 C93.06288734 48.46183707 94.16477955 56.26647594 94.0625 66.3125 C94.041875 69.179375 94.02125 72.04625 94 75 C101.59 75 109.18 75 117 75 C116.97905273 72.87014648 116.95810547 70.74029297 116.93652344 68.54589844 C116.87024698 61.50917913 116.82606212 54.47244603 116.79275131 47.43549728 C116.77187567 43.16890708 116.74355891 38.90263664 116.69824219 34.63623047 C116.6547829 30.51893216 116.63086272 26.40194143 116.62049103 22.28443146 C116.61309973 20.7135153 116.59866612 19.14261598 116.57707977 17.57183075 C116.54804318 15.37141031 116.54404388 13.17226087 116.54589844 10.97167969 C116.53701599 9.71925476 116.52813354 8.46682983 116.51898193 7.17645264 C117.08660678 3.42808316 118.02095187 2.26432608 121 0 C123.90784881 -0.70882303 125.942539 -0.33971789 129 0 C131.67431489 1.81163267 131.95920359 2.87761077 133 6 C133.09037546 7.75082814 133.12195827 9.50494412 133.12025452 11.25810242 C133.12231651 12.89242722 133.12231651 12.89242722 133.12442017 14.55976868 C133.12082489 15.75522812 133.11722961 16.95068756 133.11352539 18.18237305 C133.11367142 19.44102173 133.11381744 20.69967041 133.1139679 21.99645996 C133.1142551 25.44866579 133.1083707 28.90083696 133.10139394 32.35303473 C133.0951477 35.96051849 133.09455559 39.56800301 133.09336853 43.17549133 C133.09025897 50.00713919 133.08205062 56.83877107 133.07201904 63.67041188 C133.06084628 71.44784034 133.05534452 79.22526955 133.05032361 87.00270402 C133.03986771 103.00181219 133.02207435 119.00090341 133 135 C140.59 135 148.18 135 156 135 C156 132.03 156 129.06 156 126 C157.1589584 123.58130422 158.12322096 121.87677904 160 120 C166.91964889 119.43281567 166.91964889 119.43281567 170.5 121.3125 C172.97006814 125.73803875 172.23817761 129.99827025 172 135 C178.93 135 185.86 135 193 135 C192.9175 133.2675 192.835 131.535 192.75 129.75 C192.77754925 124.39855759 192.77754925 124.39855759 194.5 121.3125 C198.27648494 119.32984541 200.7480482 119.52756091 205 120 C207.67431489 121.81163267 207.95920359 122.87761077 209 126 C209 128.97 209 131.94 209 135 C215.6 135 222.2 135 229 135 C229 132.36 229 129.72 229 127 C230.10195622 123.10077031 230.55064395 122.2995707 234 120 C237.73209414 119.59286246 240.10268041 119.51682791 243.4375 121.3125 C246.00204306 125.72351406 245.23960153 129.96836781 245 135 C251.93 135 258.86 135 266 135 C266 131.7 266 128.4 266 125 C267.5 121.875 267.5 121.875 270 120 C272.83379595 119.30316493 275.16620405 119.30316493 278 120 C280.5 121.875 280.5 121.875 282 125 C282 128.3 282 131.6 282 135 C288.93 135 295.86 135 303 135 C302.9175 133.2675 302.835 131.535 302.75 129.75 C302.77067786 124.39443408 302.77067786 124.39443408 304.5625 121.3125 C307.96637149 119.47964612 310.19146701 119.45592386 314 120 C316.72355206 122.07963661 317.86189327 123.26401312 318.50024599 126.66586924 C318.50035333 127.6919836 318.50046066 128.71809796 318.50057125 129.7753067 C318.51038554 130.9616752 318.52019983 132.1480437 318.53031152 133.37036276 C318.51590402 135.3273402 318.51590402 135.3273402 318.50120544 137.32385254 C318.50509721 138.72276707 318.51073665 140.12167765 318.51797634 141.52057886 C318.53276723 145.36909272 318.5225285 149.21719893 318.50823963 153.06569982 C318.49715422 157.2143681 318.50906435 161.36297805 318.51808167 165.51164246 C318.53203277 173.64059534 318.52444419 181.76939315 318.50940608 189.89833868 C318.49256757 199.35973794 318.49575351 208.82109834 318.49950016 218.28250796 C318.50538217 235.16118904 318.49119382 252.03979559 318.46655273 268.91845703 C318.44263097 285.30618077 318.43554804 301.69380491 318.44604492 318.08154297 C318.45744781 335.91576272 318.45939198 353.74993637 318.44494683 371.58415556 C318.44342095 373.48495197 318.44190059 375.38574838 318.44038582 377.2865448 C318.439628 378.22183538 318.43887019 379.15712596 318.43808941 380.12075868 C318.43334172 386.7198204 318.43520146 393.31886157 318.43945122 399.91792297 C318.44437204 407.95718945 318.43841966 415.99636165 318.41855692 424.0356065 C318.40866835 428.13936514 318.4035966 432.24298007 318.41144943 436.34674644 C318.41848622 440.10079704 318.41174896 443.85455714 318.3938458 447.60856932 C318.38786065 449.61558706 318.39664678 451.62263188 318.40589231 453.62963724 C318.39745237 454.81600574 318.38901243 456.00237424 318.38031673 457.2246933 C318.37877304 458.76386484 318.37877304 458.76386484 318.37719816 460.33413076 C317.93641906 463.4493619 317.23209766 464.79982364 315 467 C310.96781151 468.28514684 306.93462628 468.13957742 302.74432468 468.12863445 C301.47843345 468.13126401 301.47843345 468.13126401 300.18696865 468.13394669 C297.34017016 468.13862334 294.49342238 468.13613691 291.6466217 468.13371277 C289.59258194 468.1355799 287.53854253 468.13788021 285.48450369 468.14057809 C279.82520636 468.14671454 274.16592376 468.14656034 268.50662386 468.14538372 C262.4090614 468.14518018 256.31150373 468.15069396 250.21394348 468.15544128 C238.26262696 468.16375828 226.31131671 468.16650953 214.35999805 468.16705366 C204.64951274 468.16751289 194.93902903 468.16956957 185.22854424 468.17275429 C182.43522483 468.1736518 179.64190543 468.17454162 176.84858602 468.17542917 C176.1541974 468.17565021 175.45980878 468.17587126 174.74437808 468.17609901 C155.20862689 468.18225448 135.67287626 468.18619944 116.13712406 468.18575573 C115.40034981 468.18574015 114.66357556 468.18572457 113.90447481 468.18570852 C110.17003639 468.18562541 106.43559797 468.18552637 102.70115954 468.18542381 C101.58861163 468.1853939 101.58861163 468.1853939 100.45358801 468.18536337 C98.95369277 468.18532294 97.45379754 468.18528114 95.95390231 468.18523798 C72.61127044 468.18462505 49.2686531 468.19213454 25.92602539 468.20581055 C-0.28726039 468.22116202 -26.50053663 468.22977735 -52.71382719 468.22884732 C-55.50746095 468.22877269 -58.30109471 468.22872399 -61.09472847 468.22869301 C-61.78261429 468.22868135 -62.47050012 468.2286697 -63.17923096 468.22865769 C-74.26164002 468.22862689 -85.3440365 468.2350198 -96.42644181 468.24362527 C-107.55866692 468.25209083 -118.69087377 468.25292832 -129.82310193 468.24651595 C-135.85703478 468.24323961 -141.8909219 468.24323403 -147.92485046 468.2518692 C-153.44355854 468.25968606 -158.96218427 468.25835245 -164.48089022 468.24958507 C-166.48219264 468.24803941 -168.48350105 468.24990595 -170.4847964 468.25544515 C-173.1961265 468.26245524 -175.90716373 468.2572511 -178.61848354 468.24888897 C-179.40316911 468.25385715 -180.18785469 468.25882533 -180.99631861 468.26394406 C-185.08237644 468.23713375 -188.39564592 468.01037157 -192 466 C-194.28066513 462.57900231 -194.25175152 461.36773425 -194.25726891 457.34774113 C-194.2637178 456.16336368 -194.27016669 454.97898623 -194.276811 453.75871855 C-194.2737138 452.45115408 -194.2706166 451.14358961 -194.26742554 449.79640198 C-194.27116012 448.39835376 -194.27576088 447.00030762 -194.28115618 445.60226482 C-194.2934252 441.75160798 -194.29312115 437.90103775 -194.29076743 434.05036581 C-194.29036025 429.9010053 -194.30138888 425.75167293 -194.31088257 421.60232544 C-194.32751449 413.46994301 -194.33299309 405.33758957 -194.33410732 397.20519156 C-194.33505668 390.59726418 -194.33916135 383.98934639 -194.34550858 377.38142204 C-194.36312632 358.65998215 -194.37234652 339.93856521 -194.37084763 321.21711696 C-194.37076772 320.20727256 -194.3706878 319.19742816 -194.37060547 318.15698242 C-194.37052371 317.14590976 -194.37044195 316.1348371 -194.37035771 315.09312587 C-194.36954447 298.70010157 -194.38869024 282.30716908 -194.4168822 265.91417135 C-194.44557972 249.09494592 -194.45942425 232.27576532 -194.45769465 215.45651478 C-194.4570297 206.00851786 -194.46256779 196.56061721 -194.48405075 187.11264229 C-194.50222132 179.06968765 -194.50664392 171.02687292 -194.4930319 162.98390669 C-194.48648152 158.87807709 -194.48645914 154.7725162 -194.5037384 150.66671181 C-194.51938336 146.91071515 -194.51669443 143.15520219 -194.49917014 139.39921796 C-194.49461373 137.39113936 -194.50982453 135.38304626 -194.52564943 133.37502486 C-194.51645184 132.18803966 -194.50725425 131.00105446 -194.49777794 129.77810001 C-194.49821267 128.75144358 -194.49864741 127.72478714 -194.49909532 126.6670199 C-193.86221294 123.2637061 -192.72460801 122.08005945 -190 120 C-186.19146701 119.45592386 -183.96637149 119.47964612 -180.5625 121.3125 C-177.99795694 125.72351406 -178.76039847 129.96836781 -179 135 C-172.07 135 -165.14 135 -158 135 C-158 131.7 -158 128.4 -158 125 C-156.5 121.875 -156.5 121.875 -154 120 C-151.16620405 119.30316493 -148.83379595 119.30316493 -146 120 C-143.5 121.875 -143.5 121.875 -142 125 C-142 128.3 -142 131.6 -142 135 C-135.07 135 -128.14 135 -121 135 C-121.0825 133.2675 -121.165 131.535 -121.25 129.75 C-121.22932214 124.39443408 -121.22932214 124.39443408 -119.4375 121.3125 C-116.06285737 119.49538474 -113.77864401 119.5276695 -110 120 C-107.53710875 121.29625855 -106.3803143 122.14429283 -105.25 124.6875 C-104.88042261 128.10609083 -105 131.56149005 -105 135 C-98.4 135 -91.8 135 -85 135 C-85 132.03 -85 129.06 -85 126 C-83.8410416 123.58130422 -82.87677904 121.87677904 -81 120 C-74.08035111 119.43281567 -74.08035111 119.43281567 -70.5 121.3125 C-68.02993186 125.73803875 -68.76182239 129.99827025 -69 135 C-62.07 135 -55.14 135 -48 135 C-48.0825 133.2675 -48.165 131.535 -48.25 129.75 C-48.22245075 124.39855759 -48.22245075 124.39855759 -46.5 121.3125 C-42.72351506 119.32984541 -40.2519518 119.52756091 -36 120 C-33.32568511 121.81163267 -33.04079641 122.87761077 -32 126 C-32 128.97 -32 131.94 -32 135 C-25.4 135 -18.8 135 -12 135 C-12.00444122 133.40750931 -12.00888245 131.81501862 -12.01345825 130.17427063 C-12.05396917 115.18008 -12.0840876 100.18590944 -12.10362434 85.19167805 C-12.11393584 77.48266209 -12.12799376 69.773687 -12.15087891 62.06469727 C-12.17081665 55.34535148 -12.18371736 48.62603528 -12.18817699 41.90666074 C-12.19078372 38.34897936 -12.19690803 34.79138265 -12.21146011 31.23372841 C-12.22757536 27.26167848 -12.22797943 23.28971129 -12.22705078 19.31762695 C-12.23424133 18.1387088 -12.24143188 16.95979065 -12.24884033 15.74514771 C-12.246091 14.66126266 -12.24334167 13.57737762 -12.24050903 12.46064758 C-12.24235262 11.52134053 -12.24419621 10.58203348 -12.24609566 9.61426258 C-11.97158288 6.69812623 -11.33684277 4.60387498 -10 2 C-6.2794164 -0.48038907 -4.40203429 -0.46337203 0 0 Z M-179 150 C-179 249.66 -179 349.32 -179 452 C-148.31 452 -117.62 452 -86 452 C-85.90868611 433.12359255 -85.90868611 433.12359255 -85.88232422 414.24707031 C-85.85877208 411.85739781 -85.83303552 409.46774542 -85.8046875 407.078125 C-85.8137915 405.86560059 -85.82289551 404.65307617 -85.83227539 403.40380859 C-85.67738003 393.93798107 -83.41356125 385.90345816 -76.95968628 378.73321533 C-71.48696309 373.55320057 -65.5452502 370.73973041 -58 370 C-57.28199219 369.91234375 -56.56398438 369.8246875 -55.82421875 369.734375 C-47.0012601 369.11522001 -39.81727153 372.91369536 -33.0625 378.375 C-24.79960623 388.89141025 -23.72359376 398.36983313 -23.5859375 411.5703125 C-23.56657135 412.73255341 -23.5472052 413.89479431 -23.5272522 415.09225464 C-23.46792705 418.769764 -23.42126031 422.44730546 -23.375 426.125 C-23.33677688 428.63282543 -23.29772269 431.14063835 -23.2578125 433.6484375 C-23.16226451 439.76552217 -23.07806119 445.8826682 -23 452 C-18.05 452 -13.1 452 -8 452 C-8 419.66 -8 387.32 -8 354 C-18.78171875 353.95101562 -29.5634375 353.90203125 -40.671875 353.8515625 C-47.4895915 353.81619014 -54.3072993 353.78031958 -61.125 353.7421875 C-71.95375618 353.68171438 -82.78249594 353.62331462 -93.61132812 353.578125 C-101.49716914 353.54520737 -109.38293958 353.50537743 -117.26870275 353.45720994 C-121.44502923 353.43194267 -125.62130889 353.41016206 -129.79769135 353.39665604 C-133.72766147 353.38383775 -137.65747101 353.3617859 -141.58735275 353.33261681 C-143.03050629 353.32353921 -144.47368569 353.31785037 -145.9168663 353.31578636 C-147.8860813 353.3124653 -149.85526042 353.29581441 -151.82440186 353.2784729 C-152.92686626 353.27294214 -154.02933067 353.26741138 -155.16520309 353.26171303 C-157.99169817 353.00076644 -159.64607778 352.55511749 -162 351 C-163.43060128 348.13879744 -163.38692581 346.15989415 -163 343 C-159.05806517 339.80113482 -155.39339766 339.57298729 -150.50867367 339.62247658 C-149.75953004 339.61811626 -149.01038641 339.61375593 -148.23854145 339.60926348 C-145.72003754 339.5982866 -143.20207872 339.60874039 -140.68357849 339.61904907 C-138.86307417 339.61559348 -137.04257193 339.61082957 -135.22207409 339.60486734 C-130.21294253 339.59231435 -125.20398188 339.59854724 -120.19484961 339.60782599 C-114.79534394 339.61459852 -109.39586818 339.60414423 -103.99636841 339.59588623 C-93.41645475 339.58252775 -82.83660483 339.58543597 -72.25668865 339.59412415 C-63.66082138 339.60089162 -55.06497202 339.60182148 -46.46910286 339.5985527 C-45.24700089 339.598093 -44.02489893 339.59763331 -42.76576357 339.59715968 C-40.28331716 339.59620053 -37.80087075 339.59522789 -35.31842435 339.5942419 C-12.02633612 339.58568191 11.26571672 339.59553189 34.55779915 339.611643 C54.5576806 339.62504841 74.55749163 339.62271743 94.55737305 339.60888672 C117.76607894 339.59284457 140.9747538 339.58650416 164.18346447 339.59572351 C166.65661585 339.59667919 169.12976723 339.5976223 171.60291862 339.5985527 C172.81985347 339.59901553 174.03678831 339.59947836 175.29059996 339.59995521 C183.8799089 339.60254907 192.46919821 339.59816561 201.0585041 339.59111404 C211.52050731 339.58271407 221.98244297 339.58494754 232.44443841 339.60095628 C237.78563434 339.608859 243.12671749 339.61189657 248.46791267 339.60200882 C253.35250137 339.59310286 258.23687221 339.59792675 263.121441 339.61394148 C264.89321959 339.61730671 266.6650164 339.6155564 268.43678338 339.60831411 C270.8362927 339.59925439 273.23504568 339.60848354 275.63451481 339.62247658 C276.33009386 339.61545308 277.0256729 339.60842958 277.7423301 339.60119325 C280.75025202 339.63650049 282.77883587 339.87874115 285.43690532 341.33609521 C287 343 287 343 287.375 346 C287 349 287 349 285 352 C281.75043502 353.08318833 279.36469821 353.13821814 275.94465637 353.15821838 C274.04528572 353.17290161 274.04528572 353.17290161 272.10754395 353.18788147 C270.70166053 353.19378566 269.29577673 353.19959611 267.88989258 353.20532227 C266.41163357 353.21490094 264.93337729 353.22491101 263.4551239 353.23532104 C259.43891823 353.26237736 255.42270079 353.283383 251.40645432 353.30332303 C247.2103754 353.32517809 243.01433275 353.35256913 238.81828308 353.37937927 C230.87105977 353.42931265 222.92381633 353.47424909 214.97655362 353.51740164 C204.23840576 353.57599608 193.50030562 353.64228643 182.76220036 353.70815182 C165.84149904 353.8117366 148.92075686 353.90501904 132 354 C132 386.34 132 418.68 132 452 C136.95 452 141.9 452 147 452 C147.01981934 450.44684082 147.03963867 448.89368164 147.06005859 447.29345703 C147.13648364 441.49723887 147.22514301 435.70125972 147.31738281 429.90527344 C147.35552066 427.40304301 147.39039924 424.9007606 147.421875 422.3984375 C147.4678567 418.78887427 147.52579571 415.17966429 147.5859375 411.5703125 C147.60326431 409.90876633 147.60326431 409.90876633 147.62094116 408.21365356 C147.8247516 397.33732477 148.9212357 387.65988174 156 379 C163.91486799 372.04879289 171.20439796 369.48873693 181.68359375 369.69140625 C190.36572777 370.49928444 197.31582969 374.46555437 203 381 C208.59423191 389.54407958 209.88025733 397.0132931 209.8046875 407.078125 C209.81830322 408.22587402 209.83191895 409.37362305 209.84594727 410.55615234 C209.88764803 414.78724049 209.87844231 419.01870777 209.875 423.25 C209.936875 437.48125 209.936875 437.48125 210 452 C240.69 452 271.38 452 303 452 C303 352.34 303 252.68 303 150 C143.94 150 -15.12 150 -179 150 Z " fill="#010000" transform="translate(194,22)"/>
<path d="M0 0 C4.95 0 9.9 0 15 0 C15.99 1.65 16.98 3.3 18 5 C21.24956498 6.08318833 23.63530179 6.13821814 27.05534363 6.15821838 C28.95471428 6.17290161 28.95471428 6.17290161 30.89245605 6.18788147 C32.29833947 6.19378566 33.70422327 6.19959611 35.11010742 6.20532227 C36.58836643 6.21490094 38.06662271 6.22491101 39.5448761 6.23532104 C43.56108177 6.26237736 47.57729921 6.283383 51.59354568 6.30332303 C55.7896246 6.32517809 59.98566725 6.35256913 64.18171692 6.37937927 C72.12894023 6.42931265 80.07618367 6.47424909 88.02344638 6.51740164 C98.76159424 6.57599608 109.49969438 6.64228643 120.23779964 6.70815182 C137.15850096 6.8117366 154.07924314 6.90501904 171 7 C171 39.34 171 71.68 171 105 C166.05 105 161.1 105 156 105 C155.98018066 103.44684082 155.96036133 101.89368164 155.93994141 100.29345703 C155.86351636 94.49723887 155.77485699 88.70125972 155.68261719 82.90527344 C155.64447934 80.40304301 155.60960076 77.9007606 155.578125 75.3984375 C155.5321433 71.78887427 155.47420429 68.17966429 155.4140625 64.5703125 C155.39673569 62.90876633 155.39673569 62.90876633 155.37905884 61.21365356 C155.17492282 50.31994985 154.05716185 40.69382279 147 32 C144.19098357 29.57403126 141.26868579 27.74368274 138 26 C136.865625 25.38125 135.73125 24.7625 134.5625 24.125 C127.29298863 21.82936483 119.15414805 22.36887725 112 25 C103.08592464 29.69776148 97.0096131 36.32678159 94 46 C93.42160875 50.59695429 93.39487742 55.15594375 93.390625 59.78515625 C93.37499512 60.93592651 93.35936523 62.08669678 93.34326172 63.27233887 C93.29100275 67.53551896 93.27245424 71.79905875 93.25 76.0625 C93.1675 85.611875 93.085 95.16125 93 105 C62.31 105 31.62 105 0 105 C0 70.35 0 35.7 0 0 Z " fill="#FDE172" transform="translate(15,369)"/>
<path d="M0 0 C4.95 0 9.9 0 15 0 C15 34.65 15 69.3 15 105 C-15.69 105 -46.38 105 -78 105 C-78.125 76.25 -78.125 76.25 -78.11767578 67.24707031 C-78.14122792 64.85739781 -78.16696448 62.46774542 -78.1953125 60.078125 C-78.1862085 58.86560059 -78.17710449 57.65307617 -78.16772461 56.40380859 C-78.33710065 46.05305037 -81.21908451 37.36018368 -88.75 30 C-97.03815344 23.59195698 -105.62852335 21.71169863 -116 23 C-119.29578269 23.93239238 -122.06382602 25.25214005 -125 27 C-125.93779297 27.50853516 -125.93779297 27.50853516 -126.89453125 28.02734375 C-132.72524962 31.59691208 -136.77858843 37.44361923 -138.54615784 44.03739929 C-140.01942098 50.90844309 -140.34093002 57.55730936 -140.4140625 64.5703125 C-140.43342865 65.73255341 -140.4527948 66.89479431 -140.4727478 68.09225464 C-140.53207295 71.769764 -140.57873969 75.44730546 -140.625 79.125 C-140.66322312 81.63282543 -140.70227731 84.14063835 -140.7421875 86.6484375 C-140.83773549 92.76552217 -140.92193881 98.8826682 -141 105 C-145.95 105 -150.9 105 -156 105 C-156 72.66 -156 40.32 -156 7 C-145.21828125 6.95101563 -134.4365625 6.90203125 -123.328125 6.8515625 C-116.5104085 6.81619014 -109.6927007 6.78031958 -102.875 6.7421875 C-92.04624382 6.68171438 -81.21750406 6.62331462 -70.38867188 6.578125 C-62.50283086 6.54520737 -54.61706042 6.50537743 -46.73129725 6.45720994 C-42.55497077 6.43194267 -38.37869111 6.41016206 -34.20230865 6.39665604 C-30.27233853 6.38383775 -26.34252899 6.3617859 -22.41264725 6.33261681 C-20.96949371 6.32353921 -19.52631431 6.31785037 -18.0831337 6.31578636 C-16.1139187 6.3124653 -14.14473958 6.29581441 -12.17559814 6.2784729 C-11.07313374 6.27294214 -9.97066933 6.26741138 -8.83479691 6.26171303 C-5.95733594 5.99606118 -4.34771857 5.66402842 -2 4 C-1.34 2.68 -0.68 1.36 0 0 Z " fill="#FCE071" transform="translate(482,369)"/>
<path d="M0 0 C159.06 0 318.12 0 482 0 C482 7.59 482 15.18 482 23 C477.05 23 472.1 23 467 23 C466.01 21.02 465.02 19.04 464 17 C460.50943014 15.83647671 457.38511689 15.85806793 453.75476933 15.86577892 C452.63451541 15.86225058 452.63451541 15.86225058 451.49163011 15.85865095 C448.9691015 15.85195172 446.44662429 15.85241945 443.92408752 15.85282898 C442.10531137 15.84953095 440.28653594 15.84580552 438.46776146 15.8416875 C433.45416681 15.83165284 428.44058413 15.82794837 423.42698085 15.82529819 C418.02608344 15.82139961 412.62519555 15.81182113 407.2243042 15.80308533 C394.17537014 15.78331073 381.1264353 15.77325452 368.07749 15.76435754 C361.93794527 15.75997722 355.7984014 15.75460984 349.65885735 15.74936867 C329.26026495 15.7323572 308.86167309 15.71786106 288.46307468 15.71061993 C283.16801007 15.70870993 277.87294546 15.70678961 272.57788086 15.70483398 C271.26176549 15.70435024 269.94565012 15.7038665 268.58965247 15.7033681 C247.24974555 15.69506044 225.90990312 15.66971075 204.57001973 15.63725331 C182.67930408 15.60422838 160.7886169 15.5861754 138.8978762 15.58297569 C126.59942434 15.5808066 114.30105407 15.57199966 102.00262642 15.54651451 C91.53325308 15.52487002 81.06398116 15.51672624 70.59458799 15.52648129 C65.24931396 15.53104388 59.90424948 15.52902657 54.55900383 15.50971985 C49.67059335 15.49221494 44.78254723 15.49298187 39.89413356 15.50861714 C38.12094273 15.51101259 36.34772749 15.5065705 34.57457418 15.49478849 C32.17295685 15.47981256 29.7726547 15.48924111 27.37107182 15.50501537 C26.67492107 15.49479317 25.97877033 15.48457096 25.26152411 15.47403899 C21.95003 15.52184991 20.25935177 15.80064209 17.60180801 17.84343654 C15.82732012 19.99835139 15.82732012 19.99835139 15 23 C10.05 23 5.1 23 0 23 C0 15.41 0 7.82 0 0 Z " fill="#FEC28E" transform="translate(15,172)"/>
<path d="M0 0 C36.3 0 72.6 0 110 0 C110 22.44 110 44.88 110 68 C73.7 68 37.4 68 0 68 C0 45.56 0 23.12 0 0 Z " fill="#FF7758" transform="translate(201,406)"/>
<path d="M0 0 C0.74884403 -0.00666801 1.49768807 -0.01333602 2.26922435 -0.02020609 C4.7870635 -0.03649277 7.30335888 -0.01704165 9.82115936 0.00215912 C11.64095443 -0.00216842 13.4607454 -0.00868307 15.28052568 -0.01720095 C20.28784462 -0.03423475 25.29466544 -0.01998174 30.30195832 -0.00068617 C35.69944614 0.01470901 41.09687165 0.0013472 46.49436188 -0.00843048 C57.07065003 -0.02297601 67.64674659 -0.01070387 78.22301662 0.01068276 C90.53253042 0.03466297 102.84200003 0.03298022 115.15153199 0.03037685 C137.11090566 0.02668446 159.07018889 0.04753133 181.02953339 0.08162689 C202.35086033 0.11471966 223.67204844 0.12888544 244.99340057 0.12264252 C268.19589659 0.11588224 291.39835281 0.11832845 314.60084295 0.13800192 C316.44036247 0.13956115 316.44036247 0.13956115 318.31704399 0.14115188 C320.78028378 0.14324281 323.24352355 0.14535379 325.7067633 0.14748505 C334.29259256 0.1543878 342.87840957 0.15504877 351.46424103 0.1536026 C361.92366311 0.15216457 372.38300767 0.16182305 382.84240401 0.18554896 C388.1816926 0.19742899 393.52087298 0.20452079 398.86017418 0.1987114 C403.74420855 0.19355427 408.62801395 0.20217566 413.51200908 0.221986 C415.28245546 0.22674088 417.05292402 0.22640662 418.82336718 0.22057563 C421.22349775 0.21343232 423.62286164 0.22461361 426.02293396 0.24050903 C426.71588599 0.23405723 427.40883803 0.22760543 428.12278861 0.22095811 C432.39601703 0.27435252 435.13970993 0.95813694 438.51146698 3.62361908 C439.51146698 6.49861908 439.51146698 6.49861908 439.51146698 9.62361908 C438.37366826 11.95093464 437.34305984 13.79202622 435.51146698 15.62361908 C433.15237525 15.72509177 430.82243055 15.76093741 428.46268654 15.75504684 C427.71279357 15.75709948 426.9629006 15.75915211 426.1902836 15.76126695 C423.64532065 15.76697887 421.1004111 15.76547458 418.55544281 15.76406097 C416.72530583 15.76664221 414.89516942 15.76965469 413.06503379 15.77306437 C408.0107834 15.78116598 402.95654718 15.78292569 397.90229106 15.78366184 C392.4611604 15.78550692 387.0200372 15.79305144 381.57891083 15.79979706 C369.6700585 15.81340311 357.76120952 15.81940857 345.85235071 15.82380772 C338.42309783 15.82656619 330.99384626 15.8308028 323.56459427 15.83531189 C303.014243 15.8475073 282.46389279 15.85780622 261.91353798 15.86118698 C260.59720839 15.86140655 259.2808788 15.86162611 257.92466044 15.86185233 C256.60509801 15.86207061 255.28553558 15.86228889 253.92598641 15.86251378 C251.25184321 15.86295634 248.57770002 15.86340345 245.90355682 15.86385345 C245.24052183 15.86396285 244.57748684 15.86407224 243.89435988 15.86418494 C222.38719335 15.86781695 200.8800605 15.88374163 179.37290687 15.90704382 C156.64983444 15.93161853 133.92678042 15.94535198 111.20369422 15.9465549 C98.81080463 15.94747343 86.41795912 15.95327044 74.02508163 15.97137451 C63.47439507 15.9867326 52.92376622 15.99192145 42.37307061 15.98363641 C36.9854396 15.97971467 31.59792496 15.9807333 26.21030807 15.99469376 C21.28429674 16.0073419 16.35849029 16.00631595 11.43247961 15.99410304 C9.64444449 15.99213016 7.8563953 15.99529695 6.06838001 16.00394741 C3.64930957 16.01491573 1.23097824 16.0076419 -1.1880703 15.99555588 C-1.89223278 16.00315107 -2.59639527 16.01074626 -3.32189602 16.01857162 C-6.13097461 15.98799528 -8.03615542 15.93709759 -10.38231194 14.31131053 C-12.28958651 11.40150249 -12.48853302 9.06453209 -12.48853302 5.62361908 C-8.84563296 0.80532733 -5.79622943 -0.10269593 0 0 Z " fill="#010101" transform="translate(42.48853302001953,186.37638092041016)"/>
<path d="M0 0 C0.63421875 0.37253906 1.2684375 0.74507812 1.921875 1.12890625 C2.97375 1.72703125 4.025625 2.32515625 5.109375 2.94140625 C11.31302976 7.76647107 15.72623061 13.52147604 17.921875 21.12890625 C18.49676071 26.46978597 18.48628535 31.78136239 18.453125 37.14453125 C18.45582432 38.68910974 18.45971039 40.23368656 18.46472168 41.77825928 C18.4705891 44.999149 18.46213907 48.21959222 18.44335938 51.44042969 C18.42049372 55.56196446 18.43375738 59.68246151 18.45764923 63.80395889 C18.47211687 66.98679401 18.46749826 70.16938367 18.45713806 73.35222626 C18.45447739 74.87202835 18.45771728 76.391853 18.46705627 77.91162872 C18.47724728 80.03445927 18.46169246 82.15561426 18.43945312 84.27832031 C18.43467957 86.08626068 18.43467957 86.08626068 18.42980957 87.9307251 C17.81233431 91.818623 16.81242553 93.47530683 13.921875 96.12890625 C11.42445374 96.76382446 11.42445374 96.76382446 8.59008789 96.77587891 C6.99306786 96.79952011 6.99306786 96.79952011 5.36378479 96.82363892 C4.21893112 96.81351776 3.07407745 96.80339661 1.89453125 96.79296875 C0.12292885 96.8001442 0.12292885 96.8001442 -1.6844635 96.8074646 C-4.1818271 96.81086662 -6.67923505 96.80164332 -9.17651367 96.78076172 C-12.99824503 96.75402783 -16.81703262 96.78049091 -20.63867188 96.8125 C-23.06511065 96.80919549 -25.49154759 96.80278843 -27.91796875 96.79296875 C-29.06079819 96.8030899 -30.20362762 96.81321106 -31.38108826 96.82363892 C-32.98283653 96.79999771 -32.98283653 96.79999771 -34.61694336 96.77587891 C-35.55307968 96.77190094 -36.489216 96.76792297 -37.45372009 96.76382446 C-41.23208713 95.84972998 -42.73044622 94.17803738 -45.078125 91.12890625 C-45.69285583 88.16523743 -45.69285583 88.16523743 -45.67749023 84.8449707 C-45.68660683 82.97196037 -45.68660683 82.97196037 -45.69590759 81.06111145 C-45.67699113 79.70479188 -45.65724042 78.34848373 -45.63671875 76.9921875 C-45.63246254 75.58839864 -45.63013939 74.18460272 -45.62965393 72.7808075 C-45.62349508 69.83930498 -45.60084241 66.89856587 -45.56518555 63.95727539 C-45.52012241 60.21298438 -45.50516953 56.46938782 -45.50144863 52.72485065 C-45.49698593 49.82404405 -45.48161954 46.923379 -45.4625721 44.02263451 C-45.45377453 42.64374122 -45.44700427 41.26483328 -45.44241142 39.88591957 C-45.38437347 27.62790702 -44.83799962 17.07393403 -37.078125 7.12890625 C-34.61233899 4.7098404 -32.0478238 2.88223396 -29.078125 1.12890625 C-28.40007812 0.71640625 -27.72203125 0.30390625 -27.0234375 -0.12109375 C-18.48157594 -4.62669106 -8.51435466 -4.4591602 0 0 Z " fill="#030303" transform="translate(386.078125,249.87109375)"/>
<path d="M0 0 C2.96490151 1.93084635 5.28478698 3.91056069 7.53125 6.6484375 C8.2325 7.4321875 8.93375 8.2159375 9.65625 9.0234375 C14.7770573 16.19256772 15.62417961 23.64121942 15.72412109 32.23876953 C15.74018402 33.50343048 15.75624695 34.76809143 15.77279663 36.07107544 C15.7842792 37.43279337 15.79488856 38.79451891 15.8046875 40.15625 C15.81001118 40.84967373 15.81533485 41.54309746 15.82081985 42.25753403 C15.84740482 45.9202132 15.86683529 49.58285983 15.88134766 53.24560547 C15.89473429 56.26804546 15.9226924 59.28981788 15.96337891 62.31201172 C16.01269645 65.97709574 16.03746448 69.64157088 16.04457474 73.3069725 C16.05127785 74.69845127 16.06647584 76.08991689 16.09046555 77.48120499 C16.12212124 79.42619408 16.11915185 81.37165284 16.11474609 83.31689453 C16.12687637 84.97399948 16.12687637 84.97399948 16.13925171 86.6645813 C15.31699726 90.69991379 13.77049079 92.17157315 10.53125 94.6484375 C7.90684509 95.28335571 7.90684509 95.28335571 5.07006836 95.29541016 C4.00223618 95.31117096 2.93440399 95.32693176 1.83421326 95.34317017 C0.69138382 95.33304901 -0.45144562 95.32292786 -1.62890625 95.3125 C-2.81093124 95.31728363 -3.99295624 95.32206726 -5.21080017 95.32699585 C-7.7063836 95.33039452 -10.20201156 95.32119464 -12.69750977 95.30029297 C-16.52135176 95.27350684 -20.34226435 95.30005803 -24.16601562 95.33203125 C-26.59115232 95.32872762 -29.01628719 95.32232236 -31.44140625 95.3125 C-33.15868675 95.32768173 -33.15868675 95.32768173 -34.91065979 95.34317017 C-36.50767982 95.31952896 -36.50767982 95.31952896 -38.13696289 95.29541016 C-39.53997398 95.28944321 -39.53997398 95.28944321 -40.97132874 95.28335571 C-43.46875 94.6484375 -43.46875 94.6484375 -45.76765442 92.53318787 C-47.82757737 89.0399312 -47.98693479 86.88690433 -48.01806641 82.84545898 C-48.02828827 82.18125443 -48.03851013 81.51704987 -48.04904175 80.8327179 C-48.0767548 78.64461809 -48.07492465 76.45778539 -48.0703125 74.26953125 C-48.07809633 72.73600301 -48.0867677 71.20247904 -48.09628296 69.66896057 C-48.11119423 66.45356289 -48.11063912 63.23860427 -48.10009766 60.02319336 C-48.08856677 55.93326978 -48.12222682 51.8451751 -48.168787 47.75555325 C-48.19849566 44.58526871 -48.19997302 41.41541141 -48.19376755 38.24501228 C-48.19478425 36.73933379 -48.20507459 35.23362823 -48.22539139 33.72808647 C-48.35533588 22.7432703 -46.79709637 13.66588743 -39.28897095 5.18675232 C-28.06470462 -5.86452625 -13.69165923 -7.6745353 0 0 Z " fill="#030303" transform="translate(155.46875,251.3515625)"/>
<path d="M0 0 C8.51410057 4.91931172 13.2833696 11.61335638 15.83251953 21.04638672 C16.405551 26.34792703 16.42141157 31.61686556 16.39892578 36.94091797 C16.40417093 38.46164833 16.41045065 39.98237545 16.41770935 41.50309753 C16.42805576 44.67092342 16.42363047 47.83829836 16.40893555 51.00610352 C16.39166795 55.05939124 16.41536899 59.11127183 16.45042515 63.16440296 C16.47239737 66.29663932 16.47095977 69.42853791 16.46265984 72.56082726 C16.46184189 74.05552411 16.46867535 75.55024613 16.48343086 77.04487038 C16.50089661 79.13195142 16.48632914 81.21648728 16.46362305 83.3034668 C16.46266129 84.48797928 16.46169952 85.67249176 16.46070862 86.89289856 C15.63487338 91.03856377 14.17107408 92.5154291 10.83251953 95.04638672 C8.25280762 95.68130493 8.25280762 95.68130493 5.47900391 95.69335938 C4.43442017 95.70912018 3.38983643 95.72488098 2.31359863 95.74111938 C1.19578003 95.73099823 0.07796143 95.72087708 -1.07373047 95.71044922 C-2.23118774 95.71523285 -3.38864502 95.72001648 -4.58117676 95.72494507 C-7.02548585 95.72834372 -9.46984042 95.71914397 -11.9140625 95.69824219 C-15.65451455 95.67147949 -19.39196546 95.69799477 -23.13232422 95.72998047 C-25.50863292 95.72667637 -27.88493976 95.72027014 -30.26123047 95.71044922 C-31.93795837 95.72563095 -31.93795837 95.72563095 -33.64855957 95.74111938 C-34.69314331 95.72535858 -35.73772705 95.70959778 -36.81396484 95.69335938 C-38.18699768 95.68739243 -38.18699768 95.68739243 -39.58776855 95.68130493 C-43.33561938 94.75888459 -44.83533927 93.07215928 -47.16748047 90.04638672 C-47.7822113 87.04475403 -47.7822113 87.04475403 -47.7668457 83.6706543 C-47.77292343 82.40195999 -47.77900116 81.13326569 -47.78526306 79.8261261 C-47.76634682 78.44771199 -47.74659612 77.06930911 -47.72607422 75.69091797 C-47.72181818 74.26470879 -47.71949488 72.83849267 -47.7190094 71.41227722 C-47.7128502 68.42370142 -47.69019544 65.4358769 -47.65454102 62.44750977 C-47.60947458 58.64268699 -47.59452485 54.8385476 -47.5908041 51.03348255 C-47.58634214 48.08635385 -47.57097706 45.13936454 -47.55192757 42.19229698 C-47.5431281 40.79107482 -47.53635872 39.38983823 -47.53176689 37.98859596 C-47.47218608 25.19821687 -47.09483732 14.82552808 -38.16748047 5.04638672 C-26.56139282 -4.87287618 -13.76108246 -7.32100083 0 0 Z " fill="#020202" transform="translate(466.16748046875,250.95361328125)"/>
<path d="M0 0 C4.3356182 2.77989638 7.90994152 5.56505746 10.84375 9.828125 C11.57658203 10.85292969 11.57658203 10.85292969 12.32421875 11.8984375 C16.43150014 20.54661356 15.99664226 30.35379733 16.02734375 39.72265625 C16.03633051 41.15370262 16.04545266 42.58474815 16.05470276 44.01579285 C16.07107912 46.99517079 16.07887371 49.97443776 16.08178711 52.95385742 C16.08720376 56.76493382 16.12506458 60.57496686 16.17053127 64.38574696 C16.20028787 67.33263477 16.2075101 70.27926858 16.20851326 73.22629356 C16.21270725 74.63170921 16.22510878 76.03712618 16.24603081 77.44239235 C16.27294863 79.403877 16.26501258 81.36574574 16.25561523 83.32739258 C16.26068588 84.44084549 16.26575653 85.5542984 16.27098083 86.70149231 C15.44376822 90.74063967 13.8957456 92.21963035 10.65625 94.703125 C8.11450195 95.32458496 8.11450195 95.32458496 5.39453125 95.31835938 C3.85768677 95.3323175 3.85768677 95.3323175 2.28979492 95.34655762 C0.64587769 95.32196472 0.64587769 95.32196472 -1.03125 95.296875 C-2.73414185 95.29693542 -2.73414185 95.29693542 -4.47143555 95.29699707 C-6.86870874 95.29164197 -9.26598149 95.27405996 -11.66308594 95.24511719 C-15.33062444 95.20327475 -18.99632562 95.20404881 -22.6640625 95.2109375 C-24.99480442 95.20044444 -27.32553687 95.18750571 -29.65625 95.171875 C-31.30016724 95.17157288 -31.30016724 95.17157288 -32.97729492 95.17126465 C-34.00185791 95.15535278 -35.0264209 95.13944092 -36.08203125 95.12304688 C-36.97962158 95.11462769 -37.87721191 95.1062085 -38.80200195 95.09753418 C-41.92464832 94.6129856 -43.81739444 93.58208297 -46.34375 91.703125 C-47.45885981 88.35779557 -47.49111591 85.80492314 -47.52075195 82.27905273 C-47.52732315 81.63143478 -47.53389435 80.98381683 -47.54066467 80.3165741 C-47.56037087 78.17328769 -47.5720584 76.03007151 -47.58203125 73.88671875 C-47.58814454 72.78424647 -47.58814454 72.78424647 -47.59438133 71.65950203 C-47.61523744 67.76413379 -47.6295373 63.86880065 -47.63891602 59.97338867 C-47.6499388 55.97110556 -47.68429124 51.96938483 -47.72408772 47.96729946 C-47.75038408 44.87267608 -47.75861962 41.77818358 -47.76219749 38.68345833 C-47.76703529 37.20961806 -47.77856815 35.73578252 -47.79723549 34.26205254 C-47.93657086 22.52606439 -46.54643189 13.23019145 -38.26953125 4.45703125 C-26.99650448 -5.80988359 -13.32558582 -7.24853295 0 0 Z " fill="#020202" transform="translate(77.34375,251.296875)"/>
<path d="M0 0 C8.84085309 5.29306738 14.27766166 11.61628278 17.4140625 21.4453125 C18.1054872 26.94403777 18.09649675 32.37575485 18.04296875 37.91015625 C18.04379917 39.47669133 18.04626505 41.04322631 18.05027771 42.60975647 C18.05311717 45.87007304 18.0386064 49.12969546 18.01098633 52.38989258 C17.97670627 56.56530571 17.98300446 60.73949553 18.0016489 64.91496944 C18.01221361 68.13981836 18.00328944 71.36438239 17.98826408 74.58920479 C17.98309119 76.12936113 17.98355324 77.6695473 17.98980904 79.20969963 C17.99526318 81.35651788 17.9748918 83.50157592 17.94750977 85.64819336 C17.94131119 86.86744003 17.93511261 88.08668671 17.9287262 89.34288025 C17.4140625 92.4453125 17.4140625 92.4453125 15.71495056 94.83778381 C12.93192121 96.78216329 11.44079064 96.95144663 8.06640625 96.96289062 C6.46454468 96.98180359 6.46454468 96.98180359 4.83032227 97.00109863 C3.68233154 96.99300171 2.53434082 96.98490479 1.3515625 96.9765625 C-0.42359741 96.98230286 -0.42359741 96.98230286 -2.23461914 96.98815918 C-4.73617402 96.99088059 -7.23775724 96.98350353 -9.73925781 96.96679688 C-13.57160799 96.94539253 -17.40208324 96.96659295 -21.234375 96.9921875 C-23.66406664 96.98954427 -26.09375712 96.98441939 -28.5234375 96.9765625 C-30.24542358 96.98870789 -30.24542358 96.98870789 -32.00219727 97.00109863 C-33.07010498 96.98848999 -34.1380127 96.97588135 -35.23828125 96.96289062 C-36.17663818 96.95970825 -37.11499512 96.95652588 -38.08178711 96.95324707 C-41.46367445 96.26727489 -42.59697547 95.25379055 -44.5859375 92.4453125 C-45.1006012 89.29818726 -45.1006012 89.29818726 -45.11938477 85.54052734 C-45.12800034 84.85374908 -45.13661591 84.16697083 -45.14549255 83.4593811 C-45.16817161 81.1912857 -45.16140629 78.9244252 -45.15234375 76.65625 C-45.15758189 75.07166173 -45.16385907 73.48707659 -45.17112732 71.90249634 C-45.18153759 68.57856603 -45.17696647 65.25506354 -45.16235352 61.93115234 C-45.14524271 57.6943555 -45.16856023 53.45892469 -45.20384312 49.2222805 C-45.2259378 45.9465759 -45.22434545 42.67119135 -45.2160778 39.39543533 C-45.21526334 37.83509456 -45.22202925 36.27472907 -45.23684883 34.71445847 C-45.32124464 24.21222511 -44.04547065 16.58893095 -37.734375 7.89453125 C-27.3890601 -2.38242253 -13.70841416 -6.38535252 0 0 Z " fill="#030404" transform="translate(308.5859375,249.5546875)"/>
<path d="M0 0 C7.12982661 5.88985676 13.22549069 12.43032939 14.26268005 21.92326355 C14.26808304 23.17472672 14.27348602 24.42618988 14.27905273 25.71557617 C14.28591599 26.41243027 14.29277924 27.10928436 14.29985046 27.82725525 C14.31800462 30.10770607 14.31429982 32.38746192 14.30859375 34.66796875 C14.31315899 36.26264162 14.31846558 37.85731252 14.32447815 39.45198059 C14.33338523 42.78309155 14.33101127 46.1139624 14.32104492 49.44506836 C14.30952058 53.71244163 14.32983107 57.97899166 14.35896206 62.24625683 C14.37730294 65.53454334 14.37703653 68.82263138 14.37132454 72.11095619 C14.37117126 73.68462599 14.37722073 75.25830918 14.38961601 76.83193016 C14.40449636 79.02935099 14.39387558 81.22523472 14.37670898 83.42260742 C14.37654282 84.67168381 14.37637665 85.92076019 14.37620544 87.20768738 C13.875 90.375 13.875 90.375 12.1778717 92.7771759 C9.39404677 94.70870451 7.89566469 94.8811547 4.52734375 94.89257812 C2.92548218 94.91149109 2.92548218 94.91149109 1.29125977 94.93078613 C0.14326904 94.92268921 -1.00472168 94.91459229 -2.1875 94.90625 C-3.96265991 94.91199036 -3.96265991 94.91199036 -5.77368164 94.91784668 C-8.27523652 94.92056809 -10.77681974 94.91319103 -13.27832031 94.89648438 C-17.11067049 94.87508003 -20.94114574 94.89628045 -24.7734375 94.921875 C-27.20312914 94.91923177 -29.63281962 94.91410689 -32.0625 94.90625 C-33.78448608 94.91839539 -33.78448608 94.91839539 -35.54125977 94.93078613 C-36.60916748 94.91817749 -37.6770752 94.90556885 -38.77734375 94.89257812 C-39.71570068 94.88939575 -40.65405762 94.88621338 -41.62084961 94.88293457 C-44.99839728 94.19784264 -46.13422297 93.17535993 -48.125 90.375 C-48.64639282 87.27929688 -48.64639282 87.27929688 -48.67431641 83.59375 C-48.6896492 82.58303185 -48.6896492 82.58303185 -48.70529175 81.55189514 C-48.73306745 79.32590051 -48.73116941 77.10114733 -48.7265625 74.875 C-48.73434385 73.31762233 -48.74301472 71.76024888 -48.75253296 70.20288086 C-48.76745835 66.93443074 -48.76687954 63.66641246 -48.75634766 60.39794922 C-48.74482512 56.23962647 -48.77844962 52.08310496 -48.825037 47.92507935 C-48.85474406 44.70418207 -48.85622304 41.48370538 -48.85001755 38.26269531 C-48.85103467 36.73189764 -48.86133313 35.20107345 -48.88164139 33.67041016 C-49.00948376 22.67630759 -47.56626916 13.4293477 -39.91348267 4.91430664 C-28.21581797 -6.43996376 -14.28239142 -7.42684354 0 0 Z " fill="#030304" transform="translate(234.125,251.625)"/>
<path d="M0 0 C1.53707108 -0.02409439 1.53707108 -0.02409439 3.10519409 -0.04867554 C7.78138522 -0.09316042 12.45743594 -0.13417192 17.13378906 -0.15722656 C19.60133279 -0.17380471 22.06882815 -0.20111874 24.53613281 -0.23925781 C28.09351515 -0.2939575 31.64977359 -0.315889 35.20751953 -0.33056641 C36.30973846 -0.35323578 37.4119574 -0.37590515 38.5475769 -0.39926147 C43.07069294 -0.38675826 46.131791 -0.25257629 50.15869141 1.89941406 C53.0703213 7.20723667 52.67765778 12.45540814 52.62939453 18.41162109 C52.63417816 19.70225464 52.63896179 20.99288818 52.64389038 22.32263184 C52.65124633 25.04970339 52.64059988 27.7759539 52.6171875 30.50292969 C52.5886976 33.99039816 52.60510886 37.47594281 52.63504982 40.96334076 C52.65751104 44.30041986 52.64176335 47.6369874 52.62939453 50.97412109 C52.63951569 52.22318237 52.64963684 53.47224365 52.6600647 54.75915527 C52.59392562 59.64676982 52.53593936 63.15009046 50.16796875 67.47753906 C45.22158094 70.12682407 40.58936699 69.9070069 35.05908203 69.85693359 C33.90162476 69.86171722 32.74416748 69.86650085 31.55163574 69.87142944 C29.10732665 69.87482809 26.66297208 69.86562834 24.21875 69.84472656 C20.47829795 69.81796386 16.74084704 69.84447914 13.00048828 69.87646484 C10.62417958 69.87316074 8.24787274 69.86675451 5.87158203 69.85693359 C4.19485413 69.87211533 4.19485413 69.87211533 2.48425293 69.88760376 C-2.07117555 69.81887092 -5.19522349 69.64544005 -9.24169922 67.46386719 C-12.11721508 62.21793017 -11.70702915 57.07692755 -11.62841797 51.19287109 C-11.62845825 49.92443359 -11.62849854 48.65599609 -11.62854004 47.34912109 C-11.62318092 44.66857369 -11.60825574 41.99021183 -11.57666016 39.31005859 C-11.5369819 35.88348497 -11.53261646 32.45800978 -11.54012299 29.03125 C-11.54393935 25.75169825 -11.52310236 22.47235361 -11.50341797 19.19287109 C-11.50321655 17.96568359 -11.50301514 16.73849609 -11.50280762 15.47412109 C-11.48689575 14.32943359 -11.47098389 13.18474609 -11.45458984 12.00537109 C-11.44617065 11.00119141 -11.43775146 9.99701172 -11.42907715 8.96240234 C-10.96494189 5.70325632 -10.01207319 3.81061909 -8.03466797 1.19287109 C-5.082872 0.20893911 -3.08185133 0.04393846 0 0 Z " fill="#010100" transform="translate(41.03466796875,390.80712890625)"/>
<path d="M0 0 C1.70289185 -0.00006042 1.70289185 -0.00006042 3.44018555 -0.00012207 C5.83745874 0.00523303 8.23473149 0.02281504 10.63183594 0.05175781 C14.29937444 0.09360025 17.96507562 0.09282619 21.6328125 0.0859375 C23.96355442 0.09643056 26.29428687 0.10936929 28.625 0.125 C30.26891724 0.12530212 30.26891724 0.12530212 31.94604492 0.12561035 C33.4828894 0.14947815 33.4828894 0.14947815 35.05078125 0.17382812 C35.94837158 0.18224731 36.84596191 0.1906665 37.77075195 0.19934082 C40.89339832 0.6838894 42.78614444 1.71479203 45.3125 3.59375 C46.35271517 6.71439551 46.45153162 8.92055479 46.47363281 12.19506836 C46.48324036 13.34313461 46.4928479 14.49120087 46.50274658 15.67405701 C46.50699646 16.91470413 46.51124634 18.15535126 46.515625 19.43359375 C46.52132507 20.70723282 46.52702515 21.98087189 46.53289795 23.29310608 C46.54235067 25.98897883 46.54924641 28.68474017 46.55273438 31.38061523 C46.55822273 34.83187533 46.58226285 38.28274162 46.61070633 41.73387814 C46.6338255 45.02958685 46.63578146 48.32531528 46.640625 51.62109375 C46.6529718 52.85971664 46.6653186 54.09833954 46.67803955 55.37449646 C46.67503845 56.52571487 46.67203735 57.67693329 46.66894531 58.86303711 C46.67441376 60.38168617 46.67441376 60.38168617 46.67999268 61.93101501 C46.25278062 65.02645765 45.48247868 66.37280868 43.3125 68.59375 C40.36070403 69.57768199 38.35968336 69.74268263 35.27783203 69.78662109 C34.25311798 69.80268402 33.22840393 69.81874695 32.17263794 69.83529663 C27.49644681 69.87978151 22.8203961 69.92079302 18.14404297 69.94384766 C15.67649924 69.96042581 13.20900388 69.98773983 10.74169922 70.02587891 C7.18431688 70.08057859 3.62805844 70.1025101 0.0703125 70.1171875 C-1.03190643 70.13985687 -2.13412537 70.16252625 -3.26974487 70.18588257 C-7.79286091 70.17337935 -10.85395896 70.03919739 -14.88085938 67.88720703 C-17.79248927 62.57938442 -17.39982575 57.33121295 -17.3515625 51.375 C-17.35634613 50.08436646 -17.36112976 48.79373291 -17.36605835 47.46398926 C-17.3734143 44.7369177 -17.36276785 42.0106672 -17.33935547 39.28369141 C-17.31086557 35.79622294 -17.32727683 32.31067828 -17.35721779 28.82328033 C-17.379679 25.48620123 -17.36393132 22.14963369 -17.3515625 18.8125 C-17.36168365 17.56343872 -17.37180481 16.31437744 -17.38223267 15.02746582 C-17.31596003 10.12998181 -17.26100751 6.63531015 -14.87646484 2.3046875 C-9.98710958 -0.31854031 -5.46660969 -0.08178013 0 0 Z " fill="#010100" transform="translate(435.6875,390.40625)"/>
<path d="M0 0 C4.95 0 9.9 0 15 0 C15 57.42 15 114.84 15 174 C10.05 174 5.1 174 0 174 C-0.99 171.525 -0.99 171.525 -2 169 C-2.85335938 168.5565625 -3.70671875 168.113125 -4.5859375 167.65625 C-7 166 -7 166 -7.6640625 162.53125 C-7.67731445 161.18750226 -7.663379 159.84326492 -7.625 158.5 C-7.65400391 157.48486328 -7.65400391 157.48486328 -7.68359375 156.44921875 C-7.6640625 154.46875 -7.6640625 154.46875 -7 151 C-4.5234375 149.15625 -4.5234375 149.15625 -2 148 C-0.58371017 145.16742033 -0.84917599 142.76525374 -0.82299805 139.59765625 C-0.81642685 138.94043076 -0.80985565 138.28320526 -0.80308533 137.60606384 C-0.78333471 135.42487471 -0.77168044 133.24375479 -0.76171875 131.0625 C-0.75764322 130.31556885 -0.7535677 129.5686377 -0.74936867 128.79907227 C-0.72849161 124.83887 -0.71420201 120.87870245 -0.70483398 116.91845703 C-0.69381929 112.84776774 -0.65948241 108.77763264 -0.61966228 104.70713806 C-0.59336668 101.56190047 -0.58513034 98.41679167 -0.58155251 95.27145386 C-0.57671287 93.77249446 -0.56517461 92.27353978 -0.54651451 90.77468872 C-0.44726937 82.26805645 -0.61908284 74.5564376 -5 67 C-5.66 66.34 -6.32 65.68 -7 65 C-7.27415466 62.57777405 -7.27415466 62.57777405 -7.30639648 59.49633789 C-7.32238388 58.34496841 -7.33837128 57.19359894 -7.35484314 56.00733948 C-7.36020584 54.75839401 -7.36556854 53.50944855 -7.37109375 52.22265625 C-7.38012222 50.94523056 -7.3891507 49.66780487 -7.39845276 48.35166931 C-7.41298414 45.64551705 -7.42264444 42.93978781 -7.42553711 40.23364258 C-7.43092444 36.76511545 -7.46861178 33.29775113 -7.51428127 29.82955265 C-7.55116587 26.52315559 -7.55256354 23.21673151 -7.55859375 19.91015625 C-7.57812607 18.66323502 -7.59765839 17.41631378 -7.61778259 16.13160706 C-7.61170486 14.97708542 -7.60562714 13.82256378 -7.59936523 12.63305664 C-7.60443588 11.61538712 -7.60950653 10.59771759 -7.61473083 9.54920959 C-7 7 -7 7 -4.58753967 5.39793396 C-3.73365158 4.93661575 -2.87976349 4.47529755 -2 4 C-1.34 2.68 -0.68 1.36 0 0 Z " fill="#FEE8AF" transform="translate(482,195)"/>
<path d="M0 0 C4.7992288 2.69399089 7.85255636 5.87773303 9.7890625 11.1171875 C10.33232475 15.50678909 10.25501302 19.8522775 10.1796875 24.26953125 C10.17402771 25.52480118 10.16836792 26.78007111 10.16253662 28.07337952 C10.14400304 31.3896907 10.10815017 34.70487457 10.0637207 38.02087402 C10.02259531 41.41290438 10.00426891 44.80505526 9.984375 48.19726562 C9.94377211 54.83786868 9.86546526 61.47651455 9.7890625 68.1171875 C-1.1009375 68.1171875 -11.9909375 68.1171875 -23.2109375 68.1171875 C-23.31605224 60.82923243 -23.41618318 53.54405208 -23.46968842 46.2559967 C-23.49599736 42.86157511 -23.53109958 39.46778665 -23.58813477 36.07373047 C-23.64899711 32.17138008 -23.67719798 28.26992703 -23.69921875 24.3671875 C-23.72502518 23.16167236 -23.7508316 21.95615723 -23.77742004 20.71411133 C-23.77977017 13.61635823 -23.11290789 8.4916208 -18.2109375 3.1171875 C-12.84038224 -1.37103472 -6.60622472 -2.63782118 0 0 Z " fill="#7FC4F3" transform="translate(457.2109375,262.8828125)"/>
<path d="M0 0 C4.51846921 3.04505534 8.13526194 6.71828583 9.875 11.9375 C9.96326965 13.76282586 9.99263203 15.59124689 9.98852539 17.41870117 C9.98844986 18.53963669 9.98837433 19.6605722 9.98829651 20.81547546 C9.98313522 22.02492325 9.97797394 23.23437103 9.97265625 24.48046875 C9.9712413 25.71920242 9.96982635 26.9579361 9.96836853 28.23420715 C9.96371602 31.52381537 9.9547339 34.8133746 9.94366455 38.10296631 C9.93342629 41.46121612 9.92881092 44.81947333 9.92382812 48.17773438 C9.91364157 54.76436202 9.89406712 61.35086807 9.875 67.9375 C-1.015 67.9375 -11.905 67.9375 -23.125 67.9375 C-23.18799898 60.61561898 -23.24809269 53.29472572 -23.28025055 45.97280884 C-23.29605935 42.56280867 -23.31716736 39.15303406 -23.35131836 35.74316406 C-23.39030034 31.82620003 -23.4047374 27.90932649 -23.41796875 23.9921875 C-23.43345261 22.77634979 -23.44893646 21.56051208 -23.46488953 20.30783081 C-23.46622092 13.60522664 -23.35747207 8.48143422 -18.625 3.29296875 C-12.69926735 -1.32107828 -7.12185656 -2.42143123 0 0 Z " fill="#7FC3F2" transform="translate(146.125,263.0625)"/>
<path d="M0 0 C4.45882459 2.61926653 6.88002194 5.70541783 8.8125 10.5 C9.46839799 14.92991753 9.39646916 19.28005813 9.30078125 23.75 C9.29370651 25.00385498 9.28663177 26.25770996 9.27934265 27.54956055 C9.25620033 30.85771414 9.21140739 34.16461431 9.15582275 37.47235107 C9.10436111 40.85771188 9.08149631 44.24326279 9.05664062 47.62890625 C9.00593114 54.25359287 8.90804995 60.87520323 8.8125 67.5 C-2.0775 67.5 -12.9675 67.5 -24.1875 67.5 C-24.29261474 60.21204493 -24.39274568 52.92686458 -24.44625092 45.6388092 C-24.47255986 42.24438761 -24.50766208 38.85059915 -24.56469727 35.45654297 C-24.62555961 31.55419258 -24.65376048 27.65273953 -24.67578125 23.75 C-24.70158768 22.54448486 -24.7273941 21.33896973 -24.75398254 20.09692383 C-24.75632982 13.00776475 -24.09871412 7.86109429 -19.1875 2.5 C-13.37144698 -2.48071577 -6.82833511 -2.87508847 0 0 Z " fill="#7FC4F3" transform="translate(69.1875,263.5)"/>
<path d="M0 0 C5.13959042 2.00723058 8.43999302 4.82018007 11.14701843 9.69215393 C12.97209914 14.63013325 12.47918716 19.958864 12.390625 25.15234375 C12.38496521 26.40761368 12.37930542 27.66288361 12.37347412 28.95619202 C12.35494054 32.2725032 12.31908767 35.58768707 12.2746582 38.90368652 C12.23353281 42.29571688 12.21520641 45.68786776 12.1953125 49.08007812 C12.15470961 55.72068118 12.07640276 62.35932705 12 69 C1.11 69 -9.78 69 -21 69 C-21.06890805 61.13427354 -21.1286337 53.26959651 -21.16479492 45.40380859 C-21.17817551 42.72850279 -21.20033385 40.05367851 -21.22631836 37.37841797 C-21.26275084 33.53086249 -21.27973828 29.68363414 -21.29296875 25.8359375 C-21.30845261 24.64197357 -21.32393646 23.44800964 -21.33988953 22.21786499 C-21.34126901 15.39505551 -21.13931079 10.33508073 -16.24609375 5.13671875 C-15.64925781 4.65847656 -15.05242187 4.18023437 -14.4375 3.6875 C-13.83808594 3.19636719 -13.23867188 2.70523437 -12.62109375 2.19921875 C-8.67426801 -0.72048125 -4.75037758 -0.6591433 0 0 Z " fill="#7FC3F2" transform="translate(377,262)"/>
<path d="M0 0 C4.82359063 1.72673283 8.2198608 4.72286277 11 9 C12.04877207 12.19732939 12.1212118 15.15165737 12.11352539 18.50292969 C12.11344986 19.60376892 12.11337433 20.70460815 12.11329651 21.83880615 C12.10813522 23.02121887 12.10297394 24.20363159 12.09765625 25.421875 C12.0962413 26.63699768 12.09482635 27.85212036 12.09336853 29.10406494 C12.08776988 32.98606831 12.0752176 36.86801406 12.0625 40.75 C12.05748483 43.38150958 12.05292195 46.01302007 12.04882812 48.64453125 C12.03865168 55.09639424 12.01907582 61.5481326 12 68 C1.11 68 -9.78 68 -21 68 C-21.06891261 60.27668271 -21.12863678 52.55443458 -21.16479492 44.83105469 C-21.1798702 42.20439029 -21.20033366 39.57775101 -21.22631836 36.95117188 C-21.26275576 33.17311396 -21.27973938 29.39538923 -21.29296875 25.6171875 C-21.30845261 24.44509735 -21.32393646 23.2730072 -21.33988953 22.06539917 C-21.34128265 15.29821707 -21.09834272 10.29155785 -16.24609375 5.13671875 C-15.64925781 4.65847656 -15.05242187 4.18023437 -14.4375 3.6875 C-13.83808594 3.19636719 -13.23867188 2.70523437 -12.62109375 2.19921875 C-8.67937775 -0.71670128 -4.74503165 -0.56006931 0 0 Z " fill="#784134" transform="translate(377,406)"/>
<path d="M0 0 C4.51846921 3.04505534 8.13526194 6.71828583 9.875 11.9375 C9.96313433 13.73220387 9.9926372 15.53004239 9.98852539 17.3269043 C9.98844986 18.42781906 9.98837433 19.52873383 9.98829651 20.66300964 C9.98313522 21.85058365 9.97797394 23.03815765 9.97265625 24.26171875 C9.9712413 25.47825638 9.96982635 26.69479401 9.96836853 27.94819641 C9.96276312 31.8404891 9.95020967 35.73272464 9.9375 39.625 C9.9324857 42.26106688 9.92792267 44.89713466 9.92382812 47.53320312 C9.91364208 54.00134191 9.89406757 60.46935685 9.875 66.9375 C-1.015 66.9375 -11.905 66.9375 -23.125 66.9375 C-23.19395434 59.23249133 -23.25366611 51.52855795 -23.28979492 43.82348633 C-23.30485979 41.20365771 -23.32531554 38.58385422 -23.35131836 35.96411133 C-23.38780162 32.19345895 -23.40474988 28.42314074 -23.41796875 24.65234375 C-23.43345261 23.48541489 -23.44893646 22.31848602 -23.46488953 21.11619568 C-23.46630198 14.25559652 -23.29022252 8.61377407 -18.625 3.1953125 C-12.66453074 -1.30608356 -7.08890443 -2.4102275 0 0 Z " fill="#784134" transform="translate(146.125,407.0625)"/>
<path d="M0 0 C4.23301121 2.82200747 7.17159664 5.95228992 8.8125 10.875 C8.90090088 12.73094728 8.93012704 14.58995117 8.92602539 16.44799805 C8.92594986 17.58895432 8.92587433 18.72991058 8.92579651 19.90544128 C8.92063522 21.13676285 8.91547394 22.36808441 8.91015625 23.63671875 C8.9087413 24.89764847 8.90732635 26.15857819 8.90586853 27.4577179 C8.90121575 30.80651709 8.89223342 34.15524811 8.88116455 37.50402832 C8.87092687 40.92260133 8.86631105 44.34118159 8.86132812 47.75976562 C8.85114107 54.46488216 8.83156669 61.16987926 8.8125 67.875 C-1.7475 67.875 -12.3075 67.875 -23.1875 67.875 C-23.27149679 60.42261804 -23.35161815 52.9719606 -23.39450073 45.51951599 C-23.41558134 42.04877368 -23.44372807 38.57842518 -23.48925781 35.10791016 C-23.54122585 31.12146841 -23.56048133 27.13518475 -23.578125 23.1484375 C-23.59877014 21.91072601 -23.61941528 20.67301453 -23.64068604 19.39779663 C-23.64346923 8.70484685 -23.64346923 8.70484685 -19.1875 3.875 C-13.37010796 -1.37484159 -7.3959011 -2.61031804 0 0 Z " fill="#80C5F5" transform="translate(224.1875,263.125)"/>
<path d="M0 0 C4.36603572 2.5461741 7.88960296 5.29585019 9.83984375 10.09375 C10.3974054 14.52077392 10.30479102 18.91144069 10.23046875 23.3671875 C10.22480896 24.64606842 10.21914917 25.92494934 10.21331787 27.24258423 C10.19476223 30.62630142 10.15888901 34.00892092 10.11450195 37.39233398 C10.07342544 40.85130202 10.05506073 44.31038726 10.03515625 47.76953125 C9.99451226 54.54488505 9.91621043 61.31832823 9.83984375 68.09375 C-0.72015625 68.09375 -11.28015625 68.09375 -22.16015625 68.09375 C-22.22315523 60.77186898 -22.28324894 53.45097572 -22.3154068 46.12905884 C-22.3312156 42.71905867 -22.35232361 39.30928406 -22.38647461 35.89941406 C-22.42545659 31.98245003 -22.43989365 28.06557649 -22.453125 24.1484375 C-22.46860886 22.93259979 -22.48409271 21.71676208 -22.50004578 20.46408081 C-22.50137717 13.76147664 -22.39262832 8.63768422 -17.66015625 3.44921875 C-12.26053074 -0.75517716 -6.58329653 -2.76188932 0 0 Z " fill="#80C5F5" transform="translate(301.16015625,262.90625)"/>
<path d="M0 0 C4.95 0 9.9 0 15 0 C15 34.65 15 69.3 15 105 C7.74 105 0.48 105 -7 105 C-7.48828125 94.35546875 -7.48828125 94.35546875 -7 91 C-4.54296875 89.17578125 -4.54296875 89.17578125 -2 88 C-0.69161662 85.38323323 -0.86575371 83.44259778 -0.85473633 80.51220703 C-0.84835648 79.36406525 -0.84197662 78.21592346 -0.83540344 77.0329895 C-0.83429062 75.78718109 -0.8331778 74.54137268 -0.83203125 73.2578125 C-0.82870285 71.98275848 -0.82537445 70.70770447 -0.82194519 69.39401245 C-0.81687402 66.69216431 -0.81410532 63.99041671 -0.81469727 61.28857422 C-0.8147988 57.82952603 -0.80115622 54.37068351 -0.78392506 50.91168404 C-0.77011799 47.6104012 -0.77071588 44.3091203 -0.76953125 41.0078125 C-0.76234573 39.76605255 -0.75516022 38.5242926 -0.74775696 37.24490356 C-0.75083359 36.09045746 -0.75391022 34.93601135 -0.75708008 33.74658203 C-0.75565506 32.73113312 -0.75423004 31.7156842 -0.75276184 30.66946411 C-1.00749081 27.91912065 -1.50231509 26.30350462 -3 24 C-5.0335948 22.73195434 -5.0335948 22.73195434 -7 22 C-7.13501894 19.56065775 -7.23403897 17.12875896 -7.3125 14.6875 C-7.35439453 13.99720703 -7.39628906 13.30691406 -7.43945312 12.59570312 C-7.48828125 10.57421875 -7.48828125 10.57421875 -7 7 C-4.60546875 5.26953125 -4.60546875 5.26953125 -2 4 C-1.34 2.68 -0.68 1.36 0 0 Z " fill="#FECD52" transform="translate(482,369)"/>
<path d="M0 0 C36.3 0 72.6 0 110 0 C110 4.95 110 9.9 110 15 C73.7 15 37.4 15 0 15 C0 10.05 0 5.1 0 0 Z " fill="#FFC18D" transform="translate(201,376)"/>
<path d="M0 0 C7.26 0 14.52 0 22 0 C22 22.44 22 44.88 22 68 C14.74 68 7.48 68 0 68 C0 45.56 0 23.12 0 0 Z " fill="#FF533E" transform="translate(289,406)"/>
<path d="M0 0 C10.56 0 21.12 0 32 0 C32 14.85 32 29.7 32 45 C21.44 45 10.88 45 0 45 C0 30.15 0 15.3 0 0 Z " fill="#FEE272" transform="translate(240,112)"/>
<path d="M0 0 C10.89 0 21.78 0 33 0 C33 12.87 33 25.74 33 39 C22.11 39 11.22 39 0 39 C0 26.13 0 13.26 0 0 Z " fill="#42A8EE" transform="translate(434,406)"/>
<path d="M0 0 C10.89 0 21.78 0 33 0 C33 12.87 33 25.74 33 39 C22.11 39 11.22 39 0 39 C0 26.13 0 13.26 0 0 Z " fill="#42A8EE" transform="translate(45,406)"/>
<path d="M0 0 C8.91 0 17.82 0 27 0 C27 14.85 27 29.7 27 45 C18.09 45 9.18 45 0 45 C0 30.15 0 15.3 0 0 Z " fill="#FAE5AC" transform="translate(198,112)"/>
<path d="M0 0 C7.92 0 15.84 0 24 0 C24 14.85 24 29.7 24 45 C16.08 45 8.16 45 0 45 C0 30.15 0 15.3 0 0 Z " fill="#FAE4AC" transform="translate(287,112)"/>
<path d="M0 0 C159.06 0 318.12 0 482 0 C482 7.59 482 15.18 482 23 C477.05 23 472.1 23 467 23 C466.01 21.02 465.02 19.04 464 17 C462.35 16.34 460.7 15.68 459 15 C459 10.38 459 5.76 459 1 C307.53 1 156.06 1 0 1 C0 0.67 0 0.34 0 0 Z " fill="#E7AF80" transform="translate(15,172)"/>
<path d="M0 0 C4.61452894 2.46638616 7.73310119 5.62245238 10.0625 10.28125 C10.14592159 11.72973582 10.16982861 13.18195869 10.16015625 14.6328125 C10.15765869 15.39932129 10.15516113 16.16583008 10.15258789 16.95556641 C10.14348389 17.92929199 10.13437988 18.90301758 10.125 19.90625 C10.104375 23 10.08375 26.09375 10.0625 29.28125 C-0.4975 29.28125 -11.0575 29.28125 -21.9375 29.28125 C-22.02 26.27 -22.1025 23.25875 -22.1875 20.15625 C-22.22391602 19.21894043 -22.26033203 18.28163086 -22.29785156 17.31591797 C-22.37090589 11.78382005 -21.64728549 8.65325585 -17.9375 4.28125 C-12.7376787 -0.41127166 -6.83641718 -2.53609024 0 0 Z " fill="#784134" transform="translate(261.9375,67.71875)"/>
<path d="M0 0 C7.26 0 14.52 0 22 0 C22 7.59 22 15.18 22 23 C17.05 23 12.1 23 7 23 C6.01 21.02 5.02 19.04 4 17 C2.68 16.34 1.36 15.68 0 15 C0 10.05 0 5.1 0 0 Z " fill="#FD9C73" transform="translate(475,172)"/>
<path d="M0 0 C0.88945312 -0.02384766 1.77890625 -0.04769531 2.6953125 -0.07226562 C7.26110865 -0.06204369 9.35871029 0.07606027 13.08984375 2.90625 C15 5.5625 15 5.5625 15.5625 8.625 C14.83258786 12.43676337 14.20073708 13.33282601 11 15.5625 C7.32694943 16.16741407 3.71451574 16.12008939 0 16.0625 C-0.99773437 16.07796875 -1.99546875 16.0934375 -3.0234375 16.109375 C-10.25647752 16.07059194 -10.25647752 16.07059194 -13.65234375 13.75 C-15.66681245 10.48013777 -15.60322302 8.31588767 -15 4.5625 C-10.69054538 -0.36384996 -6.10170278 -0.0751659 0 0 Z " fill="#070706" transform="translate(295,216.4375)"/>
<path d="M0 0 C0.84175781 -0.00257813 1.68351562 -0.00515625 2.55078125 -0.0078125 C7.78095635 0.07455246 11.6271073 0.6271073 15.5 4.5 C15.83859537 8.08911095 16.06884907 10.56081517 14.16796875 13.69921875 C9.88964891 16.58692804 5.5382566 16.07811251 0.5 16 C-0.49773437 16.01546875 -1.49546875 16.0309375 -2.5234375 16.046875 C-9.77073462 16.0080155 -9.77073462 16.0080155 -13.15234375 13.65234375 C-15.03770117 10.64123669 -15.1410111 8.98994933 -14.5 5.5 C-10.32362007 -0.22256485 -6.56747943 -0.22126271 0 0 Z " fill="#070706" transform="translate(216.5,216.5)"/>
<path d="M0 0 C0.94166016 -0.02384766 1.88332031 -0.04769531 2.85351562 -0.07226562 C7.55860693 -0.06230425 9.8523289 0.03514523 13.71875 2.90625 C15.5625 5.5625 15.5625 5.5625 15.625 8.625 C14.34982762 12.15047657 13.62901409 13.37477577 10.5625 15.5625 C7.05531825 16.16488294 3.61276372 16.12030619 0.0625 16.0625 C-0.88753906 16.07796875 -1.83757812 16.0934375 -2.81640625 16.109375 C-9.70157327 16.07063988 -9.70157327 16.07063988 -13.0625 13.75 C-15.09561976 10.5154913 -14.97115966 8.29811761 -14.4375 4.5625 C-11.00675141 -0.8703285 -5.77980887 -0.06697802 0 0 Z " fill="#060605" transform="translate(372.4375,216.4375)"/>
<path d="M0 0 C0.84175781 -0.00257813 1.68351562 -0.00515625 2.55078125 -0.0078125 C7.78095635 0.07455246 11.6271073 0.6271073 15.5 4.5 C16.07315128 10.57540353 16.07315128 10.57540353 14.13671875 13.69921875 C9.99030379 16.5310666 5.90175805 16.07981153 1 16 C0.04996094 16.01546875 -0.90007812 16.0309375 -1.87890625 16.046875 C-8.78793288 16.00800565 -8.78793288 16.00800565 -12.08984375 13.65234375 C-13.97745478 10.77125323 -14.57064527 8.96161809 -14.5 5.5 C-10.37417312 -0.24578344 -6.53875837 -0.22029508 0 0 Z " fill="#050504" transform="translate(138.5,216.5)"/>
<path d="M0 0 C0.95003906 -0.01546875 1.90007812 -0.0309375 2.87890625 -0.046875 C9.76407327 -0.00813988 9.76407327 -0.00813988 13.125 2.3125 C15.15811976 5.5470087 15.03365966 7.76438239 14.5 11.5 C13.125 13.6875 13.125 13.6875 10.5 15.5 C6.99189975 16.09849479 3.55065722 16.0578126 0 16 C-0.95003906 16.01546875 -1.90007812 16.0309375 -2.87890625 16.046875 C-9.76407327 16.00813988 -9.76407327 16.00813988 -13.125 13.6875 C-15.15811976 10.4529913 -15.03365966 8.23561761 -14.5 4.5 C-11.06709172 -0.96144499 -5.78965401 -0.09426845 0 0 Z " fill="#040403" transform="translate(450.5,216.5)"/>
<path d="M0 0 C0.95003906 -0.01546875 1.90007813 -0.0309375 2.87890625 -0.046875 C9.76407327 -0.00813988 9.76407327 -0.00813988 13.125 2.3125 C15.15811976 5.5470087 15.03365966 7.76438239 14.5 11.5 C13.125 13.6875 13.125 13.6875 10.5 15.5 C6.99189975 16.09849479 3.55065722 16.0578126 0 16 C-0.95003906 16.01546875 -1.90007813 16.0309375 -2.87890625 16.046875 C-9.76407327 16.00813988 -9.76407327 16.00813988 -13.125 13.6875 C-15.15811976 10.4529913 -15.03365966 8.23561761 -14.5 4.5 C-11.06709172 -0.96144499 -5.78965401 -0.09426845 0 0 Z " fill="#040403" transform="translate(61.5,216.5)"/>
<path d="M0 0 C7.26 0 14.52 0 22 0 C22 4.95 22 9.9 22 15 C14.74 15 7.48 15 0 15 C0 10.05 0 5.1 0 0 Z " fill="#FF9D73" transform="translate(289,376)"/>
</svg>
