<?xml version="1.0" encoding="UTF-8"?>
<svg version="1.1" xmlns="http://www.w3.org/2000/svg" width="512" height="512">
<path d="M0 0 C4.7761814 1.81617135 6.57302115 5.10625563 8.71875 9.59765625 C11.86871107 17.03713922 14.143956 23.60440038 14.0625 31.75 C14.05347656 32.92046875 14.04445313 34.0909375 14.03515625 35.296875 C14.01775391 36.63492188 14.01775391 36.63492188 14 38 C14.94230469 38.2784375 15.88460938 38.556875 16.85546875 38.84375 C21.13928915 40.41891874 22.99355976 42.98711952 25 47 C25.29427268 50.57673222 25.27800554 54.16257592 25.3125 57.75 C25.35600586 59.235 25.35600586 59.235 25.40039062 60.75 C25.45329425 66.83798685 25.11692567 70.40091186 21 75 C19.515 75.99 19.515 75.99 18 77 C17.88642825 79.80552907 17.95537114 82.34319304 18.1875 85.125 C18.24284912 85.92671631 18.29819824 86.72843262 18.35522461 87.55444336 C18.75241194 92.91409873 19.3580861 98.23556984 20.0625 103.5625 C22.02288083 118.60206286 22.02288083 118.60206286 19.125 122.5625 C17 124 17 124 15 124 C15.34220727 126.94478358 15.72181765 129.87598856 16.125 132.8125 C16.2178125 133.64587891 16.310625 134.47925781 16.40625 135.33789062 C16.74831531 137.70384235 17.1130904 139.77819516 18 142 C20.87413917 143.83295389 20.87413917 143.83295389 24 145 C26.8804612 148.83338575 27.81101523 152.77683012 28.6484375 157.40625 C28.78621109 158.12020432 28.92398468 158.83415863 29.06593323 159.56974792 C29.3591358 161.09262542 29.64815705 162.61631299 29.93331909 164.14071655 C30.67338753 168.0938673 31.44447401 172.04094208 32.21484375 175.98828125 C32.36593094 176.7656514 32.51701813 177.54302155 32.67268372 178.34394836 C34.49185482 187.63222034 36.68723579 196.82354844 39 206 C39.61053223 206.05115967 40.22106445 206.10231934 40.85009766 206.1550293 C41.65495605 206.23148682 42.45981445 206.30794434 43.2890625 206.38671875 C44.48329834 206.49439575 44.48329834 206.49439575 45.70166016 206.60424805 C50.06040709 207.35478223 52.91491657 209.80266656 55.8125 213 C58.54680551 217.60514612 58.21621842 222.61435951 58.25 227.8125 C58.2809375 228.98522461 58.2809375 228.98522461 58.3125 230.18164062 C58.35325258 236.27924543 57.37210761 241.05858656 53.4375 245.9375 C52 247 52 247 50 247 C63.45872889 287.21470509 63.45872889 287.21470509 79.07983398 326.62573242 C80 329 80 329 80 331 C80.92941406 330.95359375 81.85882813 330.9071875 82.81640625 330.859375 C95.51324062 330.48866451 95.51324062 330.48866451 101 335 C103.72990304 338.75291019 104.38330757 341.38897396 104.3984375 346 C104.40230469 347.134375 104.40617187 348.26875 104.41015625 349.4375 C104.39275391 351.2009375 104.39275391 351.2009375 104.375 353 C104.38660156 354.175625 104.39820313 355.35125 104.41015625 356.5625 C104.40628906 357.696875 104.40242188 358.83125 104.3984375 360 C104.39505371 361.03125 104.39166992 362.0625 104.38818359 363.125 C103.94635739 366.39729267 102.7377614 368.2348717 101 371 C102.02512411 376.4362642 105.15659872 381.39994682 107.75 386.25 C108.19520996 387.08958252 108.64041992 387.92916504 109.09912109 388.79418945 C112.21954403 394.64059666 115.45680104 400.3971366 119 406 C119.53367187 405.62488281 120.06734375 405.24976563 120.6171875 404.86328125 C133.7258836 395.85955745 144.92844195 391.72139669 161 393 C170.43440191 394.77226672 181.13325455 398.71747767 186.984375 406.7109375 C188.77578998 409.23017787 188.77578998 409.23017787 191.48046875 409.41796875 C192.37378906 409.34191406 193.26710938 409.26585937 194.1875 409.1875 C204.99280469 408.71333104 213.43435574 411.79280402 221.6875 418.75 C229.23241879 425.78846124 233.45993637 433.9116648 234.25 444.28125 C234.3590062 450.22208792 234.07708672 455.41782943 232 461 C232.87011719 461.12955078 232.87011719 461.12955078 233.7578125 461.26171875 C239.60830427 462.31403493 242.8728963 463.67636755 247 468 C251.04270307 473.83731588 250.47926783 480.11415547 250.4375 486.9375 C250.45748047 488.09185547 250.47746094 489.24621094 250.49804688 490.43554688 C250.49417653 497.18156136 250.10449683 501.55985338 246 507 C240.93435447 511.5832031 237.77330219 512.14689336 231.11815262 512.13422108 C229.8764328 512.13774942 229.8764328 512.13774942 228.60962772 512.14134905 C225.80559585 512.14806347 223.00161006 512.14758009 220.1975708 512.14717102 C218.17896794 512.15046812 216.16036575 512.15419336 214.1417644 512.1583125 C208.57109463 512.16835804 203.00043563 512.17205338 197.42975807 512.17470181 C191.43098108 512.17859729 185.43221268 512.18817611 179.43344116 512.19691467 C165.6205242 512.21576469 151.8076066 512.22593816 137.99468044 512.23437535 C131.17158306 512.23857954 124.34848656 512.24380183 117.52538993 512.24905988 C94.17773212 512.26695121 70.83007407 512.28194817 47.48241043 512.28938007 C46.01619841 512.28985483 44.54998639 512.29033072 43.08377437 512.29080774 C41.99309003 512.2911623 41.99309003 512.2911623 40.88037166 512.29152403 C37.19628944 512.29272525 33.51220722 512.29394069 29.828125 512.29516602 C29.09700241 512.29540617 28.36587981 512.29564632 27.61260199 512.29589374 C3.9019962 512.3037886 -19.80855959 512.3272237 -43.51914355 512.35972196 C-68.57631806 512.39400331 -93.63346331 512.41372963 -118.69066167 512.41702431 C-121.4402512 512.41744187 -124.18984072 512.41792143 -126.93943024 512.41844749 C-127.95499953 512.41863228 -127.95499953 512.41863228 -128.99108538 512.4188208 C-139.89675934 512.42115493 -150.80237533 512.43682671 -161.70802862 512.45728934 C-172.66577224 512.47752384 -183.62345554 512.48270192 -194.58121583 512.47351871 C-200.52012588 512.46895915 -206.45884733 512.47095618 -212.39773178 512.49028015 C-217.8309158 512.50780651 -223.26377217 512.50700013 -228.69695917 512.49138286 C-230.66604147 512.48899071 -232.63514585 512.49341278 -234.60419425 512.50521151 C-237.27479441 512.52022708 -239.94421802 512.51073002 -242.61478806 512.49498463 C-243.38458354 512.50520683 -244.15437903 512.51542904 -244.94750166 512.52596101 C-250.11355486 512.45919299 -253.01141466 511.24087721 -257 508 C-262.82779498 501.54217313 -262.27481098 495.64185057 -262.375 487.3125 C-262.41238281 486.15298828 -262.44976562 484.99347656 -262.48828125 483.79882812 C-262.56141584 476.65195311 -262.01062913 471.37772401 -257 466 C-253.07215584 462.8644084 -248.99289772 461.48711197 -244 461 C-244.33 460.113125 -244.66 459.22625 -245 458.3125 C-247.76113475 448.38842148 -246.36553128 438.20894617 -242 429 C-236.42904441 419.74874992 -228.35451328 413.05543015 -218 410 C-215.00886696 409.26883415 -212.40002991 408.98189646 -209.32421875 409.12109375 C-208.35097656 409.16363281 -207.37773437 409.20617187 -206.375 409.25 C-204.99441406 409.35054688 -204.99441406 409.35054688 -203.5859375 409.453125 C-199.928725 408.81228414 -199.1423532 406.93990251 -197 404 C-185.5585542 394.81246172 -172.48803756 391.51757422 -158 393 C-148.80445541 394.75797176 -141.58438887 398.63543226 -134 404 C-133.01 404.66 -132.02 405.32 -131 406 C-129.07699119 402.58746638 -127.15653124 399.17351179 -125.23828125 395.75830078 C-124.26953135 394.03474921 -123.29884785 392.31228491 -122.328125 390.58984375 C-120.53784916 387.4009149 -118.76803501 384.20129416 -117 381 C-116.53271484 380.18917969 -116.06542969 379.37835938 -115.58398438 378.54296875 C-114.27547952 376.2650788 -114.27547952 376.2650788 -113 373 C-113.8109791 370.93785605 -113.8109791 370.93785605 -115 369 C-116.7032482 363.89025539 -116.26896051 358.53705176 -116.3125 353.1875 C-116.34150391 352.01123047 -116.37050781 350.83496094 -116.40039062 349.62304688 C-116.43701744 344.63898297 -116.42747302 340.94531445 -114.35546875 336.36328125 C-110.60861117 332.60399628 -107.66082786 331.13336412 -102.3515625 330.70703125 C-100.50691406 330.75923828 -100.50691406 330.75923828 -98.625 330.8125 C-97.37976563 330.83957031 -96.13453125 330.86664063 -94.8515625 330.89453125 C-93.44003906 330.94673828 -93.44003906 330.94673828 -92 331 C-91.62746094 329.83210938 -91.25492188 328.66421875 -90.87109375 327.4609375 C-88.76803505 321.15298909 -86.3125728 314.98127447 -83.90200806 308.78649902 C-75.98325059 288.39790788 -68.90916343 267.74926079 -62 247 C-62.598125 246.7525 -63.19625 246.505 -63.8125 246.25 C-66.85872191 244.50930177 -68.54545768 242.49909304 -69.56933594 239.12231445 C-70.30538778 235.49504765 -70.22602006 231.87741321 -70.25 228.1875 C-70.2809375 227.01477539 -70.2809375 227.01477539 -70.3125 225.81835938 C-70.34842274 220.44341923 -69.54494862 216.75742177 -67 212 C-63.17655991 208.45632382 -60.49397729 206.94939773 -55.375 206.4375 C-54.55773437 206.35371094 -53.74046875 206.26992187 -52.8984375 206.18359375 C-52.27195313 206.12300781 -51.64546875 206.06242188 -51 206 C-42.92493606 171.88292378 -36.44362521 137.73001426 -32.0625 102.9375 C-31.95450073 102.08397949 -31.84650146 101.23045898 -31.73522949 100.35107422 C-31.43236553 97.93145578 -31.1379701 95.51099713 -30.84765625 93.08984375 C-30.76054886 92.3864537 -30.67344147 91.68306366 -30.58369446 90.95835876 C-30.03697699 86.25406952 -29.73824314 81.72399737 -30 77 C-32.30302869 74.6908334 -32.30302869 74.6908334 -35 73 C-37.93436758 68.38598588 -37.3681015 63.41614733 -37.375 58.125 C-37.39949219 57.14402344 -37.42398438 56.16304687 -37.44921875 55.15234375 C-37.47370674 49.10381073 -37.05359325 45.58618214 -33 41 C-28.8 38 -28.8 38 -26 38 C-26.10441406 36.88818359 -26.10441406 36.88818359 -26.2109375 35.75390625 C-26.7845136 24.59648554 -24.08033828 12.27473991 -16.75 3.5 C-11.69453204 -1.09587996 -6.61403897 -0.81508054 0 0 Z M-7 262 C-7.18997559 262.79132324 -7.37995117 263.58264648 -7.57568359 264.39794922 C-11.8682478 282.17196731 -16.54345146 299.76706674 -21.84912109 317.26708984 C-22.05930878 317.96467911 -22.26949646 318.66226837 -22.48605347 319.3809967 C-23.05634562 321.27059603 -23.63246175 323.15843486 -24.20898438 325.04614258 C-25.12933811 327.97332586 -25.12933811 327.97332586 -25 331 C-12.46 331 0.08 331 13 331 C11.77120303 324.85601516 10.57472865 319.15987865 8.828125 313.2109375 C8.40927122 311.7706099 7.99049147 310.33026078 7.57177734 308.88989258 C7.35559753 308.15187408 7.13941772 307.41385559 6.91668701 306.6534729 C2.58533251 291.85061385 -1.42891559 277.00700415 -5 262 C-5.66 262 -6.32 262 -7 262 Z M-62.98046875 427.70703125 C-71.77187221 437.68876013 -77.36363913 449.27273695 -81 462 C-31.5 462 18 462 69 462 C61.23793013 438.71379038 49.36806961 421.05998648 27.0625 409.6875 C20.88177222 406.65457244 14.78002203 404.33755537 8 403 C6.906875 402.773125 5.81375 402.54625 4.6875 402.3125 C-22.00728505 400.05023008 -44.44347149 408.30163412 -62.98046875 427.70703125 Z " fill="#010100" transform="translate(262,0)"/>
<path d="M0 0 C62.7 0 125.4 0 190 0 C190 4.62 190 9.24 190 14 C187.5515567 14.00879936 187.5515567 14.00879936 185.0536499 14.01777649 C169.69113649 14.07492214 154.32877703 14.14746274 138.96641159 14.23571491 C131.06795332 14.28069285 123.16954034 14.32010284 115.27099609 14.34643555 C108.38713559 14.36939952 101.50341817 14.40277946 94.61967111 14.44870156 C90.97428779 14.47265558 87.32904637 14.49136999 83.68358612 14.49761391 C79.61534903 14.50477702 75.54760628 14.53519268 71.47949219 14.56762695 C70.26892654 14.56619186 69.0583609 14.56475677 67.81111145 14.5632782 C66.70335861 14.57581635 65.59560577 14.58835449 64.45428467 14.60127258 C63.49193279 14.60588155 62.52958092 14.61049051 61.53806686 14.61523914 C58.52460399 15.07206815 57.1426617 15.84796371 55 18 C54.37264444 22.60286802 54.37264444 22.60286802 56.20345783 26.69382954 C58.62499602 28.45440144 60.2001085 28.38400843 63.18217468 28.39872742 C64.79125702 28.41753464 64.79125702 28.41753464 66.43284607 28.4367218 C68.19798302 28.43456917 68.19798302 28.43456917 69.9987793 28.43237305 C71.23792084 28.4425647 72.47706238 28.45275635 73.75375366 28.46325684 C77.15235377 28.48829781 80.55052146 28.50011719 83.94917655 28.50611091 C87.50067531 28.51548307 91.05204851 28.54168545 94.60346985 28.56611633 C101.32883728 28.60981705 108.05418039 28.63834198 114.77964669 28.66143972 C122.43623274 28.68847232 130.09269269 28.73238496 137.74918878 28.77772844 C153.49939442 28.87062583 169.24962379 28.94228314 185 29 C186.89717303 32.47784406 188.79429392 35.95571657 190.69140625 39.43359375 C191.4878656 40.89363831 191.4878656 40.89363831 192.30041504 42.38317871 C192.82590942 43.34655151 193.35140381 44.30992432 193.89282227 45.30249023 C194.41563278 46.26090317 194.9384433 47.2193161 195.47709656 48.20677185 C197.26702839 51.48976921 199.0544477 54.77413015 200.84078979 58.05908203 C209.84602059 74.50940874 219.98902381 90.27642798 230.53710938 105.77270508 C232.75099422 109.14341126 234.86265507 112.58024812 237 116 C219.84 116 202.68 116 185 116 C183.02 108.575 183.02 108.575 181 101 C179.50205993 97.56339939 178.05539762 94.43094036 176.25 91.1875 C175.81099365 90.38054687 175.3719873 89.57359375 174.91967773 88.7421875 C171.51379248 82.62135869 167.79290577 77.13081007 163 72 C162.19175781 71.10152344 161.38351562 70.20304687 160.55078125 69.27734375 C144.91124978 52.67889211 123.16436488 42.50258518 100.3125 41.76171875 C80.74940559 41.41571534 66.10927282 44.43408252 49 54 C48.02417969 54.52207031 47.04835938 55.04414063 46.04296875 55.58203125 C27.81006738 66.12668138 15.36469964 84.65335378 8 104 C7.01 107.96 6.02 111.92 5 116 C-12.16 116 -29.32 116 -47 116 C-39.52009456 104.24586288 -39.52009456 104.24586288 -35.625 98.5625 C-23.25810795 80.16736396 -12.19480477 60.97910216 -1.85546875 41.38671875 C-1.34935059 40.45432373 -0.84323242 39.52192871 -0.32177734 38.5612793 C1.01483948 36.09272193 1.01483948 36.09272193 1.84912109 33.74536133 C2.63671875 31.8125 2.63671875 31.8125 5 29 C9.00500426 28.09774573 12.91226685 28.2040401 17 28.3125 C19.16645827 28.34698961 21.33326762 28.3646089 23.5 28.36328125 C24.93859375 28.39869019 24.93859375 28.39869019 26.40625 28.43481445 C29.76856863 27.87115769 30.92472527 26.64700324 33 24 C33.3858223 20.83625717 33.01428828 19.04286484 32 16 C28.66072971 14.65296398 25.04299544 14.79682258 21.484375 14.68359375 C20.23398438 14.64169922 18.98359375 14.59980469 17.6953125 14.55664062 C16.39335937 14.51732422 15.09140625 14.47800781 13.75 14.4375 C12.43257812 14.39431641 11.11515625 14.35113281 9.7578125 14.30664062 C6.50533146 14.20058146 3.25267947 14.09978847 0 14 C0 9.38 0 4.76 0 0 Z " fill="#F7C16D" transform="translate(161,346)"/>
<path d="M0 0 C0.76717295 0.00234117 1.5343459 0.00468233 2.32476652 0.00709444 C3.13604013 0.005641 3.94731375 0.00418756 4.78317142 0.00269008 C7.53691776 -0.00099691 10.29060969 0.0025289 13.04435575 0.00595194 C15.02441058 0.00480119 17.0044652 0.00321397 18.98451936 0.0012247 C24.45309057 -0.0029749 29.92164446 -0.00087511 35.39021575 0.00221092 C41.27711741 0.00446225 47.16401598 0.00098674 53.05091703 -0.00176901 C63.92604126 -0.00597043 74.80115949 -0.00558977 85.67628404 -0.00285754 C95.72134866 -0.00034611 105.76641124 0.00031665 115.81147611 -0.00088018 C116.4767087 -0.00095657 117.14194129 -0.00103295 117.82733244 -0.00111165 C120.5274446 -0.00142297 123.22755675 -0.00174137 125.9276689 -0.00207142 C151.278404 -0.00513329 176.62913555 -0.0023524 201.9798701 0.00302548 C224.52309573 0.0077714 247.06631571 0.00734679 269.6095413 0.00256449 C294.91267424 -0.0027853 320.21580404 -0.00491618 345.51893747 -0.00182325 C348.21424901 -0.00150251 350.90956056 -0.00118967 353.60487211 -0.00088018 C354.26857041 -0.0008011 354.93226872 -0.00072203 355.6160791 -0.00064055 C365.65704237 0.00049892 375.69800339 -0.00083708 385.73896635 -0.00335974 C397.15120869 -0.00615691 408.56344416 -0.00542124 419.97568572 -0.00007899 C425.80453738 0.00255915 431.63337754 0.00356119 437.46222913 0.00027186 C442.78900034 -0.00268881 448.1157493 -0.00110217 453.44251847 0.00424941 C455.37856334 0.00537459 457.31461005 0.00478022 459.25065374 0.00237362 C461.86432386 -0.00062826 464.47791581 0.00241192 467.0915817 0.00709444 C467.85875465 0.00475328 468.6259276 0.00241211 469.41634822 0 C474.59402377 0.01878524 474.59402377 0.01878524 475.70817411 1.13293558 C475.80654621 2.46337183 475.83896003 3.79886903 475.84098661 5.13293558 C475.84227567 5.93731058 475.84356473 6.74168558 475.84489286 7.57043558 C475.84102567 8.41606058 475.83715848 9.26168558 475.83317411 10.13293558 C475.8370413 10.97856058 475.84090848 11.82418558 475.84489286 12.69543558 C475.84295927 13.90199808 475.84295927 13.90199808 475.84098661 15.13293558 C475.83985868 15.87543558 475.83873075 16.61793558 475.83756864 17.38293558 C475.70817411 19.13293558 475.70817411 19.13293558 474.70817411 20.13293558 C472.16047114 20.2327076 469.63982985 20.26655316 467.0915817 20.25877672 C465.87467128 20.26095689 465.87467128 20.26095689 464.6331768 20.26318109 C461.87943045 20.26686808 459.12573853 20.26334227 456.37199247 20.25991923 C454.39193764 20.26106998 452.41188302 20.26265719 450.43182886 20.26464647 C444.96325765 20.26884607 439.49470375 20.26674628 434.02613246 20.26366025 C428.13923081 20.26140892 422.25233224 20.26488443 416.36543119 20.26764017 C405.49030696 20.2718416 394.61518872 20.27146093 383.74006417 20.26872871 C373.69499956 20.26621728 363.64993698 20.26555451 353.60487211 20.26675135 C352.93963952 20.26682773 352.27440693 20.26690412 351.58901577 20.26698282 C348.88890362 20.26729414 346.18879147 20.26761253 343.48867932 20.26794258 C318.13794422 20.27100446 292.78721267 20.26822357 267.43647812 20.26284569 C244.89325249 20.25809976 222.35003251 20.25852438 199.80680692 20.26330668 C174.50367398 20.26865646 149.20054418 20.27078735 123.89741075 20.26769441 C121.2020992 20.26737368 118.50678766 20.26706084 115.81147611 20.26675135 C115.1477778 20.26667227 114.4840795 20.26659319 113.80026912 20.26651172 C103.75930585 20.26537224 93.71834483 20.26670825 83.67738187 20.2692309 C72.26513952 20.27202807 60.85290406 20.2712924 49.4406625 20.26595016 C43.61181084 20.26331202 37.78297068 20.26230997 31.95411909 20.26559931 C26.62734787 20.26855997 21.30059891 20.26697334 15.97382975 20.26162176 C14.03778488 20.26049658 12.10173817 20.26109095 10.16569448 20.26349755 C7.55202436 20.26649943 4.93843241 20.26345925 2.32476652 20.25877672 C1.55759357 20.26111789 0.79042062 20.26345906 0 20.26587117 C-5.17767555 20.24708592 -5.17767555 20.24708592 -6.29182589 19.13293558 C-6.39019799 17.80249933 -6.42261181 16.46700214 -6.42463839 15.13293558 C-6.42592745 14.32856058 -6.42721652 13.52418558 -6.42854464 12.69543558 C-6.42467745 11.84981058 -6.42081027 11.00418558 -6.41682589 10.13293558 C-6.42069308 9.28731058 -6.42456027 8.44168558 -6.42854464 7.57043558 C-6.42725558 6.76606058 -6.42596652 5.96168558 -6.42463839 5.13293558 C-6.42351046 4.39043558 -6.42238253 3.64793558 -6.42122042 2.88293558 C-6.1344744 -0.99516916 -3.21176136 0.01165266 0 0 Z " fill="#678A95" transform="translate(21.291825890541077,476.86706441640854)"/>
<path d="M0 0 C4.95 0 9.9 0 15 0 C15.30489258 2.13424806 15.60968541 4.2685104 15.9140625 6.40283203 C16.18195678 8.2751373 16.45151573 10.14720506 16.72265625 12.01904297 C17.44123599 16.99670472 18.13152165 21.97516556 18.76171875 26.96484375 C18.9477063 28.388573 18.9477063 28.388573 19.13745117 29.84106445 C19.37567464 31.67033191 19.60401097 33.50091927 19.8215332 35.33276367 C19.98721802 36.57956909 19.98721802 36.57956909 20.15625 37.8515625 C20.24712891 38.58197754 20.33800781 39.31239258 20.43164062 40.06494141 C21.15408558 42.52460581 21.94118119 43.47530871 24 45 C25.65 45.33 27.3 45.66 29 46 C29.99 52.6 30.98 59.2 32 66 C30.35 66.99 28.7 67.98 27 69 C25.65825957 70.11951347 25.65825957 70.11951347 25.83251953 73.00634766 C26.0192975 77.46015827 26.74976304 81.55122243 27.6796875 85.8984375 C27.85251251 86.73283356 28.02533752 87.56722961 28.20339966 88.4269104 C28.75411576 91.07767486 29.31445632 93.72629833 29.875 96.375 C30.24411262 98.14570357 30.61260787 99.91653596 30.98046875 101.6875 C31.66281334 104.96221121 32.34725169 108.23644884 33.03857422 111.50927734 C33.19436951 112.24716492 33.35016479 112.98505249 33.51068115 113.74530029 C33.85023136 115.30989104 34.20294043 116.8716612 34.565979 118.43096924 C34.749328 119.22025818 34.932677 120.00954712 35.12158203 120.82275391 C35.28965363 121.52896881 35.45772522 122.23518372 35.63088989 122.96279907 C36 125 36 125 36 129 C17.52 129 -0.96 129 -20 129 C-19.31485641 122.14856409 -18.43931477 116.02781158 -16.8125 109.4375 C-13.68062806 96.22760364 -11.33784441 82.8851761 -8.98085022 69.52038574 C-8.37475952 66.08701441 -7.75412243 62.65772078 -7.09375 59.234375 C-5.31353026 49.83017074 -4.08024932 40.36610075 -2.875 30.875 C-2.78837097 30.20081024 -2.70174194 29.52662048 -2.61248779 28.83200073 C-1.38585529 19.22181696 -0.56862286 9.66658856 0 0 Z " fill="#E5B266" transform="translate(248,78)"/>
<path d="M0 0 C2.90639711 2.12190618 5.48016835 4.43596078 8 7 C8.99 7.99 8.99 7.99 10 9 C9.42471849 13.23919991 6.99700918 16.57980554 4.75 20.125 C4.316875 20.81424561 3.88375 21.50349121 3.4375 22.21362305 C-1.61424649 30.13624443 -7.15523805 37.70762599 -12.73828125 45.26098633 C-13.86443653 46.81315429 -14.93626911 48.40440366 -16 50 C-18.51834106 50.36076355 -18.51834106 50.36076355 -21.73486328 50.34057617 C-22.93595734 50.34034958 -24.13705139 50.34012299 -25.37454224 50.33988953 C-26.67664642 50.32440567 -27.97875061 50.30892181 -29.3203125 50.29296875 C-30.66266405 50.28737416 -32.00502173 50.28310341 -33.34738159 50.28010559 C-36.88210941 50.26864585 -40.41646798 50.23916959 -43.9510498 50.20599365 C-47.55715947 50.17531671 -51.16332874 50.16160538 -54.76953125 50.14648438 C-61.84650532 50.11430052 -68.92322857 50.06309094 -76 50 C-76.65997688 48.7432039 -77.31270785 47.4826012 -77.96240234 46.22045898 C-78.32667328 45.51888168 -78.69094421 44.81730438 -79.06625366 44.09446716 C-81.33485705 39.00580967 -80.80753384 33.38766851 -80 28 C-77.37046465 21.51443225 -72.88257243 17.55174184 -67 14 C-64.13428507 13.04476169 -62.66408079 12.932672 -59.7265625 13.078125 C-58.9015625 13.10390625 -58.0765625 13.1296875 -57.2265625 13.15625 C-55.49935448 13.21849173 -53.77263878 13.29649243 -52.046875 13.390625 C-47.60577138 13.50130671 -45.68206806 13.53833023 -42.08984375 10.703125 C-41.40019531 9.81109375 -40.71054688 8.9190625 -40 8 C-29.2075052 -4.45490843 -14.72741535 -7.57221803 0 0 Z " fill="#48CA8A" transform="translate(112,412)"/>
<path d="M0 0 C4.7751187 3.37537704 8.45532715 7.36465858 12 12 C14.3226913 13.16134565 15.49818667 13.06450876 18.0703125 12.95703125 C18.885 12.93576172 19.6996875 12.91449219 20.5390625 12.89257812 C22.24001377 12.83990516 23.94064099 12.77513756 25.640625 12.69726562 C32.62652316 12.5494449 37.73213697 14.12327115 43.0234375 18.78125 C43.46945312 19.3484375 43.91546875 19.915625 44.375 20.5 C45.06722656 21.35078125 45.06722656 21.35078125 45.7734375 22.21875 C48.70679035 26.47865096 49.31787605 29.51744639 49.375 34.75 C49.40335937 35.92046875 49.43171875 37.0909375 49.4609375 38.296875 C49.04120514 41.66896213 48.49718674 43.31402347 46.97119141 46.23144531 C46.42055527 47.29507294 46.42055527 47.29507294 45.85879517 48.38018799 C45.57539276 48.91472595 45.29199036 49.44926392 45 50 C37.38652946 50.39640934 29.77414109 50.69714867 22.15266037 50.88080692 C18.61137928 50.96904744 15.07721752 51.08825935 11.54003906 51.2824707 C-11.20511009 52.49882959 -11.20511009 52.49882959 -17.41699219 48.40847778 C-21.28145937 44.56102554 -23.70788702 40.17836254 -25.92578125 35.23841858 C-27.71908731 31.50159161 -30.12802813 28.19895341 -32.5 24.8125 C-33.28528212 23.63418767 -34.06670194 22.45328979 -34.84375 21.26953125 C-36.28633737 19.08212974 -37.78782008 16.93250379 -39.34375 14.82421875 C-41 12 -41 12 -40.92578125 9.83984375 C-37.44359753 2.91955458 -31.05638579 -0.4842618 -24.046875 -3.1171875 C-15.49088934 -5.5962295 -7.8629484 -4.01962384 0 0 Z " fill="#13B565" transform="translate(431,412)"/>
<path d="M0 0 C62.7 0 125.4 0 190 0 C190 4.62 190 9.24 190 14 C187.5515567 14.00879936 187.5515567 14.00879936 185.0536499 14.01777649 C169.69113649 14.07492214 154.32877703 14.14746274 138.96641159 14.23571491 C131.06795332 14.28069285 123.16954034 14.32010284 115.27099609 14.34643555 C108.38713559 14.36939952 101.50341817 14.40277946 94.61967111 14.44870156 C90.97428779 14.47265558 87.32904637 14.49136999 83.68358612 14.49761391 C79.61534903 14.50477702 75.54760628 14.53519268 71.47949219 14.56762695 C70.26892654 14.56619186 69.0583609 14.56475677 67.81111145 14.5632782 C66.70335861 14.57581635 65.59560577 14.58835449 64.45428467 14.60127258 C63.49193279 14.60588155 62.52958092 14.61049051 61.53806686 14.61523914 C58.47908934 15.07896799 57.14375835 15.7740924 55 18 C54.505 20.475 54.505 20.475 54 23 C47.4 22.67 40.8 22.34 34 22 C33.34 20.02 32.68 18.04 32 16 C30.26021215 14.99515563 30.26021215 14.99515563 28 15 C26.50291504 14.89836548 26.50291504 14.89836548 24.97558594 14.79467773 C23.82348633 14.75802002 22.67138672 14.7213623 21.484375 14.68359375 C20.23398438 14.64169922 18.98359375 14.59980469 17.6953125 14.55664062 C16.39335937 14.51732422 15.09140625 14.47800781 13.75 14.4375 C12.43257812 14.39431641 11.11515625 14.35113281 9.7578125 14.30664062 C6.50533146 14.20058146 3.25267947 14.09978847 0 14 C0 9.38 0 4.76 0 0 Z " fill="#D6A75E" transform="translate(161,346)"/>
<path d="M0 0 C8.58 0 17.16 0 26 0 C28.08503313 4.8650773 29.94576547 9.59786437 31.56640625 14.609375 C32.05187894 16.08885289 32.53756466 17.56826089 33.0234375 19.04760742 C33.27448242 19.81527435 33.52552734 20.58294128 33.78417969 21.37387085 C37.82764785 33.71814919 41.98142036 46.00825352 46.5 58.1875 C47.09470093 59.7947998 47.09470093 59.7947998 47.70141602 61.43457031 C49.70473298 66.77617801 51.82863527 72.00220165 54.28320312 77.15356445 C55 79 55 79 55 82 C44.11 82 33.22 82 22 82 C19.46592305 75.66480762 17.21479826 69.77162859 15.5 63.25 C15.07341831 61.67043736 14.64633001 60.09101145 14.21875 58.51171875 C14.0125 57.7439209 13.80625 56.97612305 13.59375 56.18505859 C12.76462914 53.13381201 11.88271694 50.09861915 11 47.0625 C7.63153123 35.30002438 4.5413872 23.46015929 1.6875 11.5625 C1.51605469 10.85891357 1.34460938 10.15532715 1.16796875 9.43041992 C0.3953984 6.1522269 0 3.39587647 0 0 Z " fill="#E4B266" transform="translate(270,249)"/>
<path d="M0 0 C1.084021 0.00523682 2.16804199 0.01047363 3.28491211 0.01586914 C4.45473633 0.0190918 5.62456055 0.02231445 6.82983398 0.02563477 C8.0615332 0.03401367 9.29323242 0.04239258 10.56225586 0.05102539 C12.41560547 0.05779297 12.41560547 0.05779297 14.30639648 0.06469727 C17.37089703 0.07652931 20.43530307 0.09301366 23.49975586 0.11352539 C22.82747191 6.37599654 21.66200518 12.41547294 20.24975586 18.55102539 C19.9127063 20.017052 19.9127063 20.017052 19.56884766 21.51269531 C17.77482448 29.18137569 15.70163603 36.72057102 13.37915039 44.24536133 C12.23698624 47.97055411 11.11702548 51.70228433 9.99584961 55.43383789 C9.08109538 58.47308439 8.16545495 61.51206346 7.24975586 64.55102539 C7.02325348 65.30364655 6.7967511 66.0562677 6.56338501 66.83169556 C5.91388676 68.98742253 5.26187148 71.14237204 4.60913086 73.29711914 C4.41141586 73.95467194 4.21370087 74.61222473 4.00999451 75.28970337 C3.29287054 77.65049703 2.60542603 79.90218505 1.49975586 82.11352539 C-9.39024414 82.11352539 -20.28024414 82.11352539 -31.50024414 82.11352539 C-30.68718803 78.04824483 -29.72425886 74.8755135 -28.19946289 71.07446289 C-27.7224292 69.87072021 -27.24539551 68.66697754 -26.75390625 67.42675781 C-26.49882294 66.78612396 -26.24373962 66.14549011 -25.98092651 65.48544312 C-20.96924952 52.86803387 -16.31976315 40.15021995 -11.93774414 27.30102539 C-11.68471527 26.56108337 -11.4316864 25.82114136 -11.17098999 25.05877686 C-8.65609308 17.69084189 -6.18125428 10.32384722 -4.06298828 2.82958984 C-3.17875363 0.13315369 -2.93516539 0.1332733 0 0 Z " fill="#F6C16C" transform="translate(218.500244140625,248.886474609375)"/>
<path d="M0 0 C41.25 0 82.5 0 125 0 C137 22 137 22 141.9375 31.0625 C150.35631623 46.16248879 159.66371493 60.70192577 169.34375 75.01953125 C171.99393096 78.95290645 174.5132656 82.96175371 177 87 C168.33590991 89.22675213 159.4464003 90.53513435 151 87 C141.54180119 79.31602786 135.80704598 66.40162091 130.06390381 55.90759277 C128.23306517 52.62487631 126.21001305 49.47122017 124.18432617 46.30688477 C122.03141678 42.9247737 120.0144994 39.46578029 118 36 C117.50854492 35.15550293 117.01708984 34.31100586 116.51074219 33.44091797 C110.48645851 23.05377289 104.69512321 12.57665738 99 2 C66.33 1.67 33.66 1.34 0 1 C0 0.67 0 0.34 0 0 Z " fill="#E3B065" transform="translate(221,375)"/>
<path d="M0 0 C7.05824103 2.95162807 12.08897375 7.11131574 17 13 C17 13.66 17 14.32 17 15 C17.5671875 14.67773438 18.134375 14.35546875 18.71875 14.0234375 C25.57003409 10.94974498 33.45412455 13.21478449 40.16796875 15.6796875 C47.96060774 19.31266954 52.63839393 25.19472583 56 33 C56.96451141 36.14647896 57.10570403 38.9664938 57.0625 42.25 C57.05347656 43.14203125 57.04445313 44.0340625 57.03515625 44.953125 C57.02355469 45.62859375 57.01195312 46.3040625 57 47 C25.19418453 49.67631938 25.19418453 49.67631938 17.23095703 45.57324219 C13.20042003 41.89842727 11.07487232 37.34289958 9.03759766 32.35253906 C7.34412045 28.51292816 4.91224625 25.22785855 2.5 21.8125 C1.71398924 20.63467359 0.932471 19.45383227 0.15625 18.26953125 C-0.93828103 16.60988909 -2.03411928 14.95071819 -3.16577148 13.31616211 C-5.99355524 9.2126771 -5.99355524 9.2126771 -6.0625 6.9375 C-4.51631824 4.11799209 -2.34742996 2.16685842 0 0 Z " fill="#48C98A" transform="translate(396,415)"/>
<path d="M0 0 C3.15265195 0.89488 4.50732375 0.10454315 7.39453125 -1.3203125 C15.67745037 -4.13337937 22.02031375 -4.17426877 29.9921875 -0.72265625 C34.91697224 2.15213679 38.05254919 6.38713481 40.89453125 11.2421875 C41.72829254 15.30677377 41.33807647 18.95910504 39.33203125 22.6171875 C36.13695237 24.36932753 32.89091015 24.31667961 29.39453125 23.6796875 C26.67521157 21.69531909 25.54835755 19.980348 24.01953125 16.9921875 C22.53995717 14.45795838 22.53995717 14.45795838 19.64453125 13.4921875 C15.41778839 13.73603805 13.94033529 15.33555937 11.0078125 18.234375 C8.63267492 20.36222222 6.37691755 20.68250569 3.26953125 21.1796875 C-1.00054136 20.62871039 -1.98541325 19.81672446 -5.16796875 17.1171875 C-8.53337659 14.28601083 -8.53337659 14.28601083 -12.73046875 13.1796875 C-15.95806634 14.86365146 -16.91233144 16.30301037 -18.98046875 19.2421875 C-22.01861877 23.47269351 -22.01861877 23.47269351 -24.6875 24.4140625 C-28.01523293 24.53754053 -30.3015355 23.86964578 -33.10546875 22.1171875 C-35.24622106 18.638465 -35.21131006 16.71862956 -34.60546875 12.6796875 C-31.54580808 5.83125553 -26.68161346 0.80544045 -19.73046875 -2.1328125 C-12.13181188 -4.63691533 -6.98313767 -3.45208421 0 0 Z " fill="#000000" transform="translate(73.60546875,235.3203125)"/>
<path d="M0 0 C0.74121094 0.39960937 1.48242188 0.79921875 2.24609375 1.2109375 C4.32895382 2.38057369 4.32895382 2.38057369 6.43359375 2.9609375 C8.59209777 2.25323126 10.2750234 1.19328063 12.2109375 0.01171875 C17.53555561 -2.50554359 23.70952114 -1.86929249 29.21484375 -0.19140625 C35.21126618 2.47266697 39.52043889 6.01767631 42.43359375 11.9609375 C43.44097892 15.07136903 43.90323298 17.71053966 43.43359375 20.9609375 C41.04593992 24.50624168 39.61912595 25.71395162 35.43359375 26.5859375 C31.42689136 25.75120784 29.99566627 24.09235947 27.43359375 20.9609375 C26.73779108 19.64257455 26.06134942 18.31302664 25.43359375 16.9609375 C22.47565652 15.48196889 20.73139151 15.5253793 17.43359375 15.9609375 C15.54819889 17.37604286 13.88416834 18.94448804 12.16015625 20.55078125 C9.64180193 22.6076272 7.64834702 22.9609375 4.43359375 22.9609375 C0.88981075 22.07499175 -0.74446472 20.80182142 -3.50390625 18.3359375 C-6.35322962 15.73149033 -6.35322962 15.73149033 -9.75390625 15.4609375 C-12.92251389 16.02424552 -13.71041101 16.39789646 -15.56640625 18.9609375 C-16.06140625 19.8065625 -16.55640625 20.6521875 -17.06640625 21.5234375 C-18.56640625 23.9609375 -18.56640625 23.9609375 -21.56640625 25.9609375 C-25.15887882 26.41955102 -26.88283316 26.44128616 -29.87890625 24.3359375 C-32.02728905 21.31228763 -32.56640625 19.68977944 -32.56640625 15.9609375 C-30.640904 9.34959762 -26.1376078 4.79956799 -20.56640625 0.9609375 C-14.45103799 -2.07147651 -6.36267942 -2.57606199 0 0 Z " fill="#000000" transform="translate(416.56640625,77.0390625)"/>
<path d="M0 0 C2.90639711 2.12190618 5.48016835 4.43596078 8 7 C8.66 7.66 9.32 8.32 10 9 C9.42475284 13.23894678 6.99751756 16.5803041 4.75 20.125 C4.316875 20.81207031 3.88375 21.49914062 3.4375 22.20703125 C-0.21328468 27.91907356 -4.06002229 33.48425145 -8 39 C-8.56364258 39.7955127 -9.12728516 40.59102539 -9.70800781 41.41064453 C-10.23749023 42.14138184 -10.76697266 42.87211914 -11.3125 43.625 C-12.01826172 44.60339844 -12.01826172 44.60339844 -12.73828125 45.6015625 C-13.15464844 46.06304687 -13.57101563 46.52453125 -14 47 C-14.66 47 -15.32 47 -16 47 C-16.29132813 46.24976563 -16.58265625 45.49953125 -16.8828125 44.7265625 C-22.15939737 31.55169335 -29.18865911 18.22691024 -42 11 C-30.69808211 -2.82640126 -16.78908443 -8.63224162 0 0 Z " fill="#12B464" transform="translate(112,412)"/>
<path d="M0 0 C31.68 0 63.36 0 96 0 C96 3.96 96 7.92 96 12 C64.32 12 32.64 12 0 12 C0 8.04 0 4.08 0 0 Z " fill="#BD9353" transform="translate(208,222)"/>
<path d="M0 0 C0.33 0 0.66 0 1 0 C1.10957031 0.78084961 1.21914062 1.56169922 1.33203125 2.36621094 C4.32356641 23.33735881 8.4026787 43.89922399 13.23144531 64.52197266 C13.92489978 67.66014049 14.47164262 70.82985569 15 74 C5.1 74 -4.8 74 -15 74 C-14.31486385 67.14863855 -13.43959495 61.0277422 -11.8125 54.4375 C-9.46176289 44.53471246 -7.55417631 34.57594724 -5.75 24.5625 C-5.61953278 23.84117889 -5.48906555 23.11985779 -5.35464478 22.37667847 C-3.77682442 13.8050381 -3.77682442 13.8050381 -2.54785156 5.17944336 C-2 2 -2 2 0 0 Z " fill="#F6C06C" transform="translate(243,133)"/>
<path d="M0 0 C62.7 0 125.4 0 190 0 C190 4.62 190 9.24 190 14 C177.13 14 164.26 14 151 14 C149.02 10.04 147.04 6.08 145 2 C73.225 1.505 73.225 1.505 0 1 C0 0.67 0 0.34 0 0 Z " fill="#B48C4F" transform="translate(161,346)"/>
<path d="M0 0 C17.82 0 35.64 0 54 0 C54.99 3.3 55.98 6.6 57 10 C38.19 10 19.38 10 0 10 C0 6.7 0 3.4 0 0 Z " fill="#D6A75E" transform="translate(208,223)"/>
<path d="M0 0 C10.56 0 21.12 0 32 0 C32 3.3 32 6.6 32 10 C21.44 10 10.88 10 0 10 C0 6.7 0 3.4 0 0 Z " fill="#BA9051" transform="translate(240,53)"/>
<path d="M0 0 C0.66 0 1.32 0 2 0 C2.39791748 1.05276123 2.79583496 2.10552246 3.20581055 3.19018555 C4.70575963 7.15826413 6.20620472 11.12615501 7.70678711 15.09399414 C8.3517757 16.79967346 8.99663613 18.50540126 9.64135742 20.21118164 C13.39873826 30.15203771 17.16884248 40.08728517 21 50 C18.69 50 16.38 50 14 50 C10.25465667 41.67236512 7.97040869 33.02263746 5.61132812 24.23339844 C5.04110233 22.15016139 4.44347754 20.07810877 3.828125 18.0078125 C2.03994369 11.98241895 0.50186876 6.27335944 0 0 Z " fill="#F2BD6B" transform="translate(278,281)"/>
<path d="M0 0 C0.66 0 1.32 0 2 0 C5.111883 7.30736811 6.46090194 13.04944145 6 21 C2.7 21 -0.6 21 -4 21 C-4.46090194 13.04944145 -3.111883 7.30736811 0 0 Z " fill="#D5A65F" transform="translate(255,17)"/>
</svg>
