<?xml version="1.0" encoding="UTF-8"?>
<svg version="1.1" xmlns="http://www.w3.org/2000/svg" width="512" height="512">
<path d="M0 0 C3.28222656 1.31933594 3.28222656 1.31933594 6.640625 2.984375 C7.24831726 3.28184631 7.85600952 3.57931763 8.4821167 3.88580322 C10.40939051 4.83143659 12.32978188 5.79013309 14.25 6.75 C15.52167355 7.37853949 16.79380624 8.00615093 18.06640625 8.6328125 C18.69011108 8.93997192 19.31381592 9.24713135 19.9564209 9.56359863 C22.96931253 11.04577704 25.98374235 12.52467487 29 14 C30.07830078 14.52916016 31.15660156 15.05832031 32.26757812 15.60351562 C33.24662109 16.06951172 34.22566406 16.53550781 35.234375 17.015625 C36.08741211 17.42586914 36.94044922 17.83611328 37.81933594 18.25878906 C40.13484154 19.2910024 40.13484154 19.2910024 43 18 C44.35327565 15.65567452 45.5439716 13.37973289 46.6875 10.9375 C47.00783203 10.27427734 47.32816406 9.61105469 47.65820312 8.92773438 C48.4478598 7.28949142 49.22512362 5.64528546 50 4 C58.77120295 3.69696511 67.54056997 3.46691792 76.31589031 3.32644176 C80.39226036 3.25896795 84.4650169 3.16770678 88.53930664 3.01928711 C118.55906747 1.95361887 118.55906747 1.95361887 125.84797668 8.52241516 C128.21946957 11.19313627 130.08456955 13.98264238 132 17 C134.21273079 19.18489392 134.21273079 19.18489392 136.3125 20.8125 C139.84778197 23.80101166 143.048011 27.04638883 146.23828125 30.3984375 C149.40064094 33.27330994 152.93364075 33.27359253 157.03198242 33.66430664 C158.27304245 33.78435562 159.51410248 33.9044046 160.79277039 34.02809143 C162.14699611 34.15552151 163.50122907 34.28287464 164.85546875 34.41015625 C166.24126579 34.54294177 167.62703308 34.6760382 169.01277161 34.80943298 C172.657169 35.15940911 176.30195534 35.50516012 179.94683838 35.85003662 C183.66727671 36.20281497 187.38733223 36.55958241 191.10742188 36.91601562 C198.40457885 37.61458467 205.70215126 38.30869116 213 39 C213 41.64 213 44.28 213 47 C219.93 47.495 219.93 47.495 227 48 C227 45.69 227 43.38 227 41 C229.79233226 41.11558674 232.58347 41.24228067 235.375 41.375 C236.53708984 41.42140625 236.53708984 41.42140625 237.72265625 41.46875 C249.01113635 42.02850934 257.48503784 44.85273152 267.47265625 50.171875 C269.24985687 51.09051683 271.02707403 52.00912818 272.8052206 52.92593765 C277.14841979 55.16966554 281.47790975 57.439252 285.79907227 59.72509766 C288.23837712 61.01415447 290.68425257 62.28882771 293.13853455 63.5491333 C295.43830329 64.73129812 297.72739031 65.9345449 300.00367737 67.16131592 C306.57268246 70.59258511 306.57268246 70.59258511 313.77197266 70.55957031 C315.93826551 69.87756892 315.93826551 69.87756892 318 69 C318.66009567 68.74829041 319.32019135 68.49658081 320.00028992 68.23724365 C322.01793837 67.43162566 323.99994798 66.56270589 325.98828125 65.6875 C351.52571314 55.1594296 351.52571314 55.1594296 361.38484192 58.5329895 C368.14342477 61.35266279 374.24854575 65.26645587 380.10864258 69.63793945 C386.94015391 72.85612756 395.71304636 68.82751453 402.578125 66.83984375 C404.21161896 66.37584923 404.21161896 66.37584923 405.87811279 65.90248108 C409.33701882 64.91970127 412.7937131 63.92944856 416.25 62.9375 C420.81601678 61.62809034 425.38397228 60.32576182 429.953125 59.02734375 C431.00107239 58.72424789 432.04901978 58.42115204 433.12872314 58.10887146 C434.10363708 57.83180862 435.07855103 57.55474579 436.08300781 57.26928711 C436.93824036 57.02359482 437.7934729 56.77790253 438.67462158 56.52476501 C441 56 441 56 445 56 C445.28014152 65.24107053 445.49229065 74.48064372 445.62174606 83.72505951 C445.6839355 88.01958438 445.76801488 92.31117052 445.90527344 96.60400391 C446.96291463 130.57010884 446.96291463 130.57010884 437.66117859 140.6164856 C436.60177392 141.65776037 435.52247855 142.67936316 434.42022705 143.6751709 C432.50562218 145.46117001 431.1013394 147.47123727 429.66015625 149.6484375 C429.22421143 150.27137695 428.7882666 150.89431641 428.33911133 151.53613281 C427.91782959 152.14295898 427.49654785 152.74978516 427.0625 153.375 C422.37464373 160.07216117 417.61698561 166.71468303 412.80297852 173.32177734 C412.30725342 174.00449707 411.81152832 174.6872168 411.30078125 175.390625 C410.80154648 176.05942184 410.30231171 176.72821869 409.78794861 177.4172821 C407.9121005 180.03245708 407.9121005 180.03245708 406.27319336 183.1415863 C402.91452354 188.87852731 400.27759593 193.21605116 393.61254883 195.27679539 C390.08141613 196.13313008 386.5346616 196.75271257 382.94921875 197.33203125 C381.40136812 197.62269214 379.85439921 197.91808399 378.30830383 198.21794128 C374.26848957 198.98799654 370.21988134 199.69194231 366.16583252 200.38250732 C362.03440484 201.09931333 357.91562823 201.88256631 353.79492188 202.65820312 C347.78132265 203.77865673 341.76472907 204.87878496 335.73706055 205.92114258 C334.52954636 206.13064041 333.32203217 206.34013824 332.07792664 206.5559845 C329 207 329 207 325 207 C324.77779785 208.29292969 324.5555957 209.58585938 324.32666016 210.91796875 C322.72943107 218.87639843 320.18359849 226.57214461 317.7734375 234.3125 C317.26011933 235.9747772 316.74732076 237.63721492 316.23501587 239.29980469 C314.89440626 243.64690037 313.54841306 247.99230738 312.20074463 252.33721924 C310.03581961 259.31845834 307.87693017 266.30155471 305.72230911 273.28598022 C304.9692451 275.72311419 304.21249145 278.15908102 303.45541382 280.5949707 C302.99666902 282.07889652 302.53805382 283.5628624 302.07958984 285.046875 C301.7617025 286.06448158 301.7617025 286.06448158 301.43739319 287.10264587 C300.35822904 290.48870354 300.35822904 290.48870354 300 294 C301.75800171 295.30996948 301.75800171 295.30996948 304.07421875 296.58203125 C304.96020752 297.09580322 305.84619629 297.6095752 306.7590332 298.13891602 C307.72542725 298.69119873 308.69182129 299.24348145 309.6875 299.8125 C311.69617667 300.98289313 313.7039656 302.15481095 315.7109375 303.328125 C316.74702148 303.93205078 317.78310547 304.53597656 318.85058594 305.15820312 C323.86126327 308.0884783 328.84797764 311.05473355 333.8125 314.0625 C334.71895264 314.59786377 335.62540527 315.13322754 336.55932617 315.68481445 C337.39181885 316.19230225 338.22431152 316.69979004 339.08203125 317.22265625 C339.81655518 317.66359619 340.5510791 318.10453613 341.30786133 318.55883789 C343.40822778 320.34767978 343.63484271 321.29389055 344 324 C343.39703369 325.95869446 343.39703369 325.95869446 342.36035156 328.03637695 C341.97492691 328.82361145 341.58950226 329.61084595 341.19239807 330.42193604 C340.76281296 331.26882996 340.33322784 332.11572388 339.890625 332.98828125 C339.45294296 333.87457214 339.01526093 334.76086304 338.5643158 335.67401123 C337.13688125 338.55894152 335.69336025 341.43550962 334.25 344.3125 C333.26470854 346.29874187 332.2807423 348.28564167 331.2980957 350.27319336 C329.37925363 354.15252242 327.45571189 358.02945172 325.52783203 361.90429688 C322.69747282 367.6001298 319.91945821 373.31873517 317.1875 379.0625 C316.78265381 379.91126709 316.37780762 380.76003418 315.96069336 381.63452148 C313.40625408 387.004383 310.87773075 392.38633456 308.3515625 397.76953125 C308.02052017 398.47451248 307.68947784 399.17949371 307.34840393 399.90583801 C305.7404491 403.33038595 304.13439251 406.75577918 302.53393555 410.18383789 C295.18220674 425.86965108 287.56011721 441.40725825 280 457 C255.25 457 230.5 457 205 457 C205 454.36 205 451.72 205 449 C200.05 449 195.1 449 190 449 C190 451.64 190 454.28 190 457 C189.34426498 456.95257156 188.68852997 456.90514313 188.01292419 456.85627747 C158.46986084 453.15284486 158.46986084 453.15284486 131.13232422 460.32666016 C125.66120314 466.36261965 123.37746623 473.55962612 121.19287109 481.29003906 C119.24126058 487.35976347 115.96865015 492.56825371 112.6875 498 C111.62382859 499.87212416 110.56478029 501.74688735 109.51171875 503.625 C108.07827096 506.16071517 106.61814793 508.57277811 105 511 C99.68753591 510.44690228 94.92302209 509.53400699 89.80883789 507.91455078 C89.13937637 507.70464508 88.46991486 507.49473938 87.78016663 507.2784729 C85.59219802 506.59064635 83.40746345 505.89310906 81.22265625 505.1953125 C79.68641753 504.71010021 78.14999135 504.22548106 76.61338806 503.74142456 C72.5822709 502.46971397 68.5538619 501.18962577 64.52593994 499.90783691 C60.44673509 498.61153897 56.36480092 497.32389511 52.28320312 496.03515625 C46.29434123 494.14231888 40.30616442 492.24734355 34.32055664 490.34423828 C33.1211293 489.96308868 31.92170197 489.58193909 30.68592834 489.1892395 C26.44781426 487.82184106 22.22471899 486.40823966 18 485 C18 474.77 18 464.54 18 454 C16.35 453.67 14.7 453.34 13 453 C10.65490341 452.15469436 8.34882794 451.27833698 6.03833008 450.34790039 C5.01792885 449.94285027 5.01792885 449.94285027 3.97691345 449.52961731 C1.73935267 448.63999345 -0.4956267 447.74408586 -2.73046875 446.84765625 C-4.28785787 446.2258825 -5.8453391 445.6043394 -7.40290833 444.98301697 C-10.66127583 443.68204347 -13.91834396 442.3778805 -17.17456055 441.0715332 C-21.35184434 439.39603319 -25.53250353 437.72914641 -29.71419811 436.06469059 C-32.92835167 434.78413655 -36.14055525 433.49874967 -39.35219765 432.21191216 C-40.893379 431.59514182 -42.43519644 430.97995848 -43.9776516 430.36638069 C-46.12929631 429.50970279 -48.27820155 428.64648893 -50.42651367 427.78149414 C-51.65053391 427.29153458 -52.87455414 426.80157501 -54.13566589 426.29676819 C-57 425 -57 425 -59 423 C-58.43290565 421.3253643 -58.43290565 421.3253643 -57.85435486 419.61689758 C-54.29489557 409.1006182 -50.74808396 398.58014819 -47.21364498 388.05543232 C-45.39610006 382.6445654 -43.57411558 377.23527895 -41.74194336 371.8293457 C-39.97431406 366.61331239 -38.21840263 361.39346997 -36.47058296 356.17076683 C-35.80134402 354.17784366 -35.1278784 352.18633473 -34.45014763 350.19628334 C-33.50236547 347.41091822 -32.56967015 344.62092554 -31.64038086 341.8293457 C-31.35626343 341.00575562 -31.072146 340.18216553 -30.77941895 339.33361816 C-29.42590559 335.21378705 -28.49582307 332.25524764 -30 328 C-31.109094 325.8238175 -31.109094 325.8238175 -32.5546875 323.734375 C-33.08126953 322.93580078 -33.60785156 322.13722656 -34.15039062 321.31445312 C-34.71951172 320.46818359 -35.28863281 319.62191406 -35.875 318.75 C-37.07056376 316.94287454 -38.26587238 315.13558025 -39.4609375 313.328125 C-40.0600293 312.42771484 -40.65912109 311.52730469 -41.27636719 310.59960938 C-44.16147566 306.24824465 -46.98548099 301.85777287 -49.80712891 297.46508789 C-52.36553752 293.49257537 -54.96683937 289.55388103 -57.609375 285.63671875 C-58.21458984 284.73050781 -58.81980469 283.82429688 -59.44335938 282.890625 C-60.62714514 281.11942555 -61.82083512 279.35479662 -63.02539062 277.59765625 C-63.55841797 276.79585938 -64.09144531 275.9940625 -64.640625 275.16796875 C-65.36040527 274.10485474 -65.36040527 274.10485474 -66.09472656 273.02026367 C-67 271 -67 271 -66.78417969 268.91748047 C-65.50304852 265.78485151 -63.21739897 263.44284874 -61 260.9375 C-59.99922857 259.78191763 -58.99924126 258.62565578 -58 257.46875 C-57.24589844 256.60056641 -57.24589844 256.60056641 -56.4765625 255.71484375 C-54.2740724 253.15692535 -52.13599228 250.55128002 -50 247.9375 C-49.29875 247.08027344 -48.5975 246.22304687 -47.875 245.33984375 C-46.946875 244.18162109 -46.946875 244.18162109 -46 243 C-45.4706636 242.41521881 -44.94132721 241.83043762 -44.39595032 241.22793579 C-42.5651807 238.30602869 -42.68926232 236.4447593 -42.78979492 233.01318359 C-42.81518845 231.80447601 -42.84058197 230.59576843 -42.866745 229.35043335 C-42.90427383 228.04627472 -42.94180267 226.74211609 -42.98046875 225.3984375 C-43.00879918 223.34018379 -43.02700105 221.28197684 -43.04526997 219.22361183 C-43.09100151 214.1554566 -43.1584761 209.0898785 -43.31860352 204.02392578 C-44.08855184 178.47632981 -44.08855184 178.47632981 -39.22290039 173.10180664 C-36.36562387 170.7678972 -33.26624816 169.24296882 -29.87167358 167.83581543 C-26.9180972 166.51686498 -24.44367339 164.61114885 -21.84765625 162.69921875 C-19.91991615 161.36104906 -17.99153949 160.02379588 -16.0625 158.6875 C-11.76911706 155.71110479 -11.76911706 155.71110479 -7.50463867 152.69360352 C-5 151 -5 151 -2.78637695 149.92944336 C-0.58134271 148.79873569 0.57808058 148.04480186 2 146 C2.99764229 141.07460161 2.98110641 136.19148493 2.9375 131.1875 C2.95061712 129.81311726 2.96686109 128.43876059 2.98632812 127.06445312 C3.02165385 123.70850949 3.01918176 120.35594231 3 117 C2.14227997 116.9492482 1.28455994 116.8984964 0.40084839 116.84620667 C-7.86819766 116.31284385 -15.99139095 115.40635862 -24.1796875 114.15234375 C-25.35846466 113.97619034 -26.53724182 113.80003693 -27.7517395 113.61854553 C-31.46026457 113.06319551 -35.16762779 112.50048923 -38.875 111.9375 C-41.41268675 111.55615009 -43.95044663 111.1752865 -46.48828125 110.79492188 C-52.65970922 109.86889121 -58.8302047 108.9368435 -65 108 C-65.4196791 99.48994624 -65.73809095 90.98429796 -65.93261909 82.46641254 C-66.0260655 78.50925915 -66.15234624 74.55924258 -66.35791016 70.60620117 C-67.64579809 45.17807683 -67.64579809 45.17807683 -63.32019043 38.34735107 C-59.27508354 34.15994391 -54.65384357 31.57959355 -49.39468384 29.18969727 C-45.24888115 27.13003075 -41.67769894 24.28702233 -38 21.5 C-36.52067905 20.42630397 -35.03919154 19.35558086 -33.5546875 18.2890625 C-32.81444336 17.75442383 -32.07419922 17.21978516 -31.31152344 16.66894531 C-28.87740375 14.91148416 -26.44265944 13.15489092 -24.0078125 11.3984375 C-23.19054688 10.80869141 -22.37328125 10.21894531 -21.53125 9.61132812 C-19.96636346 8.48212022 -18.40127044 7.35319839 -16.8359375 6.22460938 C-16.12953125 5.71478516 -15.423125 5.20496094 -14.6953125 4.6796875 C-14.07672363 4.23351074 -13.45813477 3.78733398 -12.82080078 3.32763672 C-10.93473441 2.01605777 -10.93473441 2.01605777 -9.20654297 0.27001953 C-5.86053615 -1.655841 -3.68486215 -0.87875077 0 0 Z " fill="#FEEF89" transform="translate(67,1)"/>
<path d="M0 0 C3.28222656 1.31933594 3.28222656 1.31933594 6.640625 2.984375 C7.24831726 3.28184631 7.85600952 3.57931763 8.4821167 3.88580322 C10.40939051 4.83143659 12.32978188 5.79013309 14.25 6.75 C15.52167355 7.37853949 16.79380624 8.00615093 18.06640625 8.6328125 C18.69011108 8.93997192 19.31381592 9.24713135 19.9564209 9.56359863 C22.96931253 11.04577704 25.98374235 12.52467487 29 14 C30.07830078 14.52916016 31.15660156 15.05832031 32.26757812 15.60351562 C33.24662109 16.06951172 34.22566406 16.53550781 35.234375 17.015625 C36.08741211 17.42586914 36.94044922 17.83611328 37.81933594 18.25878906 C40.13484154 19.2910024 40.13484154 19.2910024 43 18 C44.35327565 15.65567452 45.5439716 13.37973289 46.6875 10.9375 C47.00783203 10.27427734 47.32816406 9.61105469 47.65820312 8.92773438 C48.4478598 7.28949142 49.22512362 5.64528546 50 4 C58.77120295 3.69696511 67.54056997 3.46691792 76.31589031 3.32644176 C80.39226036 3.25896795 84.4650169 3.16770678 88.53930664 3.01928711 C118.55906747 1.95361887 118.55906747 1.95361887 125.84797668 8.52241516 C128.21946957 11.19313627 130.08456955 13.98264238 132 17 C134.21273079 19.18489392 134.21273079 19.18489392 136.3125 20.8125 C139.84778197 23.80101166 143.048011 27.04638883 146.23828125 30.3984375 C149.40064094 33.27330994 152.93364075 33.27359253 157.03198242 33.66430664 C158.27304245 33.78435562 159.51410248 33.9044046 160.79277039 34.02809143 C162.14699611 34.15552151 163.50122907 34.28287464 164.85546875 34.41015625 C166.24126579 34.54294177 167.62703308 34.6760382 169.01277161 34.80943298 C172.657169 35.15940911 176.30195534 35.50516012 179.94683838 35.85003662 C183.66727671 36.20281497 187.38733223 36.55958241 191.10742188 36.91601562 C198.40457885 37.61458467 205.70215126 38.30869116 213 39 C213.01830225 44.16123555 212.84828934 48.91026393 212 54 C203.67556403 54.13764898 195.51297665 53.75288535 187.2265625 52.9765625 C186.05918549 52.87032562 184.89180847 52.76408875 183.6890564 52.65463257 C181.24345909 52.43038885 178.7981161 52.20335532 176.35302734 51.97363281 C172.61505552 51.62407003 168.8760211 51.28811947 165.13671875 50.953125 C162.74992425 50.73258909 160.36320263 50.51126272 157.9765625 50.2890625 C156.86399078 50.19001617 155.75141907 50.09096985 154.60513306 49.98892212 C141.1106044 48.69439378 141.1106044 48.69439378 136.1953125 43.55078125 C135.19564453 42.52500977 135.19564453 42.52500977 134.17578125 41.47851562 C133.49902344 40.76373047 132.82226562 40.04894531 132.125 39.3125 C127.49638867 34.50106298 122.84487241 29.86163196 117.75732422 25.53198242 C116 24 116 24 114.7212677 22.43127441 C112.34816255 20.45798189 110.76526849 20.60332481 107.70239258 20.56762695 C106.62149857 20.54783279 105.54060455 20.52803864 104.42695618 20.50764465 C103.26125595 20.50125473 102.09555573 20.49486481 100.89453125 20.48828125 C99.70018967 20.47033005 98.50584808 20.45237885 97.27531433 20.43388367 C93.45441232 20.37962967 89.63363629 20.34583571 85.8125 20.3125 C83.22459178 20.27934035 80.63670023 20.24485198 78.04882812 20.20898438 C71.69933172 20.12389443 65.34981931 20.05560847 59 20 C58.55406494 21.37998169 58.55406494 21.37998169 58.09912109 22.7878418 C56.88854262 26.32573185 55.35866913 29.5003592 53.625 32.8125 C53.03976563 33.95332031 52.45453125 35.09414063 51.8515625 36.26953125 C50 39 50 39 48.13520813 39.76959229 C45.53238551 40.05045971 44.32913835 39.55596199 41.98510742 38.41699219 C41.20717331 38.04620544 40.4292392 37.6754187 39.62773132 37.293396 C38.79538467 36.88204407 37.96303802 36.47069214 37.10546875 36.046875 C35.80709831 35.42283783 35.80709831 35.42283783 34.48249817 34.78619385 C31.71200947 33.45182342 28.9497077 32.10141691 26.1875 30.75 C23.43437984 29.41645366 20.67968974 28.08620087 17.92463684 26.75665283 C16.21128962 25.92833649 14.49936678 25.09706524 12.78910828 24.26239014 C3.29262004 18.91131367 3.29262004 18.91131367 -7 19 C-9.93263161 20.85795598 -9.93263161 20.85795598 -12.8125 23.3125 C-13.95054262 24.22718065 -15.09130929 25.13847946 -16.234375 26.046875 C-16.83958984 26.52833984 -17.44480469 27.00980469 -18.06835938 27.50585938 C-22.12049884 30.64022407 -26.352019 33.52859209 -30.55981445 36.44848633 C-31.93196317 37.40526748 -33.28837785 38.38490765 -34.63037109 39.38354492 C-37 41 -37 41 -40.15478516 42.5637207 C-44.65577079 45.11307843 -48.20665226 47.21461758 -49.6579895 52.31015015 C-50.68805483 59.19780722 -50.43138447 66.12212906 -50.25 73.0625 C-50.23801365 75.18942931 -50.23145005 77.31639651 -50.23046875 79.44335938 C-50.21632516 84.63145 -50.12827273 89.8135271 -50 95 C-49.32195313 94.97679688 -48.64390625 94.95359375 -47.9453125 94.9296875 C-42.39723321 94.82210702 -37.43362739 95.18639997 -32.03173828 96.3984375 C-28.0503934 97.18842251 -24.05244457 97.70498677 -20.02734375 98.21875 C-18.80671738 98.37549194 -18.80671738 98.37549194 -17.56143188 98.53540039 C-14.16317326 98.96896205 -10.76414563 99.39628684 -7.36499023 99.82275391 C-4.85615426 100.13878619 -2.34799825 100.45986067 0.16015625 100.78125 C0.91353775 100.87402222 1.66691925 100.96679443 2.44313049 101.06237793 C7.76377602 101.74586828 12.7115374 102.82478609 18 104 C18 111.92 18 119.84 18 128 C35.49 128 52.98 128 71 128 C71 132.95 71 137.9 71 143 C53.51 143 36.02 143 18 143 C18 146.96 18 150.92 18 155 C15.03439751 158.05330377 12.99975154 159.67008116 9.4375 161.75 C7.61480967 162.91237737 5.79324183 164.0765163 3.97265625 165.2421875 C3.00602051 165.84256836 2.03938477 166.44294922 1.04345703 167.06152344 C-4.31245015 170.47287455 -9.44875164 174.19923795 -14.625 177.875 C-16.57155269 179.25301831 -18.52177051 180.62588222 -20.4765625 181.9921875 C-21.715271 182.86399658 -21.715271 182.86399658 -22.97900391 183.75341797 C-25 185 -25 185 -27 185 C-26.97002174 186.1130098 -26.97002174 186.1130098 -26.93943787 187.24850464 C-26.75826957 194.27942059 -26.62166803 201.30951376 -26.53369045 208.3421154 C-26.48693445 211.95696325 -26.42364871 215.56986562 -26.32104492 219.18359375 C-26.22244488 222.6786283 -26.16928044 226.17180608 -26.14610481 229.66812515 C-26.12165044 231.63491438 -26.05151605 233.60096715 -25.98033142 235.56661987 C-25.97645985 242.51783187 -26.66072776 246.42681307 -31.38134766 251.69458008 C-32.90124386 253.15051925 -34.43876575 254.5884792 -36 256 C-36.94722558 257.05005613 -37.87749521 258.11610192 -38.77734375 259.20703125 C-40.23127616 260.96068933 -41.68970139 262.71063111 -43.15234375 264.45703125 C-45.71268904 267.94557218 -45.71268904 267.94557218 -47 272 C-45.82815889 274.36929623 -44.69039088 276.15891815 -43.125 278.25 C-42.18676436 279.57576775 -41.25213513 280.90409202 -40.3203125 282.234375 C-39.79469727 282.97880859 -39.26908203 283.72324219 -38.72753906 284.49023438 C-34.61390228 290.46651845 -30.80241015 296.64823566 -26.92675781 302.78027344 C-23.94575885 307.47609454 -20.96211222 312.13304906 -17.6796875 316.625 C-11.21474477 325.48668095 -11.21474477 325.48668095 -10.66796875 329.33984375 C-11.0625 331.4375 -11.0625 331.4375 -13 336 C-14.65 341.28 -16.3 346.56 -18 352 C91.23 352 200.46 352 313 352 C313.66 350.02 314.32 348.04 315 346 C315.62969421 344.58629481 316.28802232 343.18483151 316.98046875 341.80078125 C317.33947266 341.06666016 317.69847656 340.33253906 318.06835938 339.57617188 C318.82141423 338.05297714 319.57932113 336.53217263 320.34179688 335.01367188 C320.69693359 334.28341797 321.05207031 333.55316406 321.41796875 332.80078125 C321.74563232 332.14247314 322.0732959 331.48416504 322.41088867 330.8059082 C323.26356843 328.79928803 323.26356843 328.79928803 322 326 C319.93459279 324.65390368 317.91699747 323.47081174 315.75 322.3125 C314.46255146 321.60074653 313.17611401 320.88716149 311.890625 320.171875 C310.91125977 319.62950195 310.91125977 319.62950195 309.91210938 319.07617188 C300.01499372 313.50588513 290.52971362 307.17216834 281 301 C281.66021569 294.745325 283.37903204 288.99162839 285.25 283 C285.56573975 281.97471191 285.88147949 280.94942383 286.20678711 279.89306641 C287.91989015 274.36083576 289.69655163 268.85736295 291.5625 263.375 C293.85099258 256.63666073 295.77965193 249.81954479 297.69946289 242.96826172 C299.52281134 236.52052936 301.56510195 230.17846095 303.7409668 223.84228516 C306.0947823 216.90838529 308.07778174 209.88006831 309.99609375 202.81445312 C310.22941406 201.96947266 310.46273438 201.12449219 310.703125 200.25390625 C311.00718262 199.12964233 311.00718262 199.12964233 311.31738281 197.98266602 C312 196 312 196 314 193 C317.02050781 192.15725708 317.02050781 192.15725708 320.953125 191.48876953 C321.66887192 191.3629097 322.38461884 191.23704987 323.12205505 191.1073761 C324.6790087 190.83403482 326.23687688 190.56586449 327.79550171 190.30221939 C330.27185482 189.87907811 332.74311248 189.43350187 335.21411133 188.98019409 C342.240539 187.69139348 349.26765075 186.41211287 356.31201172 185.22460938 C360.62253831 184.49624443 364.92060206 183.71483642 369.2154541 182.8993187 C370.84484937 182.60007039 372.47790979 182.32004657 374.11413574 182.0607338 C383.08567907 180.62998261 389.31756577 179.10565303 394.86352539 171.52514648 C396.31724273 169.38600557 397.65559612 167.21296184 399 165 C400.15229408 163.37476812 401.31464586 161.75650745 402.49609375 160.15234375 C403.47951732 158.74946253 404.46010007 157.34458457 405.4375 155.9375 C406.43569417 154.50876251 407.43437568 153.08036534 408.43359375 151.65234375 C408.85697021 151.04382568 409.28034668 150.43530762 409.71655273 149.80834961 C411.10889573 147.84656826 412.55660337 145.92452884 414 144 C305.76 143.67 197.52 143.34 86 143 C86 138.05 86 133.1 86 128 C88.6242554 127.99780016 88.6242554 127.99780016 91.30152607 127.99555588 C132.79732066 127.9598819 174.29304504 127.90368137 215.78877591 127.82207905 C220.89214264 127.81206115 225.99550968 127.8022171 231.09887695 127.79248047 C232.11489904 127.7905391 233.13092114 127.78859772 234.17773177 127.78659752 C250.64594469 127.75554565 267.11414365 127.73858799 283.58238033 127.72680578 C300.47047005 127.7144107 317.35848636 127.68694659 334.24652976 127.64538693 C344.67395028 127.62020435 355.10124913 127.60688618 365.52870049 127.60857043 C372.67159952 127.6086001 379.81437426 127.59404091 386.95722488 127.56783572 C391.08314209 127.5531351 395.20880443 127.54503321 399.3347435 127.55419731 C403.10810956 127.56243689 406.88096179 127.55246151 410.6542513 127.52766338 C412.67412163 127.51922182 414.6940443 127.53057087 416.71389705 127.54249835 C418.49938851 127.52532697 418.49938851 127.52532697 420.32095051 127.50780869 C421.35265065 127.5062898 422.38435078 127.50477092 423.44731456 127.50320601 C426.12857466 127.22673665 426.12857466 127.22673665 427.83002013 125.10984445 C429.20400651 122.63211162 429.39442879 121.05449767 429.43237305 118.23144531 C429.46206429 116.82043549 429.46206429 116.82043549 429.49235535 115.38092041 C429.49874527 114.37349792 429.50513519 113.36607544 429.51171875 112.328125 C429.52966995 111.29057068 429.54762115 110.25301636 429.56611633 109.184021 C429.62026377 105.8727219 429.65412985 102.56156733 429.6875 99.25 C429.72066909 97.00388612 429.75515836 94.75779132 429.79101562 92.51171875 C429.87599271 87.00794209 429.94432387 81.50414683 430 76 C427.34088878 76.74531529 424.68178716 77.49066477 422.02270508 78.23608398 C419.74679798 78.87337722 417.47059026 79.50959781 415.1940918 80.14477539 C409.97108385 81.60264218 404.75054618 83.06596408 399.54296875 84.578125 C398.73585449 84.80991455 397.92874023 85.0417041 397.09716797 85.28051758 C395.61648824 85.70630398 394.13750903 86.13806743 392.66064453 86.5769043 C386.27958437 88.39818776 381.70161292 88.75203755 375.7421875 85.6640625 C374.78699219 85.17679687 373.83179688 84.68953125 372.84765625 84.1875 C371.86667969 83.671875 370.88570313 83.15625 369.875 82.625 C368.88628906 82.11710937 367.89757812 81.60921875 366.87890625 81.0859375 C365.04259271 80.14168967 363.20879369 79.19252351 361.37841797 78.23681641 C360.59354004 77.82866699 359.80866211 77.42051758 359 77 C358.0721167 76.39357666 358.0721167 76.39357666 357.12548828 75.77490234 C351.3569653 73.67183642 344.6914031 76.99767754 339.21484375 79.01171875 C337.53344608 79.61070847 335.85179773 80.2089949 334.16992188 80.80664062 C331.54480893 81.74715226 328.92208099 82.69314368 326.3034668 83.65161133 C323.75863805 84.57970854 321.20651313 85.48470269 318.65234375 86.38671875 C317.87406723 86.6782634 317.09579071 86.96980804 316.29393005 87.27018738 C315.55618851 87.52738052 314.81844696 87.78457367 314.05834961 88.04956055 C313.09740639 88.39811348 313.09740639 88.39811348 312.11705017 88.75370789 C307.24823197 89.32013354 302.70029452 86.45798745 298.51147461 84.25024414 C297.45854721 83.69949722 296.40561981 83.14875031 295.32078552 82.58131409 C294.19269974 81.988582 293.06461395 81.39584991 291.90234375 80.78515625 C289.46764763 79.52511264 287.02956988 78.27165661 284.59179688 77.01757812 C280.77907949 75.05478189 276.97110636 73.08441964 273.18041992 71.0793457 C258.10503467 63.11790297 244.33782717 56.7846938 227 56 C227 51.05 227 46.1 227 41 C229.79233226 41.11558674 232.58347 41.24228067 235.375 41.375 C236.53708984 41.42140625 236.53708984 41.42140625 237.72265625 41.46875 C249.01113635 42.02850934 257.48503784 44.85273152 267.47265625 50.171875 C269.24985687 51.09051683 271.02707403 52.00912818 272.8052206 52.92593765 C277.14841979 55.16966554 281.47790975 57.439252 285.79907227 59.72509766 C288.23837712 61.01415447 290.68425257 62.28882771 293.13853455 63.5491333 C295.43830329 64.73129812 297.72739031 65.9345449 300.00367737 67.16131592 C306.57268246 70.59258511 306.57268246 70.59258511 313.77197266 70.55957031 C315.93826551 69.87756892 315.93826551 69.87756892 318 69 C318.66009567 68.74829041 319.32019135 68.49658081 320.00028992 68.23724365 C322.01793837 67.43162566 323.99994798 66.56270589 325.98828125 65.6875 C351.52571314 55.1594296 351.52571314 55.1594296 361.38484192 58.5329895 C368.14342477 61.35266279 374.24854575 65.26645587 380.10864258 69.63793945 C386.94015391 72.85612756 395.71304636 68.82751453 402.578125 66.83984375 C404.21161896 66.37584923 404.21161896 66.37584923 405.87811279 65.90248108 C409.33701882 64.91970127 412.7937131 63.92944856 416.25 62.9375 C420.81601678 61.62809034 425.38397228 60.32576182 429.953125 59.02734375 C431.00107239 58.72424789 432.04901978 58.42115204 433.12872314 58.10887146 C434.10363708 57.83180862 435.07855103 57.55474579 436.08300781 57.26928711 C436.93824036 57.02359482 437.7934729 56.77790253 438.67462158 56.52476501 C441 56 441 56 445 56 C445.28014152 65.24107053 445.49229065 74.48064372 445.62174606 83.72505951 C445.6839355 88.01958438 445.76801488 92.31117052 445.90527344 96.60400391 C446.96291463 130.57010884 446.96291463 130.57010884 437.66117859 140.6164856 C436.60177392 141.65776037 435.52247855 142.67936316 434.42022705 143.6751709 C432.50562218 145.46117001 431.1013394 147.47123727 429.66015625 149.6484375 C429.22421143 150.27137695 428.7882666 150.89431641 428.33911133 151.53613281 C427.91782959 152.14295898 427.49654785 152.74978516 427.0625 153.375 C422.37464373 160.07216117 417.61698561 166.71468303 412.80297852 173.32177734 C412.30725342 174.00449707 411.81152832 174.6872168 411.30078125 175.390625 C410.80154648 176.05942184 410.30231171 176.72821869 409.78794861 177.4172821 C407.9121005 180.03245708 407.9121005 180.03245708 406.27319336 183.1415863 C402.91452354 188.87852731 400.27759593 193.21605116 393.61254883 195.27679539 C390.08141613 196.13313008 386.5346616 196.75271257 382.94921875 197.33203125 C381.40136812 197.62269214 379.85439921 197.91808399 378.30830383 198.21794128 C374.26848957 198.98799654 370.21988134 199.69194231 366.16583252 200.38250732 C362.03440484 201.09931333 357.91562823 201.88256631 353.79492188 202.65820312 C347.78132265 203.77865673 341.76472907 204.87878496 335.73706055 205.92114258 C334.52954636 206.13064041 333.32203217 206.34013824 332.07792664 206.5559845 C329 207 329 207 325 207 C324.77779785 208.29292969 324.5555957 209.58585938 324.32666016 210.91796875 C322.72943107 218.87639843 320.18359849 226.57214461 317.7734375 234.3125 C317.26011933 235.9747772 316.74732076 237.63721492 316.23501587 239.29980469 C314.89440626 243.64690037 313.54841306 247.99230738 312.20074463 252.33721924 C310.03581961 259.31845834 307.87693017 266.30155471 305.72230911 273.28598022 C304.9692451 275.72311419 304.21249145 278.15908102 303.45541382 280.5949707 C302.99666902 282.07889652 302.53805382 283.5628624 302.07958984 285.046875 C301.7617025 286.06448158 301.7617025 286.06448158 301.43739319 287.10264587 C300.35822904 290.48870354 300.35822904 290.48870354 300 294 C301.75800171 295.30996948 301.75800171 295.30996948 304.07421875 296.58203125 C304.96020752 297.09580322 305.84619629 297.6095752 306.7590332 298.13891602 C307.72542725 298.69119873 308.69182129 299.24348145 309.6875 299.8125 C311.69617667 300.98289313 313.7039656 302.15481095 315.7109375 303.328125 C316.74702148 303.93205078 317.78310547 304.53597656 318.85058594 305.15820312 C323.86126327 308.0884783 328.84797764 311.05473355 333.8125 314.0625 C334.71895264 314.59786377 335.62540527 315.13322754 336.55932617 315.68481445 C337.39181885 316.19230225 338.22431152 316.69979004 339.08203125 317.22265625 C339.81655518 317.66359619 340.5510791 318.10453613 341.30786133 318.55883789 C343.40822778 320.34767978 343.63484271 321.29389055 344 324 C343.39703369 325.95869446 343.39703369 325.95869446 342.36035156 328.03637695 C341.97492691 328.82361145 341.58950226 329.61084595 341.19239807 330.42193604 C340.76281296 331.26882996 340.33322784 332.11572388 339.890625 332.98828125 C339.45294296 333.87457214 339.01526093 334.76086304 338.5643158 335.67401123 C337.13688125 338.55894152 335.69336025 341.43550962 334.25 344.3125 C333.26470854 346.29874187 332.2807423 348.28564167 331.2980957 350.27319336 C329.37925363 354.15252242 327.45571189 358.02945172 325.52783203 361.90429688 C322.69747282 367.6001298 319.91945821 373.31873517 317.1875 379.0625 C316.78265381 379.91126709 316.37780762 380.76003418 315.96069336 381.63452148 C313.40625408 387.004383 310.87773075 392.38633456 308.3515625 397.76953125 C308.02052017 398.47451248 307.68947784 399.17949371 307.34840393 399.90583801 C305.7404491 403.33038595 304.13439251 406.75577918 302.53393555 410.18383789 C295.18220674 425.86965108 287.56011721 441.40725825 280 457 C255.25 457 230.5 457 205 457 C205 454.36 205 451.72 205 449 C200.05 449 195.1 449 190 449 C190 451.64 190 454.28 190 457 C189.34426498 456.95257156 188.68852997 456.90514313 188.01292419 456.85627747 C158.46986084 453.15284486 158.46986084 453.15284486 131.13232422 460.32666016 C125.66120314 466.36261965 123.37746623 473.55962612 121.19287109 481.29003906 C119.24126058 487.35976347 115.96865015 492.56825371 112.6875 498 C111.62382859 499.87212416 110.56478029 501.74688735 109.51171875 503.625 C108.07827096 506.16071517 106.61814793 508.57277811 105 511 C99.68753591 510.44690228 94.92302209 509.53400699 89.80883789 507.91455078 C89.13937637 507.70464508 88.46991486 507.49473938 87.78016663 507.2784729 C85.59219802 506.59064635 83.40746345 505.89310906 81.22265625 505.1953125 C79.68641753 504.71010021 78.14999135 504.22548106 76.61338806 503.74142456 C72.5822709 502.46971397 68.5538619 501.18962577 64.52593994 499.90783691 C60.44673509 498.61153897 56.36480092 497.32389511 52.28320312 496.03515625 C46.29434123 494.14231888 40.30616442 492.24734355 34.32055664 490.34423828 C33.1211293 489.96308868 31.92170197 489.58193909 30.68592834 489.1892395 C26.44781426 487.82184106 22.22471899 486.40823966 18 485 C18 474.77 18 464.54 18 454 C16.35 453.67 14.7 453.34 13 453 C10.65490341 452.15469436 8.34882794 451.27833698 6.03833008 450.34790039 C5.01792885 449.94285027 5.01792885 449.94285027 3.97691345 449.52961731 C1.73935267 448.63999345 -0.4956267 447.74408586 -2.73046875 446.84765625 C-4.28785787 446.2258825 -5.8453391 445.6043394 -7.40290833 444.98301697 C-10.66127583 443.68204347 -13.91834396 442.3778805 -17.17456055 441.0715332 C-21.35184434 439.39603319 -25.53250353 437.72914641 -29.71419811 436.06469059 C-32.92835167 434.78413655 -36.14055525 433.49874967 -39.35219765 432.21191216 C-40.893379 431.59514182 -42.43519644 430.97995848 -43.9776516 430.36638069 C-46.12929631 429.50970279 -48.27820155 428.64648893 -50.42651367 427.78149414 C-51.65053391 427.29153458 -52.87455414 426.80157501 -54.13566589 426.29676819 C-57 425 -57 425 -59 423 C-58.43290565 421.3253643 -58.43290565 421.3253643 -57.85435486 419.61689758 C-54.29489557 409.1006182 -50.74808396 398.58014819 -47.21364498 388.05543232 C-45.39610006 382.6445654 -43.57411558 377.23527895 -41.74194336 371.8293457 C-39.97431406 366.61331239 -38.21840263 361.39346997 -36.47058296 356.17076683 C-35.80134402 354.17784366 -35.1278784 352.18633473 -34.45014763 350.19628334 C-33.50236547 347.41091822 -32.56967015 344.62092554 -31.64038086 341.8293457 C-31.35626343 341.00575562 -31.072146 340.18216553 -30.77941895 339.33361816 C-29.42590559 335.21378705 -28.49582307 332.25524764 -30 328 C-31.109094 325.8238175 -31.109094 325.8238175 -32.5546875 323.734375 C-33.08126953 322.93580078 -33.60785156 322.13722656 -34.15039062 321.31445312 C-34.71951172 320.46818359 -35.28863281 319.62191406 -35.875 318.75 C-37.07056376 316.94287454 -38.26587238 315.13558025 -39.4609375 313.328125 C-40.0600293 312.42771484 -40.65912109 311.52730469 -41.27636719 310.59960938 C-44.16147566 306.24824465 -46.98548099 301.85777287 -49.80712891 297.46508789 C-52.36553752 293.49257537 -54.96683937 289.55388103 -57.609375 285.63671875 C-58.21458984 284.73050781 -58.81980469 283.82429688 -59.44335938 282.890625 C-60.62714514 281.11942555 -61.82083512 279.35479662 -63.02539062 277.59765625 C-63.55841797 276.79585938 -64.09144531 275.9940625 -64.640625 275.16796875 C-65.36040527 274.10485474 -65.36040527 274.10485474 -66.09472656 273.02026367 C-67 271 -67 271 -66.78417969 268.91748047 C-65.50304852 265.78485151 -63.21739897 263.44284874 -61 260.9375 C-59.99922857 259.78191763 -58.99924126 258.62565578 -58 257.46875 C-57.24589844 256.60056641 -57.24589844 256.60056641 -56.4765625 255.71484375 C-54.2740724 253.15692535 -52.13599228 250.55128002 -50 247.9375 C-49.29875 247.08027344 -48.5975 246.22304687 -47.875 245.33984375 C-46.946875 244.18162109 -46.946875 244.18162109 -46 243 C-45.4706636 242.41521881 -44.94132721 241.83043762 -44.39595032 241.22793579 C-42.5651807 238.30602869 -42.68926232 236.4447593 -42.78979492 233.01318359 C-42.81518845 231.80447601 -42.84058197 230.59576843 -42.866745 229.35043335 C-42.90427383 228.04627472 -42.94180267 226.74211609 -42.98046875 225.3984375 C-43.00879918 223.34018379 -43.02700105 221.28197684 -43.04526997 219.22361183 C-43.09100151 214.1554566 -43.1584761 209.0898785 -43.31860352 204.02392578 C-44.08855184 178.47632981 -44.08855184 178.47632981 -39.22290039 173.10180664 C-36.36562387 170.7678972 -33.26624816 169.24296882 -29.87167358 167.83581543 C-26.9180972 166.51686498 -24.44367339 164.61114885 -21.84765625 162.69921875 C-19.91991615 161.36104906 -17.99153949 160.02379588 -16.0625 158.6875 C-11.76911706 155.71110479 -11.76911706 155.71110479 -7.50463867 152.69360352 C-5 151 -5 151 -2.78637695 149.92944336 C-0.58134271 148.79873569 0.57808058 148.04480186 2 146 C2.99764229 141.07460161 2.98110641 136.19148493 2.9375 131.1875 C2.95061712 129.81311726 2.96686109 128.43876059 2.98632812 127.06445312 C3.02165385 123.70850949 3.01918176 120.35594231 3 117 C2.14227997 116.9492482 1.28455994 116.8984964 0.40084839 116.84620667 C-7.86819766 116.31284385 -15.99139095 115.40635862 -24.1796875 114.15234375 C-25.35846466 113.97619034 -26.53724182 113.80003693 -27.7517395 113.61854553 C-31.46026457 113.06319551 -35.16762779 112.50048923 -38.875 111.9375 C-41.41268675 111.55615009 -43.95044663 111.1752865 -46.48828125 110.79492188 C-52.65970922 109.86889121 -58.8302047 108.9368435 -65 108 C-65.4196791 99.48994624 -65.73809095 90.98429796 -65.93261909 82.46641254 C-66.0260655 78.50925915 -66.15234624 74.55924258 -66.35791016 70.60620117 C-67.64579809 45.17807683 -67.64579809 45.17807683 -63.32019043 38.34735107 C-59.27508354 34.15994391 -54.65384357 31.57959355 -49.39468384 29.18969727 C-45.24888115 27.13003075 -41.67769894 24.28702233 -38 21.5 C-36.52067905 20.42630397 -35.03919154 19.35558086 -33.5546875 18.2890625 C-32.81444336 17.75442383 -32.07419922 17.21978516 -31.31152344 16.66894531 C-28.87740375 14.91148416 -26.44265944 13.15489092 -24.0078125 11.3984375 C-23.19054688 10.80869141 -22.37328125 10.21894531 -21.53125 9.61132812 C-19.96636346 8.48212022 -18.40127044 7.35319839 -16.8359375 6.22460938 C-16.12953125 5.71478516 -15.423125 5.20496094 -14.6953125 4.6796875 C-14.07672363 4.23351074 -13.45813477 3.78733398 -12.82080078 3.32763672 C-10.93473441 2.01605777 -10.93473441 2.01605777 -9.20654297 0.27001953 C-5.86053615 -1.655841 -3.68486215 -0.87875077 0 0 Z " fill="#010000" transform="translate(67,1)"/>
<path d="M0 0 C2.23673771 0.90084419 4.44300048 1.87944878 6.62109375 2.9140625 C7.24291031 3.20679047 7.86472687 3.49951843 8.50538635 3.80111694 C10.48613443 4.73546331 12.46185211 5.67992484 14.4375 6.625 C15.7281877 7.23636985 17.0192013 7.8470522 18.31054688 8.45703125 C18.94948883 8.75929626 19.58843079 9.06156128 20.24673462 9.37298584 C21.53719405 9.9833347 22.82786371 10.59323928 24.1187439 11.20269775 C27.48460983 12.79511067 30.83745191 14.40917144 34.17626953 16.05761719 C35.52504971 16.71292232 36.87384477 17.3681968 38.22265625 18.0234375 C38.84434189 18.33713287 39.46602753 18.65082825 40.10655212 18.97402954 C43.42901734 20.58945483 43.42901734 20.58945483 47.0478363 20.82559204 C49.67720739 19.71360136 50.14473939 18.519151 51.359375 15.96484375 C51.75253906 15.15595703 52.14570312 14.34707031 52.55078125 13.51367188 C52.94652344 12.66353516 53.34226562 11.81339844 53.75 10.9375 C54.36681641 9.65649414 54.36681641 9.65649414 54.99609375 8.34960938 C56.01022816 6.23879474 57.01075729 4.12256526 58 2 C65.5250363 1.77092973 73.04916743 1.61383457 80.5769043 1.50561523 C83.13486323 1.46048335 85.69259164 1.39916002 88.24975586 1.32104492 C91.93661431 1.21127856 95.6203939 1.16070028 99.30859375 1.12109375 C100.44332626 1.07464218 101.57805878 1.02819061 102.74717712 0.98033142 C107.51645482 0.97733074 110.72993029 1.06872076 114.65237427 3.94485474 C116.91155063 6.20449099 118.94852517 8.55306015 121 11 C122.26683928 12.15288595 123.55475775 13.28367595 124.875 14.375 C127.30366249 16.40286161 129.3459572 18.40184689 131.41796875 20.80859375 C132.07466553 21.55133545 132.07466553 21.55133545 132.74462891 22.30908203 C133.99208981 23.73217656 135.20240066 25.18758816 136.41015625 26.64453125 C141.48516019 30.80855573 148.7273057 30.45918142 155 31 C157.15498501 31.20325628 159.30984207 31.4078717 161.46459961 31.61352539 C168.95271025 32.31738436 176.44476834 32.97251522 183.9375 33.625 C186.56708429 33.85646436 189.19664184 34.08823265 191.82617188 34.3203125 C198.21714378 34.8837143 204.60843601 35.4433575 211 36 C211 33.69 211 31.38 211 29 C215.95 29.33 220.9 29.66 226 30 C226 32.64 226 35.28 226 38 C227.73987183 37.95008911 227.73987183 37.95008911 229.51489258 37.89916992 C241.61574225 38.05657068 251.23365364 41.36612172 261.82421875 46.86328125 C262.46687809 47.19623074 263.10953743 47.52918022 263.7716713 47.87221909 C268.43615016 50.30474348 273.06400738 52.80318829 277.6875 55.3125 C282.35399313 57.8408074 287.03129003 60.34435254 291.73801613 62.79704857 C293.59337014 63.77786538 295.42462811 64.79558775 297.25773621 65.81721497 C304.46781556 69.69521252 304.46781556 69.69521252 312.33398438 69.05834961 C313.90362432 68.40561359 315.46042253 67.72078783 317 67 C318.35619915 66.52836602 319.71784334 66.07200892 321.08520508 65.63378906 C322.39705708 65.17891493 323.70849319 64.72283978 325.01953125 64.265625 C326.46788513 63.76890731 327.91645925 63.27283144 329.36523438 62.77734375 C331.60331389 62.01066514 333.83985785 61.24043258 336.07299805 60.45947266 C338.25985068 59.69620236 340.45149188 58.94840177 342.64453125 58.203125 C343.309189 57.96676331 343.97384674 57.73040161 344.65864563 57.48687744 C351.01485343 55.355214 354.60322324 56.62852425 360.44921875 59.46875 C361.96805664 60.20158203 361.96805664 60.20158203 363.51757812 60.94921875 C365.08668945 61.71685547 365.08668945 61.71685547 366.6875 62.5 C367.74517578 63.01175781 368.80285156 63.52351563 369.89257812 64.05078125 C373.26892217 65.68609677 376.64450629 67.32225314 380 69 C387.76424007 68.99024593 395.11488681 66.79129987 402.5 64.625 C403.56347656 64.32078125 404.62695312 64.0165625 405.72265625 63.703125 C409.78189099 62.53765147 413.83588511 61.36358766 417.8671875 60.10449219 C418.74632812 59.83024414 419.62546875 59.55599609 420.53125 59.2734375 C421.68463867 58.90484619 421.68463867 58.90484619 422.86132812 58.52880859 C425 58 425 58 429 58 C429.10150385 64.60183567 429.17150894 71.20346976 429.21972656 77.8059082 C429.2398294 80.05142741 429.26711605 82.29689435 429.30175781 84.54223633 C429.3503331 87.7717784 429.37298237 91.00062775 429.390625 94.23046875 C429.41127014 95.23272995 429.43191528 96.23499115 429.45318604 97.2676239 C429.45348816 98.20822159 429.45379028 99.14881927 429.45410156 100.11791992 C429.46298401 100.94176682 429.47186646 101.76561371 429.48101807 102.61442566 C428.80456051 105.96926805 427.37782837 107.56428315 425 110 C422.32311606 110.62099248 422.32311606 110.62099248 419.19790268 110.61523914 C418.00558399 110.62519439 416.8132653 110.63514963 415.58481574 110.64540654 C414.27354469 110.63084234 412.96227363 110.61627813 411.61126709 110.60127258 C410.20537781 110.60345247 408.7994905 110.60782948 407.39361405 110.61421841 C403.52585703 110.62541795 399.65879007 110.60537313 395.79112101 110.58032811 C391.62209987 110.5587695 387.4531188 110.56604027 383.28405762 110.56983948 C376.05943301 110.57246339 368.83503389 110.55675363 361.610466 110.52865028 C351.16494649 110.48804395 340.7195362 110.47499601 330.27394632 110.46871033 C313.32742581 110.45776263 296.38102553 110.42447556 279.43457031 110.37719727 C262.97103477 110.33131396 246.50753187 110.29591604 230.04394531 110.2746582 C228.52215391 110.27268778 228.52215391 110.27268778 226.96961924 110.27067754 C221.88011776 110.26415244 216.79061605 110.25783388 211.70111418 110.25161803 C169.46732617 110.19977023 127.23366928 110.11169203 85 110 C85 112.64 85 115.28 85 118 C80.05 118 75.1 118 70 118 C70 115.36 70 112.72 70 110 C52.51 110 35.02 110 17 110 C17 102.08 17 94.16 17 86 C14.03 85.67 11.06 85.34 8 85 C6.29753775 84.79026538 4.59569753 84.57530491 2.89501953 84.3515625 C1.55916306 84.17633057 1.55916306 84.17633057 0.19631958 83.99755859 C-0.73213776 83.87461426 -1.66059509 83.75166992 -2.6171875 83.625 C-3.59615997 83.49561035 -4.57513245 83.3662207 -5.58377075 83.23291016 C-7.63599749 82.96115663 -9.68815117 82.68885088 -11.74023438 82.41601562 C-14.88635442 81.99849315 -18.03300892 81.58516425 -21.1796875 81.171875 C-23.17972177 80.90650819 -25.17972299 80.64089207 -27.1796875 80.375 C-28.12029022 80.25205566 -29.06089294 80.12911133 -30.02999878 80.00244141 C-30.9016568 79.88562012 -31.77331482 79.76879883 -32.67138672 79.6484375 C-33.81980545 79.49640869 -33.81980545 79.49640869 -34.99142456 79.34130859 C-37 79 -37 79 -40 78 C-41.89212737 77.77820215 -43.78884472 77.59385985 -45.6875 77.4375 C-47.17830078 77.31181641 -47.17830078 77.31181641 -48.69921875 77.18359375 C-49.45847656 77.12300781 -50.21773437 77.06242187 -51 77 C-51.25465186 70.73868239 -51.4291067 64.47870857 -51.54931641 58.21337891 C-51.59944674 56.08494175 -51.66757442 53.9568463 -51.75439453 51.82958984 C-52.45517446 34.21115795 -52.45517446 34.21115795 -49.01074219 28.97729492 C-46.43982663 26.90091875 -43.96082613 25.45337967 -41 24 C-39.62830055 23.04154273 -38.27243706 22.05981186 -36.9375 21.05078125 C-35.62747614 20.13447054 -34.31492418 19.22176466 -33 18.3125 C-28.30552633 15.05683545 -23.65884059 11.7665074 -19.11328125 8.3046875 C-18.31083984 7.70100342 -17.50839844 7.09731934 -16.68164062 6.4753418 C-15.13193809 5.30587852 -13.59232705 4.12289004 -12.06445312 2.92504883 C-11.35869141 2.3967749 -10.65292969 1.86850098 -9.92578125 1.32421875 C-9.00406128 0.6139856 -9.00406128 0.6139856 -8.0637207 -0.1105957 C-5.03228173 -1.41705875 -3.16463909 -0.82639558 0 0 Z " fill="#FE6A42" transform="translate(68,19)"/>
<path d="M0 0 C108.57 0 217.14 0 329 0 C327.4769662 4.5691014 325.80525176 8.71032026 323.69140625 12.99609375 C323.20738091 13.98909233 323.20738091 13.98909233 322.71357727 15.00215149 C322.02361889 16.41665229 321.3320001 17.83034419 320.63885498 19.24328613 C319.18446445 22.20814802 317.73827081 25.17698218 316.29156494 28.14559937 C315.56359134 29.63915129 314.83519802 31.13249872 314.10638428 32.62564087 C311.0017527 38.98730294 307.92803219 45.36340445 304.875 51.75 C304.4632251 52.60907959 304.0514502 53.46815918 303.62719727 54.35327148 C300.35216475 61.20713668 297.18410385 68.10110833 294 75 C272.55 75 251.1 75 229 75 C229 77.31 229 79.62 229 82 C224.05 82 219.1 82 214 82 C214 79.69 214 77.38 214 75 C192.55 75 171.1 75 149 75 C148.34 76.65 147.68 78.3 147 80 C145.14912278 83.69170544 143.15913713 87.30906606 141.1875 90.9375 C140.61942627 91.98550781 140.05135254 93.03351563 139.46606445 94.11328125 C133.57711246 104.90012756 127.34052501 115.47375616 121 126 C114.93519463 124.77333013 109.15241049 123.15893768 103.3125 121.125 C96.92126923 118.94782517 90.51834857 116.95406735 84.01171875 115.14453125 C74.9609035 112.59876409 65.98930818 109.74967074 57 107 C56.67 97.1 56.34 87.2 56 77 C53.884729 76.17798096 51.76945801 75.35596191 49.59008789 74.5090332 C42.60995553 71.79312998 35.63853248 69.05541421 28.6712122 66.30682087 C24.44573759 64.64065857 20.21762332 62.98201445 15.98266602 61.34008789 C11.8973536 59.75586808 7.82004961 58.15251222 3.74761772 56.53548241 C2.1909805 55.92134067 0.63156353 55.3141979 -0.93055534 54.71413612 C-3.11499735 53.87365454 -5.28831088 53.00902928 -7.46069336 52.13793945 C-8.43712799 51.772173 -8.43712799 51.772173 -9.43328857 51.39901733 C-11.22227478 50.66426086 -11.22227478 50.66426086 -14 49 C-15.40845684 45.52292764 -15.02927648 43.0932576 -13.84423828 39.60864258 C-13.56709991 38.77460403 -13.28996155 37.94056549 -13.00442505 37.08125305 C-12.69616791 36.19463486 -12.38791077 35.30801666 -12.0703125 34.39453125 C-11.7605246 33.47411545 -11.45073669 32.55369965 -11.13156128 31.60539246 C-10.14056531 28.67049582 -9.13286138 25.74164221 -8.125 22.8125 C-7.45335942 20.82913727 -6.78277411 18.84541686 -6.11328125 16.86132812 C-4.88661034 13.23978966 -3.65751258 9.61915706 -2.41455078 6.00317383 C-2.04029465 4.91326897 -2.04029465 4.91326897 -1.65847778 3.80134583 C-1 2 -1 2 0 0 Z " fill="#FE6A42" transform="translate(43,368)"/>
<path d="M0 0 C4.95 0 9.9 0 15 0 C15 4.95 15 9.9 15 15 C16.93875 14.9175 18.8775 14.835 20.875 14.75 C28.32234934 14.78237978 34.45024845 15.78015101 40.1015625 20.90625 C45.14600244 26.46966524 47.28285672 30.23581357 47.25 37.875 C47.25773437 39.66550781 47.25773437 39.66550781 47.265625 41.4921875 C47 45 47 45 45 51 C51.93 51 58.86 51 66 51 C66.06791752 61.79679593 66.12289779 72.59344876 66.15543652 83.39041042 C66.17105756 88.40447905 66.19223054 93.41839327 66.22631836 98.43237305 C66.25903911 103.27586944 66.27687978 108.1192178 66.28463173 112.96281624 C66.29015247 114.80589183 66.30093294 116.64895981 66.31719017 118.49197197 C66.33913378 121.08393408 66.34195992 123.67529317 66.34057617 126.26733398 C66.351362 127.02043854 66.36214783 127.77354309 66.3732605 128.54946899 C66.30367974 140.68328243 60.55148657 151.02089031 52.41796875 159.671875 C42.56062937 169.16294814 30.37154192 173.10405149 16.875 173.23828125 C15.69997925 173.25038887 15.69997925 173.25038887 14.5012207 173.26274109 C12.84377218 173.27653738 11.18629577 173.28727935 9.52880859 173.29516602 C7.85717259 173.30662442 6.18557137 173.32697766 4.51416016 173.35668945 C-9.94081971 173.61312567 -22.22997345 172.19822941 -34 163 C-34.61359375 162.56042969 -35.2271875 162.12085938 -35.859375 161.66796875 C-44.98081768 154.66544528 -49.72211882 144.018586 -52 133 C-52.6514395 126.62028179 -52.46876274 120.1960687 -52.390625 113.79296875 C-52.38314717 111.97309497 -52.37746155 110.15321303 -52.37347412 108.33332825 C-52.35833901 103.5870771 -52.31916468 98.84133033 -52.2746582 94.09527588 C-52.23344102 89.23481058 -52.21540712 84.37426227 -52.1953125 79.51367188 C-52.15265611 70.00885946 -52.08240849 60.50455095 -52 51 C-41.605 50.505 -41.605 50.505 -31 50 C-31.495 47.525 -31.495 47.525 -32 45 C-32.7606183 37.02795 -33.01863027 30.41068054 -27.921875 23.90625 C-23.09226855 19.11590864 -17.60118959 15.10480761 -10.64453125 14.90234375 C-7.09635417 14.93489583 -3.54817708 14.96744792 0 15 C0 10.05 0 5.1 0 0 Z " fill="#020101" transform="translate(168,164)"/>
<path d="M0 0 C7.37658808 2.05055266 14.40930707 4.6474872 21.484375 7.5625 C22.54360168 7.99506104 23.60282837 8.42762207 24.69415283 8.87329102 C26.91695886 9.78213818 29.13885134 10.69322259 31.35986328 11.60644531 C34.75204758 13.00084168 38.14724431 14.38768771 41.54296875 15.7734375 C43.71111811 16.66101727 45.879093 17.54902338 48.046875 18.4375 C49.05635193 18.85008057 50.06582886 19.26266113 51.105896 19.68774414 C52.05418274 20.07824951 53.00246948 20.46875488 53.97949219 20.87109375 C55.21998322 21.38047485 55.21998322 21.38047485 56.48553467 21.90014648 C59.37156421 23.16252608 62.18251619 24.5912581 65 26 C65 49.43 65 72.86 65 97 C47.18 97 29.36 97 11 97 C1 72 1 72 1 70 C0.27006836 69.87471924 -0.45986328 69.74943848 -1.21191406 69.62036133 C-5.67811035 68.6266131 -9.62215064 66.62146241 -13.75 64.6875 C-14.62527344 64.29626953 -15.50054687 63.90503906 -16.40234375 63.50195312 C-17.23378906 63.11330078 -18.06523437 62.72464844 -18.921875 62.32421875 C-19.68081055 61.97447998 -20.43974609 61.62474121 -21.22167969 61.2644043 C-23 60 -23 60 -23.70236206 58.18415833 C-24.06354109 55.53371603 -23.5863689 54.23854526 -22.54052734 51.7890625 C-22.19621674 50.96720459 -21.85190613 50.14534668 -21.49716187 49.29858398 C-21.11395782 48.41630127 -20.73075378 47.53401855 -20.3359375 46.625 C-19.94685211 45.70468994 -19.55776672 44.78437988 -19.15689087 43.83618164 C-17.90686805 40.8861465 -16.64127494 37.94309057 -15.375 35 C-14.54452361 33.04862332 -13.71508489 31.09680467 -12.88671875 29.14453125 C-11.3014108 25.41139439 -9.70960544 21.68114509 -8.11230469 17.953125 C-5.98094425 12.97103151 -3.90501267 7.96816077 -1.86181641 2.94921875 C-1 1 -1 1 0 0 Z " fill="#010100" transform="translate(447,226)"/>
<path d="M0 0 C1.45428437 0.0396623 2.90799128 0.11093049 4.359375 0.2109375 C5.47699219 0.25154297 5.47699219 0.25154297 6.6171875 0.29296875 C8.44916493 0.36342942 10.27964651 0.47104757 12.109375 0.5859375 C8.09833187 6.68769967 3.95709369 12.67387531 -0.328125 18.5859375 C-0.86244141 19.3284375 -1.39675781 20.0709375 -1.94726562 20.8359375 C-3.00582881 22.29988082 -4.07914635 23.75330507 -5.16915894 25.19398499 C-6.90423836 27.5062731 -6.90423836 27.5062731 -8.14492798 29.84788513 C-11.09713845 34.66419932 -13.90462387 37.00755007 -19.42838097 38.4986887 C-23.25974525 39.36799229 -27.11128025 40.06876549 -30.98046875 40.74609375 C-32.6526004 41.06632518 -34.32411039 41.3898183 -35.99501038 41.71641541 C-40.3705031 42.56265232 -44.75296833 43.36462944 -49.13842773 44.15734863 C-53.62147812 44.97587054 -58.09643014 45.83641994 -62.57226562 46.69335938 C-71.33767446 48.3652102 -80.11103435 49.99036592 -88.890625 51.5859375 C-89.84275144 54.4013896 -90.79144235 57.21792588 -91.73828125 60.03515625 C-92.13690369 61.21217102 -92.13690369 61.21217102 -92.5435791 62.41296387 C-94.3165827 67.6993677 -95.89414098 73.01061359 -97.328125 78.3984375 C-99.12371315 85.04672104 -101.17007371 91.56696965 -103.390625 98.0859375 C-105.83286206 105.25605321 -108.01415364 112.4367861 -109.9699707 119.75317383 C-111.86615776 126.73483678 -114.14626349 133.57393027 -116.48046875 140.41992188 C-119.71029557 149.30520427 -119.71029557 149.30520427 -120.890625 158.5859375 C-118.88062995 160.10375367 -117.02361637 161.26380802 -114.828125 162.4609375 C-113.46521654 163.24056519 -112.10330586 164.02193873 -110.7421875 164.8046875 C-109.98067383 165.2378125 -109.21916016 165.6709375 -108.43457031 166.1171875 C-103.47391211 168.9812297 -98.59432869 171.98040236 -93.703125 174.9609375 C-92.69950928 175.5679248 -91.69589355 176.17491211 -90.66186523 176.80029297 C-89.71255127 177.37666504 -88.7632373 177.95303711 -87.78515625 178.546875 C-86.93800049 179.06040527 -86.09084473 179.57393555 -85.21801758 180.10302734 C-83.02119247 181.50274576 -80.95039419 182.99309682 -78.890625 184.5859375 C-81.4284561 193.46834636 -85.66832151 201.41211957 -89.890625 209.5859375 C-94.510625 209.5859375 -99.130625 209.5859375 -103.890625 209.5859375 C-103.39691406 208.47734375 -102.90320313 207.36875 -102.39453125 206.2265625 C-101.74722829 204.76309493 -101.10010212 203.29954915 -100.453125 201.8359375 C-100.12763672 201.10632813 -99.80214844 200.37671875 -99.46679688 199.625 C-99.15419922 198.91601562 -98.84160156 198.20703125 -98.51953125 197.4765625 C-98.23150635 196.82719727 -97.94348145 196.17783203 -97.64672852 195.50878906 C-96.87854343 193.55521279 -96.35419707 191.63122545 -95.890625 189.5859375 C-109.41701706 181.01855057 -123.14304106 172.79173222 -136.890625 164.5859375 C-136.29579063 159.22543014 -134.99996253 154.53302318 -133.203125 149.4609375 C-130.88189225 142.72205597 -128.80324498 135.95165562 -126.890625 129.0859375 C-124.84783619 121.77399243 -122.59861512 114.57647113 -120.140625 107.39453125 C-118.20340071 101.67366577 -116.51617651 95.90236401 -114.890625 90.0859375 C-112.85092712 82.78764351 -110.60834621 75.60250301 -108.15380859 68.43408203 C-105.04577645 59.25769407 -102.47999507 49.9193261 -99.890625 40.5859375 C-91.83208843 38.45620064 -83.7927431 36.79005162 -75.578125 35.3984375 C-73.13260789 34.95163928 -70.68730822 34.5036499 -68.2421875 34.0546875 C-63.83736782 33.24836451 -59.4314672 32.50624674 -54.99902344 31.8671875 C-32.11695852 29.73666094 -32.11695852 29.73666094 -13.75561523 17.8894043 C-11.43335508 14.25683287 -9.60033869 10.53641943 -7.890625 6.5859375 C-4.99299537 0.75195713 -4.99299537 0.75195713 0 0 Z " fill="#FCC271" transform="translate(469.890625,143.4140625)"/>
<path d="M0 0 C4.83666501 0.71139807 9.09379964 2.52885798 13.58203125 4.37890625 C14.30434937 4.67277222 15.02666748 4.96663818 15.77087402 5.26940918 C18.45339283 6.36226636 21.13276417 7.4628365 23.8125 8.5625 C29.814375 11.016875 35.81625 13.47125 42 16 C42 31.18 42 46.36 42 62 C32.76 62 23.52 62 14 62 C12.865625 58.555625 11.73125 55.11125 10.5625 51.5625 C7.43535466 43.09247774 4.22106091 38.03565335 -4.0625 34.125 C-6.68976653 32.96014953 -9.28458635 31.95398 -12 31 C-11.34794344 26.98709471 -10.0955448 23.55627121 -8.49609375 19.82421875 C-8.00302734 18.66728516 -7.50996094 17.51035156 -7.00195312 16.31835938 C-6.48568359 15.12017578 -5.96941406 13.92199219 -5.4375 12.6875 C-4.9116721 11.45786919 -4.38627697 10.22805322 -3.86132812 8.99804688 C-2.57846336 5.99684948 -1.29121552 2.99761185 0 0 Z " fill="#FDEE88" transform="translate(455,246)"/>
<path d="M0 0 C4.95 0 9.9 0 15 0 C15 31.35 15 62.7 15 95 C10.05 95 5.1 95 0 95 C0 63.65 0 32.3 0 0 Z " fill="#070603" transform="translate(257,223)"/>
<path d="M0 0 C4.95 0 9.9 0 15 0 C15 31.35 15 62.7 15 95 C10.05 95 5.1 95 0 95 C0 63.65 0 32.3 0 0 Z " fill="#040402" transform="translate(79,223)"/>
<path d="M0 0 C12.21 0 24.42 0 37 0 C37 14.52 37 29.04 37 44 C22.6875 44 22.6875 44 16 40 C14.95005859 39.38125 14.95005859 39.38125 13.87890625 38.75 C5.84315934 33.40296236 2.59267778 26.07437224 0 17 C0 11.39 0 5.78 0 0 Z " fill="#F8F8F8" transform="translate(131,278)"/>
<path d="M0 0 C12.21 0 24.42 0 37 0 C37 14.64673222 36.68252034 25.55325793 26.35546875 36.0546875 C17.47972613 43.3849028 11.89314043 44 0 44 C0 29.48 0 14.96 0 0 Z " fill="#FE6A42" transform="translate(183,278)"/>
<path d="M0 0 C12.54 0 25.08 0 38 0 C38 11.22 38 22.44 38 34 C25.46 34 12.92 34 0 34 C0 22.78 0 11.56 0 0 Z " fill="#FEFEFE" transform="translate(182,230)"/>
<path d="M0 0 C12.21 0 24.42 0 37 0 C37 11.22 37 22.44 37 34 C24.79 34 12.58 34 0 34 C0 22.78 0 11.56 0 0 Z " fill="#F96841" transform="translate(131,230)"/>
<path d="M0 0 C4.62 0 9.24 0 14 0 C12.4769662 4.5691014 10.80525176 8.71032026 8.69140625 12.99609375 C8.36872269 13.6580928 8.04603912 14.32009186 7.71357727 15.00215149 C7.02361889 16.41665229 6.3320001 17.83034419 5.63885498 19.24328613 C4.18446445 22.20814802 2.73827081 25.17698218 1.29156494 28.14559937 C0.56359134 29.63915129 -0.16480198 31.13249872 -0.89361572 32.62564087 C-3.9982473 38.98730294 -7.07196781 45.36340445 -10.125 51.75 C-10.5367749 52.60907959 -10.9485498 53.46815918 -11.37280273 54.35327148 C-14.64783525 61.20713668 -17.81589615 68.10110833 -21 75 C-42.45 75 -63.9 75 -86 75 C-86 74.67 -86 74.34 -86 74 C-60.755 73.505 -60.755 73.505 -35 73 C-21.10812399 44.66363799 -21.10812399 44.66363799 -7.375 16.25 C-6.95758545 15.37980225 -6.5401709 14.50960449 -6.11010742 13.61303711 C-3.96581866 9.11627178 -1.92834998 4.593649 0 0 Z " fill="#F52902" transform="translate(358,368)"/>
<path d="M0 0 C1.27006897 -0.00574036 1.27006897 -0.00574036 2.5657959 -0.01159668 C4.35100498 -0.01431139 6.13625413 -0.00698106 7.92138672 0.00976562 C10.64771539 0.03118295 13.37140915 0.00995047 16.09765625 -0.015625 C17.83594329 -0.01298164 19.5742287 -0.0078565 21.3125 0 C22.12408569 -0.00809692 22.93567139 -0.01619385 23.77185059 -0.02453613 C27.70531357 0.04035471 29.71943477 0.26276984 33.14648438 2.36914062 C36.01919183 5.45960433 36.15625 7.32196485 36.15625 11.53125 C35.16625 14.83125 34.17625 18.13125 33.15625 21.53125 C18.30625 21.53125 3.45625 21.53125 -11.84375 21.53125 C-14.175 12.20625 -14.175 12.20625 -14.28125 8.78125 C-14.32121094 8.06453125 -14.36117187 7.3478125 -14.40234375 6.609375 C-12.56672089 -0.21965549 -5.77467308 -0.05761202 0 0 Z " fill="#FB6941" transform="translate(164.84375,193.46875)"/>
<path d="M0 0 C0.10150385 6.60183567 0.17150894 13.20346976 0.21972656 19.8059082 C0.2398294 22.05142741 0.26711605 24.29689435 0.30175781 26.54223633 C0.3503331 29.7717784 0.37298237 33.00062775 0.390625 36.23046875 C0.41127014 37.23272995 0.43191528 38.23499115 0.45318604 39.2676239 C0.45459188 43.64440831 0.40853875 46.28472378 -1.79492188 50.14257812 C-4.94500483 52.79601381 -7.83868004 52.55279849 -11.75 52.3125 C-12.44738281 52.28994141 -13.14476562 52.26738281 -13.86328125 52.24414062 C-15.57644935 52.18547048 -17.28850623 52.09579256 -19 52 C-15.125 45.125 -15.125 45.125 -14 44 C-13.91128727 40.97022196 -13.8848065 37.96332978 -13.90234375 34.93359375 C-13.90446617 33.57065941 -13.90446617 33.57065941 -13.90663147 32.18019104 C-13.91224807 29.26592779 -13.92480335 26.35174019 -13.9375 23.4375 C-13.94251286 21.46679798 -13.94707614 19.49609476 -13.95117188 17.52539062 C-13.96222289 12.68356441 -13.97949862 7.84179505 -14 3 C-12.4188708 2.49307308 -10.83498617 1.99473557 -9.25 1.5 C-8.36828125 1.2215625 -7.4865625 0.943125 -6.578125 0.65625 C-4 0 -4 0 0 0 Z " fill="#F62800" transform="translate(497,77)"/>
<path d="M0 0 C5 1 5 1 13 4 C13 19.18 13 34.36 13 50 C8.71 50 4.42 50 0 50 C0 33.5 0 17 0 0 Z " fill="#FAC170" transform="translate(484,258)"/>
<path d="M0 0 C12.21 0 24.42 0 37 0 C37 14.70857258 36.65249236 25.47214597 26.38671875 36.05078125 C22.08554563 39.56352329 17.28017151 42.2650865 12 44 C9.640625 43.6484375 9.640625 43.6484375 8 43 C8.86625 42.38125 9.7325 41.7625 10.625 41.125 C17.5374326 35.34012733 22.32418442 25.79055787 23.21386719 16.85107422 C23.61735598 11.56622503 23.80362772 6.30205155 24 1 C16.08 1 8.16 1 0 1 C0 0.67 0 0.34 0 0 Z " fill="#EE2801" transform="translate(183,278)"/>
<path d="M0 0 C0.33 0 0.66 0 1 0 C1 10.89 1 21.78 1 33 C8.92 33 16.84 33 25 33 C25 22.11 25 11.22 25 0 C29.29 0 33.58 0 38 0 C38 11.22 38 22.44 38 34 C25.46 34 12.92 34 0 34 C0 22.78 0 11.56 0 0 Z " fill="#ACC3D4" transform="translate(182,230)"/>
<path d="M0 0 C4.50172909 -0.35307679 7.92625304 -0.55924321 12 1.5625 C14.71842917 4.87558555 15 6.70555978 15 11 C14.20192473 14.43824882 13.14690229 17.65104531 12 21 C8.04 21 4.08 21 0 21 C0.165 19.88625 0.33 18.7725 0.5 17.625 C1.22752817 11.79438137 1.87548708 5.62646123 0 0 Z " fill="#F72800" transform="translate(186,194)"/>
</svg>
